M48
; DRILL file {KiCad (6.0.0)} date Mon Feb 21 16:19:52 2022
; FORMAT={-:-/ absolute / inch / decimal}
; #@! TF.CreationDate,2022-02-21T16:19:52-05:00
; #@! TF.GenerationSoftware,Kicad,Pcbnew,(6.0.0)
; #@! TF.FileFunction,Plated,1,2,PTH
FMAT,2
INCH
; #@! TA.AperFunction,Plated,PTH,ViaDrill
T1C0.0157
; #@! TA.AperFunction,Plated,PTH,ComponentDrill
T2C0.0295
; #@! TA.AperFunction,Plated,PTH,ComponentDrill
T3C0.0315
; #@! TA.AperFunction,Plated,PTH,ComponentDrill
T4C0.0394
; #@! TA.AperFunction,Plated,PTH,ComponentDrill
T5C0.0630
%
G90
G05
T1
X2.3539Y-2.3578
T2
X0.8367Y-0.9803
X0.8709Y-1.5371
X0.8867Y-0.9803
X0.9209Y-1.5371
X0.9367Y-0.9803
X0.9709Y-1.5371
T3
X1.4848Y-0.9512
X1.4848Y-1.8192
X1.5635Y-0.9512
X1.5635Y-1.8192
X1.6423Y-0.9512
X1.6423Y-1.8192
X1.721Y-0.9512
X1.721Y-1.8192
X1.7997Y-0.9512
X1.7997Y-1.8192
X1.8785Y-0.9512
X1.8785Y-1.8192
X1.9572Y-0.9512
X1.9572Y-1.8192
X2.036Y-0.9512
X2.036Y-1.8192
X2.1147Y-0.9512
X2.1147Y-1.8192
X2.1934Y-0.9512
X2.1934Y-1.8192
T4
X0.8425Y-1.2552
X0.9425Y-1.2552
X1.1451Y-0.6362
X1.1451Y-0.7362
X1.2451Y-0.6362
X1.2451Y-0.7362
X1.3451Y-0.6362
X1.3451Y-0.7362
X1.4259Y-2.1088
X1.4259Y-2.2088
X1.4259Y-2.3088
X1.4259Y-2.4088
X1.4259Y-2.5088
X1.4259Y-2.6088
X1.4259Y-2.7088
X1.4451Y-0.6362
X1.4451Y-0.7362
X1.5451Y-0.6362
X1.5451Y-0.7362
X1.6451Y-0.6362
X1.6451Y-0.7362
X1.7451Y-0.6362
X1.7451Y-0.7362
X1.8451Y-0.6362
X1.8451Y-0.7362
X1.9451Y-0.6362
X1.9451Y-0.7362
X2.0451Y-0.6362
X2.0451Y-0.7362
X2.1451Y-0.6362
X2.1451Y-0.7362
X2.2451Y-0.6362
X2.2451Y-0.7362
X2.2479Y-2.0678
X2.2479Y-2.1678
X2.3451Y-0.6362
X2.3451Y-0.7362
X2.4451Y-0.6362
X2.4451Y-0.7362
X2.5439Y-2.5688
X2.5451Y-0.6362
X2.5451Y-0.7362
X2.5469Y-2.0684
X2.5871Y-1.1398
X2.5871Y-1.2398
X2.5871Y-1.3398
X2.5871Y-1.4398
X2.5871Y-1.5398
X2.5871Y-1.6398
X2.6439Y-2.5688
X2.6451Y-0.6362
X2.6451Y-0.7362
X2.6469Y-2.0684
X2.7439Y-2.5688
X2.7451Y-0.6362
X2.7451Y-0.7362
X2.7469Y-2.0684
X2.8439Y-2.5688
X2.8451Y-0.6362
X2.8451Y-0.7362
X2.8469Y-2.0684
X2.9439Y-2.5688
X2.9451Y-0.6362
X2.9451Y-0.7362
X2.9469Y-2.0684
X3.0439Y-2.5688
X3.0451Y-0.6362
X3.0451Y-0.7362
X3.0469Y-2.0684
X3.2879Y-1.2428
X3.2879Y-1.3428
X3.2879Y-1.4428
X3.2879Y-1.5428
T5
X0.9621Y-2.0964
X0.9621Y-2.2342
T0
M30
