%TF.GenerationSoftware,KiCad,Pcbnew,(6.0.0)*%
%TF.CreationDate,2022-02-21T15:29:33-05:00*%
%TF.ProjectId,RocketHat,526f636b-6574-4486-9174-2e6b69636164,V1.0*%
%TF.SameCoordinates,Original*%
%TF.FileFunction,Copper,L1,Top*%
%TF.FilePolarity,Positive*%
%FSLAX46Y46*%
G04 Gerber Fmt 4.6, Leading zero omitted, Abs format (unit mm)*
G04 Created by KiCad (PCBNEW (6.0.0)) date 2022-02-21 15:29:33*
%MOMM*%
%LPD*%
G01*
G04 APERTURE LIST*
G04 Aperture macros list*
%AMRoundRect*
0 Rectangle with rounded corners*
0 $1 Rounding radius*
0 $2 $3 $4 $5 $6 $7 $8 $9 X,Y pos of 4 corners*
0 Add a 4 corners polygon primitive as box body*
4,1,4,$2,$3,$4,$5,$6,$7,$8,$9,$2,$3,0*
0 Add four circle primitives for the rounded corners*
1,1,$1+$1,$2,$3*
1,1,$1+$1,$4,$5*
1,1,$1+$1,$6,$7*
1,1,$1+$1,$8,$9*
0 Add four rect primitives between the rounded corners*
20,1,$1+$1,$2,$3,$4,$5,0*
20,1,$1+$1,$4,$5,$6,$7,0*
20,1,$1+$1,$6,$7,$8,$9,0*
20,1,$1+$1,$8,$9,$2,$3,0*%
%AMFreePoly0*
4,1,6,1.000000,0.000000,0.500000,-0.750000,-0.500000,-0.750000,-0.500000,0.750000,0.500000,0.750000,1.000000,0.000000,1.000000,0.000000,$1*%
%AMFreePoly1*
4,1,6,0.500000,-0.750000,-0.650000,-0.750000,-0.150000,0.000000,-0.650000,0.750000,0.500000,0.750000,0.500000,-0.750000,0.500000,-0.750000,$1*%
G04 Aperture macros list end*
%ADD10C,0.100000*%
%ADD11C,0.150000*%
%ADD12C,0.300000*%
%ADD13C,0.400000*%
%TA.AperFunction,SMDPad,CuDef*%
%ADD14FreePoly0,0.000000*%
%TD*%
%TA.AperFunction,SMDPad,CuDef*%
%ADD15FreePoly1,0.000000*%
%TD*%
%TA.AperFunction,ComponentPad*%
%ADD16R,1.700000X1.700000*%
%TD*%
%TA.AperFunction,ComponentPad*%
%ADD17O,1.700000X1.700000*%
%TD*%
%TA.AperFunction,ComponentPad*%
%ADD18R,1.050000X1.500000*%
%TD*%
%TA.AperFunction,ComponentPad*%
%ADD19O,1.050000X1.500000*%
%TD*%
%TA.AperFunction,SMDPad,CuDef*%
%ADD20R,0.600000X1.300000*%
%TD*%
%TA.AperFunction,ComponentPad*%
%ADD21RoundRect,0.250000X-1.050000X0.750000X-1.050000X-0.750000X1.050000X-0.750000X1.050000X0.750000X0*%
%TD*%
%TA.AperFunction,ComponentPad*%
%ADD22O,2.600000X2.000000*%
%TD*%
%TA.AperFunction,SMDPad,CuDef*%
%ADD23RoundRect,0.200000X0.200000X0.275000X-0.200000X0.275000X-0.200000X-0.275000X0.200000X-0.275000X0*%
%TD*%
%TA.AperFunction,ComponentPad*%
%ADD24R,1.350000X1.350000*%
%TD*%
%TA.AperFunction,ComponentPad*%
%ADD25O,1.350000X1.350000*%
%TD*%
%TA.AperFunction,ViaPad*%
%ADD26C,0.800000*%
%TD*%
%TA.AperFunction,Conductor*%
%ADD27C,0.250000*%
%TD*%
%TA.AperFunction,Conductor*%
%ADD28C,0.350000*%
%TD*%
G04 APERTURE END LIST*
D10*
D11*
X28082000Y-60902000D02*
X28082000Y-92902000D01*
X136082000Y-92902000D01*
X136082000Y-60902000D01*
X28082000Y-60902000D01*
D10*
D11*
X10000000Y-10000000D02*
X10000000Y-94902000D01*
X138082000Y-94902000D01*
X138082000Y-10000000D01*
X10000000Y-10000000D01*
D10*
D11*
X12000000Y-12000000D02*
X12000000Y-92902000D01*
X136082000Y-92902000D01*
X136082000Y-12000000D01*
X12000000Y-12000000D01*
D10*
D11*
X60000000Y-12000000D02*
X60000000Y-10000000D01*
D10*
D11*
X110000000Y-12000000D02*
X110000000Y-10000000D01*
D10*
D11*
X36065476Y-11588095D02*
X35322619Y-11588095D01*
X35694047Y-11588095D02*
X35694047Y-10288095D01*
X35570238Y-10473809D01*
X35446428Y-10597619D01*
X35322619Y-10659523D01*
D10*
D11*
X85322619Y-10411904D02*
X85384523Y-10350000D01*
X85508333Y-10288095D01*
X85817857Y-10288095D01*
X85941666Y-10350000D01*
X86003571Y-10411904D01*
X86065476Y-10535714D01*
X86065476Y-10659523D01*
X86003571Y-10845238D01*
X85260714Y-11588095D01*
X86065476Y-11588095D01*
D10*
D11*
X135260714Y-10288095D02*
X136065476Y-10288095D01*
X135632142Y-10783333D01*
X135817857Y-10783333D01*
X135941666Y-10845238D01*
X136003571Y-10907142D01*
X136065476Y-11030952D01*
X136065476Y-11340476D01*
X136003571Y-11464285D01*
X135941666Y-11526190D01*
X135817857Y-11588095D01*
X135446428Y-11588095D01*
X135322619Y-11526190D01*
X135260714Y-11464285D01*
D10*
D11*
X60000000Y-92902000D02*
X60000000Y-94902000D01*
D10*
D11*
X110000000Y-92902000D02*
X110000000Y-94902000D01*
D10*
D11*
X36065476Y-94490095D02*
X35322619Y-94490095D01*
X35694047Y-94490095D02*
X35694047Y-93190095D01*
X35570238Y-93375809D01*
X35446428Y-93499619D01*
X35322619Y-93561523D01*
D10*
D11*
X85322619Y-93313904D02*
X85384523Y-93252000D01*
X85508333Y-93190095D01*
X85817857Y-93190095D01*
X85941666Y-93252000D01*
X86003571Y-93313904D01*
X86065476Y-93437714D01*
X86065476Y-93561523D01*
X86003571Y-93747238D01*
X85260714Y-94490095D01*
X86065476Y-94490095D01*
D10*
D11*
X135260714Y-93190095D02*
X136065476Y-93190095D01*
X135632142Y-93685333D01*
X135817857Y-93685333D01*
X135941666Y-93747238D01*
X136003571Y-93809142D01*
X136065476Y-93932952D01*
X136065476Y-94242476D01*
X136003571Y-94366285D01*
X135941666Y-94428190D01*
X135817857Y-94490095D01*
X135446428Y-94490095D01*
X135322619Y-94428190D01*
X135260714Y-94366285D01*
D10*
D11*
X10000000Y-60000000D02*
X12000000Y-60000000D01*
D10*
D11*
X10690476Y-35216666D02*
X11309523Y-35216666D01*
X10566666Y-35588095D02*
X11000000Y-34288095D01*
X11433333Y-35588095D01*
D10*
D11*
X11092857Y-84907142D02*
X11278571Y-84969047D01*
X11340476Y-85030952D01*
X11402380Y-85154761D01*
X11402380Y-85340476D01*
X11340476Y-85464285D01*
X11278571Y-85526190D01*
X11154761Y-85588095D01*
X10659523Y-85588095D01*
X10659523Y-84288095D01*
X11092857Y-84288095D01*
X11216666Y-84350000D01*
X11278571Y-84411904D01*
X11340476Y-84535714D01*
X11340476Y-84659523D01*
X11278571Y-84783333D01*
X11216666Y-84845238D01*
X11092857Y-84907142D01*
X10659523Y-84907142D01*
D10*
D11*
X138082000Y-60000000D02*
X136082000Y-60000000D01*
D10*
D11*
X136772476Y-35216666D02*
X137391523Y-35216666D01*
X136648666Y-35588095D02*
X137082000Y-34288095D01*
X137515333Y-35588095D01*
D10*
D11*
X137174857Y-84907142D02*
X137360571Y-84969047D01*
X137422476Y-85030952D01*
X137484380Y-85154761D01*
X137484380Y-85340476D01*
X137422476Y-85464285D01*
X137360571Y-85526190D01*
X137236761Y-85588095D01*
X136741523Y-85588095D01*
X136741523Y-84288095D01*
X137174857Y-84288095D01*
X137298666Y-84350000D01*
X137360571Y-84411904D01*
X137422476Y-84535714D01*
X137422476Y-84659523D01*
X137360571Y-84783333D01*
X137298666Y-84845238D01*
X137174857Y-84907142D01*
X136741523Y-84907142D01*
D10*
D11*
X51514142Y-88680571D02*
X51514142Y-87180571D01*
X51871285Y-87180571D01*
X52085571Y-87252000D01*
X52228428Y-87394857D01*
X52299857Y-87537714D01*
X52371285Y-87823428D01*
X52371285Y-88037714D01*
X52299857Y-88323428D01*
X52228428Y-88466285D01*
X52085571Y-88609142D01*
X51871285Y-88680571D01*
X51514142Y-88680571D01*
X53657000Y-88680571D02*
X53657000Y-87894857D01*
X53585571Y-87752000D01*
X53442714Y-87680571D01*
X53157000Y-87680571D01*
X53014142Y-87752000D01*
X53657000Y-88609142D02*
X53514142Y-88680571D01*
X53157000Y-88680571D01*
X53014142Y-88609142D01*
X52942714Y-88466285D01*
X52942714Y-88323428D01*
X53014142Y-88180571D01*
X53157000Y-88109142D01*
X53514142Y-88109142D01*
X53657000Y-88037714D01*
X54157000Y-87680571D02*
X54728428Y-87680571D01*
X54371285Y-87180571D02*
X54371285Y-88466285D01*
X54442714Y-88609142D01*
X54585571Y-88680571D01*
X54728428Y-88680571D01*
X55799857Y-88609142D02*
X55657000Y-88680571D01*
X55371285Y-88680571D01*
X55228428Y-88609142D01*
X55157000Y-88466285D01*
X55157000Y-87894857D01*
X55228428Y-87752000D01*
X55371285Y-87680571D01*
X55657000Y-87680571D01*
X55799857Y-87752000D01*
X55871285Y-87894857D01*
X55871285Y-88037714D01*
X55157000Y-88180571D01*
X56514142Y-88537714D02*
X56585571Y-88609142D01*
X56514142Y-88680571D01*
X56442714Y-88609142D01*
X56514142Y-88537714D01*
X56514142Y-88680571D01*
X56514142Y-87752000D02*
X56585571Y-87823428D01*
X56514142Y-87894857D01*
X56442714Y-87823428D01*
X56514142Y-87752000D01*
X56514142Y-87894857D01*
X58299857Y-87323428D02*
X58371285Y-87252000D01*
X58514142Y-87180571D01*
X58871285Y-87180571D01*
X59014142Y-87252000D01*
X59085571Y-87323428D01*
X59157000Y-87466285D01*
X59157000Y-87609142D01*
X59085571Y-87823428D01*
X58228428Y-88680571D01*
X59157000Y-88680571D01*
X60085571Y-87180571D02*
X60228428Y-87180571D01*
X60371285Y-87252000D01*
X60442714Y-87323428D01*
X60514142Y-87466285D01*
X60585571Y-87752000D01*
X60585571Y-88109142D01*
X60514142Y-88394857D01*
X60442714Y-88537714D01*
X60371285Y-88609142D01*
X60228428Y-88680571D01*
X60085571Y-88680571D01*
X59942714Y-88609142D01*
X59871285Y-88537714D01*
X59799857Y-88394857D01*
X59728428Y-88109142D01*
X59728428Y-87752000D01*
X59799857Y-87466285D01*
X59871285Y-87323428D01*
X59942714Y-87252000D01*
X60085571Y-87180571D01*
X61157000Y-87323428D02*
X61228428Y-87252000D01*
X61371285Y-87180571D01*
X61728428Y-87180571D01*
X61871285Y-87252000D01*
X61942714Y-87323428D01*
X62014142Y-87466285D01*
X62014142Y-87609142D01*
X61942714Y-87823428D01*
X61085571Y-88680571D01*
X62014142Y-88680571D01*
X62585571Y-87323428D02*
X62657000Y-87252000D01*
X62799857Y-87180571D01*
X63157000Y-87180571D01*
X63299857Y-87252000D01*
X63371285Y-87323428D01*
X63442714Y-87466285D01*
X63442714Y-87609142D01*
X63371285Y-87823428D01*
X62514142Y-88680571D01*
X63442714Y-88680571D01*
X64085571Y-88109142D02*
X65228428Y-88109142D01*
X66228428Y-87180571D02*
X66371285Y-87180571D01*
X66514142Y-87252000D01*
X66585571Y-87323428D01*
X66657000Y-87466285D01*
X66728428Y-87752000D01*
X66728428Y-88109142D01*
X66657000Y-88394857D01*
X66585571Y-88537714D01*
X66514142Y-88609142D01*
X66371285Y-88680571D01*
X66228428Y-88680571D01*
X66085571Y-88609142D01*
X66014142Y-88537714D01*
X65942714Y-88394857D01*
X65871285Y-88109142D01*
X65871285Y-87752000D01*
X65942714Y-87466285D01*
X66014142Y-87323428D01*
X66085571Y-87252000D01*
X66228428Y-87180571D01*
X67299857Y-87323428D02*
X67371285Y-87252000D01*
X67514142Y-87180571D01*
X67871285Y-87180571D01*
X68014142Y-87252000D01*
X68085571Y-87323428D01*
X68157000Y-87466285D01*
X68157000Y-87609142D01*
X68085571Y-87823428D01*
X67228428Y-88680571D01*
X68157000Y-88680571D01*
X68799857Y-88109142D02*
X69942714Y-88109142D01*
X71442714Y-88680571D02*
X70585571Y-88680571D01*
X71014142Y-88680571D02*
X71014142Y-87180571D01*
X70871285Y-87394857D01*
X70728428Y-87537714D01*
X70585571Y-87609142D01*
X71942714Y-87180571D02*
X72871285Y-87180571D01*
X72371285Y-87752000D01*
X72585571Y-87752000D01*
X72728428Y-87823428D01*
X72799857Y-87894857D01*
X72871285Y-88037714D01*
X72871285Y-88394857D01*
X72799857Y-88537714D01*
X72728428Y-88609142D01*
X72585571Y-88680571D01*
X72157000Y-88680571D01*
X72014142Y-88609142D01*
X71942714Y-88537714D01*
D10*
D11*
X28082000Y-89402000D02*
X136082000Y-89402000D01*
D10*
D11*
X29514142Y-91480571D02*
X29514142Y-89980571D01*
X30371285Y-91480571D02*
X29728428Y-90623428D01*
X30371285Y-89980571D02*
X29514142Y-90837714D01*
X31014142Y-91480571D02*
X31014142Y-90480571D01*
X31014142Y-89980571D02*
X30942714Y-90052000D01*
X31014142Y-90123428D01*
X31085571Y-90052000D01*
X31014142Y-89980571D01*
X31014142Y-90123428D01*
X32585571Y-91337714D02*
X32514142Y-91409142D01*
X32299857Y-91480571D01*
X32157000Y-91480571D01*
X31942714Y-91409142D01*
X31799857Y-91266285D01*
X31728428Y-91123428D01*
X31657000Y-90837714D01*
X31657000Y-90623428D01*
X31728428Y-90337714D01*
X31799857Y-90194857D01*
X31942714Y-90052000D01*
X32157000Y-89980571D01*
X32299857Y-89980571D01*
X32514142Y-90052000D01*
X32585571Y-90123428D01*
X33871285Y-91480571D02*
X33871285Y-90694857D01*
X33799857Y-90552000D01*
X33657000Y-90480571D01*
X33371285Y-90480571D01*
X33228428Y-90552000D01*
X33871285Y-91409142D02*
X33728428Y-91480571D01*
X33371285Y-91480571D01*
X33228428Y-91409142D01*
X33157000Y-91266285D01*
X33157000Y-91123428D01*
X33228428Y-90980571D01*
X33371285Y-90909142D01*
X33728428Y-90909142D01*
X33871285Y-90837714D01*
X35228428Y-91480571D02*
X35228428Y-89980571D01*
X35228428Y-91409142D02*
X35085571Y-91480571D01*
X34799857Y-91480571D01*
X34657000Y-91409142D01*
X34585571Y-91337714D01*
X34514142Y-91194857D01*
X34514142Y-90766285D01*
X34585571Y-90623428D01*
X34657000Y-90552000D01*
X34799857Y-90480571D01*
X35085571Y-90480571D01*
X35228428Y-90552000D01*
X37085571Y-90694857D02*
X37585571Y-90694857D01*
X37799857Y-91480571D02*
X37085571Y-91480571D01*
X37085571Y-89980571D01*
X37799857Y-89980571D01*
X38442714Y-91337714D02*
X38514142Y-91409142D01*
X38442714Y-91480571D01*
X38371285Y-91409142D01*
X38442714Y-91337714D01*
X38442714Y-91480571D01*
X39157000Y-91480571D02*
X39157000Y-89980571D01*
X39514142Y-89980571D01*
X39728428Y-90052000D01*
X39871285Y-90194857D01*
X39942714Y-90337714D01*
X40014142Y-90623428D01*
X40014142Y-90837714D01*
X39942714Y-91123428D01*
X39871285Y-91266285D01*
X39728428Y-91409142D01*
X39514142Y-91480571D01*
X39157000Y-91480571D01*
X40657000Y-91337714D02*
X40728428Y-91409142D01*
X40657000Y-91480571D01*
X40585571Y-91409142D01*
X40657000Y-91337714D01*
X40657000Y-91480571D01*
X41299857Y-91052000D02*
X42014142Y-91052000D01*
X41157000Y-91480571D02*
X41657000Y-89980571D01*
X42157000Y-91480571D01*
X42657000Y-91337714D02*
X42728428Y-91409142D01*
X42657000Y-91480571D01*
X42585571Y-91409142D01*
X42657000Y-91337714D01*
X42657000Y-91480571D01*
X45657000Y-91480571D02*
X45657000Y-89980571D01*
X45799857Y-90909142D02*
X46228428Y-91480571D01*
X46228428Y-90480571D02*
X45657000Y-91052000D01*
X46871285Y-91480571D02*
X46871285Y-90480571D01*
X46871285Y-89980571D02*
X46799857Y-90052000D01*
X46871285Y-90123428D01*
X46942714Y-90052000D01*
X46871285Y-89980571D01*
X46871285Y-90123428D01*
X48228428Y-91409142D02*
X48085571Y-91480571D01*
X47799857Y-91480571D01*
X47657000Y-91409142D01*
X47585571Y-91337714D01*
X47514142Y-91194857D01*
X47514142Y-90766285D01*
X47585571Y-90623428D01*
X47657000Y-90552000D01*
X47799857Y-90480571D01*
X48085571Y-90480571D01*
X48228428Y-90552000D01*
X49514142Y-91480571D02*
X49514142Y-90694857D01*
X49442714Y-90552000D01*
X49299857Y-90480571D01*
X49014142Y-90480571D01*
X48871285Y-90552000D01*
X49514142Y-91409142D02*
X49371285Y-91480571D01*
X49014142Y-91480571D01*
X48871285Y-91409142D01*
X48799857Y-91266285D01*
X48799857Y-91123428D01*
X48871285Y-90980571D01*
X49014142Y-90909142D01*
X49371285Y-90909142D01*
X49514142Y-90837714D01*
X50871285Y-91480571D02*
X50871285Y-89980571D01*
X50871285Y-91409142D02*
X50728428Y-91480571D01*
X50442714Y-91480571D01*
X50299857Y-91409142D01*
X50228428Y-91337714D01*
X50157000Y-91194857D01*
X50157000Y-90766285D01*
X50228428Y-90623428D01*
X50299857Y-90552000D01*
X50442714Y-90480571D01*
X50728428Y-90480571D01*
X50871285Y-90552000D01*
X53157000Y-92052000D02*
X53085571Y-91980571D01*
X52942714Y-91766285D01*
X52871285Y-91623428D01*
X52799857Y-91409142D01*
X52728428Y-91052000D01*
X52728428Y-90766285D01*
X52799857Y-90409142D01*
X52871285Y-90194857D01*
X52942714Y-90052000D01*
X53085571Y-89837714D01*
X53157000Y-89766285D01*
X54371285Y-89980571D02*
X54085571Y-89980571D01*
X53942714Y-90052000D01*
X53871285Y-90123428D01*
X53728428Y-90337714D01*
X53657000Y-90623428D01*
X53657000Y-91194857D01*
X53728428Y-91337714D01*
X53799857Y-91409142D01*
X53942714Y-91480571D01*
X54228428Y-91480571D01*
X54371285Y-91409142D01*
X54442714Y-91337714D01*
X54514142Y-91194857D01*
X54514142Y-90837714D01*
X54442714Y-90694857D01*
X54371285Y-90623428D01*
X54228428Y-90552000D01*
X53942714Y-90552000D01*
X53799857Y-90623428D01*
X53728428Y-90694857D01*
X53657000Y-90837714D01*
X55157000Y-91337714D02*
X55228428Y-91409142D01*
X55157000Y-91480571D01*
X55085571Y-91409142D01*
X55157000Y-91337714D01*
X55157000Y-91480571D01*
X56157000Y-89980571D02*
X56299857Y-89980571D01*
X56442714Y-90052000D01*
X56514142Y-90123428D01*
X56585571Y-90266285D01*
X56657000Y-90552000D01*
X56657000Y-90909142D01*
X56585571Y-91194857D01*
X56514142Y-91337714D01*
X56442714Y-91409142D01*
X56299857Y-91480571D01*
X56157000Y-91480571D01*
X56014142Y-91409142D01*
X55942714Y-91337714D01*
X55871285Y-91194857D01*
X55799857Y-90909142D01*
X55799857Y-90552000D01*
X55871285Y-90266285D01*
X55942714Y-90123428D01*
X56014142Y-90052000D01*
X56157000Y-89980571D01*
X57299857Y-91337714D02*
X57371285Y-91409142D01*
X57299857Y-91480571D01*
X57228428Y-91409142D01*
X57299857Y-91337714D01*
X57299857Y-91480571D01*
X58299857Y-89980571D02*
X58442714Y-89980571D01*
X58585571Y-90052000D01*
X58657000Y-90123428D01*
X58728428Y-90266285D01*
X58799857Y-90552000D01*
X58799857Y-90909142D01*
X58728428Y-91194857D01*
X58657000Y-91337714D01*
X58585571Y-91409142D01*
X58442714Y-91480571D01*
X58299857Y-91480571D01*
X58157000Y-91409142D01*
X58085571Y-91337714D01*
X58014142Y-91194857D01*
X57942714Y-90909142D01*
X57942714Y-90552000D01*
X58014142Y-90266285D01*
X58085571Y-90123428D01*
X58157000Y-90052000D01*
X58299857Y-89980571D01*
X59299857Y-92052000D02*
X59371285Y-91980571D01*
X59514142Y-91766285D01*
X59585571Y-91623428D01*
X59657000Y-91409142D01*
X59728428Y-91052000D01*
X59728428Y-90766285D01*
X59657000Y-90409142D01*
X59585571Y-90194857D01*
X59514142Y-90052000D01*
X59371285Y-89837714D01*
X59299857Y-89766285D01*
D10*
D11*
X28082000Y-86402000D02*
X136082000Y-86402000D01*
D10*
D12*
X115491285Y-88680571D02*
X114991285Y-87966285D01*
X114634142Y-88680571D02*
X114634142Y-87180571D01*
X115205571Y-87180571D01*
X115348428Y-87252000D01*
X115419857Y-87323428D01*
X115491285Y-87466285D01*
X115491285Y-87680571D01*
X115419857Y-87823428D01*
X115348428Y-87894857D01*
X115205571Y-87966285D01*
X114634142Y-87966285D01*
X116705571Y-88609142D02*
X116562714Y-88680571D01*
X116277000Y-88680571D01*
X116134142Y-88609142D01*
X116062714Y-88466285D01*
X116062714Y-87894857D01*
X116134142Y-87752000D01*
X116277000Y-87680571D01*
X116562714Y-87680571D01*
X116705571Y-87752000D01*
X116777000Y-87894857D01*
X116777000Y-88037714D01*
X116062714Y-88180571D01*
X117277000Y-87680571D02*
X117634142Y-88680571D01*
X117991285Y-87680571D01*
X118562714Y-88537714D02*
X118634142Y-88609142D01*
X118562714Y-88680571D01*
X118491285Y-88609142D01*
X118562714Y-88537714D01*
X118562714Y-88680571D01*
X118562714Y-87752000D02*
X118634142Y-87823428D01*
X118562714Y-87894857D01*
X118491285Y-87823428D01*
X118562714Y-87752000D01*
X118562714Y-87894857D01*
X120205571Y-87180571D02*
X120705571Y-88680571D01*
X121205571Y-87180571D01*
X122491285Y-88680571D02*
X121634142Y-88680571D01*
X122062714Y-88680571D02*
X122062714Y-87180571D01*
X121919857Y-87394857D01*
X121777000Y-87537714D01*
X121634142Y-87609142D01*
X123134142Y-88537714D02*
X123205571Y-88609142D01*
X123134142Y-88680571D01*
X123062714Y-88609142D01*
X123134142Y-88537714D01*
X123134142Y-88680571D01*
X124134142Y-87180571D02*
X124277000Y-87180571D01*
X124419857Y-87252000D01*
X124491285Y-87323428D01*
X124562714Y-87466285D01*
X124634142Y-87752000D01*
X124634142Y-88109142D01*
X124562714Y-88394857D01*
X124491285Y-88537714D01*
X124419857Y-88609142D01*
X124277000Y-88680571D01*
X124134142Y-88680571D01*
X123991285Y-88609142D01*
X123919857Y-88537714D01*
X123848428Y-88394857D01*
X123777000Y-88109142D01*
X123777000Y-87752000D01*
X123848428Y-87466285D01*
X123919857Y-87323428D01*
X123991285Y-87252000D01*
X124134142Y-87180571D01*
D10*
D11*
X29442714Y-88609142D02*
X29657000Y-88680571D01*
X30014142Y-88680571D01*
X30157000Y-88609142D01*
X30228428Y-88537714D01*
X30299857Y-88394857D01*
X30299857Y-88252000D01*
X30228428Y-88109142D01*
X30157000Y-88037714D01*
X30014142Y-87966285D01*
X29728428Y-87894857D01*
X29585571Y-87823428D01*
X29514142Y-87752000D01*
X29442714Y-87609142D01*
X29442714Y-87466285D01*
X29514142Y-87323428D01*
X29585571Y-87252000D01*
X29728428Y-87180571D01*
X30085571Y-87180571D01*
X30299857Y-87252000D01*
X30942714Y-88680571D02*
X30942714Y-87680571D01*
X30942714Y-87180571D02*
X30871285Y-87252000D01*
X30942714Y-87323428D01*
X31014142Y-87252000D01*
X30942714Y-87180571D01*
X30942714Y-87323428D01*
X31514142Y-87680571D02*
X32299857Y-87680571D01*
X31514142Y-88680571D01*
X32299857Y-88680571D01*
X33442714Y-88609142D02*
X33299857Y-88680571D01*
X33014142Y-88680571D01*
X32871285Y-88609142D01*
X32799857Y-88466285D01*
X32799857Y-87894857D01*
X32871285Y-87752000D01*
X33014142Y-87680571D01*
X33299857Y-87680571D01*
X33442714Y-87752000D01*
X33514142Y-87894857D01*
X33514142Y-88037714D01*
X32799857Y-88180571D01*
X34157000Y-88537714D02*
X34228428Y-88609142D01*
X34157000Y-88680571D01*
X34085571Y-88609142D01*
X34157000Y-88537714D01*
X34157000Y-88680571D01*
X34157000Y-87752000D02*
X34228428Y-87823428D01*
X34157000Y-87894857D01*
X34085571Y-87823428D01*
X34157000Y-87752000D01*
X34157000Y-87894857D01*
X36014142Y-87180571D02*
X36014142Y-88394857D01*
X36085571Y-88537714D01*
X36157000Y-88609142D01*
X36299857Y-88680571D01*
X36585571Y-88680571D01*
X36728428Y-88609142D01*
X36799857Y-88537714D01*
X36871285Y-88394857D01*
X36871285Y-87180571D01*
X37514142Y-88609142D02*
X37657000Y-88680571D01*
X37942714Y-88680571D01*
X38085571Y-88609142D01*
X38157000Y-88466285D01*
X38157000Y-88394857D01*
X38085571Y-88252000D01*
X37942714Y-88180571D01*
X37728428Y-88180571D01*
X37585571Y-88109142D01*
X37514142Y-87966285D01*
X37514142Y-87894857D01*
X37585571Y-87752000D01*
X37728428Y-87680571D01*
X37942714Y-87680571D01*
X38085571Y-87752000D01*
X39371285Y-88609142D02*
X39228428Y-88680571D01*
X38942714Y-88680571D01*
X38799857Y-88609142D01*
X38728428Y-88466285D01*
X38728428Y-87894857D01*
X38799857Y-87752000D01*
X38942714Y-87680571D01*
X39228428Y-87680571D01*
X39371285Y-87752000D01*
X39442714Y-87894857D01*
X39442714Y-88037714D01*
X38728428Y-88180571D01*
X40085571Y-88680571D02*
X40085571Y-87680571D01*
X40085571Y-87966285D02*
X40157000Y-87823428D01*
X40228428Y-87752000D01*
X40371285Y-87680571D01*
X40514142Y-87680571D01*
D10*
D11*
X114514142Y-91480571D02*
X114514142Y-89980571D01*
X115871285Y-91480571D02*
X115871285Y-89980571D01*
X115871285Y-91409142D02*
X115728428Y-91480571D01*
X115442714Y-91480571D01*
X115299857Y-91409142D01*
X115228428Y-91337714D01*
X115157000Y-91194857D01*
X115157000Y-90766285D01*
X115228428Y-90623428D01*
X115299857Y-90552000D01*
X115442714Y-90480571D01*
X115728428Y-90480571D01*
X115871285Y-90552000D01*
X116585571Y-91337714D02*
X116657000Y-91409142D01*
X116585571Y-91480571D01*
X116514142Y-91409142D01*
X116585571Y-91337714D01*
X116585571Y-91480571D01*
X116585571Y-90552000D02*
X116657000Y-90623428D01*
X116585571Y-90694857D01*
X116514142Y-90623428D01*
X116585571Y-90552000D01*
X116585571Y-90694857D01*
X119228428Y-91480571D02*
X118371285Y-91480571D01*
X118799857Y-91480571D02*
X118799857Y-89980571D01*
X118657000Y-90194857D01*
X118514142Y-90337714D01*
X118371285Y-90409142D01*
X120942714Y-89909142D02*
X119657000Y-91837714D01*
X122228428Y-91480571D02*
X121371285Y-91480571D01*
X121799857Y-91480571D02*
X121799857Y-89980571D01*
X121657000Y-90194857D01*
X121514142Y-90337714D01*
X121371285Y-90409142D01*
D10*
D11*
X28082000Y-82402000D02*
X136082000Y-82402000D01*
D10*
D13*
X29794380Y-83106761D02*
X30937238Y-83106761D01*
X30115809Y-85106761D02*
X30365809Y-83106761D01*
X31353904Y-85106761D02*
X31520571Y-83773428D01*
X31603904Y-83106761D02*
X31496761Y-83202000D01*
X31580095Y-83297238D01*
X31687238Y-83202000D01*
X31603904Y-83106761D01*
X31580095Y-83297238D01*
X32187238Y-83773428D02*
X32949142Y-83773428D01*
X32556285Y-83106761D02*
X32342000Y-84821047D01*
X32413428Y-85011523D01*
X32592000Y-85106761D01*
X32782476Y-85106761D01*
X33734857Y-85106761D02*
X33556285Y-85011523D01*
X33484857Y-84821047D01*
X33699142Y-83106761D01*
X35270571Y-85011523D02*
X35068190Y-85106761D01*
X34687238Y-85106761D01*
X34508666Y-85011523D01*
X34437238Y-84821047D01*
X34532476Y-84059142D01*
X34651523Y-83868666D01*
X34853904Y-83773428D01*
X35234857Y-83773428D01*
X35413428Y-83868666D01*
X35484857Y-84059142D01*
X35461047Y-84249619D01*
X34484857Y-84440095D01*
X36234857Y-84916285D02*
X36318190Y-85011523D01*
X36211047Y-85106761D01*
X36127714Y-85011523D01*
X36234857Y-84916285D01*
X36211047Y-85106761D01*
X36365809Y-83868666D02*
X36449142Y-83963904D01*
X36342000Y-84059142D01*
X36258666Y-83963904D01*
X36365809Y-83868666D01*
X36342000Y-84059142D01*
X39830095Y-85106761D02*
X39282476Y-84154380D01*
X38687238Y-85106761D02*
X38937238Y-83106761D01*
X39699142Y-83106761D01*
X39877714Y-83202000D01*
X39961047Y-83297238D01*
X40032476Y-83487714D01*
X39996761Y-83773428D01*
X39877714Y-83963904D01*
X39770571Y-84059142D01*
X39568190Y-84154380D01*
X38806285Y-84154380D01*
X40972952Y-85106761D02*
X40794380Y-85011523D01*
X40711047Y-84916285D01*
X40639619Y-84725809D01*
X40711047Y-84154380D01*
X40830095Y-83963904D01*
X40937238Y-83868666D01*
X41139619Y-83773428D01*
X41425333Y-83773428D01*
X41603904Y-83868666D01*
X41687238Y-83963904D01*
X41758666Y-84154380D01*
X41687238Y-84725809D01*
X41568190Y-84916285D01*
X41461047Y-85011523D01*
X41258666Y-85106761D01*
X40972952Y-85106761D01*
X43365809Y-85011523D02*
X43163428Y-85106761D01*
X42782476Y-85106761D01*
X42603904Y-85011523D01*
X42520571Y-84916285D01*
X42449142Y-84725809D01*
X42520571Y-84154380D01*
X42639619Y-83963904D01*
X42746761Y-83868666D01*
X42949142Y-83773428D01*
X43330095Y-83773428D01*
X43508666Y-83868666D01*
X44211047Y-85106761D02*
X44461047Y-83106761D01*
X44496761Y-84344857D02*
X44972952Y-85106761D01*
X45139619Y-83773428D02*
X44282476Y-84535333D01*
X46603904Y-85011523D02*
X46401523Y-85106761D01*
X46020571Y-85106761D01*
X45842000Y-85011523D01*
X45770571Y-84821047D01*
X45865809Y-84059142D01*
X45984857Y-83868666D01*
X46187238Y-83773428D01*
X46568190Y-83773428D01*
X46746761Y-83868666D01*
X46818190Y-84059142D01*
X46794380Y-84249619D01*
X45818190Y-84440095D01*
X47425333Y-83773428D02*
X48187238Y-83773428D01*
X47794380Y-83106761D02*
X47580095Y-84821047D01*
X47651523Y-85011523D01*
X47830095Y-85106761D01*
X48020571Y-85106761D01*
X50211047Y-85106761D02*
X50461047Y-83106761D01*
X51163428Y-85106761D02*
X51413428Y-83106761D01*
X51901523Y-84535333D01*
X52746761Y-83106761D01*
X52496761Y-85106761D01*
X53699142Y-83106761D02*
X53496761Y-84725809D01*
X53568190Y-84916285D01*
X53651523Y-85011523D01*
X53830095Y-85106761D01*
X54211047Y-85106761D01*
X54413428Y-85011523D01*
X54520571Y-84916285D01*
X54639619Y-84725809D01*
X54841999Y-83106761D01*
X58758666Y-83011523D02*
X56722952Y-85582952D01*
X60603904Y-85011523D02*
X60877714Y-85106761D01*
X61353904Y-85106761D01*
X61556285Y-85011523D01*
X61663428Y-84916285D01*
X61782476Y-84725809D01*
X61806285Y-84535333D01*
X61734857Y-84344857D01*
X61651523Y-84249619D01*
X61472952Y-84154380D01*
X61103904Y-84059142D01*
X60925333Y-83963904D01*
X60841999Y-83868666D01*
X60770571Y-83678190D01*
X60794380Y-83487714D01*
X60913428Y-83297238D01*
X61020571Y-83202000D01*
X61222952Y-83106761D01*
X61699142Y-83106761D01*
X61972952Y-83202000D01*
X63365809Y-85011523D02*
X63163428Y-85106761D01*
X62782476Y-85106761D01*
X62603904Y-85011523D01*
X62532476Y-84821047D01*
X62627714Y-84059142D01*
X62746761Y-83868666D01*
X62949142Y-83773428D01*
X63330095Y-83773428D01*
X63508666Y-83868666D01*
X63580095Y-84059142D01*
X63556285Y-84249619D01*
X62580095Y-84440095D01*
X64472952Y-83773428D02*
X64306285Y-85106761D01*
X64449142Y-83963904D02*
X64556285Y-83868666D01*
X64758666Y-83773428D01*
X65044380Y-83773428D01*
X65222952Y-83868666D01*
X65294380Y-84059142D01*
X65163428Y-85106761D01*
X66032476Y-85011523D02*
X66211047Y-85106761D01*
X66591999Y-85106761D01*
X66794380Y-85011523D01*
X66913428Y-84821047D01*
X66925333Y-84725809D01*
X66853904Y-84535333D01*
X66675333Y-84440095D01*
X66389619Y-84440095D01*
X66211047Y-84344857D01*
X66139619Y-84154380D01*
X66151523Y-84059142D01*
X66270571Y-83868666D01*
X66472952Y-83773428D01*
X66758666Y-83773428D01*
X66937238Y-83868666D01*
X68020571Y-85106761D02*
X67841999Y-85011523D01*
X67758666Y-84916285D01*
X67687238Y-84725809D01*
X67758666Y-84154380D01*
X67877714Y-83963904D01*
X67984857Y-83868666D01*
X68187238Y-83773428D01*
X68472952Y-83773428D01*
X68651523Y-83868666D01*
X68734857Y-83963904D01*
X68806285Y-84154380D01*
X68734857Y-84725809D01*
X68615809Y-84916285D01*
X68508666Y-85011523D01*
X68306285Y-85106761D01*
X68020571Y-85106761D01*
X69544380Y-85106761D02*
X69711047Y-83773428D01*
X69663428Y-84154380D02*
X69782476Y-83963904D01*
X69889619Y-83868666D01*
X70091999Y-83773428D01*
X70282476Y-83773428D01*
X72306285Y-85106761D02*
X72556285Y-83106761D01*
X72437238Y-84059142D02*
X73580095Y-84059142D01*
X73449142Y-85106761D02*
X73699142Y-83106761D01*
X75258666Y-85106761D02*
X75389619Y-84059142D01*
X75318190Y-83868666D01*
X75139619Y-83773428D01*
X74758666Y-83773428D01*
X74556285Y-83868666D01*
X75270571Y-85011523D02*
X75068190Y-85106761D01*
X74591999Y-85106761D01*
X74413428Y-85011523D01*
X74341999Y-84821047D01*
X74365809Y-84630571D01*
X74484857Y-84440095D01*
X74687238Y-84344857D01*
X75163428Y-84344857D01*
X75365809Y-84249619D01*
X76091999Y-83773428D02*
X76853904Y-83773428D01*
X76461047Y-83106761D02*
X76246761Y-84821047D01*
X76318190Y-85011523D01*
X76496761Y-85106761D01*
X76687238Y-85106761D01*
X78877714Y-85106761D02*
X79127714Y-83106761D01*
X79889619Y-83106761D01*
X80068190Y-83202000D01*
X80151523Y-83297238D01*
X80222952Y-83487714D01*
X80187238Y-83773428D01*
X80068190Y-83963904D01*
X79961047Y-84059142D01*
X79758666Y-84154380D01*
X78996761Y-84154380D01*
X82044380Y-84916285D02*
X81937238Y-85011523D01*
X81639619Y-85106761D01*
X81449142Y-85106761D01*
X81175333Y-85011523D01*
X81008666Y-84821047D01*
X80937238Y-84630571D01*
X80889619Y-84249619D01*
X80925333Y-83963904D01*
X81068190Y-83582952D01*
X81187238Y-83392476D01*
X81401523Y-83202000D01*
X81699142Y-83106761D01*
X81889619Y-83106761D01*
X82163428Y-83202000D01*
X82246761Y-83297238D01*
X83675333Y-84059142D02*
X83949142Y-84154380D01*
X84032476Y-84249619D01*
X84103904Y-84440095D01*
X84068190Y-84725809D01*
X83949142Y-84916285D01*
X83841999Y-85011523D01*
X83639619Y-85106761D01*
X82877714Y-85106761D01*
X83127714Y-83106761D01*
X83794380Y-83106761D01*
X83972952Y-83202000D01*
X84056285Y-83297238D01*
X84127714Y-83487714D01*
X84103904Y-83678190D01*
X83984857Y-83868666D01*
X83877714Y-83963904D01*
X83675333Y-84059142D01*
X83008666Y-84059142D01*
X86401523Y-85106761D02*
X86651523Y-83106761D01*
X87127714Y-83106761D01*
X87401523Y-83202000D01*
X87568190Y-83392476D01*
X87639619Y-83582952D01*
X87687238Y-83963904D01*
X87651523Y-84249619D01*
X87508666Y-84630571D01*
X87389619Y-84821047D01*
X87175333Y-85011523D01*
X86877714Y-85106761D01*
X86401523Y-85106761D01*
X89175333Y-85011523D02*
X88972952Y-85106761D01*
X88591999Y-85106761D01*
X88413428Y-85011523D01*
X88341999Y-84821047D01*
X88437238Y-84059142D01*
X88556285Y-83868666D01*
X88758666Y-83773428D01*
X89139619Y-83773428D01*
X89318190Y-83868666D01*
X89389619Y-84059142D01*
X89365809Y-84249619D01*
X88389619Y-84440095D01*
X90032476Y-85011523D02*
X90211047Y-85106761D01*
X90591999Y-85106761D01*
X90794380Y-85011523D01*
X90913428Y-84821047D01*
X90925333Y-84725809D01*
X90853904Y-84535333D01*
X90675333Y-84440095D01*
X90389619Y-84440095D01*
X90211047Y-84344857D01*
X90139619Y-84154380D01*
X90151523Y-84059142D01*
X90270571Y-83868666D01*
X90472952Y-83773428D01*
X90758666Y-83773428D01*
X90937238Y-83868666D01*
X91734857Y-85106761D02*
X91901523Y-83773428D01*
X91984857Y-83106761D02*
X91877714Y-83202000D01*
X91961047Y-83297238D01*
X92068190Y-83202000D01*
X91984857Y-83106761D01*
X91961047Y-83297238D01*
X93711047Y-83773428D02*
X93508666Y-85392476D01*
X93389619Y-85582952D01*
X93282476Y-85678190D01*
X93080095Y-85773428D01*
X92794380Y-85773428D01*
X92615809Y-85678190D01*
X93556285Y-85011523D02*
X93353904Y-85106761D01*
X92972952Y-85106761D01*
X92794380Y-85011523D01*
X92711047Y-84916285D01*
X92639619Y-84725809D01*
X92711047Y-84154380D01*
X92830095Y-83963904D01*
X92937238Y-83868666D01*
X93139619Y-83773428D01*
X93520571Y-83773428D01*
X93699142Y-83868666D01*
X94663428Y-83773428D02*
X94496761Y-85106761D01*
X94639619Y-83963904D02*
X94746761Y-83868666D01*
X94949142Y-83773428D01*
X95234857Y-83773428D01*
X95413428Y-83868666D01*
X95484857Y-84059142D01*
X95353904Y-85106761D01*
D10*
D11*
X30014142Y-80494857D02*
X29514142Y-80494857D01*
X29514142Y-81280571D02*
X29514142Y-79780571D01*
X30228428Y-79780571D01*
X30799857Y-81280571D02*
X30799857Y-80280571D01*
X30799857Y-79780571D02*
X30728428Y-79852000D01*
X30799857Y-79923428D01*
X30871285Y-79852000D01*
X30799857Y-79780571D01*
X30799857Y-79923428D01*
X31728428Y-81280571D02*
X31585571Y-81209142D01*
X31514142Y-81066285D01*
X31514142Y-79780571D01*
X32871285Y-81209142D02*
X32728428Y-81280571D01*
X32442714Y-81280571D01*
X32299857Y-81209142D01*
X32228428Y-81066285D01*
X32228428Y-80494857D01*
X32299857Y-80352000D01*
X32442714Y-80280571D01*
X32728428Y-80280571D01*
X32871285Y-80352000D01*
X32942714Y-80494857D01*
X32942714Y-80637714D01*
X32228428Y-80780571D01*
X33585571Y-81137714D02*
X33657000Y-81209142D01*
X33585571Y-81280571D01*
X33514142Y-81209142D01*
X33585571Y-81137714D01*
X33585571Y-81280571D01*
X33585571Y-80352000D02*
X33657000Y-80423428D01*
X33585571Y-80494857D01*
X33514142Y-80423428D01*
X33585571Y-80352000D01*
X33585571Y-80494857D01*
X36299857Y-81280571D02*
X35799857Y-80566285D01*
X35442714Y-81280571D02*
X35442714Y-79780571D01*
X36014142Y-79780571D01*
X36157000Y-79852000D01*
X36228428Y-79923428D01*
X36299857Y-80066285D01*
X36299857Y-80280571D01*
X36228428Y-80423428D01*
X36157000Y-80494857D01*
X36014142Y-80566285D01*
X35442714Y-80566285D01*
X37157000Y-81280571D02*
X37014142Y-81209142D01*
X36942714Y-81137714D01*
X36871285Y-80994857D01*
X36871285Y-80566285D01*
X36942714Y-80423428D01*
X37014142Y-80352000D01*
X37157000Y-80280571D01*
X37371285Y-80280571D01*
X37514142Y-80352000D01*
X37585571Y-80423428D01*
X37657000Y-80566285D01*
X37657000Y-80994857D01*
X37585571Y-81137714D01*
X37514142Y-81209142D01*
X37371285Y-81280571D01*
X37157000Y-81280571D01*
X38942714Y-81209142D02*
X38799857Y-81280571D01*
X38514142Y-81280571D01*
X38371285Y-81209142D01*
X38299857Y-81137714D01*
X38228428Y-80994857D01*
X38228428Y-80566285D01*
X38299857Y-80423428D01*
X38371285Y-80352000D01*
X38514142Y-80280571D01*
X38799857Y-80280571D01*
X38942714Y-80352000D01*
X39585571Y-81280571D02*
X39585571Y-79780571D01*
X39728428Y-80709142D02*
X40157000Y-81280571D01*
X40157000Y-80280571D02*
X39585571Y-80852000D01*
X41371285Y-81209142D02*
X41228428Y-81280571D01*
X40942714Y-81280571D01*
X40799857Y-81209142D01*
X40728428Y-81066285D01*
X40728428Y-80494857D01*
X40799857Y-80352000D01*
X40942714Y-80280571D01*
X41228428Y-80280571D01*
X41371285Y-80352000D01*
X41442714Y-80494857D01*
X41442714Y-80637714D01*
X40728428Y-80780571D01*
X41871285Y-80280571D02*
X42442714Y-80280571D01*
X42085571Y-79780571D02*
X42085571Y-81066285D01*
X42157000Y-81209142D01*
X42299857Y-81280571D01*
X42442714Y-81280571D01*
X42942714Y-81280571D02*
X42942714Y-79780571D01*
X42942714Y-80494857D02*
X43799857Y-80494857D01*
X43799857Y-81280571D02*
X43799857Y-79780571D01*
X45157000Y-81280571D02*
X45157000Y-80494857D01*
X45085571Y-80352000D01*
X44942714Y-80280571D01*
X44657000Y-80280571D01*
X44514142Y-80352000D01*
X45157000Y-81209142D02*
X45014142Y-81280571D01*
X44657000Y-81280571D01*
X44514142Y-81209142D01*
X44442714Y-81066285D01*
X44442714Y-80923428D01*
X44514142Y-80780571D01*
X44657000Y-80709142D01*
X45014142Y-80709142D01*
X45157000Y-80637714D01*
X45657000Y-80280571D02*
X46228428Y-80280571D01*
X45871285Y-79780571D02*
X45871285Y-81066285D01*
X45942714Y-81209142D01*
X46085571Y-81280571D01*
X46228428Y-81280571D01*
X46728428Y-81137714D02*
X46799857Y-81209142D01*
X46728428Y-81280571D01*
X46657000Y-81209142D01*
X46728428Y-81137714D01*
X46728428Y-81280571D01*
X47442714Y-81280571D02*
X47442714Y-79780571D01*
X47585571Y-80709142D02*
X48014142Y-81280571D01*
X48014142Y-80280571D02*
X47442714Y-80852000D01*
X48657000Y-81280571D02*
X48657000Y-80280571D01*
X48657000Y-79780571D02*
X48585571Y-79852000D01*
X48657000Y-79923428D01*
X48728428Y-79852000D01*
X48657000Y-79780571D01*
X48657000Y-79923428D01*
X50014142Y-81209142D02*
X49871285Y-81280571D01*
X49585571Y-81280571D01*
X49442714Y-81209142D01*
X49371285Y-81137714D01*
X49299857Y-80994857D01*
X49299857Y-80566285D01*
X49371285Y-80423428D01*
X49442714Y-80352000D01*
X49585571Y-80280571D01*
X49871285Y-80280571D01*
X50014142Y-80352000D01*
X51299857Y-81280571D02*
X51299857Y-80494857D01*
X51228428Y-80352000D01*
X51085571Y-80280571D01*
X50799857Y-80280571D01*
X50657000Y-80352000D01*
X51299857Y-81209142D02*
X51157000Y-81280571D01*
X50799857Y-81280571D01*
X50657000Y-81209142D01*
X50585571Y-81066285D01*
X50585571Y-80923428D01*
X50657000Y-80780571D01*
X50799857Y-80709142D01*
X51157000Y-80709142D01*
X51299857Y-80637714D01*
X52657000Y-81280571D02*
X52657000Y-79780571D01*
X52657000Y-81209142D02*
X52514142Y-81280571D01*
X52228428Y-81280571D01*
X52085571Y-81209142D01*
X52014142Y-81137714D01*
X51942714Y-80994857D01*
X51942714Y-80566285D01*
X52014142Y-80423428D01*
X52085571Y-80352000D01*
X52228428Y-80280571D01*
X52514142Y-80280571D01*
X52657000Y-80352000D01*
X53014142Y-81423428D02*
X54157000Y-81423428D01*
X54514142Y-80280571D02*
X54514142Y-81780571D01*
X54514142Y-80352000D02*
X54657000Y-80280571D01*
X54942714Y-80280571D01*
X55085571Y-80352000D01*
X55157000Y-80423428D01*
X55228428Y-80566285D01*
X55228428Y-80994857D01*
X55157000Y-81137714D01*
X55085571Y-81209142D01*
X54942714Y-81280571D01*
X54657000Y-81280571D01*
X54514142Y-81209142D01*
X56514142Y-81209142D02*
X56371285Y-81280571D01*
X56085571Y-81280571D01*
X55942714Y-81209142D01*
X55871285Y-81137714D01*
X55799857Y-80994857D01*
X55799857Y-80566285D01*
X55871285Y-80423428D01*
X55942714Y-80352000D01*
X56085571Y-80280571D01*
X56371285Y-80280571D01*
X56514142Y-80352000D01*
X57157000Y-81280571D02*
X57157000Y-79780571D01*
X57157000Y-80352000D02*
X57299857Y-80280571D01*
X57585571Y-80280571D01*
X57728428Y-80352000D01*
X57799857Y-80423428D01*
X57871285Y-80566285D01*
X57871285Y-80994857D01*
X57799857Y-81137714D01*
X57728428Y-81209142D01*
X57585571Y-81280571D01*
X57299857Y-81280571D01*
X57157000Y-81209142D01*
D10*
D11*
X28082000Y-76402000D02*
X136082000Y-76402000D01*
D10*
D11*
X29442714Y-78509142D02*
X29657000Y-78580571D01*
X30014142Y-78580571D01*
X30157000Y-78509142D01*
X30228428Y-78437714D01*
X30299857Y-78294857D01*
X30299857Y-78152000D01*
X30228428Y-78009142D01*
X30157000Y-77937714D01*
X30014142Y-77866285D01*
X29728428Y-77794857D01*
X29585571Y-77723428D01*
X29514142Y-77652000D01*
X29442714Y-77509142D01*
X29442714Y-77366285D01*
X29514142Y-77223428D01*
X29585571Y-77152000D01*
X29728428Y-77080571D01*
X30085571Y-77080571D01*
X30299857Y-77152000D01*
X30942714Y-78580571D02*
X30942714Y-77080571D01*
X31585571Y-78580571D02*
X31585571Y-77794857D01*
X31514142Y-77652000D01*
X31371285Y-77580571D01*
X31157000Y-77580571D01*
X31014142Y-77652000D01*
X30942714Y-77723428D01*
X32871285Y-78509142D02*
X32728428Y-78580571D01*
X32442714Y-78580571D01*
X32299857Y-78509142D01*
X32228428Y-78366285D01*
X32228428Y-77794857D01*
X32299857Y-77652000D01*
X32442714Y-77580571D01*
X32728428Y-77580571D01*
X32871285Y-77652000D01*
X32942714Y-77794857D01*
X32942714Y-77937714D01*
X32228428Y-78080571D01*
X34157000Y-78509142D02*
X34014142Y-78580571D01*
X33728428Y-78580571D01*
X33585571Y-78509142D01*
X33514142Y-78366285D01*
X33514142Y-77794857D01*
X33585571Y-77652000D01*
X33728428Y-77580571D01*
X34014142Y-77580571D01*
X34157000Y-77652000D01*
X34228428Y-77794857D01*
X34228428Y-77937714D01*
X33514142Y-78080571D01*
X34657000Y-77580571D02*
X35228428Y-77580571D01*
X34871285Y-77080571D02*
X34871285Y-78366285D01*
X34942714Y-78509142D01*
X35085571Y-78580571D01*
X35228428Y-78580571D01*
X35728428Y-78437714D02*
X35799857Y-78509142D01*
X35728428Y-78580571D01*
X35657000Y-78509142D01*
X35728428Y-78437714D01*
X35728428Y-78580571D01*
X35728428Y-77652000D02*
X35799857Y-77723428D01*
X35728428Y-77794857D01*
X35657000Y-77723428D01*
X35728428Y-77652000D01*
X35728428Y-77794857D01*
D10*
D12*
X30491285Y-75580571D02*
X29991285Y-74866285D01*
X29634142Y-75580571D02*
X29634142Y-74080571D01*
X30205571Y-74080571D01*
X30348428Y-74152000D01*
X30419857Y-74223428D01*
X30491285Y-74366285D01*
X30491285Y-74580571D01*
X30419857Y-74723428D01*
X30348428Y-74794857D01*
X30205571Y-74866285D01*
X29634142Y-74866285D01*
X31348428Y-75580571D02*
X31205571Y-75509142D01*
X31134142Y-75437714D01*
X31062714Y-75294857D01*
X31062714Y-74866285D01*
X31134142Y-74723428D01*
X31205571Y-74652000D01*
X31348428Y-74580571D01*
X31562714Y-74580571D01*
X31705571Y-74652000D01*
X31777000Y-74723428D01*
X31848428Y-74866285D01*
X31848428Y-75294857D01*
X31777000Y-75437714D01*
X31705571Y-75509142D01*
X31562714Y-75580571D01*
X31348428Y-75580571D01*
X32419857Y-75509142D02*
X32562714Y-75580571D01*
X32848428Y-75580571D01*
X32991285Y-75509142D01*
X33062714Y-75366285D01*
X33062714Y-75294857D01*
X32991285Y-75152000D01*
X32848428Y-75080571D01*
X32634142Y-75080571D01*
X32491285Y-75009142D01*
X32419857Y-74866285D01*
X32419857Y-74794857D01*
X32491285Y-74652000D01*
X32634142Y-74580571D01*
X32848428Y-74580571D01*
X32991285Y-74652000D01*
X34277000Y-75509142D02*
X34134142Y-75580571D01*
X33848428Y-75580571D01*
X33705571Y-75509142D01*
X33634142Y-75366285D01*
X33634142Y-74794857D01*
X33705571Y-74652000D01*
X33848428Y-74580571D01*
X34134142Y-74580571D01*
X34277000Y-74652000D01*
X34348428Y-74794857D01*
X34348428Y-74937714D01*
X33634142Y-75080571D01*
X34991285Y-75009142D02*
X36134142Y-75009142D01*
X36848428Y-75580571D02*
X36848428Y-74080571D01*
X36848428Y-74794857D02*
X37705571Y-74794857D01*
X37705571Y-75580571D02*
X37705571Y-74080571D01*
X39062714Y-74580571D02*
X39062714Y-75580571D01*
X38419857Y-74580571D02*
X38419857Y-75366285D01*
X38491285Y-75509142D01*
X38634142Y-75580571D01*
X38848428Y-75580571D01*
X38991285Y-75509142D01*
X39062714Y-75437714D01*
X39991285Y-75580571D02*
X39848428Y-75509142D01*
X39777000Y-75366285D01*
X39777000Y-74080571D01*
X40562714Y-75580571D02*
X40562714Y-74580571D01*
X40562714Y-74723428D02*
X40634142Y-74652000D01*
X40777000Y-74580571D01*
X40991285Y-74580571D01*
X41134142Y-74652000D01*
X41205571Y-74794857D01*
X41205571Y-75580571D01*
X41205571Y-74794857D02*
X41277000Y-74652000D01*
X41419857Y-74580571D01*
X41634142Y-74580571D01*
X41777000Y-74652000D01*
X41848428Y-74794857D01*
X41848428Y-75580571D01*
X43205571Y-75580571D02*
X43205571Y-74794857D01*
X43134142Y-74652000D01*
X42991285Y-74580571D01*
X42705571Y-74580571D01*
X42562714Y-74652000D01*
X43205571Y-75509142D02*
X43062714Y-75580571D01*
X42705571Y-75580571D01*
X42562714Y-75509142D01*
X42491285Y-75366285D01*
X42491285Y-75223428D01*
X42562714Y-75080571D01*
X42705571Y-75009142D01*
X43062714Y-75009142D01*
X43205571Y-74937714D01*
X43919857Y-74580571D02*
X43919857Y-75580571D01*
X43919857Y-74723428D02*
X43991285Y-74652000D01*
X44134142Y-74580571D01*
X44348428Y-74580571D01*
X44491285Y-74652000D01*
X44562714Y-74794857D01*
X44562714Y-75580571D01*
X47277000Y-75580571D02*
X46777000Y-74866285D01*
X46419857Y-75580571D02*
X46419857Y-74080571D01*
X46991285Y-74080571D01*
X47134142Y-74152000D01*
X47205571Y-74223428D01*
X47277000Y-74366285D01*
X47277000Y-74580571D01*
X47205571Y-74723428D01*
X47134142Y-74794857D01*
X46991285Y-74866285D01*
X46419857Y-74866285D01*
X48134142Y-75580571D02*
X47991285Y-75509142D01*
X47919857Y-75437714D01*
X47848428Y-75294857D01*
X47848428Y-74866285D01*
X47919857Y-74723428D01*
X47991285Y-74652000D01*
X48134142Y-74580571D01*
X48348428Y-74580571D01*
X48491285Y-74652000D01*
X48562714Y-74723428D01*
X48634142Y-74866285D01*
X48634142Y-75294857D01*
X48562714Y-75437714D01*
X48491285Y-75509142D01*
X48348428Y-75580571D01*
X48134142Y-75580571D01*
X49919857Y-75509142D02*
X49777000Y-75580571D01*
X49491285Y-75580571D01*
X49348428Y-75509142D01*
X49277000Y-75437714D01*
X49205571Y-75294857D01*
X49205571Y-74866285D01*
X49277000Y-74723428D01*
X49348428Y-74652000D01*
X49491285Y-74580571D01*
X49777000Y-74580571D01*
X49919857Y-74652000D01*
X50562714Y-75580571D02*
X50562714Y-74080571D01*
X50705571Y-75009142D02*
X51134142Y-75580571D01*
X51134142Y-74580571D02*
X50562714Y-75152000D01*
X52348428Y-75509142D02*
X52205571Y-75580571D01*
X51919857Y-75580571D01*
X51777000Y-75509142D01*
X51705571Y-75366285D01*
X51705571Y-74794857D01*
X51777000Y-74652000D01*
X51919857Y-74580571D01*
X52205571Y-74580571D01*
X52348428Y-74652000D01*
X52419857Y-74794857D01*
X52419857Y-74937714D01*
X51705571Y-75080571D01*
X52848428Y-74580571D02*
X53419857Y-74580571D01*
X53062714Y-74080571D02*
X53062714Y-75366285D01*
X53134142Y-75509142D01*
X53277000Y-75580571D01*
X53419857Y-75580571D01*
X53919857Y-75580571D02*
X53919857Y-74580571D01*
X53919857Y-74866285D02*
X53991285Y-74723428D01*
X54062714Y-74652000D01*
X54205571Y-74580571D01*
X54348428Y-74580571D01*
X54705571Y-74580571D02*
X55062714Y-75580571D01*
X55419857Y-74580571D02*
X55062714Y-75580571D01*
X54919857Y-75937714D01*
X54848428Y-76009142D01*
X54705571Y-76080571D01*
X57991285Y-75437714D02*
X57919857Y-75509142D01*
X57705571Y-75580571D01*
X57562714Y-75580571D01*
X57348428Y-75509142D01*
X57205571Y-75366285D01*
X57134142Y-75223428D01*
X57062714Y-74937714D01*
X57062714Y-74723428D01*
X57134142Y-74437714D01*
X57205571Y-74294857D01*
X57348428Y-74152000D01*
X57562714Y-74080571D01*
X57705571Y-74080571D01*
X57919857Y-74152000D01*
X57991285Y-74223428D01*
X58848428Y-75580571D02*
X58705571Y-75509142D01*
X58634142Y-75366285D01*
X58634142Y-74080571D01*
X60062714Y-74580571D02*
X60062714Y-75580571D01*
X59419857Y-74580571D02*
X59419857Y-75366285D01*
X59491285Y-75509142D01*
X59634142Y-75580571D01*
X59848428Y-75580571D01*
X59991285Y-75509142D01*
X60062714Y-75437714D01*
X60777000Y-75580571D02*
X60777000Y-74080571D01*
X60777000Y-74652000D02*
X60919857Y-74580571D01*
X61205571Y-74580571D01*
X61348428Y-74652000D01*
X61419857Y-74723428D01*
X61491285Y-74866285D01*
X61491285Y-75294857D01*
X61419857Y-75437714D01*
X61348428Y-75509142D01*
X61205571Y-75580571D01*
X60919857Y-75580571D01*
X60777000Y-75509142D01*
D10*
D11*
D10*
D11*
X29514142Y-69580571D02*
X29514142Y-68080571D01*
X30157000Y-69580571D02*
X30157000Y-68794857D01*
X30085571Y-68652000D01*
X29942714Y-68580571D01*
X29728428Y-68580571D01*
X29585571Y-68652000D01*
X29514142Y-68723428D01*
X30657000Y-68580571D02*
X31228428Y-68580571D01*
X30871285Y-68080571D02*
X30871285Y-69366285D01*
X30942714Y-69509142D01*
X31085571Y-69580571D01*
X31228428Y-69580571D01*
X31514142Y-68580571D02*
X32085571Y-68580571D01*
X31728428Y-68080571D02*
X31728428Y-69366285D01*
X31799857Y-69509142D01*
X31942714Y-69580571D01*
X32085571Y-69580571D01*
X32585571Y-68580571D02*
X32585571Y-70080571D01*
X32585571Y-68652000D02*
X32728428Y-68580571D01*
X33014142Y-68580571D01*
X33157000Y-68652000D01*
X33228428Y-68723428D01*
X33299857Y-68866285D01*
X33299857Y-69294857D01*
X33228428Y-69437714D01*
X33157000Y-69509142D01*
X33014142Y-69580571D01*
X32728428Y-69580571D01*
X32585571Y-69509142D01*
X33871285Y-69509142D02*
X34014142Y-69580571D01*
X34299857Y-69580571D01*
X34442714Y-69509142D01*
X34514142Y-69366285D01*
X34514142Y-69294857D01*
X34442714Y-69152000D01*
X34299857Y-69080571D01*
X34085571Y-69080571D01*
X33942714Y-69009142D01*
X33871285Y-68866285D01*
X33871285Y-68794857D01*
X33942714Y-68652000D01*
X34085571Y-68580571D01*
X34299857Y-68580571D01*
X34442714Y-68652000D01*
X35157000Y-69437714D02*
X35228428Y-69509142D01*
X35157000Y-69580571D01*
X35085571Y-69509142D01*
X35157000Y-69437714D01*
X35157000Y-69580571D01*
X35157000Y-68652000D02*
X35228428Y-68723428D01*
X35157000Y-68794857D01*
X35085571Y-68723428D01*
X35157000Y-68652000D01*
X35157000Y-68794857D01*
X36942714Y-68009142D02*
X35657000Y-69937714D01*
X38514142Y-68009142D02*
X37228428Y-69937714D01*
X39657000Y-69509142D02*
X39514142Y-69580571D01*
X39228428Y-69580571D01*
X39085571Y-69509142D01*
X39014142Y-69437714D01*
X38942714Y-69294857D01*
X38942714Y-68866285D01*
X39014142Y-68723428D01*
X39085571Y-68652000D01*
X39228428Y-68580571D01*
X39514142Y-68580571D01*
X39657000Y-68652000D01*
X40299857Y-69580571D02*
X40299857Y-68580571D01*
X40299857Y-68866285D02*
X40371285Y-68723428D01*
X40442714Y-68652000D01*
X40585571Y-68580571D01*
X40728428Y-68580571D01*
X41799857Y-69509142D02*
X41657000Y-69580571D01*
X41371285Y-69580571D01*
X41228428Y-69509142D01*
X41157000Y-69366285D01*
X41157000Y-68794857D01*
X41228428Y-68652000D01*
X41371285Y-68580571D01*
X41657000Y-68580571D01*
X41799857Y-68652000D01*
X41871285Y-68794857D01*
X41871285Y-68937714D01*
X41157000Y-69080571D01*
X43157000Y-69580571D02*
X43157000Y-68794857D01*
X43085571Y-68652000D01*
X42942714Y-68580571D01*
X42657000Y-68580571D01*
X42514142Y-68652000D01*
X43157000Y-69509142D02*
X43014142Y-69580571D01*
X42657000Y-69580571D01*
X42514142Y-69509142D01*
X42442714Y-69366285D01*
X42442714Y-69223428D01*
X42514142Y-69080571D01*
X42657000Y-69009142D01*
X43014142Y-69009142D01*
X43157000Y-68937714D01*
X43657000Y-68580571D02*
X44228428Y-68580571D01*
X43871285Y-68080571D02*
X43871285Y-69366285D01*
X43942714Y-69509142D01*
X44085571Y-69580571D01*
X44228428Y-69580571D01*
X44728428Y-69580571D02*
X44728428Y-68580571D01*
X44728428Y-68080571D02*
X44657000Y-68152000D01*
X44728428Y-68223428D01*
X44799857Y-68152000D01*
X44728428Y-68080571D01*
X44728428Y-68223428D01*
X45299857Y-68580571D02*
X45657000Y-69580571D01*
X46014142Y-68580571D01*
X47157000Y-69509142D02*
X47014142Y-69580571D01*
X46728428Y-69580571D01*
X46585571Y-69509142D01*
X46514142Y-69366285D01*
X46514142Y-68794857D01*
X46585571Y-68652000D01*
X46728428Y-68580571D01*
X47014142Y-68580571D01*
X47157000Y-68652000D01*
X47228428Y-68794857D01*
X47228428Y-68937714D01*
X46514142Y-69080571D01*
X48514142Y-69509142D02*
X48371285Y-69580571D01*
X48085571Y-69580571D01*
X47942714Y-69509142D01*
X47871285Y-69437714D01*
X47799857Y-69294857D01*
X47799857Y-68866285D01*
X47871285Y-68723428D01*
X47942714Y-68652000D01*
X48085571Y-68580571D01*
X48371285Y-68580571D01*
X48514142Y-68652000D01*
X49371285Y-69580571D02*
X49228428Y-69509142D01*
X49157000Y-69437714D01*
X49085571Y-69294857D01*
X49085571Y-68866285D01*
X49157000Y-68723428D01*
X49228428Y-68652000D01*
X49371285Y-68580571D01*
X49585571Y-68580571D01*
X49728428Y-68652000D01*
X49799857Y-68723428D01*
X49871285Y-68866285D01*
X49871285Y-69294857D01*
X49799857Y-69437714D01*
X49728428Y-69509142D01*
X49585571Y-69580571D01*
X49371285Y-69580571D01*
X50514142Y-69580571D02*
X50514142Y-68580571D01*
X50514142Y-68723428D02*
X50585571Y-68652000D01*
X50728428Y-68580571D01*
X50942714Y-68580571D01*
X51085571Y-68652000D01*
X51157000Y-68794857D01*
X51157000Y-69580571D01*
X51157000Y-68794857D02*
X51228428Y-68652000D01*
X51371285Y-68580571D01*
X51585571Y-68580571D01*
X51728428Y-68652000D01*
X51799857Y-68794857D01*
X51799857Y-69580571D01*
X52514142Y-69580571D02*
X52514142Y-68580571D01*
X52514142Y-68723428D02*
X52585571Y-68652000D01*
X52728428Y-68580571D01*
X52942714Y-68580571D01*
X53085571Y-68652000D01*
X53157000Y-68794857D01*
X53157000Y-69580571D01*
X53157000Y-68794857D02*
X53228428Y-68652000D01*
X53371285Y-68580571D01*
X53585571Y-68580571D01*
X53728428Y-68652000D01*
X53799857Y-68794857D01*
X53799857Y-69580571D01*
X54728428Y-69580571D02*
X54585571Y-69509142D01*
X54514142Y-69437714D01*
X54442714Y-69294857D01*
X54442714Y-68866285D01*
X54514142Y-68723428D01*
X54585571Y-68652000D01*
X54728428Y-68580571D01*
X54942714Y-68580571D01*
X55085571Y-68652000D01*
X55157000Y-68723428D01*
X55228428Y-68866285D01*
X55228428Y-69294857D01*
X55157000Y-69437714D01*
X55085571Y-69509142D01*
X54942714Y-69580571D01*
X54728428Y-69580571D01*
X55871285Y-68580571D02*
X55871285Y-69580571D01*
X55871285Y-68723428D02*
X55942714Y-68652000D01*
X56085571Y-68580571D01*
X56299857Y-68580571D01*
X56442714Y-68652000D01*
X56514142Y-68794857D01*
X56514142Y-69580571D01*
X57157000Y-69509142D02*
X57299857Y-69580571D01*
X57585571Y-69580571D01*
X57728428Y-69509142D01*
X57799857Y-69366285D01*
X57799857Y-69294857D01*
X57728428Y-69152000D01*
X57585571Y-69080571D01*
X57371285Y-69080571D01*
X57228428Y-69009142D01*
X57157000Y-68866285D01*
X57157000Y-68794857D01*
X57228428Y-68652000D01*
X57371285Y-68580571D01*
X57585571Y-68580571D01*
X57728428Y-68652000D01*
X58442714Y-69437714D02*
X58514142Y-69509142D01*
X58442714Y-69580571D01*
X58371285Y-69509142D01*
X58442714Y-69437714D01*
X58442714Y-69580571D01*
X59371285Y-69580571D02*
X59228428Y-69509142D01*
X59157000Y-69437714D01*
X59085571Y-69294857D01*
X59085571Y-68866285D01*
X59157000Y-68723428D01*
X59228428Y-68652000D01*
X59371285Y-68580571D01*
X59585571Y-68580571D01*
X59728428Y-68652000D01*
X59799857Y-68723428D01*
X59871285Y-68866285D01*
X59871285Y-69294857D01*
X59799857Y-69437714D01*
X59728428Y-69509142D01*
X59585571Y-69580571D01*
X59371285Y-69580571D01*
X60514142Y-69580571D02*
X60514142Y-68580571D01*
X60514142Y-68866285D02*
X60585571Y-68723428D01*
X60657000Y-68652000D01*
X60799857Y-68580571D01*
X60942714Y-68580571D01*
X62085571Y-68580571D02*
X62085571Y-69794857D01*
X62014142Y-69937714D01*
X61942714Y-70009142D01*
X61799857Y-70080571D01*
X61585571Y-70080571D01*
X61442714Y-70009142D01*
X62085571Y-69509142D02*
X61942714Y-69580571D01*
X61657000Y-69580571D01*
X61514142Y-69509142D01*
X61442714Y-69437714D01*
X61371285Y-69294857D01*
X61371285Y-68866285D01*
X61442714Y-68723428D01*
X61514142Y-68652000D01*
X61657000Y-68580571D01*
X61942714Y-68580571D01*
X62085571Y-68652000D01*
X63871285Y-68009142D02*
X62585571Y-69937714D01*
X64585571Y-69580571D02*
X64442714Y-69509142D01*
X64371285Y-69366285D01*
X64371285Y-68080571D01*
X65157000Y-69580571D02*
X65157000Y-68580571D01*
X65157000Y-68080571D02*
X65085571Y-68152000D01*
X65157000Y-68223428D01*
X65228428Y-68152000D01*
X65157000Y-68080571D01*
X65157000Y-68223428D01*
X66514142Y-69509142D02*
X66371285Y-69580571D01*
X66085571Y-69580571D01*
X65942714Y-69509142D01*
X65871285Y-69437714D01*
X65799857Y-69294857D01*
X65799857Y-68866285D01*
X65871285Y-68723428D01*
X65942714Y-68652000D01*
X66085571Y-68580571D01*
X66371285Y-68580571D01*
X66514142Y-68652000D01*
X67728428Y-69509142D02*
X67585571Y-69580571D01*
X67299857Y-69580571D01*
X67157000Y-69509142D01*
X67085571Y-69366285D01*
X67085571Y-68794857D01*
X67157000Y-68652000D01*
X67299857Y-68580571D01*
X67585571Y-68580571D01*
X67728428Y-68652000D01*
X67799857Y-68794857D01*
X67799857Y-68937714D01*
X67085571Y-69080571D01*
X68442714Y-68580571D02*
X68442714Y-69580571D01*
X68442714Y-68723428D02*
X68514142Y-68652000D01*
X68657000Y-68580571D01*
X68871285Y-68580571D01*
X69014142Y-68652000D01*
X69085571Y-68794857D01*
X69085571Y-69580571D01*
X69728428Y-69509142D02*
X69871285Y-69580571D01*
X70157000Y-69580571D01*
X70299857Y-69509142D01*
X70371285Y-69366285D01*
X70371285Y-69294857D01*
X70299857Y-69152000D01*
X70157000Y-69080571D01*
X69942714Y-69080571D01*
X69799857Y-69009142D01*
X69728428Y-68866285D01*
X69728428Y-68794857D01*
X69799857Y-68652000D01*
X69942714Y-68580571D01*
X70157000Y-68580571D01*
X70299857Y-68652000D01*
X71585571Y-69509142D02*
X71442714Y-69580571D01*
X71157000Y-69580571D01*
X71014142Y-69509142D01*
X70942714Y-69366285D01*
X70942714Y-68794857D01*
X71014142Y-68652000D01*
X71157000Y-68580571D01*
X71442714Y-68580571D01*
X71585571Y-68652000D01*
X71657000Y-68794857D01*
X71657000Y-68937714D01*
X70942714Y-69080571D01*
X72228428Y-69509142D02*
X72371285Y-69580571D01*
X72657000Y-69580571D01*
X72799857Y-69509142D01*
X72871285Y-69366285D01*
X72871285Y-69294857D01*
X72799857Y-69152000D01*
X72657000Y-69080571D01*
X72442714Y-69080571D01*
X72299857Y-69009142D01*
X72228428Y-68866285D01*
X72228428Y-68794857D01*
X72299857Y-68652000D01*
X72442714Y-68580571D01*
X72657000Y-68580571D01*
X72799857Y-68652000D01*
X74585571Y-68009142D02*
X73299857Y-69937714D01*
X75085571Y-69580571D02*
X75085571Y-68080571D01*
X75085571Y-68652000D02*
X75228428Y-68580571D01*
X75514142Y-68580571D01*
X75657000Y-68652000D01*
X75728428Y-68723428D01*
X75799857Y-68866285D01*
X75799857Y-69294857D01*
X75728428Y-69437714D01*
X75657000Y-69509142D01*
X75514142Y-69580571D01*
X75228428Y-69580571D01*
X75085571Y-69509142D01*
X76299857Y-68580571D02*
X76657000Y-69580571D01*
X77014142Y-68580571D02*
X76657000Y-69580571D01*
X76514142Y-69937714D01*
X76442714Y-70009142D01*
X76299857Y-70080571D01*
X77585571Y-69009142D02*
X78728428Y-69009142D01*
X79371285Y-69509142D02*
X79514142Y-69580571D01*
X79799857Y-69580571D01*
X79942714Y-69509142D01*
X80014142Y-69366285D01*
X80014142Y-69294857D01*
X79942714Y-69152000D01*
X79799857Y-69080571D01*
X79585571Y-69080571D01*
X79442714Y-69009142D01*
X79371285Y-68866285D01*
X79371285Y-68794857D01*
X79442714Y-68652000D01*
X79585571Y-68580571D01*
X79799857Y-68580571D01*
X79942714Y-68652000D01*
X81299857Y-69580571D02*
X81299857Y-68794857D01*
X81228428Y-68652000D01*
X81085571Y-68580571D01*
X80799857Y-68580571D01*
X80657000Y-68652000D01*
X81299857Y-69509142D02*
X81157000Y-69580571D01*
X80799857Y-69580571D01*
X80657000Y-69509142D01*
X80585571Y-69366285D01*
X80585571Y-69223428D01*
X80657000Y-69080571D01*
X80799857Y-69009142D01*
X81157000Y-69009142D01*
X81299857Y-68937714D01*
X83085571Y-68009142D02*
X81799857Y-69937714D01*
X84228428Y-68580571D02*
X84228428Y-69580571D01*
X83871285Y-68009142D02*
X83514142Y-69080571D01*
X84442714Y-69080571D01*
X85014142Y-69437714D02*
X85085571Y-69509142D01*
X85014142Y-69580571D01*
X84942714Y-69509142D01*
X85014142Y-69437714D01*
X85014142Y-69580571D01*
X86014142Y-68080571D02*
X86157000Y-68080571D01*
X86299857Y-68152000D01*
X86371285Y-68223428D01*
X86442714Y-68366285D01*
X86514142Y-68652000D01*
X86514142Y-69009142D01*
X86442714Y-69294857D01*
X86371285Y-69437714D01*
X86299857Y-69509142D01*
X86157000Y-69580571D01*
X86014142Y-69580571D01*
X85871285Y-69509142D01*
X85799857Y-69437714D01*
X85728428Y-69294857D01*
X85657000Y-69009142D01*
X85657000Y-68652000D01*
X85728428Y-68366285D01*
X85799857Y-68223428D01*
X85871285Y-68152000D01*
X86014142Y-68080571D01*
X88228428Y-68009142D02*
X86942714Y-69937714D01*
D10*
D11*
X30228428Y-66580571D02*
X29514142Y-66580571D01*
X29514142Y-65080571D01*
X30728428Y-66580571D02*
X30728428Y-65580571D01*
X30728428Y-65080571D02*
X30657000Y-65152000D01*
X30728428Y-65223428D01*
X30799857Y-65152000D01*
X30728428Y-65080571D01*
X30728428Y-65223428D01*
X32085571Y-66509142D02*
X31942714Y-66580571D01*
X31657000Y-66580571D01*
X31514142Y-66509142D01*
X31442714Y-66437714D01*
X31371285Y-66294857D01*
X31371285Y-65866285D01*
X31442714Y-65723428D01*
X31514142Y-65652000D01*
X31657000Y-65580571D01*
X31942714Y-65580571D01*
X32085571Y-65652000D01*
X33299857Y-66509142D02*
X33157000Y-66580571D01*
X32871285Y-66580571D01*
X32728428Y-66509142D01*
X32657000Y-66366285D01*
X32657000Y-65794857D01*
X32728428Y-65652000D01*
X32871285Y-65580571D01*
X33157000Y-65580571D01*
X33299857Y-65652000D01*
X33371285Y-65794857D01*
X33371285Y-65937714D01*
X32657000Y-66080571D01*
X34014142Y-65580571D02*
X34014142Y-66580571D01*
X34014142Y-65723428D02*
X34085571Y-65652000D01*
X34228428Y-65580571D01*
X34442714Y-65580571D01*
X34585571Y-65652000D01*
X34657000Y-65794857D01*
X34657000Y-66580571D01*
X35299857Y-66509142D02*
X35442714Y-66580571D01*
X35728428Y-66580571D01*
X35871285Y-66509142D01*
X35942714Y-66366285D01*
X35942714Y-66294857D01*
X35871285Y-66152000D01*
X35728428Y-66080571D01*
X35514142Y-66080571D01*
X35371285Y-66009142D01*
X35299857Y-65866285D01*
X35299857Y-65794857D01*
X35371285Y-65652000D01*
X35514142Y-65580571D01*
X35728428Y-65580571D01*
X35871285Y-65652000D01*
X37157000Y-66509142D02*
X37014142Y-66580571D01*
X36728428Y-66580571D01*
X36585571Y-66509142D01*
X36514142Y-66366285D01*
X36514142Y-65794857D01*
X36585571Y-65652000D01*
X36728428Y-65580571D01*
X37014142Y-65580571D01*
X37157000Y-65652000D01*
X37228428Y-65794857D01*
X37228428Y-65937714D01*
X36514142Y-66080571D01*
X37871285Y-66437714D02*
X37942714Y-66509142D01*
X37871285Y-66580571D01*
X37799857Y-66509142D01*
X37871285Y-66437714D01*
X37871285Y-66580571D01*
X37871285Y-65652000D02*
X37942714Y-65723428D01*
X37871285Y-65794857D01*
X37799857Y-65723428D01*
X37871285Y-65652000D01*
X37871285Y-65794857D01*
X40585571Y-66437714D02*
X40514142Y-66509142D01*
X40299857Y-66580571D01*
X40157000Y-66580571D01*
X39942714Y-66509142D01*
X39799857Y-66366285D01*
X39728428Y-66223428D01*
X39657000Y-65937714D01*
X39657000Y-65723428D01*
X39728428Y-65437714D01*
X39799857Y-65294857D01*
X39942714Y-65152000D01*
X40157000Y-65080571D01*
X40299857Y-65080571D01*
X40514142Y-65152000D01*
X40585571Y-65223428D01*
X42085571Y-66437714D02*
X42014142Y-66509142D01*
X41799857Y-66580571D01*
X41657000Y-66580571D01*
X41442714Y-66509142D01*
X41299857Y-66366285D01*
X41228428Y-66223428D01*
X41157000Y-65937714D01*
X41157000Y-65723428D01*
X41228428Y-65437714D01*
X41299857Y-65294857D01*
X41442714Y-65152000D01*
X41657000Y-65080571D01*
X41799857Y-65080571D01*
X42014142Y-65152000D01*
X42085571Y-65223428D01*
X44371285Y-65794857D02*
X44585571Y-65866285D01*
X44657000Y-65937714D01*
X44728428Y-66080571D01*
X44728428Y-66294857D01*
X44657000Y-66437714D01*
X44585571Y-66509142D01*
X44442714Y-66580571D01*
X43871285Y-66580571D01*
X43871285Y-65080571D01*
X44371285Y-65080571D01*
X44514142Y-65152000D01*
X44585571Y-65223428D01*
X44657000Y-65366285D01*
X44657000Y-65509142D01*
X44585571Y-65652000D01*
X44514142Y-65723428D01*
X44371285Y-65794857D01*
X43871285Y-65794857D01*
X45657000Y-65866285D02*
X45657000Y-66580571D01*
X45157000Y-65080571D02*
X45657000Y-65866285D01*
X46157000Y-65080571D01*
X46657000Y-66009142D02*
X47799857Y-66009142D01*
X48442714Y-66509142D02*
X48657000Y-66580571D01*
X49014142Y-66580571D01*
X49157000Y-66509142D01*
X49228428Y-66437714D01*
X49299857Y-66294857D01*
X49299857Y-66152000D01*
X49228428Y-66009142D01*
X49157000Y-65937714D01*
X49014142Y-65866285D01*
X48728428Y-65794857D01*
X48585571Y-65723428D01*
X48514142Y-65652000D01*
X48442714Y-65509142D01*
X48442714Y-65366285D01*
X48514142Y-65223428D01*
X48585571Y-65152000D01*
X48728428Y-65080571D01*
X49085571Y-65080571D01*
X49299857Y-65152000D01*
X49871285Y-66152000D02*
X50585571Y-66152000D01*
X49728428Y-66580571D02*
X50228428Y-65080571D01*
X50728428Y-66580571D01*
X53014142Y-65580571D02*
X53014142Y-66580571D01*
X52657000Y-65009142D02*
X52299857Y-66080571D01*
X53228428Y-66080571D01*
X53799857Y-66437714D02*
X53871285Y-66509142D01*
X53799857Y-66580571D01*
X53728428Y-66509142D01*
X53799857Y-66437714D01*
X53799857Y-66580571D01*
X54799857Y-65080571D02*
X54942714Y-65080571D01*
X55085571Y-65152000D01*
X55157000Y-65223428D01*
X55228428Y-65366285D01*
X55299857Y-65652000D01*
X55299857Y-66009142D01*
X55228428Y-66294857D01*
X55157000Y-66437714D01*
X55085571Y-66509142D01*
X54942714Y-66580571D01*
X54799857Y-66580571D01*
X54657000Y-66509142D01*
X54585571Y-66437714D01*
X54514142Y-66294857D01*
X54442714Y-66009142D01*
X54442714Y-65652000D01*
X54514142Y-65366285D01*
X54585571Y-65223428D01*
X54657000Y-65152000D01*
X54799857Y-65080571D01*
D10*
D11*
X29442714Y-63152000D02*
X30157000Y-63152000D01*
X29299857Y-63580571D02*
X29799857Y-62080571D01*
X30299857Y-63580571D01*
X31442714Y-62580571D02*
X31442714Y-63580571D01*
X30799857Y-62580571D02*
X30799857Y-63366285D01*
X30871285Y-63509142D01*
X31014142Y-63580571D01*
X31228428Y-63580571D01*
X31371285Y-63509142D01*
X31442714Y-63437714D01*
X31942714Y-62580571D02*
X32514142Y-62580571D01*
X32157000Y-62080571D02*
X32157000Y-63366285D01*
X32228428Y-63509142D01*
X32371285Y-63580571D01*
X32514142Y-63580571D01*
X33014142Y-63580571D02*
X33014142Y-62080571D01*
X33657000Y-63580571D02*
X33657000Y-62794857D01*
X33585571Y-62652000D01*
X33442714Y-62580571D01*
X33228428Y-62580571D01*
X33085571Y-62652000D01*
X33014142Y-62723428D01*
X34585571Y-63580571D02*
X34442714Y-63509142D01*
X34371285Y-63437714D01*
X34299857Y-63294857D01*
X34299857Y-62866285D01*
X34371285Y-62723428D01*
X34442714Y-62652000D01*
X34585571Y-62580571D01*
X34799857Y-62580571D01*
X34942714Y-62652000D01*
X35014142Y-62723428D01*
X35085571Y-62866285D01*
X35085571Y-63294857D01*
X35014142Y-63437714D01*
X34942714Y-63509142D01*
X34799857Y-63580571D01*
X34585571Y-63580571D01*
X35728428Y-63580571D02*
X35728428Y-62580571D01*
X35728428Y-62866285D02*
X35799857Y-62723428D01*
X35871285Y-62652000D01*
X36014142Y-62580571D01*
X36157000Y-62580571D01*
X36657000Y-63437714D02*
X36728428Y-63509142D01*
X36657000Y-63580571D01*
X36585571Y-63509142D01*
X36657000Y-63437714D01*
X36657000Y-63580571D01*
X36657000Y-62652000D02*
X36728428Y-62723428D01*
X36657000Y-62794857D01*
X36585571Y-62723428D01*
X36657000Y-62652000D01*
X36657000Y-62794857D01*
X38942714Y-62080571D02*
X38942714Y-63152000D01*
X38871285Y-63366285D01*
X38728428Y-63509142D01*
X38514142Y-63580571D01*
X38371285Y-63580571D01*
X40299857Y-63580571D02*
X40299857Y-62794857D01*
X40228428Y-62652000D01*
X40085571Y-62580571D01*
X39799857Y-62580571D01*
X39657000Y-62652000D01*
X40299857Y-63509142D02*
X40157000Y-63580571D01*
X39799857Y-63580571D01*
X39657000Y-63509142D01*
X39585571Y-63366285D01*
X39585571Y-63223428D01*
X39657000Y-63080571D01*
X39799857Y-63009142D01*
X40157000Y-63009142D01*
X40299857Y-62937714D01*
X41657000Y-63509142D02*
X41514142Y-63580571D01*
X41228428Y-63580571D01*
X41085571Y-63509142D01*
X41014142Y-63437714D01*
X40942714Y-63294857D01*
X40942714Y-62866285D01*
X41014142Y-62723428D01*
X41085571Y-62652000D01*
X41228428Y-62580571D01*
X41514142Y-62580571D01*
X41657000Y-62652000D01*
X42514142Y-63580571D02*
X42371285Y-63509142D01*
X42299857Y-63437714D01*
X42228428Y-63294857D01*
X42228428Y-62866285D01*
X42299857Y-62723428D01*
X42371285Y-62652000D01*
X42514142Y-62580571D01*
X42728428Y-62580571D01*
X42871285Y-62652000D01*
X42942714Y-62723428D01*
X43014142Y-62866285D01*
X43014142Y-63294857D01*
X42942714Y-63437714D01*
X42871285Y-63509142D01*
X42728428Y-63580571D01*
X42514142Y-63580571D01*
X43657000Y-63580571D02*
X43657000Y-62080571D01*
X43657000Y-62652000D02*
X43799857Y-62580571D01*
X44085571Y-62580571D01*
X44228428Y-62652000D01*
X44299857Y-62723428D01*
X44371285Y-62866285D01*
X44371285Y-63294857D01*
X44299857Y-63437714D01*
X44228428Y-63509142D01*
X44085571Y-63580571D01*
X43799857Y-63580571D01*
X43657000Y-63509142D01*
X46085571Y-63152000D02*
X46799857Y-63152000D01*
X45942714Y-63580571D02*
X46442714Y-62080571D01*
X46942714Y-63580571D01*
X47442714Y-63580571D02*
X47442714Y-62580571D01*
X47442714Y-62866285D02*
X47514142Y-62723428D01*
X47585571Y-62652000D01*
X47728428Y-62580571D01*
X47871285Y-62580571D01*
X48371285Y-63580571D02*
X48371285Y-62580571D01*
X48371285Y-62723428D02*
X48442714Y-62652000D01*
X48585571Y-62580571D01*
X48799857Y-62580571D01*
X48942714Y-62652000D01*
X49014142Y-62794857D01*
X49014142Y-63580571D01*
X49014142Y-62794857D02*
X49085571Y-62652000D01*
X49228428Y-62580571D01*
X49442714Y-62580571D01*
X49585571Y-62652000D01*
X49657000Y-62794857D01*
X49657000Y-63580571D01*
X50299857Y-63509142D02*
X50442714Y-63580571D01*
X50728428Y-63580571D01*
X50871285Y-63509142D01*
X50942714Y-63366285D01*
X50942714Y-63294857D01*
X50871285Y-63152000D01*
X50728428Y-63080571D01*
X50514142Y-63080571D01*
X50371285Y-63009142D01*
X50299857Y-62866285D01*
X50299857Y-62794857D01*
X50371285Y-62652000D01*
X50514142Y-62580571D01*
X50728428Y-62580571D01*
X50871285Y-62652000D01*
X51371285Y-62580571D02*
X51942714Y-62580571D01*
X51585571Y-62080571D02*
X51585571Y-63366285D01*
X51657000Y-63509142D01*
X51799857Y-63580571D01*
X51942714Y-63580571D01*
X52442714Y-63580571D02*
X52442714Y-62580571D01*
X52442714Y-62866285D02*
X52514142Y-62723428D01*
X52585571Y-62652000D01*
X52728428Y-62580571D01*
X52871285Y-62580571D01*
X53585571Y-63580571D02*
X53442714Y-63509142D01*
X53371285Y-63437714D01*
X53299857Y-63294857D01*
X53299857Y-62866285D01*
X53371285Y-62723428D01*
X53442714Y-62652000D01*
X53585571Y-62580571D01*
X53799857Y-62580571D01*
X53942714Y-62652000D01*
X54014142Y-62723428D01*
X54085571Y-62866285D01*
X54085571Y-63294857D01*
X54014142Y-63437714D01*
X53942714Y-63509142D01*
X53799857Y-63580571D01*
X53585571Y-63580571D01*
X54728428Y-62580571D02*
X54728428Y-63580571D01*
X54728428Y-62723428D02*
X54799857Y-62652000D01*
X54942714Y-62580571D01*
X55157000Y-62580571D01*
X55299857Y-62652000D01*
X55371285Y-62794857D01*
X55371285Y-63580571D01*
X56728428Y-62580571D02*
X56728428Y-63794857D01*
X56657000Y-63937714D01*
X56585571Y-64009142D01*
X56442714Y-64080571D01*
X56228428Y-64080571D01*
X56085571Y-64009142D01*
X56728428Y-63509142D02*
X56585571Y-63580571D01*
X56299857Y-63580571D01*
X56157000Y-63509142D01*
X56085571Y-63437714D01*
X56014142Y-63294857D01*
X56014142Y-62866285D01*
X56085571Y-62723428D01*
X56157000Y-62652000D01*
X56299857Y-62580571D01*
X56585571Y-62580571D01*
X56728428Y-62652000D01*
D10*
D11*
X48082000Y-86402000D02*
X48082000Y-89402000D01*
D10*
D11*
X112082000Y-86402000D02*
X112082000Y-92902000D01*
D14*
%TO.P,JP1,1,A*%
%TO.N,/3V3*%
X100432848Y-38947396D03*
D15*
%TO.P,JP1,2,B*%
%TO.N,/ADR_BNO055*%
X101882848Y-38947396D03*
%TD*%
D16*
%TO.P,J7,1,Pin_1*%
%TO.N,/P5V_HAT*%
X49972304Y-41749996D03*
D17*
%TO.P,J7,2,Pin_2*%
%TO.N,/P5V*%
X52512304Y-41749996D03*
%TD*%
D18*
%TO.P,Q3,1,E*%
%TO.N,/P5V_HAT*%
X50692528Y-48912316D03*
D19*
%TO.P,Q3,2,B*%
%TO.N,Net-(Q1-Pad2)*%
X51962528Y-48912316D03*
%TO.P,Q3,3,C*%
%TO.N,Net-(Q2-Pad1)*%
X53232528Y-48912316D03*
%TD*%
D20*
%TO.P,Q2,1,G*%
%TO.N,Net-(Q2-Pad1)*%
X45197048Y-41809396D03*
%TO.P,Q2,2,S*%
%TO.N,/P5V_HAT*%
X47097048Y-41809396D03*
%TO.P,Q2,3,D*%
%TO.N,/P5V*%
X46147048Y-39709396D03*
%TD*%
D16*
%TO.P,J3,1,Pin_1*%
%TO.N,/3V3*%
X64790448Y-63432596D03*
D17*
%TO.P,J3,2,Pin_2*%
%TO.N,GND*%
X64790448Y-65972596D03*
%TO.P,J3,3,Pin_3*%
%TO.N,unconnected-(J3-Pad3)*%
X64790448Y-68512596D03*
%TO.P,J3,4,Pin_4*%
%TO.N,unconnected-(J3-Pad4)*%
X64790448Y-71052596D03*
%TO.P,J3,5,Pin_5*%
%TO.N,unconnected-(J3-Pad5)*%
X64790448Y-73592596D03*
%TO.P,J3,6,Pin_6*%
%TO.N,/SENSOR_SCL*%
X64790448Y-76132596D03*
%TO.P,J3,7,Pin_7*%
%TO.N,/SENSOR_SDA*%
X64790448Y-78672596D03*
%TD*%
D21*
%TO.P,J6,1,Pin_1*%
%TO.N,/P5V*%
X53010448Y-63116396D03*
D22*
%TO.P,J6,2,Pin_2*%
%TO.N,GND*%
X53010448Y-66616396D03*
%TD*%
D16*
%TO.P,J2,1,Pin_1*%
%TO.N,/3V3*%
X94286048Y-38820396D03*
D17*
%TO.P,J2,2,Pin_2*%
%TO.N,unconnected-(J2-Pad2)*%
X94286048Y-41360396D03*
%TO.P,J2,3,Pin_3*%
%TO.N,GND*%
X94286048Y-43900396D03*
%TO.P,J2,4,Pin_4*%
%TO.N,/SENSOR_SCL*%
X94286048Y-46440396D03*
%TO.P,J2,5,Pin_5*%
%TO.N,/SENSOR_SDA*%
X94286048Y-48980396D03*
%TO.P,J2,6,Pin_6*%
%TO.N,unconnected-(J2-Pad6)*%
X94286048Y-51520396D03*
%TD*%
D23*
%TO.P,R3,2*%
%TO.N,GND*%
X100276592Y-43949740D03*
%TO.P,R3,1*%
%TO.N,/ADR_BNO055*%
X101926592Y-43949740D03*
%TD*%
D24*
%TO.P,J10,1,Pin_1*%
%TO.N,unconnected-(J10-Pad1)*%
X66285848Y-34028396D03*
D25*
%TO.P,J10,2,Pin_2*%
%TO.N,unconnected-(J10-Pad2)*%
X68285848Y-34028396D03*
%TO.P,J10,3,Pin_3*%
%TO.N,unconnected-(J10-Pad3)*%
X70285848Y-34028396D03*
%TO.P,J10,4,Pin_4*%
%TO.N,unconnected-(J10-Pad4)*%
X72285848Y-34028396D03*
%TO.P,J10,5,Pin_5*%
%TO.N,unconnected-(J10-Pad5)*%
X74285848Y-34028396D03*
%TO.P,J10,6,Pin_6*%
%TO.N,unconnected-(J10-Pad6)*%
X76285848Y-34028396D03*
%TO.P,J10,7,Pin_7*%
%TO.N,unconnected-(J10-Pad7)*%
X78285848Y-34028396D03*
%TO.P,J10,8,Pin_8*%
%TO.N,unconnected-(J10-Pad8)*%
X80285848Y-34028396D03*
%TO.P,J10,9,Pin_9*%
%TO.N,unconnected-(J10-Pad9)*%
X82285848Y-34028396D03*
%TO.P,J10,10,Pin_10*%
%TO.N,unconnected-(J10-Pad10)*%
X84285848Y-34028396D03*
%TD*%
D16*
%TO.P,J5,1,Pin_1*%
%TO.N,unconnected-(J5-Pad1)*%
X112085648Y-41436596D03*
D17*
%TO.P,J5,2,Pin_2*%
%TO.N,/ADR_BNO055*%
X112085648Y-43976596D03*
%TO.P,J5,3,Pin_3*%
%TO.N,unconnected-(J5-Pad3)*%
X112085648Y-46516596D03*
%TO.P,J5,4,Pin_4*%
%TO.N,unconnected-(J5-Pad4)*%
X112085648Y-49056596D03*
%TD*%
D18*
%TO.P,Q1,1,E*%
%TO.N,/P5V*%
X49825648Y-34769396D03*
D19*
%TO.P,Q1,2,B*%
%TO.N,Net-(Q1-Pad2)*%
X51095648Y-34769396D03*
%TO.P,Q1,3,C*%
X52365648Y-34769396D03*
%TD*%
D16*
%TO.P,J9,1,Pin_1*%
%TO.N,Net-(J9-Pad1)*%
X85669648Y-62391596D03*
D17*
%TO.P,J9,2,Pin_2*%
%TO.N,GND*%
X85669648Y-64931596D03*
%TD*%
D23*
%TO.P,R2,1*%
%TO.N,Net-(Q2-Pad1)*%
X47631328Y-52620716D03*
%TO.P,R2,2*%
%TO.N,GND*%
X45981328Y-52620716D03*
%TD*%
D24*
%TO.P,J8,1,Pin_1*%
%TO.N,/3V3*%
X66285848Y-56075596D03*
D25*
%TO.P,J8,2,Pin_2*%
%TO.N,/XBEE_TX*%
X68285848Y-56075596D03*
%TO.P,J8,3,Pin_3*%
%TO.N,/XBEE_RX*%
X70285848Y-56075596D03*
%TO.P,J8,4,Pin_4*%
%TO.N,unconnected-(J8-Pad4)*%
X72285848Y-56075596D03*
%TO.P,J8,5,Pin_5*%
%TO.N,unconnected-(J8-Pad5)*%
X74285848Y-56075596D03*
%TO.P,J8,6,Pin_6*%
%TO.N,unconnected-(J8-Pad6)*%
X76285848Y-56075596D03*
%TO.P,J8,7,Pin_7*%
%TO.N,unconnected-(J8-Pad7)*%
X78285848Y-56075596D03*
%TO.P,J8,8,Pin_8*%
%TO.N,unconnected-(J8-Pad8)*%
X80285848Y-56075596D03*
%TO.P,J8,9,Pin_9*%
%TO.N,unconnected-(J8-Pad9)*%
X82285848Y-56075596D03*
%TO.P,J8,10,Pin_10*%
%TO.N,GND*%
X84285848Y-56075596D03*
%TD*%
D16*
%TO.P,J1,1,Pin_1*%
%TO.N,/3V3*%
X105964992Y-62405540D03*
D17*
%TO.P,J1,2,Pin_2*%
%TO.N,unconnected-(J1-Pad2)*%
X103424992Y-62405540D03*
%TO.P,J1,3,Pin_3*%
%TO.N,GND*%
X100884992Y-62405540D03*
%TO.P,J1,4,Pin_4*%
%TO.N,/SENSOR_SCL*%
X98344992Y-62405540D03*
%TO.P,J1,5,Pin_5*%
%TO.N,/SENSOR_SDA*%
X95804992Y-62405540D03*
%TO.P,J1,6,Pin_6*%
%TO.N,unconnected-(J1-Pad6)*%
X93264992Y-62405540D03*
%TD*%
D23*
%TO.P,R1,1*%
%TO.N,Net-(Q1-Pad2)*%
X46386728Y-48988516D03*
%TO.P,R1,2*%
%TO.N,GND*%
X44736728Y-48988516D03*
%TD*%
D16*
%TO.P,J4,1,Pin_1*%
%TO.N,unconnected-(J4-Pad1)*%
X105888048Y-75116996D03*
D17*
%TO.P,J4,2,Pin_2*%
%TO.N,unconnected-(J4-Pad2)*%
X103348048Y-75116996D03*
%TO.P,J4,3,Pin_3*%
%TO.N,unconnected-(J4-Pad3)*%
X100808048Y-75116996D03*
%TO.P,J4,4,Pin_4*%
%TO.N,unconnected-(J4-Pad4)*%
X98268048Y-75116996D03*
%TO.P,J4,5,Pin_5*%
%TO.N,unconnected-(J4-Pad5)*%
X95728048Y-75116996D03*
%TO.P,J4,6,Pin_6*%
%TO.N,unconnected-(J4-Pad6)*%
X93188048Y-75116996D03*
%TD*%
D16*
%TO.P,J11,1,3V3*%
%TO.N,/3V3*%
X57658792Y-28567340D03*
D17*
%TO.P,J11,2,5V*%
%TO.N,/P5V_HAT*%
X57658792Y-26027340D03*
%TO.P,J11,3,SDA/GPIO2*%
%TO.N,unconnected-(J11-Pad3)*%
X60198792Y-28567340D03*
%TO.P,J11,4,5V*%
%TO.N,/P5V_HAT*%
X60198792Y-26027340D03*
%TO.P,J11,5,SCL/GPIO3*%
%TO.N,unconnected-(J11-Pad5)*%
X62738792Y-28567340D03*
%TO.P,J11,6,GND*%
%TO.N,GND*%
X62738792Y-26027340D03*
%TO.P,J11,7,GCLK0/GPIO4*%
%TO.N,unconnected-(J11-Pad7)*%
X65278792Y-28567340D03*
%TO.P,J11,8,GPIO14/TXD*%
%TO.N,/XBEE_RX*%
X65278792Y-26027340D03*
%TO.P,J11,9,GND*%
%TO.N,GND*%
X67818792Y-28567340D03*
%TO.P,J11,10,GPIO15/RXD*%
%TO.N,/XBEE_TX*%
X67818792Y-26027340D03*
%TO.P,J11,11,GPIO17*%
%TO.N,unconnected-(J11-Pad11)*%
X70358792Y-28567340D03*
%TO.P,J11,12,GPIO18/PWM0*%
%TO.N,unconnected-(J11-Pad12)*%
X70358792Y-26027340D03*
%TO.P,J11,13,GPIO27*%
%TO.N,unconnected-(J11-Pad13)*%
X72898792Y-28567340D03*
%TO.P,J11,14,GND*%
%TO.N,GND*%
X72898792Y-26027340D03*
%TO.P,J11,15,GPIO22*%
%TO.N,unconnected-(J11-Pad15)*%
X75438792Y-28567340D03*
%TO.P,J11,16,GPIO23*%
%TO.N,unconnected-(J11-Pad16)*%
X75438792Y-26027340D03*
%TO.P,J11,17,3V3*%
%TO.N,/3V3*%
X77978792Y-28567340D03*
%TO.P,J11,18,GPIO24*%
%TO.N,unconnected-(J11-Pad18)*%
X77978792Y-26027340D03*
%TO.P,J11,19,MOSI0/GPIO10*%
%TO.N,unconnected-(J11-Pad19)*%
X80518792Y-28567340D03*
%TO.P,J11,20,GND*%
%TO.N,GND*%
X80518792Y-26027340D03*
%TO.P,J11,21,MISO0/GPIO9*%
%TO.N,unconnected-(J11-Pad21)*%
X83058792Y-28567340D03*
%TO.P,J11,22,GPIO25*%
%TO.N,unconnected-(J11-Pad22)*%
X83058792Y-26027340D03*
%TO.P,J11,23,SCLK0/GPIO11*%
%TO.N,/SENSOR_SDA*%
X85598792Y-28567340D03*
%TO.P,J11,24,~{CE0}/GPIO8*%
%TO.N,/SENSOR_SCL*%
X85598792Y-26027340D03*
%TO.P,J11,25,GND*%
%TO.N,GND*%
X88138792Y-28567340D03*
%TO.P,J11,26,~{CE1}/GPIO7*%
%TO.N,unconnected-(J11-Pad26)*%
X88138792Y-26027340D03*
%TO.P,J11,27,ID_SD/GPIO0*%
%TO.N,/EEPROM_SDA*%
X90678792Y-28567340D03*
%TO.P,J11,28,ID_SC/GPIO1*%
%TO.N,/EEPROM_SCL*%
X90678792Y-26027340D03*
%TO.P,J11,29,GCLK1/GPIO5*%
%TO.N,unconnected-(J11-Pad29)*%
X93218792Y-28567340D03*
%TO.P,J11,30,GND*%
%TO.N,GND*%
X93218792Y-26027340D03*
%TO.P,J11,31,GCLK2/GPIO6*%
%TO.N,unconnected-(J11-Pad31)*%
X95758792Y-28567340D03*
%TO.P,J11,32,PWM0/GPIO12*%
%TO.N,unconnected-(J11-Pad32)*%
X95758792Y-26027340D03*
%TO.P,J11,33,PWM1/GPIO13*%
%TO.N,unconnected-(J11-Pad33)*%
X98298792Y-28567340D03*
%TO.P,J11,34,GND*%
%TO.N,GND*%
X98298792Y-26027340D03*
%TO.P,J11,35,GPIO19/MISO1*%
%TO.N,unconnected-(J11-Pad35)*%
X100838792Y-28567340D03*
%TO.P,J11,36,GPIO16*%
%TO.N,unconnected-(J11-Pad36)*%
X100838792Y-26027340D03*
%TO.P,J11,37,GPIO26*%
%TO.N,unconnected-(J11-Pad37)*%
X103378792Y-28567340D03*
%TO.P,J11,38,GPIO20/MOSI1*%
%TO.N,unconnected-(J11-Pad38)*%
X103378792Y-26027340D03*
%TO.P,J11,39,GND*%
%TO.N,GND*%
X105918792Y-28567340D03*
%TO.P,J11,40,GPIO21/SCLK1*%
%TO.N,unconnected-(J11-Pad40)*%
X105918792Y-26027340D03*
%TD*%
D26*
%TO.N,/SENSOR_SDA*%
X88362048Y-69757596D03*
%TD*%
D27*
%TO.N,/P5V*%
X49565548Y-34313896D02*
X46147048Y-37732396D01*
X52512304Y-39683652D02*
X52512304Y-41749996D01*
X53010448Y-63116396D02*
X54418648Y-61708196D01*
X50206648Y-33672796D02*
X49565548Y-34313896D01*
X52517304Y-39678652D02*
X52512304Y-39683652D01*
X54418648Y-35395994D02*
X52695450Y-33672796D01*
X54418648Y-61708196D02*
X54418648Y-35395994D01*
X49825648Y-34769396D02*
X49825648Y-36986996D01*
X52695450Y-33672796D02*
X50206648Y-33672796D01*
X46147048Y-37732396D02*
X46147048Y-39709396D01*
X49825648Y-36986996D02*
X52517304Y-39678652D01*
%TO.N,/P5V_HAT*%
X50692528Y-48912316D02*
X50692528Y-42470220D01*
X47097048Y-41809396D02*
X49486248Y-41809396D01*
%TO.N,Net-(Q2-Pad1)*%
X45461248Y-50765275D02*
X47126328Y-52430355D01*
X49749128Y-52620716D02*
X53232528Y-49137316D01*
X45197048Y-41809396D02*
X45461248Y-42073596D01*
X47126328Y-52620716D02*
X49749128Y-52620716D01*
X47126328Y-52430355D02*
X47126328Y-52620716D01*
X45461248Y-42073596D02*
X45461248Y-50765275D01*
%TO.N,Net-(Q1-Pad2)*%
X46474228Y-48988516D02*
X47365128Y-48988516D01*
X53030448Y-34769396D02*
X53915048Y-35653996D01*
X51962528Y-45965916D02*
X51962528Y-48912316D01*
X51542039Y-49986827D02*
X51962528Y-49566338D01*
X53969128Y-43959316D02*
X51962528Y-45965916D01*
X48363439Y-49986827D02*
X51542039Y-49986827D01*
X51962528Y-49566338D02*
X51962528Y-48912316D01*
X47365128Y-48988516D02*
X48363439Y-49986827D01*
X53915048Y-43905236D02*
X53969128Y-43959316D01*
X51095648Y-34769396D02*
X52365648Y-34769396D01*
X53915048Y-35653996D02*
X53915048Y-43905236D01*
X52365648Y-34769396D02*
X53030448Y-34769396D01*
%TO.N,GND*%
X80518792Y-26027340D02*
X79344281Y-27201851D01*
D28*
X64146648Y-66616396D02*
X64790448Y-65972596D01*
D27*
X100884992Y-62405540D02*
X100884992Y-43985140D01*
X104744281Y-27392829D02*
X105918792Y-28567340D01*
X63913303Y-24852829D02*
X62738792Y-26027340D01*
D28*
X85669648Y-64931596D02*
X83104248Y-67496996D01*
D27*
X81693303Y-24852829D02*
X92044281Y-24852829D01*
X44649228Y-50783616D02*
X44649228Y-48988516D01*
D28*
X94286048Y-43900396D02*
X100732248Y-43900396D01*
D27*
X92044281Y-24852829D02*
X93218792Y-26027340D01*
X93218792Y-26027340D02*
X94393303Y-24852829D01*
X66453303Y-26385851D02*
X66453303Y-25540841D01*
X88138792Y-28567340D02*
X86773303Y-27201851D01*
X74073303Y-27201851D02*
X72898792Y-26027340D01*
X66453303Y-25540841D02*
X65765291Y-24852829D01*
X79344281Y-27201851D02*
X74073303Y-27201851D01*
X97124281Y-24852829D02*
X98298792Y-26027340D01*
D28*
X53010448Y-66616396D02*
X46486328Y-60092276D01*
D27*
X94393303Y-24852829D02*
X97124281Y-24852829D01*
X86773303Y-27201851D02*
X86773303Y-25731819D01*
X69184281Y-27201851D02*
X67818792Y-28567340D01*
X65765291Y-24852829D02*
X63913303Y-24852829D01*
D28*
X46486328Y-60092276D02*
X46486328Y-52620716D01*
D27*
X46486328Y-52620716D02*
X44649228Y-50783616D01*
D28*
X53010448Y-66616396D02*
X64146648Y-66616396D01*
D27*
X99664281Y-27392829D02*
X104744281Y-27392829D01*
X98298792Y-26027340D02*
X99664281Y-27392829D01*
D28*
X64790448Y-65972596D02*
X66416448Y-67598596D01*
D27*
X71724281Y-27201851D02*
X69184281Y-27201851D01*
D28*
X100732248Y-43900396D02*
X100781592Y-43949740D01*
X83104248Y-67496996D02*
X83104248Y-67598596D01*
D27*
X72898792Y-26027340D02*
X71724281Y-27201851D01*
X67818792Y-27751340D02*
X66453303Y-26385851D01*
X67818792Y-28567340D02*
X67818792Y-27751340D01*
D28*
X66416448Y-67598596D02*
X83104248Y-67598596D01*
D27*
X80518792Y-26027340D02*
X81693303Y-24852829D01*
X86773303Y-25731819D02*
X87652293Y-24852829D01*
%TO.N,/ADR_BNO055*%
X107056448Y-38947396D02*
X112085648Y-43976596D01*
X101448448Y-43976596D02*
X112085648Y-43976596D01*
X101882848Y-38947396D02*
X107056448Y-38947396D01*
%TO.N,/3V3*%
X57658792Y-28567340D02*
X57658792Y-47448540D01*
X57658792Y-47448540D02*
X66285848Y-56075596D01*
X94299848Y-38921996D02*
X100407448Y-38921996D01*
%TO.N,/SENSOR_SDA*%
X88362048Y-69757596D02*
X88452936Y-69757596D01*
X88452936Y-69757596D02*
X95804992Y-62405540D01*
X85598792Y-28567340D02*
X85598792Y-40293140D01*
X85598792Y-40293140D02*
X94286048Y-48980396D01*
%TO.N,/SENSOR_SCL*%
X64790448Y-76132596D02*
X67050648Y-73872396D01*
X67050648Y-73872396D02*
X86878136Y-73872396D01*
X86964281Y-40320710D02*
X93083967Y-46440396D01*
X93083967Y-46440396D02*
X94286048Y-46440396D01*
X85598792Y-26027340D02*
X85598792Y-26906330D01*
X85598792Y-26906330D02*
X86964281Y-28271819D01*
X86878136Y-73872396D02*
X98344992Y-62405540D01*
X86964281Y-28271819D02*
X86964281Y-40320710D01*
%TO.N,/XBEE_RX*%
X66453303Y-29131541D02*
X67286337Y-29964575D01*
X67286337Y-53076085D02*
X70285848Y-56075596D01*
X65278792Y-26027340D02*
X66453303Y-27201851D01*
X66453303Y-27201851D02*
X66453303Y-29131541D01*
X67286337Y-29964575D02*
X67286337Y-53076085D01*
%TD*%
M02*
