%TF.GenerationSoftware,KiCad,Pcbnew,(6.0.0)*%
%TF.CreationDate,2022-02-21T15:29:33-05:00*%
%TF.ProjectId,RocketHat,526f636b-6574-4486-9174-2e6b69636164,V1.0*%
%TF.SameCoordinates,Original*%
%TF.FileFunction,Legend,Top*%
%TF.FilePolarity,Positive*%
%FSLAX46Y46*%
G04 Gerber Fmt 4.6, Leading zero omitted, Abs format (unit mm)*
G04 Created by KiCad (PCBNEW (6.0.0)) date 2022-02-21 15:29:33*
%MOMM*%
%LPD*%
G01*
G04 APERTURE LIST*
%ADD10C,0.100000*%
%ADD11C,0.150000*%
%ADD12C,0.300000*%
%ADD13C,0.400000*%
%ADD14C,0.120000*%
G04 APERTURE END LIST*
D10*
D11*
X28082000Y-60902000D02*
X28082000Y-92902000D01*
X136082000Y-92902000D01*
X136082000Y-60902000D01*
X28082000Y-60902000D01*
D10*
D11*
X10000000Y-10000000D02*
X10000000Y-94902000D01*
X138082000Y-94902000D01*
X138082000Y-10000000D01*
X10000000Y-10000000D01*
D10*
D11*
X12000000Y-12000000D02*
X12000000Y-92902000D01*
X136082000Y-92902000D01*
X136082000Y-12000000D01*
X12000000Y-12000000D01*
D10*
D11*
X60000000Y-12000000D02*
X60000000Y-10000000D01*
D10*
D11*
X110000000Y-12000000D02*
X110000000Y-10000000D01*
D10*
D11*
X36065476Y-11588095D02*
X35322619Y-11588095D01*
X35694047Y-11588095D02*
X35694047Y-10288095D01*
X35570238Y-10473809D01*
X35446428Y-10597619D01*
X35322619Y-10659523D01*
D10*
D11*
X85322619Y-10411904D02*
X85384523Y-10350000D01*
X85508333Y-10288095D01*
X85817857Y-10288095D01*
X85941666Y-10350000D01*
X86003571Y-10411904D01*
X86065476Y-10535714D01*
X86065476Y-10659523D01*
X86003571Y-10845238D01*
X85260714Y-11588095D01*
X86065476Y-11588095D01*
D10*
D11*
X135260714Y-10288095D02*
X136065476Y-10288095D01*
X135632142Y-10783333D01*
X135817857Y-10783333D01*
X135941666Y-10845238D01*
X136003571Y-10907142D01*
X136065476Y-11030952D01*
X136065476Y-11340476D01*
X136003571Y-11464285D01*
X135941666Y-11526190D01*
X135817857Y-11588095D01*
X135446428Y-11588095D01*
X135322619Y-11526190D01*
X135260714Y-11464285D01*
D10*
D11*
X60000000Y-92902000D02*
X60000000Y-94902000D01*
D10*
D11*
X110000000Y-92902000D02*
X110000000Y-94902000D01*
D10*
D11*
X36065476Y-94490095D02*
X35322619Y-94490095D01*
X35694047Y-94490095D02*
X35694047Y-93190095D01*
X35570238Y-93375809D01*
X35446428Y-93499619D01*
X35322619Y-93561523D01*
D10*
D11*
X85322619Y-93313904D02*
X85384523Y-93252000D01*
X85508333Y-93190095D01*
X85817857Y-93190095D01*
X85941666Y-93252000D01*
X86003571Y-93313904D01*
X86065476Y-93437714D01*
X86065476Y-93561523D01*
X86003571Y-93747238D01*
X85260714Y-94490095D01*
X86065476Y-94490095D01*
D10*
D11*
X135260714Y-93190095D02*
X136065476Y-93190095D01*
X135632142Y-93685333D01*
X135817857Y-93685333D01*
X135941666Y-93747238D01*
X136003571Y-93809142D01*
X136065476Y-93932952D01*
X136065476Y-94242476D01*
X136003571Y-94366285D01*
X135941666Y-94428190D01*
X135817857Y-94490095D01*
X135446428Y-94490095D01*
X135322619Y-94428190D01*
X135260714Y-94366285D01*
D10*
D11*
X10000000Y-60000000D02*
X12000000Y-60000000D01*
D10*
D11*
X10690476Y-35216666D02*
X11309523Y-35216666D01*
X10566666Y-35588095D02*
X11000000Y-34288095D01*
X11433333Y-35588095D01*
D10*
D11*
X11092857Y-84907142D02*
X11278571Y-84969047D01*
X11340476Y-85030952D01*
X11402380Y-85154761D01*
X11402380Y-85340476D01*
X11340476Y-85464285D01*
X11278571Y-85526190D01*
X11154761Y-85588095D01*
X10659523Y-85588095D01*
X10659523Y-84288095D01*
X11092857Y-84288095D01*
X11216666Y-84350000D01*
X11278571Y-84411904D01*
X11340476Y-84535714D01*
X11340476Y-84659523D01*
X11278571Y-84783333D01*
X11216666Y-84845238D01*
X11092857Y-84907142D01*
X10659523Y-84907142D01*
D10*
D11*
X138082000Y-60000000D02*
X136082000Y-60000000D01*
D10*
D11*
X136772476Y-35216666D02*
X137391523Y-35216666D01*
X136648666Y-35588095D02*
X137082000Y-34288095D01*
X137515333Y-35588095D01*
D10*
D11*
X137174857Y-84907142D02*
X137360571Y-84969047D01*
X137422476Y-85030952D01*
X137484380Y-85154761D01*
X137484380Y-85340476D01*
X137422476Y-85464285D01*
X137360571Y-85526190D01*
X137236761Y-85588095D01*
X136741523Y-85588095D01*
X136741523Y-84288095D01*
X137174857Y-84288095D01*
X137298666Y-84350000D01*
X137360571Y-84411904D01*
X137422476Y-84535714D01*
X137422476Y-84659523D01*
X137360571Y-84783333D01*
X137298666Y-84845238D01*
X137174857Y-84907142D01*
X136741523Y-84907142D01*
D10*
D11*
X51514142Y-88680571D02*
X51514142Y-87180571D01*
X51871285Y-87180571D01*
X52085571Y-87252000D01*
X52228428Y-87394857D01*
X52299857Y-87537714D01*
X52371285Y-87823428D01*
X52371285Y-88037714D01*
X52299857Y-88323428D01*
X52228428Y-88466285D01*
X52085571Y-88609142D01*
X51871285Y-88680571D01*
X51514142Y-88680571D01*
X53657000Y-88680571D02*
X53657000Y-87894857D01*
X53585571Y-87752000D01*
X53442714Y-87680571D01*
X53157000Y-87680571D01*
X53014142Y-87752000D01*
X53657000Y-88609142D02*
X53514142Y-88680571D01*
X53157000Y-88680571D01*
X53014142Y-88609142D01*
X52942714Y-88466285D01*
X52942714Y-88323428D01*
X53014142Y-88180571D01*
X53157000Y-88109142D01*
X53514142Y-88109142D01*
X53657000Y-88037714D01*
X54157000Y-87680571D02*
X54728428Y-87680571D01*
X54371285Y-87180571D02*
X54371285Y-88466285D01*
X54442714Y-88609142D01*
X54585571Y-88680571D01*
X54728428Y-88680571D01*
X55799857Y-88609142D02*
X55657000Y-88680571D01*
X55371285Y-88680571D01*
X55228428Y-88609142D01*
X55157000Y-88466285D01*
X55157000Y-87894857D01*
X55228428Y-87752000D01*
X55371285Y-87680571D01*
X55657000Y-87680571D01*
X55799857Y-87752000D01*
X55871285Y-87894857D01*
X55871285Y-88037714D01*
X55157000Y-88180571D01*
X56514142Y-88537714D02*
X56585571Y-88609142D01*
X56514142Y-88680571D01*
X56442714Y-88609142D01*
X56514142Y-88537714D01*
X56514142Y-88680571D01*
X56514142Y-87752000D02*
X56585571Y-87823428D01*
X56514142Y-87894857D01*
X56442714Y-87823428D01*
X56514142Y-87752000D01*
X56514142Y-87894857D01*
X58299857Y-87323428D02*
X58371285Y-87252000D01*
X58514142Y-87180571D01*
X58871285Y-87180571D01*
X59014142Y-87252000D01*
X59085571Y-87323428D01*
X59157000Y-87466285D01*
X59157000Y-87609142D01*
X59085571Y-87823428D01*
X58228428Y-88680571D01*
X59157000Y-88680571D01*
X60085571Y-87180571D02*
X60228428Y-87180571D01*
X60371285Y-87252000D01*
X60442714Y-87323428D01*
X60514142Y-87466285D01*
X60585571Y-87752000D01*
X60585571Y-88109142D01*
X60514142Y-88394857D01*
X60442714Y-88537714D01*
X60371285Y-88609142D01*
X60228428Y-88680571D01*
X60085571Y-88680571D01*
X59942714Y-88609142D01*
X59871285Y-88537714D01*
X59799857Y-88394857D01*
X59728428Y-88109142D01*
X59728428Y-87752000D01*
X59799857Y-87466285D01*
X59871285Y-87323428D01*
X59942714Y-87252000D01*
X60085571Y-87180571D01*
X61157000Y-87323428D02*
X61228428Y-87252000D01*
X61371285Y-87180571D01*
X61728428Y-87180571D01*
X61871285Y-87252000D01*
X61942714Y-87323428D01*
X62014142Y-87466285D01*
X62014142Y-87609142D01*
X61942714Y-87823428D01*
X61085571Y-88680571D01*
X62014142Y-88680571D01*
X62585571Y-87323428D02*
X62657000Y-87252000D01*
X62799857Y-87180571D01*
X63157000Y-87180571D01*
X63299857Y-87252000D01*
X63371285Y-87323428D01*
X63442714Y-87466285D01*
X63442714Y-87609142D01*
X63371285Y-87823428D01*
X62514142Y-88680571D01*
X63442714Y-88680571D01*
X64085571Y-88109142D02*
X65228428Y-88109142D01*
X66228428Y-87180571D02*
X66371285Y-87180571D01*
X66514142Y-87252000D01*
X66585571Y-87323428D01*
X66657000Y-87466285D01*
X66728428Y-87752000D01*
X66728428Y-88109142D01*
X66657000Y-88394857D01*
X66585571Y-88537714D01*
X66514142Y-88609142D01*
X66371285Y-88680571D01*
X66228428Y-88680571D01*
X66085571Y-88609142D01*
X66014142Y-88537714D01*
X65942714Y-88394857D01*
X65871285Y-88109142D01*
X65871285Y-87752000D01*
X65942714Y-87466285D01*
X66014142Y-87323428D01*
X66085571Y-87252000D01*
X66228428Y-87180571D01*
X67299857Y-87323428D02*
X67371285Y-87252000D01*
X67514142Y-87180571D01*
X67871285Y-87180571D01*
X68014142Y-87252000D01*
X68085571Y-87323428D01*
X68157000Y-87466285D01*
X68157000Y-87609142D01*
X68085571Y-87823428D01*
X67228428Y-88680571D01*
X68157000Y-88680571D01*
X68799857Y-88109142D02*
X69942714Y-88109142D01*
X71442714Y-88680571D02*
X70585571Y-88680571D01*
X71014142Y-88680571D02*
X71014142Y-87180571D01*
X70871285Y-87394857D01*
X70728428Y-87537714D01*
X70585571Y-87609142D01*
X71942714Y-87180571D02*
X72871285Y-87180571D01*
X72371285Y-87752000D01*
X72585571Y-87752000D01*
X72728428Y-87823428D01*
X72799857Y-87894857D01*
X72871285Y-88037714D01*
X72871285Y-88394857D01*
X72799857Y-88537714D01*
X72728428Y-88609142D01*
X72585571Y-88680571D01*
X72157000Y-88680571D01*
X72014142Y-88609142D01*
X71942714Y-88537714D01*
D10*
D11*
X28082000Y-89402000D02*
X136082000Y-89402000D01*
D10*
D11*
X29514142Y-91480571D02*
X29514142Y-89980571D01*
X30371285Y-91480571D02*
X29728428Y-90623428D01*
X30371285Y-89980571D02*
X29514142Y-90837714D01*
X31014142Y-91480571D02*
X31014142Y-90480571D01*
X31014142Y-89980571D02*
X30942714Y-90052000D01*
X31014142Y-90123428D01*
X31085571Y-90052000D01*
X31014142Y-89980571D01*
X31014142Y-90123428D01*
X32585571Y-91337714D02*
X32514142Y-91409142D01*
X32299857Y-91480571D01*
X32157000Y-91480571D01*
X31942714Y-91409142D01*
X31799857Y-91266285D01*
X31728428Y-91123428D01*
X31657000Y-90837714D01*
X31657000Y-90623428D01*
X31728428Y-90337714D01*
X31799857Y-90194857D01*
X31942714Y-90052000D01*
X32157000Y-89980571D01*
X32299857Y-89980571D01*
X32514142Y-90052000D01*
X32585571Y-90123428D01*
X33871285Y-91480571D02*
X33871285Y-90694857D01*
X33799857Y-90552000D01*
X33657000Y-90480571D01*
X33371285Y-90480571D01*
X33228428Y-90552000D01*
X33871285Y-91409142D02*
X33728428Y-91480571D01*
X33371285Y-91480571D01*
X33228428Y-91409142D01*
X33157000Y-91266285D01*
X33157000Y-91123428D01*
X33228428Y-90980571D01*
X33371285Y-90909142D01*
X33728428Y-90909142D01*
X33871285Y-90837714D01*
X35228428Y-91480571D02*
X35228428Y-89980571D01*
X35228428Y-91409142D02*
X35085571Y-91480571D01*
X34799857Y-91480571D01*
X34657000Y-91409142D01*
X34585571Y-91337714D01*
X34514142Y-91194857D01*
X34514142Y-90766285D01*
X34585571Y-90623428D01*
X34657000Y-90552000D01*
X34799857Y-90480571D01*
X35085571Y-90480571D01*
X35228428Y-90552000D01*
X37085571Y-90694857D02*
X37585571Y-90694857D01*
X37799857Y-91480571D02*
X37085571Y-91480571D01*
X37085571Y-89980571D01*
X37799857Y-89980571D01*
X38442714Y-91337714D02*
X38514142Y-91409142D01*
X38442714Y-91480571D01*
X38371285Y-91409142D01*
X38442714Y-91337714D01*
X38442714Y-91480571D01*
X39157000Y-91480571D02*
X39157000Y-89980571D01*
X39514142Y-89980571D01*
X39728428Y-90052000D01*
X39871285Y-90194857D01*
X39942714Y-90337714D01*
X40014142Y-90623428D01*
X40014142Y-90837714D01*
X39942714Y-91123428D01*
X39871285Y-91266285D01*
X39728428Y-91409142D01*
X39514142Y-91480571D01*
X39157000Y-91480571D01*
X40657000Y-91337714D02*
X40728428Y-91409142D01*
X40657000Y-91480571D01*
X40585571Y-91409142D01*
X40657000Y-91337714D01*
X40657000Y-91480571D01*
X41299857Y-91052000D02*
X42014142Y-91052000D01*
X41157000Y-91480571D02*
X41657000Y-89980571D01*
X42157000Y-91480571D01*
X42657000Y-91337714D02*
X42728428Y-91409142D01*
X42657000Y-91480571D01*
X42585571Y-91409142D01*
X42657000Y-91337714D01*
X42657000Y-91480571D01*
X45657000Y-91480571D02*
X45657000Y-89980571D01*
X45799857Y-90909142D02*
X46228428Y-91480571D01*
X46228428Y-90480571D02*
X45657000Y-91052000D01*
X46871285Y-91480571D02*
X46871285Y-90480571D01*
X46871285Y-89980571D02*
X46799857Y-90052000D01*
X46871285Y-90123428D01*
X46942714Y-90052000D01*
X46871285Y-89980571D01*
X46871285Y-90123428D01*
X48228428Y-91409142D02*
X48085571Y-91480571D01*
X47799857Y-91480571D01*
X47657000Y-91409142D01*
X47585571Y-91337714D01*
X47514142Y-91194857D01*
X47514142Y-90766285D01*
X47585571Y-90623428D01*
X47657000Y-90552000D01*
X47799857Y-90480571D01*
X48085571Y-90480571D01*
X48228428Y-90552000D01*
X49514142Y-91480571D02*
X49514142Y-90694857D01*
X49442714Y-90552000D01*
X49299857Y-90480571D01*
X49014142Y-90480571D01*
X48871285Y-90552000D01*
X49514142Y-91409142D02*
X49371285Y-91480571D01*
X49014142Y-91480571D01*
X48871285Y-91409142D01*
X48799857Y-91266285D01*
X48799857Y-91123428D01*
X48871285Y-90980571D01*
X49014142Y-90909142D01*
X49371285Y-90909142D01*
X49514142Y-90837714D01*
X50871285Y-91480571D02*
X50871285Y-89980571D01*
X50871285Y-91409142D02*
X50728428Y-91480571D01*
X50442714Y-91480571D01*
X50299857Y-91409142D01*
X50228428Y-91337714D01*
X50157000Y-91194857D01*
X50157000Y-90766285D01*
X50228428Y-90623428D01*
X50299857Y-90552000D01*
X50442714Y-90480571D01*
X50728428Y-90480571D01*
X50871285Y-90552000D01*
X53157000Y-92052000D02*
X53085571Y-91980571D01*
X52942714Y-91766285D01*
X52871285Y-91623428D01*
X52799857Y-91409142D01*
X52728428Y-91052000D01*
X52728428Y-90766285D01*
X52799857Y-90409142D01*
X52871285Y-90194857D01*
X52942714Y-90052000D01*
X53085571Y-89837714D01*
X53157000Y-89766285D01*
X54371285Y-89980571D02*
X54085571Y-89980571D01*
X53942714Y-90052000D01*
X53871285Y-90123428D01*
X53728428Y-90337714D01*
X53657000Y-90623428D01*
X53657000Y-91194857D01*
X53728428Y-91337714D01*
X53799857Y-91409142D01*
X53942714Y-91480571D01*
X54228428Y-91480571D01*
X54371285Y-91409142D01*
X54442714Y-91337714D01*
X54514142Y-91194857D01*
X54514142Y-90837714D01*
X54442714Y-90694857D01*
X54371285Y-90623428D01*
X54228428Y-90552000D01*
X53942714Y-90552000D01*
X53799857Y-90623428D01*
X53728428Y-90694857D01*
X53657000Y-90837714D01*
X55157000Y-91337714D02*
X55228428Y-91409142D01*
X55157000Y-91480571D01*
X55085571Y-91409142D01*
X55157000Y-91337714D01*
X55157000Y-91480571D01*
X56157000Y-89980571D02*
X56299857Y-89980571D01*
X56442714Y-90052000D01*
X56514142Y-90123428D01*
X56585571Y-90266285D01*
X56657000Y-90552000D01*
X56657000Y-90909142D01*
X56585571Y-91194857D01*
X56514142Y-91337714D01*
X56442714Y-91409142D01*
X56299857Y-91480571D01*
X56157000Y-91480571D01*
X56014142Y-91409142D01*
X55942714Y-91337714D01*
X55871285Y-91194857D01*
X55799857Y-90909142D01*
X55799857Y-90552000D01*
X55871285Y-90266285D01*
X55942714Y-90123428D01*
X56014142Y-90052000D01*
X56157000Y-89980571D01*
X57299857Y-91337714D02*
X57371285Y-91409142D01*
X57299857Y-91480571D01*
X57228428Y-91409142D01*
X57299857Y-91337714D01*
X57299857Y-91480571D01*
X58299857Y-89980571D02*
X58442714Y-89980571D01*
X58585571Y-90052000D01*
X58657000Y-90123428D01*
X58728428Y-90266285D01*
X58799857Y-90552000D01*
X58799857Y-90909142D01*
X58728428Y-91194857D01*
X58657000Y-91337714D01*
X58585571Y-91409142D01*
X58442714Y-91480571D01*
X58299857Y-91480571D01*
X58157000Y-91409142D01*
X58085571Y-91337714D01*
X58014142Y-91194857D01*
X57942714Y-90909142D01*
X57942714Y-90552000D01*
X58014142Y-90266285D01*
X58085571Y-90123428D01*
X58157000Y-90052000D01*
X58299857Y-89980571D01*
X59299857Y-92052000D02*
X59371285Y-91980571D01*
X59514142Y-91766285D01*
X59585571Y-91623428D01*
X59657000Y-91409142D01*
X59728428Y-91052000D01*
X59728428Y-90766285D01*
X59657000Y-90409142D01*
X59585571Y-90194857D01*
X59514142Y-90052000D01*
X59371285Y-89837714D01*
X59299857Y-89766285D01*
D10*
D11*
X28082000Y-86402000D02*
X136082000Y-86402000D01*
D10*
D12*
X115491285Y-88680571D02*
X114991285Y-87966285D01*
X114634142Y-88680571D02*
X114634142Y-87180571D01*
X115205571Y-87180571D01*
X115348428Y-87252000D01*
X115419857Y-87323428D01*
X115491285Y-87466285D01*
X115491285Y-87680571D01*
X115419857Y-87823428D01*
X115348428Y-87894857D01*
X115205571Y-87966285D01*
X114634142Y-87966285D01*
X116705571Y-88609142D02*
X116562714Y-88680571D01*
X116277000Y-88680571D01*
X116134142Y-88609142D01*
X116062714Y-88466285D01*
X116062714Y-87894857D01*
X116134142Y-87752000D01*
X116277000Y-87680571D01*
X116562714Y-87680571D01*
X116705571Y-87752000D01*
X116777000Y-87894857D01*
X116777000Y-88037714D01*
X116062714Y-88180571D01*
X117277000Y-87680571D02*
X117634142Y-88680571D01*
X117991285Y-87680571D01*
X118562714Y-88537714D02*
X118634142Y-88609142D01*
X118562714Y-88680571D01*
X118491285Y-88609142D01*
X118562714Y-88537714D01*
X118562714Y-88680571D01*
X118562714Y-87752000D02*
X118634142Y-87823428D01*
X118562714Y-87894857D01*
X118491285Y-87823428D01*
X118562714Y-87752000D01*
X118562714Y-87894857D01*
X120205571Y-87180571D02*
X120705571Y-88680571D01*
X121205571Y-87180571D01*
X122491285Y-88680571D02*
X121634142Y-88680571D01*
X122062714Y-88680571D02*
X122062714Y-87180571D01*
X121919857Y-87394857D01*
X121777000Y-87537714D01*
X121634142Y-87609142D01*
X123134142Y-88537714D02*
X123205571Y-88609142D01*
X123134142Y-88680571D01*
X123062714Y-88609142D01*
X123134142Y-88537714D01*
X123134142Y-88680571D01*
X124134142Y-87180571D02*
X124277000Y-87180571D01*
X124419857Y-87252000D01*
X124491285Y-87323428D01*
X124562714Y-87466285D01*
X124634142Y-87752000D01*
X124634142Y-88109142D01*
X124562714Y-88394857D01*
X124491285Y-88537714D01*
X124419857Y-88609142D01*
X124277000Y-88680571D01*
X124134142Y-88680571D01*
X123991285Y-88609142D01*
X123919857Y-88537714D01*
X123848428Y-88394857D01*
X123777000Y-88109142D01*
X123777000Y-87752000D01*
X123848428Y-87466285D01*
X123919857Y-87323428D01*
X123991285Y-87252000D01*
X124134142Y-87180571D01*
D10*
D11*
X29442714Y-88609142D02*
X29657000Y-88680571D01*
X30014142Y-88680571D01*
X30157000Y-88609142D01*
X30228428Y-88537714D01*
X30299857Y-88394857D01*
X30299857Y-88252000D01*
X30228428Y-88109142D01*
X30157000Y-88037714D01*
X30014142Y-87966285D01*
X29728428Y-87894857D01*
X29585571Y-87823428D01*
X29514142Y-87752000D01*
X29442714Y-87609142D01*
X29442714Y-87466285D01*
X29514142Y-87323428D01*
X29585571Y-87252000D01*
X29728428Y-87180571D01*
X30085571Y-87180571D01*
X30299857Y-87252000D01*
X30942714Y-88680571D02*
X30942714Y-87680571D01*
X30942714Y-87180571D02*
X30871285Y-87252000D01*
X30942714Y-87323428D01*
X31014142Y-87252000D01*
X30942714Y-87180571D01*
X30942714Y-87323428D01*
X31514142Y-87680571D02*
X32299857Y-87680571D01*
X31514142Y-88680571D01*
X32299857Y-88680571D01*
X33442714Y-88609142D02*
X33299857Y-88680571D01*
X33014142Y-88680571D01*
X32871285Y-88609142D01*
X32799857Y-88466285D01*
X32799857Y-87894857D01*
X32871285Y-87752000D01*
X33014142Y-87680571D01*
X33299857Y-87680571D01*
X33442714Y-87752000D01*
X33514142Y-87894857D01*
X33514142Y-88037714D01*
X32799857Y-88180571D01*
X34157000Y-88537714D02*
X34228428Y-88609142D01*
X34157000Y-88680571D01*
X34085571Y-88609142D01*
X34157000Y-88537714D01*
X34157000Y-88680571D01*
X34157000Y-87752000D02*
X34228428Y-87823428D01*
X34157000Y-87894857D01*
X34085571Y-87823428D01*
X34157000Y-87752000D01*
X34157000Y-87894857D01*
X36014142Y-87180571D02*
X36014142Y-88394857D01*
X36085571Y-88537714D01*
X36157000Y-88609142D01*
X36299857Y-88680571D01*
X36585571Y-88680571D01*
X36728428Y-88609142D01*
X36799857Y-88537714D01*
X36871285Y-88394857D01*
X36871285Y-87180571D01*
X37514142Y-88609142D02*
X37657000Y-88680571D01*
X37942714Y-88680571D01*
X38085571Y-88609142D01*
X38157000Y-88466285D01*
X38157000Y-88394857D01*
X38085571Y-88252000D01*
X37942714Y-88180571D01*
X37728428Y-88180571D01*
X37585571Y-88109142D01*
X37514142Y-87966285D01*
X37514142Y-87894857D01*
X37585571Y-87752000D01*
X37728428Y-87680571D01*
X37942714Y-87680571D01*
X38085571Y-87752000D01*
X39371285Y-88609142D02*
X39228428Y-88680571D01*
X38942714Y-88680571D01*
X38799857Y-88609142D01*
X38728428Y-88466285D01*
X38728428Y-87894857D01*
X38799857Y-87752000D01*
X38942714Y-87680571D01*
X39228428Y-87680571D01*
X39371285Y-87752000D01*
X39442714Y-87894857D01*
X39442714Y-88037714D01*
X38728428Y-88180571D01*
X40085571Y-88680571D02*
X40085571Y-87680571D01*
X40085571Y-87966285D02*
X40157000Y-87823428D01*
X40228428Y-87752000D01*
X40371285Y-87680571D01*
X40514142Y-87680571D01*
D10*
D11*
X114514142Y-91480571D02*
X114514142Y-89980571D01*
X115871285Y-91480571D02*
X115871285Y-89980571D01*
X115871285Y-91409142D02*
X115728428Y-91480571D01*
X115442714Y-91480571D01*
X115299857Y-91409142D01*
X115228428Y-91337714D01*
X115157000Y-91194857D01*
X115157000Y-90766285D01*
X115228428Y-90623428D01*
X115299857Y-90552000D01*
X115442714Y-90480571D01*
X115728428Y-90480571D01*
X115871285Y-90552000D01*
X116585571Y-91337714D02*
X116657000Y-91409142D01*
X116585571Y-91480571D01*
X116514142Y-91409142D01*
X116585571Y-91337714D01*
X116585571Y-91480571D01*
X116585571Y-90552000D02*
X116657000Y-90623428D01*
X116585571Y-90694857D01*
X116514142Y-90623428D01*
X116585571Y-90552000D01*
X116585571Y-90694857D01*
X119228428Y-91480571D02*
X118371285Y-91480571D01*
X118799857Y-91480571D02*
X118799857Y-89980571D01*
X118657000Y-90194857D01*
X118514142Y-90337714D01*
X118371285Y-90409142D01*
X120942714Y-89909142D02*
X119657000Y-91837714D01*
X122228428Y-91480571D02*
X121371285Y-91480571D01*
X121799857Y-91480571D02*
X121799857Y-89980571D01*
X121657000Y-90194857D01*
X121514142Y-90337714D01*
X121371285Y-90409142D01*
D10*
D11*
X28082000Y-82402000D02*
X136082000Y-82402000D01*
D10*
D13*
X29794380Y-83106761D02*
X30937238Y-83106761D01*
X30115809Y-85106761D02*
X30365809Y-83106761D01*
X31353904Y-85106761D02*
X31520571Y-83773428D01*
X31603904Y-83106761D02*
X31496761Y-83202000D01*
X31580095Y-83297238D01*
X31687238Y-83202000D01*
X31603904Y-83106761D01*
X31580095Y-83297238D01*
X32187238Y-83773428D02*
X32949142Y-83773428D01*
X32556285Y-83106761D02*
X32342000Y-84821047D01*
X32413428Y-85011523D01*
X32592000Y-85106761D01*
X32782476Y-85106761D01*
X33734857Y-85106761D02*
X33556285Y-85011523D01*
X33484857Y-84821047D01*
X33699142Y-83106761D01*
X35270571Y-85011523D02*
X35068190Y-85106761D01*
X34687238Y-85106761D01*
X34508666Y-85011523D01*
X34437238Y-84821047D01*
X34532476Y-84059142D01*
X34651523Y-83868666D01*
X34853904Y-83773428D01*
X35234857Y-83773428D01*
X35413428Y-83868666D01*
X35484857Y-84059142D01*
X35461047Y-84249619D01*
X34484857Y-84440095D01*
X36234857Y-84916285D02*
X36318190Y-85011523D01*
X36211047Y-85106761D01*
X36127714Y-85011523D01*
X36234857Y-84916285D01*
X36211047Y-85106761D01*
X36365809Y-83868666D02*
X36449142Y-83963904D01*
X36342000Y-84059142D01*
X36258666Y-83963904D01*
X36365809Y-83868666D01*
X36342000Y-84059142D01*
X39830095Y-85106761D02*
X39282476Y-84154380D01*
X38687238Y-85106761D02*
X38937238Y-83106761D01*
X39699142Y-83106761D01*
X39877714Y-83202000D01*
X39961047Y-83297238D01*
X40032476Y-83487714D01*
X39996761Y-83773428D01*
X39877714Y-83963904D01*
X39770571Y-84059142D01*
X39568190Y-84154380D01*
X38806285Y-84154380D01*
X40972952Y-85106761D02*
X40794380Y-85011523D01*
X40711047Y-84916285D01*
X40639619Y-84725809D01*
X40711047Y-84154380D01*
X40830095Y-83963904D01*
X40937238Y-83868666D01*
X41139619Y-83773428D01*
X41425333Y-83773428D01*
X41603904Y-83868666D01*
X41687238Y-83963904D01*
X41758666Y-84154380D01*
X41687238Y-84725809D01*
X41568190Y-84916285D01*
X41461047Y-85011523D01*
X41258666Y-85106761D01*
X40972952Y-85106761D01*
X43365809Y-85011523D02*
X43163428Y-85106761D01*
X42782476Y-85106761D01*
X42603904Y-85011523D01*
X42520571Y-84916285D01*
X42449142Y-84725809D01*
X42520571Y-84154380D01*
X42639619Y-83963904D01*
X42746761Y-83868666D01*
X42949142Y-83773428D01*
X43330095Y-83773428D01*
X43508666Y-83868666D01*
X44211047Y-85106761D02*
X44461047Y-83106761D01*
X44496761Y-84344857D02*
X44972952Y-85106761D01*
X45139619Y-83773428D02*
X44282476Y-84535333D01*
X46603904Y-85011523D02*
X46401523Y-85106761D01*
X46020571Y-85106761D01*
X45842000Y-85011523D01*
X45770571Y-84821047D01*
X45865809Y-84059142D01*
X45984857Y-83868666D01*
X46187238Y-83773428D01*
X46568190Y-83773428D01*
X46746761Y-83868666D01*
X46818190Y-84059142D01*
X46794380Y-84249619D01*
X45818190Y-84440095D01*
X47425333Y-83773428D02*
X48187238Y-83773428D01*
X47794380Y-83106761D02*
X47580095Y-84821047D01*
X47651523Y-85011523D01*
X47830095Y-85106761D01*
X48020571Y-85106761D01*
X50211047Y-85106761D02*
X50461047Y-83106761D01*
X51163428Y-85106761D02*
X51413428Y-83106761D01*
X51901523Y-84535333D01*
X52746761Y-83106761D01*
X52496761Y-85106761D01*
X53699142Y-83106761D02*
X53496761Y-84725809D01*
X53568190Y-84916285D01*
X53651523Y-85011523D01*
X53830095Y-85106761D01*
X54211047Y-85106761D01*
X54413428Y-85011523D01*
X54520571Y-84916285D01*
X54639619Y-84725809D01*
X54841999Y-83106761D01*
X58758666Y-83011523D02*
X56722952Y-85582952D01*
X60603904Y-85011523D02*
X60877714Y-85106761D01*
X61353904Y-85106761D01*
X61556285Y-85011523D01*
X61663428Y-84916285D01*
X61782476Y-84725809D01*
X61806285Y-84535333D01*
X61734857Y-84344857D01*
X61651523Y-84249619D01*
X61472952Y-84154380D01*
X61103904Y-84059142D01*
X60925333Y-83963904D01*
X60841999Y-83868666D01*
X60770571Y-83678190D01*
X60794380Y-83487714D01*
X60913428Y-83297238D01*
X61020571Y-83202000D01*
X61222952Y-83106761D01*
X61699142Y-83106761D01*
X61972952Y-83202000D01*
X63365809Y-85011523D02*
X63163428Y-85106761D01*
X62782476Y-85106761D01*
X62603904Y-85011523D01*
X62532476Y-84821047D01*
X62627714Y-84059142D01*
X62746761Y-83868666D01*
X62949142Y-83773428D01*
X63330095Y-83773428D01*
X63508666Y-83868666D01*
X63580095Y-84059142D01*
X63556285Y-84249619D01*
X62580095Y-84440095D01*
X64472952Y-83773428D02*
X64306285Y-85106761D01*
X64449142Y-83963904D02*
X64556285Y-83868666D01*
X64758666Y-83773428D01*
X65044380Y-83773428D01*
X65222952Y-83868666D01*
X65294380Y-84059142D01*
X65163428Y-85106761D01*
X66032476Y-85011523D02*
X66211047Y-85106761D01*
X66591999Y-85106761D01*
X66794380Y-85011523D01*
X66913428Y-84821047D01*
X66925333Y-84725809D01*
X66853904Y-84535333D01*
X66675333Y-84440095D01*
X66389619Y-84440095D01*
X66211047Y-84344857D01*
X66139619Y-84154380D01*
X66151523Y-84059142D01*
X66270571Y-83868666D01*
X66472952Y-83773428D01*
X66758666Y-83773428D01*
X66937238Y-83868666D01*
X68020571Y-85106761D02*
X67841999Y-85011523D01*
X67758666Y-84916285D01*
X67687238Y-84725809D01*
X67758666Y-84154380D01*
X67877714Y-83963904D01*
X67984857Y-83868666D01*
X68187238Y-83773428D01*
X68472952Y-83773428D01*
X68651523Y-83868666D01*
X68734857Y-83963904D01*
X68806285Y-84154380D01*
X68734857Y-84725809D01*
X68615809Y-84916285D01*
X68508666Y-85011523D01*
X68306285Y-85106761D01*
X68020571Y-85106761D01*
X69544380Y-85106761D02*
X69711047Y-83773428D01*
X69663428Y-84154380D02*
X69782476Y-83963904D01*
X69889619Y-83868666D01*
X70091999Y-83773428D01*
X70282476Y-83773428D01*
X72306285Y-85106761D02*
X72556285Y-83106761D01*
X72437238Y-84059142D02*
X73580095Y-84059142D01*
X73449142Y-85106761D02*
X73699142Y-83106761D01*
X75258666Y-85106761D02*
X75389619Y-84059142D01*
X75318190Y-83868666D01*
X75139619Y-83773428D01*
X74758666Y-83773428D01*
X74556285Y-83868666D01*
X75270571Y-85011523D02*
X75068190Y-85106761D01*
X74591999Y-85106761D01*
X74413428Y-85011523D01*
X74341999Y-84821047D01*
X74365809Y-84630571D01*
X74484857Y-84440095D01*
X74687238Y-84344857D01*
X75163428Y-84344857D01*
X75365809Y-84249619D01*
X76091999Y-83773428D02*
X76853904Y-83773428D01*
X76461047Y-83106761D02*
X76246761Y-84821047D01*
X76318190Y-85011523D01*
X76496761Y-85106761D01*
X76687238Y-85106761D01*
X78877714Y-85106761D02*
X79127714Y-83106761D01*
X79889619Y-83106761D01*
X80068190Y-83202000D01*
X80151523Y-83297238D01*
X80222952Y-83487714D01*
X80187238Y-83773428D01*
X80068190Y-83963904D01*
X79961047Y-84059142D01*
X79758666Y-84154380D01*
X78996761Y-84154380D01*
X82044380Y-84916285D02*
X81937238Y-85011523D01*
X81639619Y-85106761D01*
X81449142Y-85106761D01*
X81175333Y-85011523D01*
X81008666Y-84821047D01*
X80937238Y-84630571D01*
X80889619Y-84249619D01*
X80925333Y-83963904D01*
X81068190Y-83582952D01*
X81187238Y-83392476D01*
X81401523Y-83202000D01*
X81699142Y-83106761D01*
X81889619Y-83106761D01*
X82163428Y-83202000D01*
X82246761Y-83297238D01*
X83675333Y-84059142D02*
X83949142Y-84154380D01*
X84032476Y-84249619D01*
X84103904Y-84440095D01*
X84068190Y-84725809D01*
X83949142Y-84916285D01*
X83841999Y-85011523D01*
X83639619Y-85106761D01*
X82877714Y-85106761D01*
X83127714Y-83106761D01*
X83794380Y-83106761D01*
X83972952Y-83202000D01*
X84056285Y-83297238D01*
X84127714Y-83487714D01*
X84103904Y-83678190D01*
X83984857Y-83868666D01*
X83877714Y-83963904D01*
X83675333Y-84059142D01*
X83008666Y-84059142D01*
X86401523Y-85106761D02*
X86651523Y-83106761D01*
X87127714Y-83106761D01*
X87401523Y-83202000D01*
X87568190Y-83392476D01*
X87639619Y-83582952D01*
X87687238Y-83963904D01*
X87651523Y-84249619D01*
X87508666Y-84630571D01*
X87389619Y-84821047D01*
X87175333Y-85011523D01*
X86877714Y-85106761D01*
X86401523Y-85106761D01*
X89175333Y-85011523D02*
X88972952Y-85106761D01*
X88591999Y-85106761D01*
X88413428Y-85011523D01*
X88341999Y-84821047D01*
X88437238Y-84059142D01*
X88556285Y-83868666D01*
X88758666Y-83773428D01*
X89139619Y-83773428D01*
X89318190Y-83868666D01*
X89389619Y-84059142D01*
X89365809Y-84249619D01*
X88389619Y-84440095D01*
X90032476Y-85011523D02*
X90211047Y-85106761D01*
X90591999Y-85106761D01*
X90794380Y-85011523D01*
X90913428Y-84821047D01*
X90925333Y-84725809D01*
X90853904Y-84535333D01*
X90675333Y-84440095D01*
X90389619Y-84440095D01*
X90211047Y-84344857D01*
X90139619Y-84154380D01*
X90151523Y-84059142D01*
X90270571Y-83868666D01*
X90472952Y-83773428D01*
X90758666Y-83773428D01*
X90937238Y-83868666D01*
X91734857Y-85106761D02*
X91901523Y-83773428D01*
X91984857Y-83106761D02*
X91877714Y-83202000D01*
X91961047Y-83297238D01*
X92068190Y-83202000D01*
X91984857Y-83106761D01*
X91961047Y-83297238D01*
X93711047Y-83773428D02*
X93508666Y-85392476D01*
X93389619Y-85582952D01*
X93282476Y-85678190D01*
X93080095Y-85773428D01*
X92794380Y-85773428D01*
X92615809Y-85678190D01*
X93556285Y-85011523D02*
X93353904Y-85106761D01*
X92972952Y-85106761D01*
X92794380Y-85011523D01*
X92711047Y-84916285D01*
X92639619Y-84725809D01*
X92711047Y-84154380D01*
X92830095Y-83963904D01*
X92937238Y-83868666D01*
X93139619Y-83773428D01*
X93520571Y-83773428D01*
X93699142Y-83868666D01*
X94663428Y-83773428D02*
X94496761Y-85106761D01*
X94639619Y-83963904D02*
X94746761Y-83868666D01*
X94949142Y-83773428D01*
X95234857Y-83773428D01*
X95413428Y-83868666D01*
X95484857Y-84059142D01*
X95353904Y-85106761D01*
D10*
D11*
X30014142Y-80494857D02*
X29514142Y-80494857D01*
X29514142Y-81280571D02*
X29514142Y-79780571D01*
X30228428Y-79780571D01*
X30799857Y-81280571D02*
X30799857Y-80280571D01*
X30799857Y-79780571D02*
X30728428Y-79852000D01*
X30799857Y-79923428D01*
X30871285Y-79852000D01*
X30799857Y-79780571D01*
X30799857Y-79923428D01*
X31728428Y-81280571D02*
X31585571Y-81209142D01*
X31514142Y-81066285D01*
X31514142Y-79780571D01*
X32871285Y-81209142D02*
X32728428Y-81280571D01*
X32442714Y-81280571D01*
X32299857Y-81209142D01*
X32228428Y-81066285D01*
X32228428Y-80494857D01*
X32299857Y-80352000D01*
X32442714Y-80280571D01*
X32728428Y-80280571D01*
X32871285Y-80352000D01*
X32942714Y-80494857D01*
X32942714Y-80637714D01*
X32228428Y-80780571D01*
X33585571Y-81137714D02*
X33657000Y-81209142D01*
X33585571Y-81280571D01*
X33514142Y-81209142D01*
X33585571Y-81137714D01*
X33585571Y-81280571D01*
X33585571Y-80352000D02*
X33657000Y-80423428D01*
X33585571Y-80494857D01*
X33514142Y-80423428D01*
X33585571Y-80352000D01*
X33585571Y-80494857D01*
X36299857Y-81280571D02*
X35799857Y-80566285D01*
X35442714Y-81280571D02*
X35442714Y-79780571D01*
X36014142Y-79780571D01*
X36157000Y-79852000D01*
X36228428Y-79923428D01*
X36299857Y-80066285D01*
X36299857Y-80280571D01*
X36228428Y-80423428D01*
X36157000Y-80494857D01*
X36014142Y-80566285D01*
X35442714Y-80566285D01*
X37157000Y-81280571D02*
X37014142Y-81209142D01*
X36942714Y-81137714D01*
X36871285Y-80994857D01*
X36871285Y-80566285D01*
X36942714Y-80423428D01*
X37014142Y-80352000D01*
X37157000Y-80280571D01*
X37371285Y-80280571D01*
X37514142Y-80352000D01*
X37585571Y-80423428D01*
X37657000Y-80566285D01*
X37657000Y-80994857D01*
X37585571Y-81137714D01*
X37514142Y-81209142D01*
X37371285Y-81280571D01*
X37157000Y-81280571D01*
X38942714Y-81209142D02*
X38799857Y-81280571D01*
X38514142Y-81280571D01*
X38371285Y-81209142D01*
X38299857Y-81137714D01*
X38228428Y-80994857D01*
X38228428Y-80566285D01*
X38299857Y-80423428D01*
X38371285Y-80352000D01*
X38514142Y-80280571D01*
X38799857Y-80280571D01*
X38942714Y-80352000D01*
X39585571Y-81280571D02*
X39585571Y-79780571D01*
X39728428Y-80709142D02*
X40157000Y-81280571D01*
X40157000Y-80280571D02*
X39585571Y-80852000D01*
X41371285Y-81209142D02*
X41228428Y-81280571D01*
X40942714Y-81280571D01*
X40799857Y-81209142D01*
X40728428Y-81066285D01*
X40728428Y-80494857D01*
X40799857Y-80352000D01*
X40942714Y-80280571D01*
X41228428Y-80280571D01*
X41371285Y-80352000D01*
X41442714Y-80494857D01*
X41442714Y-80637714D01*
X40728428Y-80780571D01*
X41871285Y-80280571D02*
X42442714Y-80280571D01*
X42085571Y-79780571D02*
X42085571Y-81066285D01*
X42157000Y-81209142D01*
X42299857Y-81280571D01*
X42442714Y-81280571D01*
X42942714Y-81280571D02*
X42942714Y-79780571D01*
X42942714Y-80494857D02*
X43799857Y-80494857D01*
X43799857Y-81280571D02*
X43799857Y-79780571D01*
X45157000Y-81280571D02*
X45157000Y-80494857D01*
X45085571Y-80352000D01*
X44942714Y-80280571D01*
X44657000Y-80280571D01*
X44514142Y-80352000D01*
X45157000Y-81209142D02*
X45014142Y-81280571D01*
X44657000Y-81280571D01*
X44514142Y-81209142D01*
X44442714Y-81066285D01*
X44442714Y-80923428D01*
X44514142Y-80780571D01*
X44657000Y-80709142D01*
X45014142Y-80709142D01*
X45157000Y-80637714D01*
X45657000Y-80280571D02*
X46228428Y-80280571D01*
X45871285Y-79780571D02*
X45871285Y-81066285D01*
X45942714Y-81209142D01*
X46085571Y-81280571D01*
X46228428Y-81280571D01*
X46728428Y-81137714D02*
X46799857Y-81209142D01*
X46728428Y-81280571D01*
X46657000Y-81209142D01*
X46728428Y-81137714D01*
X46728428Y-81280571D01*
X47442714Y-81280571D02*
X47442714Y-79780571D01*
X47585571Y-80709142D02*
X48014142Y-81280571D01*
X48014142Y-80280571D02*
X47442714Y-80852000D01*
X48657000Y-81280571D02*
X48657000Y-80280571D01*
X48657000Y-79780571D02*
X48585571Y-79852000D01*
X48657000Y-79923428D01*
X48728428Y-79852000D01*
X48657000Y-79780571D01*
X48657000Y-79923428D01*
X50014142Y-81209142D02*
X49871285Y-81280571D01*
X49585571Y-81280571D01*
X49442714Y-81209142D01*
X49371285Y-81137714D01*
X49299857Y-80994857D01*
X49299857Y-80566285D01*
X49371285Y-80423428D01*
X49442714Y-80352000D01*
X49585571Y-80280571D01*
X49871285Y-80280571D01*
X50014142Y-80352000D01*
X51299857Y-81280571D02*
X51299857Y-80494857D01*
X51228428Y-80352000D01*
X51085571Y-80280571D01*
X50799857Y-80280571D01*
X50657000Y-80352000D01*
X51299857Y-81209142D02*
X51157000Y-81280571D01*
X50799857Y-81280571D01*
X50657000Y-81209142D01*
X50585571Y-81066285D01*
X50585571Y-80923428D01*
X50657000Y-80780571D01*
X50799857Y-80709142D01*
X51157000Y-80709142D01*
X51299857Y-80637714D01*
X52657000Y-81280571D02*
X52657000Y-79780571D01*
X52657000Y-81209142D02*
X52514142Y-81280571D01*
X52228428Y-81280571D01*
X52085571Y-81209142D01*
X52014142Y-81137714D01*
X51942714Y-80994857D01*
X51942714Y-80566285D01*
X52014142Y-80423428D01*
X52085571Y-80352000D01*
X52228428Y-80280571D01*
X52514142Y-80280571D01*
X52657000Y-80352000D01*
X53014142Y-81423428D02*
X54157000Y-81423428D01*
X54514142Y-80280571D02*
X54514142Y-81780571D01*
X54514142Y-80352000D02*
X54657000Y-80280571D01*
X54942714Y-80280571D01*
X55085571Y-80352000D01*
X55157000Y-80423428D01*
X55228428Y-80566285D01*
X55228428Y-80994857D01*
X55157000Y-81137714D01*
X55085571Y-81209142D01*
X54942714Y-81280571D01*
X54657000Y-81280571D01*
X54514142Y-81209142D01*
X56514142Y-81209142D02*
X56371285Y-81280571D01*
X56085571Y-81280571D01*
X55942714Y-81209142D01*
X55871285Y-81137714D01*
X55799857Y-80994857D01*
X55799857Y-80566285D01*
X55871285Y-80423428D01*
X55942714Y-80352000D01*
X56085571Y-80280571D01*
X56371285Y-80280571D01*
X56514142Y-80352000D01*
X57157000Y-81280571D02*
X57157000Y-79780571D01*
X57157000Y-80352000D02*
X57299857Y-80280571D01*
X57585571Y-80280571D01*
X57728428Y-80352000D01*
X57799857Y-80423428D01*
X57871285Y-80566285D01*
X57871285Y-80994857D01*
X57799857Y-81137714D01*
X57728428Y-81209142D01*
X57585571Y-81280571D01*
X57299857Y-81280571D01*
X57157000Y-81209142D01*
D10*
D11*
X28082000Y-76402000D02*
X136082000Y-76402000D01*
D10*
D11*
X29442714Y-78509142D02*
X29657000Y-78580571D01*
X30014142Y-78580571D01*
X30157000Y-78509142D01*
X30228428Y-78437714D01*
X30299857Y-78294857D01*
X30299857Y-78152000D01*
X30228428Y-78009142D01*
X30157000Y-77937714D01*
X30014142Y-77866285D01*
X29728428Y-77794857D01*
X29585571Y-77723428D01*
X29514142Y-77652000D01*
X29442714Y-77509142D01*
X29442714Y-77366285D01*
X29514142Y-77223428D01*
X29585571Y-77152000D01*
X29728428Y-77080571D01*
X30085571Y-77080571D01*
X30299857Y-77152000D01*
X30942714Y-78580571D02*
X30942714Y-77080571D01*
X31585571Y-78580571D02*
X31585571Y-77794857D01*
X31514142Y-77652000D01*
X31371285Y-77580571D01*
X31157000Y-77580571D01*
X31014142Y-77652000D01*
X30942714Y-77723428D01*
X32871285Y-78509142D02*
X32728428Y-78580571D01*
X32442714Y-78580571D01*
X32299857Y-78509142D01*
X32228428Y-78366285D01*
X32228428Y-77794857D01*
X32299857Y-77652000D01*
X32442714Y-77580571D01*
X32728428Y-77580571D01*
X32871285Y-77652000D01*
X32942714Y-77794857D01*
X32942714Y-77937714D01*
X32228428Y-78080571D01*
X34157000Y-78509142D02*
X34014142Y-78580571D01*
X33728428Y-78580571D01*
X33585571Y-78509142D01*
X33514142Y-78366285D01*
X33514142Y-77794857D01*
X33585571Y-77652000D01*
X33728428Y-77580571D01*
X34014142Y-77580571D01*
X34157000Y-77652000D01*
X34228428Y-77794857D01*
X34228428Y-77937714D01*
X33514142Y-78080571D01*
X34657000Y-77580571D02*
X35228428Y-77580571D01*
X34871285Y-77080571D02*
X34871285Y-78366285D01*
X34942714Y-78509142D01*
X35085571Y-78580571D01*
X35228428Y-78580571D01*
X35728428Y-78437714D02*
X35799857Y-78509142D01*
X35728428Y-78580571D01*
X35657000Y-78509142D01*
X35728428Y-78437714D01*
X35728428Y-78580571D01*
X35728428Y-77652000D02*
X35799857Y-77723428D01*
X35728428Y-77794857D01*
X35657000Y-77723428D01*
X35728428Y-77652000D01*
X35728428Y-77794857D01*
D10*
D12*
X30491285Y-75580571D02*
X29991285Y-74866285D01*
X29634142Y-75580571D02*
X29634142Y-74080571D01*
X30205571Y-74080571D01*
X30348428Y-74152000D01*
X30419857Y-74223428D01*
X30491285Y-74366285D01*
X30491285Y-74580571D01*
X30419857Y-74723428D01*
X30348428Y-74794857D01*
X30205571Y-74866285D01*
X29634142Y-74866285D01*
X31348428Y-75580571D02*
X31205571Y-75509142D01*
X31134142Y-75437714D01*
X31062714Y-75294857D01*
X31062714Y-74866285D01*
X31134142Y-74723428D01*
X31205571Y-74652000D01*
X31348428Y-74580571D01*
X31562714Y-74580571D01*
X31705571Y-74652000D01*
X31777000Y-74723428D01*
X31848428Y-74866285D01*
X31848428Y-75294857D01*
X31777000Y-75437714D01*
X31705571Y-75509142D01*
X31562714Y-75580571D01*
X31348428Y-75580571D01*
X32419857Y-75509142D02*
X32562714Y-75580571D01*
X32848428Y-75580571D01*
X32991285Y-75509142D01*
X33062714Y-75366285D01*
X33062714Y-75294857D01*
X32991285Y-75152000D01*
X32848428Y-75080571D01*
X32634142Y-75080571D01*
X32491285Y-75009142D01*
X32419857Y-74866285D01*
X32419857Y-74794857D01*
X32491285Y-74652000D01*
X32634142Y-74580571D01*
X32848428Y-74580571D01*
X32991285Y-74652000D01*
X34277000Y-75509142D02*
X34134142Y-75580571D01*
X33848428Y-75580571D01*
X33705571Y-75509142D01*
X33634142Y-75366285D01*
X33634142Y-74794857D01*
X33705571Y-74652000D01*
X33848428Y-74580571D01*
X34134142Y-74580571D01*
X34277000Y-74652000D01*
X34348428Y-74794857D01*
X34348428Y-74937714D01*
X33634142Y-75080571D01*
X34991285Y-75009142D02*
X36134142Y-75009142D01*
X36848428Y-75580571D02*
X36848428Y-74080571D01*
X36848428Y-74794857D02*
X37705571Y-74794857D01*
X37705571Y-75580571D02*
X37705571Y-74080571D01*
X39062714Y-74580571D02*
X39062714Y-75580571D01*
X38419857Y-74580571D02*
X38419857Y-75366285D01*
X38491285Y-75509142D01*
X38634142Y-75580571D01*
X38848428Y-75580571D01*
X38991285Y-75509142D01*
X39062714Y-75437714D01*
X39991285Y-75580571D02*
X39848428Y-75509142D01*
X39777000Y-75366285D01*
X39777000Y-74080571D01*
X40562714Y-75580571D02*
X40562714Y-74580571D01*
X40562714Y-74723428D02*
X40634142Y-74652000D01*
X40777000Y-74580571D01*
X40991285Y-74580571D01*
X41134142Y-74652000D01*
X41205571Y-74794857D01*
X41205571Y-75580571D01*
X41205571Y-74794857D02*
X41277000Y-74652000D01*
X41419857Y-74580571D01*
X41634142Y-74580571D01*
X41777000Y-74652000D01*
X41848428Y-74794857D01*
X41848428Y-75580571D01*
X43205571Y-75580571D02*
X43205571Y-74794857D01*
X43134142Y-74652000D01*
X42991285Y-74580571D01*
X42705571Y-74580571D01*
X42562714Y-74652000D01*
X43205571Y-75509142D02*
X43062714Y-75580571D01*
X42705571Y-75580571D01*
X42562714Y-75509142D01*
X42491285Y-75366285D01*
X42491285Y-75223428D01*
X42562714Y-75080571D01*
X42705571Y-75009142D01*
X43062714Y-75009142D01*
X43205571Y-74937714D01*
X43919857Y-74580571D02*
X43919857Y-75580571D01*
X43919857Y-74723428D02*
X43991285Y-74652000D01*
X44134142Y-74580571D01*
X44348428Y-74580571D01*
X44491285Y-74652000D01*
X44562714Y-74794857D01*
X44562714Y-75580571D01*
X47277000Y-75580571D02*
X46777000Y-74866285D01*
X46419857Y-75580571D02*
X46419857Y-74080571D01*
X46991285Y-74080571D01*
X47134142Y-74152000D01*
X47205571Y-74223428D01*
X47277000Y-74366285D01*
X47277000Y-74580571D01*
X47205571Y-74723428D01*
X47134142Y-74794857D01*
X46991285Y-74866285D01*
X46419857Y-74866285D01*
X48134142Y-75580571D02*
X47991285Y-75509142D01*
X47919857Y-75437714D01*
X47848428Y-75294857D01*
X47848428Y-74866285D01*
X47919857Y-74723428D01*
X47991285Y-74652000D01*
X48134142Y-74580571D01*
X48348428Y-74580571D01*
X48491285Y-74652000D01*
X48562714Y-74723428D01*
X48634142Y-74866285D01*
X48634142Y-75294857D01*
X48562714Y-75437714D01*
X48491285Y-75509142D01*
X48348428Y-75580571D01*
X48134142Y-75580571D01*
X49919857Y-75509142D02*
X49777000Y-75580571D01*
X49491285Y-75580571D01*
X49348428Y-75509142D01*
X49277000Y-75437714D01*
X49205571Y-75294857D01*
X49205571Y-74866285D01*
X49277000Y-74723428D01*
X49348428Y-74652000D01*
X49491285Y-74580571D01*
X49777000Y-74580571D01*
X49919857Y-74652000D01*
X50562714Y-75580571D02*
X50562714Y-74080571D01*
X50705571Y-75009142D02*
X51134142Y-75580571D01*
X51134142Y-74580571D02*
X50562714Y-75152000D01*
X52348428Y-75509142D02*
X52205571Y-75580571D01*
X51919857Y-75580571D01*
X51777000Y-75509142D01*
X51705571Y-75366285D01*
X51705571Y-74794857D01*
X51777000Y-74652000D01*
X51919857Y-74580571D01*
X52205571Y-74580571D01*
X52348428Y-74652000D01*
X52419857Y-74794857D01*
X52419857Y-74937714D01*
X51705571Y-75080571D01*
X52848428Y-74580571D02*
X53419857Y-74580571D01*
X53062714Y-74080571D02*
X53062714Y-75366285D01*
X53134142Y-75509142D01*
X53277000Y-75580571D01*
X53419857Y-75580571D01*
X53919857Y-75580571D02*
X53919857Y-74580571D01*
X53919857Y-74866285D02*
X53991285Y-74723428D01*
X54062714Y-74652000D01*
X54205571Y-74580571D01*
X54348428Y-74580571D01*
X54705571Y-74580571D02*
X55062714Y-75580571D01*
X55419857Y-74580571D02*
X55062714Y-75580571D01*
X54919857Y-75937714D01*
X54848428Y-76009142D01*
X54705571Y-76080571D01*
X57991285Y-75437714D02*
X57919857Y-75509142D01*
X57705571Y-75580571D01*
X57562714Y-75580571D01*
X57348428Y-75509142D01*
X57205571Y-75366285D01*
X57134142Y-75223428D01*
X57062714Y-74937714D01*
X57062714Y-74723428D01*
X57134142Y-74437714D01*
X57205571Y-74294857D01*
X57348428Y-74152000D01*
X57562714Y-74080571D01*
X57705571Y-74080571D01*
X57919857Y-74152000D01*
X57991285Y-74223428D01*
X58848428Y-75580571D02*
X58705571Y-75509142D01*
X58634142Y-75366285D01*
X58634142Y-74080571D01*
X60062714Y-74580571D02*
X60062714Y-75580571D01*
X59419857Y-74580571D02*
X59419857Y-75366285D01*
X59491285Y-75509142D01*
X59634142Y-75580571D01*
X59848428Y-75580571D01*
X59991285Y-75509142D01*
X60062714Y-75437714D01*
X60777000Y-75580571D02*
X60777000Y-74080571D01*
X60777000Y-74652000D02*
X60919857Y-74580571D01*
X61205571Y-74580571D01*
X61348428Y-74652000D01*
X61419857Y-74723428D01*
X61491285Y-74866285D01*
X61491285Y-75294857D01*
X61419857Y-75437714D01*
X61348428Y-75509142D01*
X61205571Y-75580571D01*
X60919857Y-75580571D01*
X60777000Y-75509142D01*
D10*
D11*
D10*
D11*
X29514142Y-69580571D02*
X29514142Y-68080571D01*
X30157000Y-69580571D02*
X30157000Y-68794857D01*
X30085571Y-68652000D01*
X29942714Y-68580571D01*
X29728428Y-68580571D01*
X29585571Y-68652000D01*
X29514142Y-68723428D01*
X30657000Y-68580571D02*
X31228428Y-68580571D01*
X30871285Y-68080571D02*
X30871285Y-69366285D01*
X30942714Y-69509142D01*
X31085571Y-69580571D01*
X31228428Y-69580571D01*
X31514142Y-68580571D02*
X32085571Y-68580571D01*
X31728428Y-68080571D02*
X31728428Y-69366285D01*
X31799857Y-69509142D01*
X31942714Y-69580571D01*
X32085571Y-69580571D01*
X32585571Y-68580571D02*
X32585571Y-70080571D01*
X32585571Y-68652000D02*
X32728428Y-68580571D01*
X33014142Y-68580571D01*
X33157000Y-68652000D01*
X33228428Y-68723428D01*
X33299857Y-68866285D01*
X33299857Y-69294857D01*
X33228428Y-69437714D01*
X33157000Y-69509142D01*
X33014142Y-69580571D01*
X32728428Y-69580571D01*
X32585571Y-69509142D01*
X33871285Y-69509142D02*
X34014142Y-69580571D01*
X34299857Y-69580571D01*
X34442714Y-69509142D01*
X34514142Y-69366285D01*
X34514142Y-69294857D01*
X34442714Y-69152000D01*
X34299857Y-69080571D01*
X34085571Y-69080571D01*
X33942714Y-69009142D01*
X33871285Y-68866285D01*
X33871285Y-68794857D01*
X33942714Y-68652000D01*
X34085571Y-68580571D01*
X34299857Y-68580571D01*
X34442714Y-68652000D01*
X35157000Y-69437714D02*
X35228428Y-69509142D01*
X35157000Y-69580571D01*
X35085571Y-69509142D01*
X35157000Y-69437714D01*
X35157000Y-69580571D01*
X35157000Y-68652000D02*
X35228428Y-68723428D01*
X35157000Y-68794857D01*
X35085571Y-68723428D01*
X35157000Y-68652000D01*
X35157000Y-68794857D01*
X36942714Y-68009142D02*
X35657000Y-69937714D01*
X38514142Y-68009142D02*
X37228428Y-69937714D01*
X39657000Y-69509142D02*
X39514142Y-69580571D01*
X39228428Y-69580571D01*
X39085571Y-69509142D01*
X39014142Y-69437714D01*
X38942714Y-69294857D01*
X38942714Y-68866285D01*
X39014142Y-68723428D01*
X39085571Y-68652000D01*
X39228428Y-68580571D01*
X39514142Y-68580571D01*
X39657000Y-68652000D01*
X40299857Y-69580571D02*
X40299857Y-68580571D01*
X40299857Y-68866285D02*
X40371285Y-68723428D01*
X40442714Y-68652000D01*
X40585571Y-68580571D01*
X40728428Y-68580571D01*
X41799857Y-69509142D02*
X41657000Y-69580571D01*
X41371285Y-69580571D01*
X41228428Y-69509142D01*
X41157000Y-69366285D01*
X41157000Y-68794857D01*
X41228428Y-68652000D01*
X41371285Y-68580571D01*
X41657000Y-68580571D01*
X41799857Y-68652000D01*
X41871285Y-68794857D01*
X41871285Y-68937714D01*
X41157000Y-69080571D01*
X43157000Y-69580571D02*
X43157000Y-68794857D01*
X43085571Y-68652000D01*
X42942714Y-68580571D01*
X42657000Y-68580571D01*
X42514142Y-68652000D01*
X43157000Y-69509142D02*
X43014142Y-69580571D01*
X42657000Y-69580571D01*
X42514142Y-69509142D01*
X42442714Y-69366285D01*
X42442714Y-69223428D01*
X42514142Y-69080571D01*
X42657000Y-69009142D01*
X43014142Y-69009142D01*
X43157000Y-68937714D01*
X43657000Y-68580571D02*
X44228428Y-68580571D01*
X43871285Y-68080571D02*
X43871285Y-69366285D01*
X43942714Y-69509142D01*
X44085571Y-69580571D01*
X44228428Y-69580571D01*
X44728428Y-69580571D02*
X44728428Y-68580571D01*
X44728428Y-68080571D02*
X44657000Y-68152000D01*
X44728428Y-68223428D01*
X44799857Y-68152000D01*
X44728428Y-68080571D01*
X44728428Y-68223428D01*
X45299857Y-68580571D02*
X45657000Y-69580571D01*
X46014142Y-68580571D01*
X47157000Y-69509142D02*
X47014142Y-69580571D01*
X46728428Y-69580571D01*
X46585571Y-69509142D01*
X46514142Y-69366285D01*
X46514142Y-68794857D01*
X46585571Y-68652000D01*
X46728428Y-68580571D01*
X47014142Y-68580571D01*
X47157000Y-68652000D01*
X47228428Y-68794857D01*
X47228428Y-68937714D01*
X46514142Y-69080571D01*
X48514142Y-69509142D02*
X48371285Y-69580571D01*
X48085571Y-69580571D01*
X47942714Y-69509142D01*
X47871285Y-69437714D01*
X47799857Y-69294857D01*
X47799857Y-68866285D01*
X47871285Y-68723428D01*
X47942714Y-68652000D01*
X48085571Y-68580571D01*
X48371285Y-68580571D01*
X48514142Y-68652000D01*
X49371285Y-69580571D02*
X49228428Y-69509142D01*
X49157000Y-69437714D01*
X49085571Y-69294857D01*
X49085571Y-68866285D01*
X49157000Y-68723428D01*
X49228428Y-68652000D01*
X49371285Y-68580571D01*
X49585571Y-68580571D01*
X49728428Y-68652000D01*
X49799857Y-68723428D01*
X49871285Y-68866285D01*
X49871285Y-69294857D01*
X49799857Y-69437714D01*
X49728428Y-69509142D01*
X49585571Y-69580571D01*
X49371285Y-69580571D01*
X50514142Y-69580571D02*
X50514142Y-68580571D01*
X50514142Y-68723428D02*
X50585571Y-68652000D01*
X50728428Y-68580571D01*
X50942714Y-68580571D01*
X51085571Y-68652000D01*
X51157000Y-68794857D01*
X51157000Y-69580571D01*
X51157000Y-68794857D02*
X51228428Y-68652000D01*
X51371285Y-68580571D01*
X51585571Y-68580571D01*
X51728428Y-68652000D01*
X51799857Y-68794857D01*
X51799857Y-69580571D01*
X52514142Y-69580571D02*
X52514142Y-68580571D01*
X52514142Y-68723428D02*
X52585571Y-68652000D01*
X52728428Y-68580571D01*
X52942714Y-68580571D01*
X53085571Y-68652000D01*
X53157000Y-68794857D01*
X53157000Y-69580571D01*
X53157000Y-68794857D02*
X53228428Y-68652000D01*
X53371285Y-68580571D01*
X53585571Y-68580571D01*
X53728428Y-68652000D01*
X53799857Y-68794857D01*
X53799857Y-69580571D01*
X54728428Y-69580571D02*
X54585571Y-69509142D01*
X54514142Y-69437714D01*
X54442714Y-69294857D01*
X54442714Y-68866285D01*
X54514142Y-68723428D01*
X54585571Y-68652000D01*
X54728428Y-68580571D01*
X54942714Y-68580571D01*
X55085571Y-68652000D01*
X55157000Y-68723428D01*
X55228428Y-68866285D01*
X55228428Y-69294857D01*
X55157000Y-69437714D01*
X55085571Y-69509142D01*
X54942714Y-69580571D01*
X54728428Y-69580571D01*
X55871285Y-68580571D02*
X55871285Y-69580571D01*
X55871285Y-68723428D02*
X55942714Y-68652000D01*
X56085571Y-68580571D01*
X56299857Y-68580571D01*
X56442714Y-68652000D01*
X56514142Y-68794857D01*
X56514142Y-69580571D01*
X57157000Y-69509142D02*
X57299857Y-69580571D01*
X57585571Y-69580571D01*
X57728428Y-69509142D01*
X57799857Y-69366285D01*
X57799857Y-69294857D01*
X57728428Y-69152000D01*
X57585571Y-69080571D01*
X57371285Y-69080571D01*
X57228428Y-69009142D01*
X57157000Y-68866285D01*
X57157000Y-68794857D01*
X57228428Y-68652000D01*
X57371285Y-68580571D01*
X57585571Y-68580571D01*
X57728428Y-68652000D01*
X58442714Y-69437714D02*
X58514142Y-69509142D01*
X58442714Y-69580571D01*
X58371285Y-69509142D01*
X58442714Y-69437714D01*
X58442714Y-69580571D01*
X59371285Y-69580571D02*
X59228428Y-69509142D01*
X59157000Y-69437714D01*
X59085571Y-69294857D01*
X59085571Y-68866285D01*
X59157000Y-68723428D01*
X59228428Y-68652000D01*
X59371285Y-68580571D01*
X59585571Y-68580571D01*
X59728428Y-68652000D01*
X59799857Y-68723428D01*
X59871285Y-68866285D01*
X59871285Y-69294857D01*
X59799857Y-69437714D01*
X59728428Y-69509142D01*
X59585571Y-69580571D01*
X59371285Y-69580571D01*
X60514142Y-69580571D02*
X60514142Y-68580571D01*
X60514142Y-68866285D02*
X60585571Y-68723428D01*
X60657000Y-68652000D01*
X60799857Y-68580571D01*
X60942714Y-68580571D01*
X62085571Y-68580571D02*
X62085571Y-69794857D01*
X62014142Y-69937714D01*
X61942714Y-70009142D01*
X61799857Y-70080571D01*
X61585571Y-70080571D01*
X61442714Y-70009142D01*
X62085571Y-69509142D02*
X61942714Y-69580571D01*
X61657000Y-69580571D01*
X61514142Y-69509142D01*
X61442714Y-69437714D01*
X61371285Y-69294857D01*
X61371285Y-68866285D01*
X61442714Y-68723428D01*
X61514142Y-68652000D01*
X61657000Y-68580571D01*
X61942714Y-68580571D01*
X62085571Y-68652000D01*
X63871285Y-68009142D02*
X62585571Y-69937714D01*
X64585571Y-69580571D02*
X64442714Y-69509142D01*
X64371285Y-69366285D01*
X64371285Y-68080571D01*
X65157000Y-69580571D02*
X65157000Y-68580571D01*
X65157000Y-68080571D02*
X65085571Y-68152000D01*
X65157000Y-68223428D01*
X65228428Y-68152000D01*
X65157000Y-68080571D01*
X65157000Y-68223428D01*
X66514142Y-69509142D02*
X66371285Y-69580571D01*
X66085571Y-69580571D01*
X65942714Y-69509142D01*
X65871285Y-69437714D01*
X65799857Y-69294857D01*
X65799857Y-68866285D01*
X65871285Y-68723428D01*
X65942714Y-68652000D01*
X66085571Y-68580571D01*
X66371285Y-68580571D01*
X66514142Y-68652000D01*
X67728428Y-69509142D02*
X67585571Y-69580571D01*
X67299857Y-69580571D01*
X67157000Y-69509142D01*
X67085571Y-69366285D01*
X67085571Y-68794857D01*
X67157000Y-68652000D01*
X67299857Y-68580571D01*
X67585571Y-68580571D01*
X67728428Y-68652000D01*
X67799857Y-68794857D01*
X67799857Y-68937714D01*
X67085571Y-69080571D01*
X68442714Y-68580571D02*
X68442714Y-69580571D01*
X68442714Y-68723428D02*
X68514142Y-68652000D01*
X68657000Y-68580571D01*
X68871285Y-68580571D01*
X69014142Y-68652000D01*
X69085571Y-68794857D01*
X69085571Y-69580571D01*
X69728428Y-69509142D02*
X69871285Y-69580571D01*
X70157000Y-69580571D01*
X70299857Y-69509142D01*
X70371285Y-69366285D01*
X70371285Y-69294857D01*
X70299857Y-69152000D01*
X70157000Y-69080571D01*
X69942714Y-69080571D01*
X69799857Y-69009142D01*
X69728428Y-68866285D01*
X69728428Y-68794857D01*
X69799857Y-68652000D01*
X69942714Y-68580571D01*
X70157000Y-68580571D01*
X70299857Y-68652000D01*
X71585571Y-69509142D02*
X71442714Y-69580571D01*
X71157000Y-69580571D01*
X71014142Y-69509142D01*
X70942714Y-69366285D01*
X70942714Y-68794857D01*
X71014142Y-68652000D01*
X71157000Y-68580571D01*
X71442714Y-68580571D01*
X71585571Y-68652000D01*
X71657000Y-68794857D01*
X71657000Y-68937714D01*
X70942714Y-69080571D01*
X72228428Y-69509142D02*
X72371285Y-69580571D01*
X72657000Y-69580571D01*
X72799857Y-69509142D01*
X72871285Y-69366285D01*
X72871285Y-69294857D01*
X72799857Y-69152000D01*
X72657000Y-69080571D01*
X72442714Y-69080571D01*
X72299857Y-69009142D01*
X72228428Y-68866285D01*
X72228428Y-68794857D01*
X72299857Y-68652000D01*
X72442714Y-68580571D01*
X72657000Y-68580571D01*
X72799857Y-68652000D01*
X74585571Y-68009142D02*
X73299857Y-69937714D01*
X75085571Y-69580571D02*
X75085571Y-68080571D01*
X75085571Y-68652000D02*
X75228428Y-68580571D01*
X75514142Y-68580571D01*
X75657000Y-68652000D01*
X75728428Y-68723428D01*
X75799857Y-68866285D01*
X75799857Y-69294857D01*
X75728428Y-69437714D01*
X75657000Y-69509142D01*
X75514142Y-69580571D01*
X75228428Y-69580571D01*
X75085571Y-69509142D01*
X76299857Y-68580571D02*
X76657000Y-69580571D01*
X77014142Y-68580571D02*
X76657000Y-69580571D01*
X76514142Y-69937714D01*
X76442714Y-70009142D01*
X76299857Y-70080571D01*
X77585571Y-69009142D02*
X78728428Y-69009142D01*
X79371285Y-69509142D02*
X79514142Y-69580571D01*
X79799857Y-69580571D01*
X79942714Y-69509142D01*
X80014142Y-69366285D01*
X80014142Y-69294857D01*
X79942714Y-69152000D01*
X79799857Y-69080571D01*
X79585571Y-69080571D01*
X79442714Y-69009142D01*
X79371285Y-68866285D01*
X79371285Y-68794857D01*
X79442714Y-68652000D01*
X79585571Y-68580571D01*
X79799857Y-68580571D01*
X79942714Y-68652000D01*
X81299857Y-69580571D02*
X81299857Y-68794857D01*
X81228428Y-68652000D01*
X81085571Y-68580571D01*
X80799857Y-68580571D01*
X80657000Y-68652000D01*
X81299857Y-69509142D02*
X81157000Y-69580571D01*
X80799857Y-69580571D01*
X80657000Y-69509142D01*
X80585571Y-69366285D01*
X80585571Y-69223428D01*
X80657000Y-69080571D01*
X80799857Y-69009142D01*
X81157000Y-69009142D01*
X81299857Y-68937714D01*
X83085571Y-68009142D02*
X81799857Y-69937714D01*
X84228428Y-68580571D02*
X84228428Y-69580571D01*
X83871285Y-68009142D02*
X83514142Y-69080571D01*
X84442714Y-69080571D01*
X85014142Y-69437714D02*
X85085571Y-69509142D01*
X85014142Y-69580571D01*
X84942714Y-69509142D01*
X85014142Y-69437714D01*
X85014142Y-69580571D01*
X86014142Y-68080571D02*
X86157000Y-68080571D01*
X86299857Y-68152000D01*
X86371285Y-68223428D01*
X86442714Y-68366285D01*
X86514142Y-68652000D01*
X86514142Y-69009142D01*
X86442714Y-69294857D01*
X86371285Y-69437714D01*
X86299857Y-69509142D01*
X86157000Y-69580571D01*
X86014142Y-69580571D01*
X85871285Y-69509142D01*
X85799857Y-69437714D01*
X85728428Y-69294857D01*
X85657000Y-69009142D01*
X85657000Y-68652000D01*
X85728428Y-68366285D01*
X85799857Y-68223428D01*
X85871285Y-68152000D01*
X86014142Y-68080571D01*
X88228428Y-68009142D02*
X86942714Y-69937714D01*
D10*
D11*
X30228428Y-66580571D02*
X29514142Y-66580571D01*
X29514142Y-65080571D01*
X30728428Y-66580571D02*
X30728428Y-65580571D01*
X30728428Y-65080571D02*
X30657000Y-65152000D01*
X30728428Y-65223428D01*
X30799857Y-65152000D01*
X30728428Y-65080571D01*
X30728428Y-65223428D01*
X32085571Y-66509142D02*
X31942714Y-66580571D01*
X31657000Y-66580571D01*
X31514142Y-66509142D01*
X31442714Y-66437714D01*
X31371285Y-66294857D01*
X31371285Y-65866285D01*
X31442714Y-65723428D01*
X31514142Y-65652000D01*
X31657000Y-65580571D01*
X31942714Y-65580571D01*
X32085571Y-65652000D01*
X33299857Y-66509142D02*
X33157000Y-66580571D01*
X32871285Y-66580571D01*
X32728428Y-66509142D01*
X32657000Y-66366285D01*
X32657000Y-65794857D01*
X32728428Y-65652000D01*
X32871285Y-65580571D01*
X33157000Y-65580571D01*
X33299857Y-65652000D01*
X33371285Y-65794857D01*
X33371285Y-65937714D01*
X32657000Y-66080571D01*
X34014142Y-65580571D02*
X34014142Y-66580571D01*
X34014142Y-65723428D02*
X34085571Y-65652000D01*
X34228428Y-65580571D01*
X34442714Y-65580571D01*
X34585571Y-65652000D01*
X34657000Y-65794857D01*
X34657000Y-66580571D01*
X35299857Y-66509142D02*
X35442714Y-66580571D01*
X35728428Y-66580571D01*
X35871285Y-66509142D01*
X35942714Y-66366285D01*
X35942714Y-66294857D01*
X35871285Y-66152000D01*
X35728428Y-66080571D01*
X35514142Y-66080571D01*
X35371285Y-66009142D01*
X35299857Y-65866285D01*
X35299857Y-65794857D01*
X35371285Y-65652000D01*
X35514142Y-65580571D01*
X35728428Y-65580571D01*
X35871285Y-65652000D01*
X37157000Y-66509142D02*
X37014142Y-66580571D01*
X36728428Y-66580571D01*
X36585571Y-66509142D01*
X36514142Y-66366285D01*
X36514142Y-65794857D01*
X36585571Y-65652000D01*
X36728428Y-65580571D01*
X37014142Y-65580571D01*
X37157000Y-65652000D01*
X37228428Y-65794857D01*
X37228428Y-65937714D01*
X36514142Y-66080571D01*
X37871285Y-66437714D02*
X37942714Y-66509142D01*
X37871285Y-66580571D01*
X37799857Y-66509142D01*
X37871285Y-66437714D01*
X37871285Y-66580571D01*
X37871285Y-65652000D02*
X37942714Y-65723428D01*
X37871285Y-65794857D01*
X37799857Y-65723428D01*
X37871285Y-65652000D01*
X37871285Y-65794857D01*
X40585571Y-66437714D02*
X40514142Y-66509142D01*
X40299857Y-66580571D01*
X40157000Y-66580571D01*
X39942714Y-66509142D01*
X39799857Y-66366285D01*
X39728428Y-66223428D01*
X39657000Y-65937714D01*
X39657000Y-65723428D01*
X39728428Y-65437714D01*
X39799857Y-65294857D01*
X39942714Y-65152000D01*
X40157000Y-65080571D01*
X40299857Y-65080571D01*
X40514142Y-65152000D01*
X40585571Y-65223428D01*
X42085571Y-66437714D02*
X42014142Y-66509142D01*
X41799857Y-66580571D01*
X41657000Y-66580571D01*
X41442714Y-66509142D01*
X41299857Y-66366285D01*
X41228428Y-66223428D01*
X41157000Y-65937714D01*
X41157000Y-65723428D01*
X41228428Y-65437714D01*
X41299857Y-65294857D01*
X41442714Y-65152000D01*
X41657000Y-65080571D01*
X41799857Y-65080571D01*
X42014142Y-65152000D01*
X42085571Y-65223428D01*
X44371285Y-65794857D02*
X44585571Y-65866285D01*
X44657000Y-65937714D01*
X44728428Y-66080571D01*
X44728428Y-66294857D01*
X44657000Y-66437714D01*
X44585571Y-66509142D01*
X44442714Y-66580571D01*
X43871285Y-66580571D01*
X43871285Y-65080571D01*
X44371285Y-65080571D01*
X44514142Y-65152000D01*
X44585571Y-65223428D01*
X44657000Y-65366285D01*
X44657000Y-65509142D01*
X44585571Y-65652000D01*
X44514142Y-65723428D01*
X44371285Y-65794857D01*
X43871285Y-65794857D01*
X45657000Y-65866285D02*
X45657000Y-66580571D01*
X45157000Y-65080571D02*
X45657000Y-65866285D01*
X46157000Y-65080571D01*
X46657000Y-66009142D02*
X47799857Y-66009142D01*
X48442714Y-66509142D02*
X48657000Y-66580571D01*
X49014142Y-66580571D01*
X49157000Y-66509142D01*
X49228428Y-66437714D01*
X49299857Y-66294857D01*
X49299857Y-66152000D01*
X49228428Y-66009142D01*
X49157000Y-65937714D01*
X49014142Y-65866285D01*
X48728428Y-65794857D01*
X48585571Y-65723428D01*
X48514142Y-65652000D01*
X48442714Y-65509142D01*
X48442714Y-65366285D01*
X48514142Y-65223428D01*
X48585571Y-65152000D01*
X48728428Y-65080571D01*
X49085571Y-65080571D01*
X49299857Y-65152000D01*
X49871285Y-66152000D02*
X50585571Y-66152000D01*
X49728428Y-66580571D02*
X50228428Y-65080571D01*
X50728428Y-66580571D01*
X53014142Y-65580571D02*
X53014142Y-66580571D01*
X52657000Y-65009142D02*
X52299857Y-66080571D01*
X53228428Y-66080571D01*
X53799857Y-66437714D02*
X53871285Y-66509142D01*
X53799857Y-66580571D01*
X53728428Y-66509142D01*
X53799857Y-66437714D01*
X53799857Y-66580571D01*
X54799857Y-65080571D02*
X54942714Y-65080571D01*
X55085571Y-65152000D01*
X55157000Y-65223428D01*
X55228428Y-65366285D01*
X55299857Y-65652000D01*
X55299857Y-66009142D01*
X55228428Y-66294857D01*
X55157000Y-66437714D01*
X55085571Y-66509142D01*
X54942714Y-66580571D01*
X54799857Y-66580571D01*
X54657000Y-66509142D01*
X54585571Y-66437714D01*
X54514142Y-66294857D01*
X54442714Y-66009142D01*
X54442714Y-65652000D01*
X54514142Y-65366285D01*
X54585571Y-65223428D01*
X54657000Y-65152000D01*
X54799857Y-65080571D01*
D10*
D11*
X29442714Y-63152000D02*
X30157000Y-63152000D01*
X29299857Y-63580571D02*
X29799857Y-62080571D01*
X30299857Y-63580571D01*
X31442714Y-62580571D02*
X31442714Y-63580571D01*
X30799857Y-62580571D02*
X30799857Y-63366285D01*
X30871285Y-63509142D01*
X31014142Y-63580571D01*
X31228428Y-63580571D01*
X31371285Y-63509142D01*
X31442714Y-63437714D01*
X31942714Y-62580571D02*
X32514142Y-62580571D01*
X32157000Y-62080571D02*
X32157000Y-63366285D01*
X32228428Y-63509142D01*
X32371285Y-63580571D01*
X32514142Y-63580571D01*
X33014142Y-63580571D02*
X33014142Y-62080571D01*
X33657000Y-63580571D02*
X33657000Y-62794857D01*
X33585571Y-62652000D01*
X33442714Y-62580571D01*
X33228428Y-62580571D01*
X33085571Y-62652000D01*
X33014142Y-62723428D01*
X34585571Y-63580571D02*
X34442714Y-63509142D01*
X34371285Y-63437714D01*
X34299857Y-63294857D01*
X34299857Y-62866285D01*
X34371285Y-62723428D01*
X34442714Y-62652000D01*
X34585571Y-62580571D01*
X34799857Y-62580571D01*
X34942714Y-62652000D01*
X35014142Y-62723428D01*
X35085571Y-62866285D01*
X35085571Y-63294857D01*
X35014142Y-63437714D01*
X34942714Y-63509142D01*
X34799857Y-63580571D01*
X34585571Y-63580571D01*
X35728428Y-63580571D02*
X35728428Y-62580571D01*
X35728428Y-62866285D02*
X35799857Y-62723428D01*
X35871285Y-62652000D01*
X36014142Y-62580571D01*
X36157000Y-62580571D01*
X36657000Y-63437714D02*
X36728428Y-63509142D01*
X36657000Y-63580571D01*
X36585571Y-63509142D01*
X36657000Y-63437714D01*
X36657000Y-63580571D01*
X36657000Y-62652000D02*
X36728428Y-62723428D01*
X36657000Y-62794857D01*
X36585571Y-62723428D01*
X36657000Y-62652000D01*
X36657000Y-62794857D01*
X38942714Y-62080571D02*
X38942714Y-63152000D01*
X38871285Y-63366285D01*
X38728428Y-63509142D01*
X38514142Y-63580571D01*
X38371285Y-63580571D01*
X40299857Y-63580571D02*
X40299857Y-62794857D01*
X40228428Y-62652000D01*
X40085571Y-62580571D01*
X39799857Y-62580571D01*
X39657000Y-62652000D01*
X40299857Y-63509142D02*
X40157000Y-63580571D01*
X39799857Y-63580571D01*
X39657000Y-63509142D01*
X39585571Y-63366285D01*
X39585571Y-63223428D01*
X39657000Y-63080571D01*
X39799857Y-63009142D01*
X40157000Y-63009142D01*
X40299857Y-62937714D01*
X41657000Y-63509142D02*
X41514142Y-63580571D01*
X41228428Y-63580571D01*
X41085571Y-63509142D01*
X41014142Y-63437714D01*
X40942714Y-63294857D01*
X40942714Y-62866285D01*
X41014142Y-62723428D01*
X41085571Y-62652000D01*
X41228428Y-62580571D01*
X41514142Y-62580571D01*
X41657000Y-62652000D01*
X42514142Y-63580571D02*
X42371285Y-63509142D01*
X42299857Y-63437714D01*
X42228428Y-63294857D01*
X42228428Y-62866285D01*
X42299857Y-62723428D01*
X42371285Y-62652000D01*
X42514142Y-62580571D01*
X42728428Y-62580571D01*
X42871285Y-62652000D01*
X42942714Y-62723428D01*
X43014142Y-62866285D01*
X43014142Y-63294857D01*
X42942714Y-63437714D01*
X42871285Y-63509142D01*
X42728428Y-63580571D01*
X42514142Y-63580571D01*
X43657000Y-63580571D02*
X43657000Y-62080571D01*
X43657000Y-62652000D02*
X43799857Y-62580571D01*
X44085571Y-62580571D01*
X44228428Y-62652000D01*
X44299857Y-62723428D01*
X44371285Y-62866285D01*
X44371285Y-63294857D01*
X44299857Y-63437714D01*
X44228428Y-63509142D01*
X44085571Y-63580571D01*
X43799857Y-63580571D01*
X43657000Y-63509142D01*
X46085571Y-63152000D02*
X46799857Y-63152000D01*
X45942714Y-63580571D02*
X46442714Y-62080571D01*
X46942714Y-63580571D01*
X47442714Y-63580571D02*
X47442714Y-62580571D01*
X47442714Y-62866285D02*
X47514142Y-62723428D01*
X47585571Y-62652000D01*
X47728428Y-62580571D01*
X47871285Y-62580571D01*
X48371285Y-63580571D02*
X48371285Y-62580571D01*
X48371285Y-62723428D02*
X48442714Y-62652000D01*
X48585571Y-62580571D01*
X48799857Y-62580571D01*
X48942714Y-62652000D01*
X49014142Y-62794857D01*
X49014142Y-63580571D01*
X49014142Y-62794857D02*
X49085571Y-62652000D01*
X49228428Y-62580571D01*
X49442714Y-62580571D01*
X49585571Y-62652000D01*
X49657000Y-62794857D01*
X49657000Y-63580571D01*
X50299857Y-63509142D02*
X50442714Y-63580571D01*
X50728428Y-63580571D01*
X50871285Y-63509142D01*
X50942714Y-63366285D01*
X50942714Y-63294857D01*
X50871285Y-63152000D01*
X50728428Y-63080571D01*
X50514142Y-63080571D01*
X50371285Y-63009142D01*
X50299857Y-62866285D01*
X50299857Y-62794857D01*
X50371285Y-62652000D01*
X50514142Y-62580571D01*
X50728428Y-62580571D01*
X50871285Y-62652000D01*
X51371285Y-62580571D02*
X51942714Y-62580571D01*
X51585571Y-62080571D02*
X51585571Y-63366285D01*
X51657000Y-63509142D01*
X51799857Y-63580571D01*
X51942714Y-63580571D01*
X52442714Y-63580571D02*
X52442714Y-62580571D01*
X52442714Y-62866285D02*
X52514142Y-62723428D01*
X52585571Y-62652000D01*
X52728428Y-62580571D01*
X52871285Y-62580571D01*
X53585571Y-63580571D02*
X53442714Y-63509142D01*
X53371285Y-63437714D01*
X53299857Y-63294857D01*
X53299857Y-62866285D01*
X53371285Y-62723428D01*
X53442714Y-62652000D01*
X53585571Y-62580571D01*
X53799857Y-62580571D01*
X53942714Y-62652000D01*
X54014142Y-62723428D01*
X54085571Y-62866285D01*
X54085571Y-63294857D01*
X54014142Y-63437714D01*
X53942714Y-63509142D01*
X53799857Y-63580571D01*
X53585571Y-63580571D01*
X54728428Y-62580571D02*
X54728428Y-63580571D01*
X54728428Y-62723428D02*
X54799857Y-62652000D01*
X54942714Y-62580571D01*
X55157000Y-62580571D01*
X55299857Y-62652000D01*
X55371285Y-62794857D01*
X55371285Y-63580571D01*
X56728428Y-62580571D02*
X56728428Y-63794857D01*
X56657000Y-63937714D01*
X56585571Y-64009142D01*
X56442714Y-64080571D01*
X56228428Y-64080571D01*
X56085571Y-64009142D01*
X56728428Y-63509142D02*
X56585571Y-63580571D01*
X56299857Y-63580571D01*
X56157000Y-63509142D01*
X56085571Y-63437714D01*
X56014142Y-63294857D01*
X56014142Y-62866285D01*
X56085571Y-62723428D01*
X56157000Y-62652000D01*
X56299857Y-62580571D01*
X56585571Y-62580571D01*
X56728428Y-62652000D01*
D10*
D11*
X48082000Y-86402000D02*
X48082000Y-89402000D01*
D10*
D11*
X112082000Y-86402000D02*
X112082000Y-92902000D01*
X91486248Y-58530796D02*
X64968648Y-58530796D01*
X64968648Y-31530596D02*
X91486248Y-31555996D01*
X91486248Y-31555996D02*
X91486248Y-58530796D01*
X58415448Y-50529796D02*
X58415448Y-40522196D01*
X64968648Y-58530796D02*
X58415448Y-50529796D01*
X58415448Y-40522196D02*
X64968648Y-31530596D01*
X94730668Y-70401720D02*
X94730668Y-69401720D01*
X94730668Y-69877911D02*
X95302096Y-69877911D01*
X95302096Y-70401720D02*
X95302096Y-69401720D01*
X95683049Y-69401720D02*
X96302096Y-69401720D01*
X95968763Y-69782673D01*
X96111620Y-69782673D01*
X96206858Y-69830292D01*
X96254477Y-69877911D01*
X96302096Y-69973149D01*
X96302096Y-70211244D01*
X96254477Y-70306482D01*
X96206858Y-70354101D01*
X96111620Y-70401720D01*
X95825906Y-70401720D01*
X95730668Y-70354101D01*
X95683049Y-70306482D01*
X97206858Y-70401720D02*
X96730668Y-70401720D01*
X96730668Y-69401720D01*
X97540192Y-70401720D02*
X97540192Y-69401720D01*
X97968763Y-70354101D02*
X98111620Y-70401720D01*
X98349715Y-70401720D01*
X98444953Y-70354101D01*
X98492572Y-70306482D01*
X98540192Y-70211244D01*
X98540192Y-70116006D01*
X98492572Y-70020768D01*
X98444953Y-69973149D01*
X98349715Y-69925530D01*
X98159239Y-69877911D01*
X98064001Y-69830292D01*
X98016382Y-69782673D01*
X97968763Y-69687435D01*
X97968763Y-69592197D01*
X98016382Y-69496959D01*
X98064001Y-69449340D01*
X98159239Y-69401720D01*
X98397334Y-69401720D01*
X98540192Y-69449340D01*
X98873525Y-69401720D02*
X99492572Y-69401720D01*
X99159239Y-69782673D01*
X99302096Y-69782673D01*
X99397334Y-69830292D01*
X99444953Y-69877911D01*
X99492572Y-69973149D01*
X99492572Y-70211244D01*
X99444953Y-70306482D01*
X99397334Y-70354101D01*
X99302096Y-70401720D01*
X99016382Y-70401720D01*
X98921144Y-70354101D01*
X98873525Y-70306482D01*
X99825906Y-69401720D02*
X100444953Y-69401720D01*
X100111620Y-69782673D01*
X100254477Y-69782673D01*
X100349715Y-69830292D01*
X100397334Y-69877911D01*
X100444953Y-69973149D01*
X100444953Y-70211244D01*
X100397334Y-70306482D01*
X100349715Y-70354101D01*
X100254477Y-70401720D01*
X99968763Y-70401720D01*
X99873525Y-70354101D01*
X99825906Y-70306482D01*
X101397334Y-70401720D02*
X100825906Y-70401720D01*
X101111620Y-70401720D02*
X101111620Y-69401720D01*
X101016382Y-69544578D01*
X100921144Y-69639816D01*
X100825906Y-69687435D01*
X80495820Y-69393520D02*
X80162487Y-68917330D01*
X79924392Y-69393520D02*
X79924392Y-68393520D01*
X80305344Y-68393520D01*
X80400582Y-68441140D01*
X80448201Y-68488759D01*
X80495820Y-68583997D01*
X80495820Y-68726854D01*
X80448201Y-68822092D01*
X80400582Y-68869711D01*
X80305344Y-68917330D01*
X79924392Y-68917330D01*
X80924392Y-68869711D02*
X81257725Y-68869711D01*
X81400582Y-69393520D02*
X80924392Y-69393520D01*
X80924392Y-68393520D01*
X81400582Y-68393520D01*
X81829153Y-69393520D02*
X81829153Y-68393520D01*
X82162487Y-69107806D01*
X82495820Y-68393520D01*
X82495820Y-69393520D01*
X83162487Y-68393520D02*
X83352963Y-68393520D01*
X83448201Y-68441140D01*
X83543439Y-68536378D01*
X83591058Y-68726854D01*
X83591058Y-69060187D01*
X83543439Y-69250663D01*
X83448201Y-69345901D01*
X83352963Y-69393520D01*
X83162487Y-69393520D01*
X83067249Y-69345901D01*
X82972011Y-69250663D01*
X82924392Y-69060187D01*
X82924392Y-68726854D01*
X82972011Y-68536378D01*
X83067249Y-68441140D01*
X83162487Y-68393520D01*
X83876772Y-68393520D02*
X84210106Y-69393520D01*
X84543439Y-68393520D01*
X84876772Y-68869711D02*
X85210106Y-68869711D01*
X85352963Y-69393520D02*
X84876772Y-69393520D01*
X84876772Y-68393520D01*
X85352963Y-68393520D01*
X86829153Y-68393520D02*
X86829153Y-69107806D01*
X86781534Y-69250663D01*
X86686296Y-69345901D01*
X86543439Y-69393520D01*
X86448201Y-69393520D01*
X87305344Y-68393520D02*
X87305344Y-69203044D01*
X87352963Y-69298282D01*
X87400582Y-69345901D01*
X87495820Y-69393520D01*
X87686296Y-69393520D01*
X87781534Y-69345901D01*
X87829153Y-69298282D01*
X87876772Y-69203044D01*
X87876772Y-68393520D01*
X88352963Y-69393520D02*
X88352963Y-68393520D01*
X88686296Y-69107806D01*
X89019630Y-68393520D01*
X89019630Y-69393520D01*
X89495820Y-69393520D02*
X89495820Y-68393520D01*
X89876772Y-68393520D01*
X89972011Y-68441140D01*
X90019630Y-68488759D01*
X90067249Y-68583997D01*
X90067249Y-68726854D01*
X90019630Y-68822092D01*
X89972011Y-68869711D01*
X89876772Y-68917330D01*
X89495820Y-68917330D01*
X90495820Y-68869711D02*
X90829153Y-68869711D01*
X90972011Y-69393520D02*
X90495820Y-69393520D01*
X90495820Y-68393520D01*
X90972011Y-68393520D01*
X91972011Y-69393520D02*
X91638677Y-68917330D01*
X91400582Y-69393520D02*
X91400582Y-68393520D01*
X91781534Y-68393520D01*
X91876772Y-68441140D01*
X91924392Y-68488759D01*
X91972011Y-68583997D01*
X91972011Y-68726854D01*
X91924392Y-68822092D01*
X91876772Y-68869711D01*
X91781534Y-68917330D01*
X91400582Y-68917330D01*
X80781534Y-70479711D02*
X80924392Y-70527330D01*
X80972011Y-70574949D01*
X81019630Y-70670187D01*
X81019630Y-70813044D01*
X80972011Y-70908282D01*
X80924392Y-70955901D01*
X80829153Y-71003520D01*
X80448201Y-71003520D01*
X80448201Y-70003520D01*
X80781534Y-70003520D01*
X80876772Y-70051140D01*
X80924392Y-70098759D01*
X80972011Y-70193997D01*
X80972011Y-70289235D01*
X80924392Y-70384473D01*
X80876772Y-70432092D01*
X80781534Y-70479711D01*
X80448201Y-70479711D01*
X81448201Y-70479711D02*
X81781534Y-70479711D01*
X81924392Y-71003520D02*
X81448201Y-71003520D01*
X81448201Y-70003520D01*
X81924392Y-70003520D01*
X82686296Y-70479711D02*
X82352963Y-70479711D01*
X82352963Y-71003520D02*
X82352963Y-70003520D01*
X82829153Y-70003520D01*
X83400582Y-70003520D02*
X83591058Y-70003520D01*
X83686296Y-70051140D01*
X83781534Y-70146378D01*
X83829153Y-70336854D01*
X83829153Y-70670187D01*
X83781534Y-70860663D01*
X83686296Y-70955901D01*
X83591058Y-71003520D01*
X83400582Y-71003520D01*
X83305344Y-70955901D01*
X83210106Y-70860663D01*
X83162487Y-70670187D01*
X83162487Y-70336854D01*
X83210106Y-70146378D01*
X83305344Y-70051140D01*
X83400582Y-70003520D01*
X84829153Y-71003520D02*
X84495820Y-70527330D01*
X84257725Y-71003520D02*
X84257725Y-70003520D01*
X84638677Y-70003520D01*
X84733915Y-70051140D01*
X84781534Y-70098759D01*
X84829153Y-70193997D01*
X84829153Y-70336854D01*
X84781534Y-70432092D01*
X84733915Y-70479711D01*
X84638677Y-70527330D01*
X84257725Y-70527330D01*
X85257725Y-70479711D02*
X85591058Y-70479711D01*
X85733915Y-71003520D02*
X85257725Y-71003520D01*
X85257725Y-70003520D01*
X85733915Y-70003520D01*
X87257725Y-70479711D02*
X86924392Y-70479711D01*
X86924392Y-71003520D02*
X86924392Y-70003520D01*
X87400582Y-70003520D01*
X88257725Y-71003520D02*
X87781534Y-71003520D01*
X87781534Y-70003520D01*
X88591058Y-71003520D02*
X88591058Y-70003520D01*
X89591058Y-70051140D02*
X89495820Y-70003520D01*
X89352963Y-70003520D01*
X89210106Y-70051140D01*
X89114868Y-70146378D01*
X89067249Y-70241616D01*
X89019630Y-70432092D01*
X89019630Y-70574949D01*
X89067249Y-70765425D01*
X89114868Y-70860663D01*
X89210106Y-70955901D01*
X89352963Y-71003520D01*
X89448201Y-71003520D01*
X89591058Y-70955901D01*
X89638677Y-70908282D01*
X89638677Y-70574949D01*
X89448201Y-70574949D01*
X90067249Y-71003520D02*
X90067249Y-70003520D01*
X90067249Y-70479711D02*
X90638677Y-70479711D01*
X90638677Y-71003520D02*
X90638677Y-70003520D01*
X90972011Y-70003520D02*
X91543439Y-70003520D01*
X91257725Y-71003520D02*
X91257725Y-70003520D01*
X54880295Y-61074624D02*
X55642200Y-61074624D01*
X55261248Y-61455576D02*
X55261248Y-60693672D01*
X98152562Y-40942862D02*
X98628752Y-40942862D01*
X98057324Y-41228576D02*
X98390657Y-40228576D01*
X98723990Y-41228576D01*
X99057324Y-41228576D02*
X99057324Y-40228576D01*
X99295419Y-40228576D01*
X99438276Y-40276196D01*
X99533514Y-40371434D01*
X99581133Y-40466672D01*
X99628752Y-40657148D01*
X99628752Y-40800005D01*
X99581133Y-40990481D01*
X99533514Y-41085719D01*
X99438276Y-41180957D01*
X99295419Y-41228576D01*
X99057324Y-41228576D01*
X100057324Y-41228576D02*
X100057324Y-40228576D01*
X100295419Y-40228576D01*
X100438276Y-40276196D01*
X100533514Y-40371434D01*
X100581133Y-40466672D01*
X100628752Y-40657148D01*
X100628752Y-40800005D01*
X100581133Y-40990481D01*
X100533514Y-41085719D01*
X100438276Y-41180957D01*
X100295419Y-41228576D01*
X100057324Y-41228576D01*
X101628752Y-41228576D02*
X101295419Y-40752386D01*
X101057324Y-41228576D02*
X101057324Y-40228576D01*
X101438276Y-40228576D01*
X101533514Y-40276196D01*
X101581133Y-40323815D01*
X101628752Y-40419053D01*
X101628752Y-40561910D01*
X101581133Y-40657148D01*
X101533514Y-40704767D01*
X101438276Y-40752386D01*
X101057324Y-40752386D01*
X102819228Y-40847624D02*
X103581133Y-40847624D01*
X103200181Y-41228576D02*
X103200181Y-40466672D01*
X104581133Y-41228576D02*
X104009705Y-41228576D01*
X104295419Y-41228576D02*
X104295419Y-40228576D01*
X104200181Y-40371434D01*
X104104943Y-40466672D01*
X104009705Y-40514291D01*
D12*
X63698905Y-42477967D02*
X64698905Y-43977967D01*
X64698905Y-42477967D02*
X63698905Y-43977967D01*
X65770333Y-43192253D02*
X65984619Y-43263681D01*
X66056048Y-43335110D01*
X66127476Y-43477967D01*
X66127476Y-43692253D01*
X66056048Y-43835110D01*
X65984619Y-43906538D01*
X65841762Y-43977967D01*
X65270333Y-43977967D01*
X65270333Y-42477967D01*
X65770333Y-42477967D01*
X65913190Y-42549396D01*
X65984619Y-42620824D01*
X66056048Y-42763681D01*
X66056048Y-42906538D01*
X65984619Y-43049396D01*
X65913190Y-43120824D01*
X65770333Y-43192253D01*
X65270333Y-43192253D01*
X66770333Y-43192253D02*
X67270333Y-43192253D01*
X67484619Y-43977967D02*
X66770333Y-43977967D01*
X66770333Y-42477967D01*
X67484619Y-42477967D01*
X68127476Y-43192253D02*
X68627476Y-43192253D01*
X68841762Y-43977967D02*
X68127476Y-43977967D01*
X68127476Y-42477967D01*
X68841762Y-42477967D01*
X70627476Y-43977967D02*
X70627476Y-42477967D01*
X71127476Y-43549396D01*
X71627476Y-42477967D01*
X71627476Y-43977967D01*
X72556048Y-43977967D02*
X72413190Y-43906538D01*
X72341762Y-43835110D01*
X72270333Y-43692253D01*
X72270333Y-43263681D01*
X72341762Y-43120824D01*
X72413190Y-43049396D01*
X72556048Y-42977967D01*
X72770333Y-42977967D01*
X72913190Y-43049396D01*
X72984619Y-43120824D01*
X73056048Y-43263681D01*
X73056048Y-43692253D01*
X72984619Y-43835110D01*
X72913190Y-43906538D01*
X72770333Y-43977967D01*
X72556048Y-43977967D01*
X74341762Y-43977967D02*
X74341762Y-42477967D01*
X74341762Y-43906538D02*
X74198905Y-43977967D01*
X73913190Y-43977967D01*
X73770333Y-43906538D01*
X73698905Y-43835110D01*
X73627476Y-43692253D01*
X73627476Y-43263681D01*
X73698905Y-43120824D01*
X73770333Y-43049396D01*
X73913190Y-42977967D01*
X74198905Y-42977967D01*
X74341762Y-43049396D01*
X75698905Y-42977967D02*
X75698905Y-43977967D01*
X75056048Y-42977967D02*
X75056048Y-43763681D01*
X75127476Y-43906538D01*
X75270333Y-43977967D01*
X75484619Y-43977967D01*
X75627476Y-43906538D01*
X75698905Y-43835110D01*
X76627476Y-43977967D02*
X76484619Y-43906538D01*
X76413190Y-43763681D01*
X76413190Y-42477967D01*
X77770333Y-43906538D02*
X77627476Y-43977967D01*
X77341762Y-43977967D01*
X77198905Y-43906538D01*
X77127476Y-43763681D01*
X77127476Y-43192253D01*
X77198905Y-43049396D01*
X77341762Y-42977967D01*
X77627476Y-42977967D01*
X77770333Y-43049396D01*
X77841762Y-43192253D01*
X77841762Y-43335110D01*
X77127476Y-43477967D01*
X106859134Y-41383997D02*
X106787706Y-41598282D01*
X106716277Y-41669711D01*
X106573420Y-41741140D01*
X106359134Y-41741140D01*
X106216277Y-41669711D01*
X106144849Y-41598282D01*
X106073420Y-41455425D01*
X106073420Y-40883997D01*
X107573420Y-40883997D01*
X107573420Y-41383997D01*
X107501992Y-41526854D01*
X107430563Y-41598282D01*
X107287706Y-41669711D01*
X107144849Y-41669711D01*
X107001992Y-41598282D01*
X106930563Y-41526854D01*
X106859134Y-41383997D01*
X106859134Y-40883997D01*
X106073420Y-42383997D02*
X107573420Y-42383997D01*
X106073420Y-43241140D01*
X107573420Y-43241140D01*
X107573420Y-44241140D02*
X107573420Y-44526854D01*
X107501992Y-44669711D01*
X107359134Y-44812568D01*
X107073420Y-44883997D01*
X106573420Y-44883997D01*
X106287706Y-44812568D01*
X106144849Y-44669711D01*
X106073420Y-44526854D01*
X106073420Y-44241140D01*
X106144849Y-44098282D01*
X106287706Y-43955425D01*
X106573420Y-43883997D01*
X107073420Y-43883997D01*
X107359134Y-43955425D01*
X107501992Y-44098282D01*
X107573420Y-44241140D01*
X107573420Y-45812568D02*
X107573420Y-45955425D01*
X107501992Y-46098282D01*
X107430563Y-46169711D01*
X107287706Y-46241140D01*
X107001992Y-46312568D01*
X106644849Y-46312568D01*
X106359134Y-46241140D01*
X106216277Y-46169711D01*
X106144849Y-46098282D01*
X106073420Y-45955425D01*
X106073420Y-45812568D01*
X106144849Y-45669711D01*
X106216277Y-45598282D01*
X106359134Y-45526854D01*
X106644849Y-45455425D01*
X107001992Y-45455425D01*
X107287706Y-45526854D01*
X107430563Y-45598282D01*
X107501992Y-45669711D01*
X107573420Y-45812568D01*
X107573420Y-47669711D02*
X107573420Y-46955425D01*
X106859134Y-46883997D01*
X106930563Y-46955425D01*
X107001992Y-47098282D01*
X107001992Y-47455425D01*
X106930563Y-47598282D01*
X106859134Y-47669711D01*
X106716277Y-47741140D01*
X106359134Y-47741140D01*
X106216277Y-47669711D01*
X106144849Y-47598282D01*
X106073420Y-47455425D01*
X106073420Y-47098282D01*
X106144849Y-46955425D01*
X106216277Y-46883997D01*
X107573420Y-49098282D02*
X107573420Y-48383997D01*
X106859134Y-48312568D01*
X106930563Y-48383997D01*
X107001992Y-48526854D01*
X107001992Y-48883997D01*
X106930563Y-49026854D01*
X106859134Y-49098282D01*
X106716277Y-49169711D01*
X106359134Y-49169711D01*
X106216277Y-49098282D01*
X106144849Y-49026854D01*
X106073420Y-48883997D01*
X106073420Y-48526854D01*
X106144849Y-48383997D01*
X106216277Y-48312568D01*
D11*
X56483428Y-47813567D02*
X56007238Y-48146900D01*
X56483428Y-48384996D02*
X55483428Y-48384996D01*
X55483428Y-48004043D01*
X55531048Y-47908805D01*
X55578667Y-47861186D01*
X55673905Y-47813567D01*
X55816762Y-47813567D01*
X55912000Y-47861186D01*
X55959619Y-47908805D01*
X56007238Y-48004043D01*
X56007238Y-48384996D01*
X55959619Y-47384996D02*
X55959619Y-47051662D01*
X56483428Y-46908805D02*
X56483428Y-47384996D01*
X55483428Y-47384996D01*
X55483428Y-46908805D01*
X56483428Y-46480234D02*
X55483428Y-46480234D01*
X56197714Y-46146900D01*
X55483428Y-45813567D01*
X56483428Y-45813567D01*
X55483428Y-45146900D02*
X55483428Y-44956424D01*
X55531048Y-44861186D01*
X55626286Y-44765948D01*
X55816762Y-44718329D01*
X56150095Y-44718329D01*
X56340571Y-44765948D01*
X56435809Y-44861186D01*
X56483428Y-44956424D01*
X56483428Y-45146900D01*
X56435809Y-45242138D01*
X56340571Y-45337376D01*
X56150095Y-45384996D01*
X55816762Y-45384996D01*
X55626286Y-45337376D01*
X55531048Y-45242138D01*
X55483428Y-45146900D01*
X55483428Y-44432615D02*
X56483428Y-44099281D01*
X55483428Y-43765948D01*
X55959619Y-43432615D02*
X55959619Y-43099281D01*
X56483428Y-42956424D02*
X56483428Y-43432615D01*
X55483428Y-43432615D01*
X55483428Y-42956424D01*
X55483428Y-41480234D02*
X56197714Y-41480234D01*
X56340571Y-41527853D01*
X56435809Y-41623091D01*
X56483428Y-41765948D01*
X56483428Y-41861186D01*
X55483428Y-41004043D02*
X56292952Y-41004043D01*
X56388190Y-40956424D01*
X56435809Y-40908805D01*
X56483428Y-40813567D01*
X56483428Y-40623091D01*
X56435809Y-40527853D01*
X56388190Y-40480234D01*
X56292952Y-40432615D01*
X55483428Y-40432615D01*
X56483428Y-39956424D02*
X55483428Y-39956424D01*
X56197714Y-39623091D01*
X55483428Y-39289757D01*
X56483428Y-39289757D01*
X56483428Y-38813567D02*
X55483428Y-38813567D01*
X55483428Y-38432615D01*
X55531048Y-38337376D01*
X55578667Y-38289757D01*
X55673905Y-38242138D01*
X55816762Y-38242138D01*
X55912000Y-38289757D01*
X55959619Y-38337376D01*
X56007238Y-38432615D01*
X56007238Y-38813567D01*
X55959619Y-37813567D02*
X55959619Y-37480234D01*
X56483428Y-37337376D02*
X56483428Y-37813567D01*
X55483428Y-37813567D01*
X55483428Y-37337376D01*
X56483428Y-36337376D02*
X56007238Y-36670710D01*
X56483428Y-36908805D02*
X55483428Y-36908805D01*
X55483428Y-36527853D01*
X55531048Y-36432615D01*
X55578667Y-36384996D01*
X55673905Y-36337376D01*
X55816762Y-36337376D01*
X55912000Y-36384996D01*
X55959619Y-36432615D01*
X56007238Y-36527853D01*
X56007238Y-36908805D01*
X57569619Y-47527853D02*
X57617238Y-47384996D01*
X57664857Y-47337376D01*
X57760095Y-47289757D01*
X57902952Y-47289757D01*
X57998190Y-47337376D01*
X58045809Y-47384996D01*
X58093428Y-47480234D01*
X58093428Y-47861186D01*
X57093428Y-47861186D01*
X57093428Y-47527853D01*
X57141048Y-47432615D01*
X57188667Y-47384996D01*
X57283905Y-47337376D01*
X57379143Y-47337376D01*
X57474381Y-47384996D01*
X57522000Y-47432615D01*
X57569619Y-47527853D01*
X57569619Y-47861186D01*
X57569619Y-46861186D02*
X57569619Y-46527853D01*
X58093428Y-46384996D02*
X58093428Y-46861186D01*
X57093428Y-46861186D01*
X57093428Y-46384996D01*
X57569619Y-45623091D02*
X57569619Y-45956424D01*
X58093428Y-45956424D02*
X57093428Y-45956424D01*
X57093428Y-45480234D01*
X57093428Y-44908805D02*
X57093428Y-44718329D01*
X57141048Y-44623091D01*
X57236286Y-44527853D01*
X57426762Y-44480234D01*
X57760095Y-44480234D01*
X57950571Y-44527853D01*
X58045809Y-44623091D01*
X58093428Y-44718329D01*
X58093428Y-44908805D01*
X58045809Y-45004043D01*
X57950571Y-45099281D01*
X57760095Y-45146900D01*
X57426762Y-45146900D01*
X57236286Y-45099281D01*
X57141048Y-45004043D01*
X57093428Y-44908805D01*
X58093428Y-43480234D02*
X57617238Y-43813567D01*
X58093428Y-44051662D02*
X57093428Y-44051662D01*
X57093428Y-43670710D01*
X57141048Y-43575472D01*
X57188667Y-43527853D01*
X57283905Y-43480234D01*
X57426762Y-43480234D01*
X57522000Y-43527853D01*
X57569619Y-43575472D01*
X57617238Y-43670710D01*
X57617238Y-44051662D01*
X57569619Y-43051662D02*
X57569619Y-42718329D01*
X58093428Y-42575472D02*
X58093428Y-43051662D01*
X57093428Y-43051662D01*
X57093428Y-42575472D01*
X57569619Y-41051662D02*
X57569619Y-41384996D01*
X58093428Y-41384996D02*
X57093428Y-41384996D01*
X57093428Y-40908805D01*
X58093428Y-40051662D02*
X58093428Y-40527853D01*
X57093428Y-40527853D01*
X58093428Y-39718329D02*
X57093428Y-39718329D01*
X57141048Y-38718329D02*
X57093428Y-38813567D01*
X57093428Y-38956424D01*
X57141048Y-39099281D01*
X57236286Y-39194519D01*
X57331524Y-39242138D01*
X57522000Y-39289757D01*
X57664857Y-39289757D01*
X57855333Y-39242138D01*
X57950571Y-39194519D01*
X58045809Y-39099281D01*
X58093428Y-38956424D01*
X58093428Y-38861186D01*
X58045809Y-38718329D01*
X57998190Y-38670710D01*
X57664857Y-38670710D01*
X57664857Y-38861186D01*
X58093428Y-38242138D02*
X57093428Y-38242138D01*
X57569619Y-38242138D02*
X57569619Y-37670710D01*
X58093428Y-37670710D02*
X57093428Y-37670710D01*
X57093428Y-37337376D02*
X57093428Y-36765948D01*
X58093428Y-37051662D02*
X57093428Y-37051662D01*
X70358267Y-66852976D02*
X71358267Y-66852976D01*
X70643981Y-67186310D01*
X71358267Y-67519643D01*
X70358267Y-67519643D01*
X70358267Y-67995834D02*
X71358267Y-67995834D01*
X71358267Y-68376786D01*
X71310648Y-68472024D01*
X71263028Y-68519643D01*
X71167790Y-68567262D01*
X71024933Y-68567262D01*
X70929695Y-68519643D01*
X70882076Y-68472024D01*
X70834457Y-68376786D01*
X70834457Y-67995834D01*
X70358267Y-69472024D02*
X70358267Y-68995834D01*
X71358267Y-68995834D01*
X71358267Y-69710119D02*
X71358267Y-70329167D01*
X70977314Y-69995834D01*
X70977314Y-70138691D01*
X70929695Y-70233929D01*
X70882076Y-70281548D01*
X70786838Y-70329167D01*
X70548743Y-70329167D01*
X70453505Y-70281548D01*
X70405886Y-70233929D01*
X70358267Y-70138691D01*
X70358267Y-69852976D01*
X70405886Y-69757738D01*
X70453505Y-69710119D01*
X70358267Y-71281548D02*
X70358267Y-70710119D01*
X70358267Y-70995834D02*
X71358267Y-70995834D01*
X71215409Y-70900596D01*
X71120171Y-70805357D01*
X71072552Y-70710119D01*
X70358267Y-72233929D02*
X70358267Y-71662500D01*
X70358267Y-71948215D02*
X71358267Y-71948215D01*
X71215409Y-71852976D01*
X71120171Y-71757738D01*
X71072552Y-71662500D01*
X71358267Y-73138691D02*
X71358267Y-72662500D01*
X70882076Y-72614881D01*
X70929695Y-72662500D01*
X70977314Y-72757738D01*
X70977314Y-72995834D01*
X70929695Y-73091072D01*
X70882076Y-73138691D01*
X70786838Y-73186310D01*
X70548743Y-73186310D01*
X70453505Y-73138691D01*
X70405886Y-73091072D01*
X70358267Y-72995834D01*
X70358267Y-72757738D01*
X70405886Y-72662500D01*
X70453505Y-72614881D01*
X70643981Y-73567262D02*
X70643981Y-74043453D01*
X70358267Y-73472024D02*
X71358267Y-73805357D01*
X70358267Y-74138691D01*
X71263028Y-74424405D02*
X71310648Y-74472024D01*
X71358267Y-74567262D01*
X71358267Y-74805357D01*
X71310648Y-74900596D01*
X71263028Y-74948215D01*
X71167790Y-74995834D01*
X71072552Y-74995834D01*
X70929695Y-74948215D01*
X70358267Y-74376786D01*
X70358267Y-74995834D01*
X54931095Y-68313624D02*
X55693000Y-68313624D01*
%TO.C,JP1*%
X100324514Y-36599776D02*
X100324514Y-37314062D01*
X100276895Y-37456919D01*
X100181657Y-37552157D01*
X100038800Y-37599776D01*
X99943562Y-37599776D01*
X100800705Y-37599776D02*
X100800705Y-36599776D01*
X101181657Y-36599776D01*
X101276895Y-36647396D01*
X101324514Y-36695015D01*
X101372133Y-36790253D01*
X101372133Y-36933110D01*
X101324514Y-37028348D01*
X101276895Y-37075967D01*
X101181657Y-37123586D01*
X100800705Y-37123586D01*
X102324514Y-37599776D02*
X101753086Y-37599776D01*
X102038800Y-37599776D02*
X102038800Y-36599776D01*
X101943562Y-36742634D01*
X101848324Y-36837872D01*
X101753086Y-36885491D01*
%TO.C,J7*%
X54301340Y-42094785D02*
X55015626Y-42094785D01*
X55158483Y-42142404D01*
X55253721Y-42237642D01*
X55301340Y-42380499D01*
X55301340Y-42475737D01*
X54301340Y-41713832D02*
X54301340Y-41047166D01*
X55301340Y-41475737D01*
%TO.C,H5*%
X47747543Y-27588776D02*
X47747543Y-26588776D01*
X47747543Y-27064967D02*
X48318971Y-27064967D01*
X48318971Y-27588776D02*
X48318971Y-26588776D01*
X49271352Y-26588776D02*
X48795162Y-26588776D01*
X48747543Y-27064967D01*
X48795162Y-27017348D01*
X48890400Y-26969729D01*
X49128495Y-26969729D01*
X49223733Y-27017348D01*
X49271352Y-27064967D01*
X49318971Y-27160205D01*
X49318971Y-27398300D01*
X49271352Y-27493538D01*
X49223733Y-27541157D01*
X49128495Y-27588776D01*
X48890400Y-27588776D01*
X48795162Y-27541157D01*
X48747543Y-27493538D01*
%TO.C,Q3*%
X51867289Y-45899935D02*
X51772051Y-45852316D01*
X51676813Y-45757077D01*
X51533956Y-45614220D01*
X51438718Y-45566601D01*
X51343480Y-45566601D01*
X51391099Y-45804696D02*
X51295861Y-45757077D01*
X51200623Y-45661839D01*
X51153004Y-45471363D01*
X51153004Y-45138030D01*
X51200623Y-44947554D01*
X51295861Y-44852316D01*
X51391099Y-44804696D01*
X51581575Y-44804696D01*
X51676813Y-44852316D01*
X51772051Y-44947554D01*
X51819670Y-45138030D01*
X51819670Y-45471363D01*
X51772051Y-45661839D01*
X51676813Y-45757077D01*
X51581575Y-45804696D01*
X51391099Y-45804696D01*
X52153004Y-44804696D02*
X52772051Y-44804696D01*
X52438718Y-45185649D01*
X52581575Y-45185649D01*
X52676813Y-45233268D01*
X52724432Y-45280887D01*
X52772051Y-45376125D01*
X52772051Y-45614220D01*
X52724432Y-45709458D01*
X52676813Y-45757077D01*
X52581575Y-45804696D01*
X52295861Y-45804696D01*
X52200623Y-45757077D01*
X52153004Y-45709458D01*
%TO.C,H3*%
X51786887Y-73102520D02*
X51786887Y-72102520D01*
X51786887Y-72578711D02*
X52358315Y-72578711D01*
X52358315Y-73102520D02*
X52358315Y-72102520D01*
X52739268Y-72102520D02*
X53358315Y-72102520D01*
X53024982Y-72483473D01*
X53167839Y-72483473D01*
X53263077Y-72531092D01*
X53310696Y-72578711D01*
X53358315Y-72673949D01*
X53358315Y-72912044D01*
X53310696Y-73007282D01*
X53263077Y-73054901D01*
X53167839Y-73102520D01*
X52882125Y-73102520D01*
X52786887Y-73054901D01*
X52739268Y-73007282D01*
%TO.C,Q2*%
X44251123Y-40866090D02*
X44203504Y-40961328D01*
X44108265Y-41056566D01*
X43965408Y-41199423D01*
X43917789Y-41294661D01*
X43917789Y-41389899D01*
X44155884Y-41342280D02*
X44108265Y-41437518D01*
X44013027Y-41532756D01*
X43822551Y-41580375D01*
X43489218Y-41580375D01*
X43298742Y-41532756D01*
X43203504Y-41437518D01*
X43155884Y-41342280D01*
X43155884Y-41151804D01*
X43203504Y-41056566D01*
X43298742Y-40961328D01*
X43489218Y-40913709D01*
X43822551Y-40913709D01*
X44013027Y-40961328D01*
X44108265Y-41056566D01*
X44155884Y-41151804D01*
X44155884Y-41342280D01*
X43251123Y-40532756D02*
X43203504Y-40485137D01*
X43155884Y-40389899D01*
X43155884Y-40151804D01*
X43203504Y-40056566D01*
X43251123Y-40008947D01*
X43346361Y-39961328D01*
X43441599Y-39961328D01*
X43584456Y-40008947D01*
X44155884Y-40580375D01*
X44155884Y-39961328D01*
%TO.C,J3*%
X64457114Y-60114976D02*
X64457114Y-60829262D01*
X64409495Y-60972119D01*
X64314257Y-61067357D01*
X64171400Y-61114976D01*
X64076162Y-61114976D01*
X64838067Y-60114976D02*
X65457114Y-60114976D01*
X65123781Y-60495929D01*
X65266638Y-60495929D01*
X65361876Y-60543548D01*
X65409495Y-60591167D01*
X65457114Y-60686405D01*
X65457114Y-60924500D01*
X65409495Y-61019738D01*
X65361876Y-61067357D01*
X65266638Y-61114976D01*
X64980924Y-61114976D01*
X64885686Y-61067357D01*
X64838067Y-61019738D01*
%TO.C,H6*%
X110104543Y-73102520D02*
X110104543Y-72102520D01*
X110104543Y-72578711D02*
X110675971Y-72578711D01*
X110675971Y-73102520D02*
X110675971Y-72102520D01*
X111580733Y-72102520D02*
X111390257Y-72102520D01*
X111295019Y-72150140D01*
X111247400Y-72197759D01*
X111152162Y-72340616D01*
X111104543Y-72531092D01*
X111104543Y-72912044D01*
X111152162Y-73007282D01*
X111199781Y-73054901D01*
X111295019Y-73102520D01*
X111485495Y-73102520D01*
X111580733Y-73054901D01*
X111628352Y-73007282D01*
X111675971Y-72912044D01*
X111675971Y-72673949D01*
X111628352Y-72578711D01*
X111580733Y-72531092D01*
X111485495Y-72483473D01*
X111295019Y-72483473D01*
X111199781Y-72531092D01*
X111152162Y-72578711D01*
X111104543Y-72673949D01*
%TO.C,J6*%
X54662828Y-65349729D02*
X55377114Y-65349729D01*
X55519971Y-65397348D01*
X55615209Y-65492586D01*
X55662828Y-65635443D01*
X55662828Y-65730681D01*
X54662828Y-64444967D02*
X54662828Y-64635443D01*
X54710448Y-64730681D01*
X54758067Y-64778300D01*
X54900924Y-64873538D01*
X55091400Y-64921157D01*
X55472352Y-64921157D01*
X55567590Y-64873538D01*
X55615209Y-64825919D01*
X55662828Y-64730681D01*
X55662828Y-64540205D01*
X55615209Y-64444967D01*
X55567590Y-64397348D01*
X55472352Y-64349729D01*
X55234257Y-64349729D01*
X55139019Y-64397348D01*
X55091400Y-64444967D01*
X55043781Y-64540205D01*
X55043781Y-64730681D01*
X55091400Y-64825919D01*
X55139019Y-64873538D01*
X55234257Y-64921157D01*
%TO.C,J2*%
X93952714Y-35502776D02*
X93952714Y-36217062D01*
X93905095Y-36359919D01*
X93809857Y-36455157D01*
X93667000Y-36502776D01*
X93571762Y-36502776D01*
X94381286Y-35598015D02*
X94428905Y-35550396D01*
X94524143Y-35502776D01*
X94762238Y-35502776D01*
X94857476Y-35550396D01*
X94905095Y-35598015D01*
X94952714Y-35693253D01*
X94952714Y-35788491D01*
X94905095Y-35931348D01*
X94333667Y-36502776D01*
X94952714Y-36502776D01*
%TO.C,R3*%
X100934925Y-45832120D02*
X100601592Y-45355930D01*
X100363496Y-45832120D02*
X100363496Y-44832120D01*
X100744449Y-44832120D01*
X100839687Y-44879740D01*
X100887306Y-44927359D01*
X100934925Y-45022597D01*
X100934925Y-45165454D01*
X100887306Y-45260692D01*
X100839687Y-45308311D01*
X100744449Y-45355930D01*
X100363496Y-45355930D01*
X101268258Y-44832120D02*
X101887306Y-44832120D01*
X101553972Y-45213073D01*
X101696830Y-45213073D01*
X101792068Y-45260692D01*
X101839687Y-45308311D01*
X101887306Y-45403549D01*
X101887306Y-45641644D01*
X101839687Y-45736882D01*
X101792068Y-45784501D01*
X101696830Y-45832120D01*
X101411115Y-45832120D01*
X101315877Y-45784501D01*
X101268258Y-45736882D01*
%TO.C,J10*%
X65437028Y-37318519D02*
X66151314Y-37318519D01*
X66294171Y-37366138D01*
X66389409Y-37461376D01*
X66437028Y-37604234D01*
X66437028Y-37699472D01*
X66437028Y-36318519D02*
X66437028Y-36889948D01*
X66437028Y-36604234D02*
X65437028Y-36604234D01*
X65579886Y-36699472D01*
X65675124Y-36794710D01*
X65722743Y-36889948D01*
X65437028Y-35699472D02*
X65437028Y-35604234D01*
X65484648Y-35508996D01*
X65532267Y-35461376D01*
X65627505Y-35413757D01*
X65817981Y-35366138D01*
X66056076Y-35366138D01*
X66246552Y-35413757D01*
X66341790Y-35461376D01*
X66389409Y-35508996D01*
X66437028Y-35604234D01*
X66437028Y-35699472D01*
X66389409Y-35794710D01*
X66341790Y-35842329D01*
X66246552Y-35889948D01*
X66056076Y-35937567D01*
X65817981Y-35937567D01*
X65627505Y-35889948D01*
X65532267Y-35842329D01*
X65484648Y-35794710D01*
X65437028Y-35699472D01*
%TO.C,J5*%
X111752314Y-38118976D02*
X111752314Y-38833262D01*
X111704695Y-38976119D01*
X111609457Y-39071357D01*
X111466600Y-39118976D01*
X111371362Y-39118976D01*
X112704695Y-38118976D02*
X112228505Y-38118976D01*
X112180886Y-38595167D01*
X112228505Y-38547548D01*
X112323743Y-38499929D01*
X112561838Y-38499929D01*
X112657076Y-38547548D01*
X112704695Y-38595167D01*
X112752314Y-38690405D01*
X112752314Y-38928500D01*
X112704695Y-39023738D01*
X112657076Y-39071357D01*
X112561838Y-39118976D01*
X112323743Y-39118976D01*
X112228505Y-39071357D01*
X112180886Y-39023738D01*
%TO.C,Q1*%
X51000409Y-31757015D02*
X50905171Y-31709396D01*
X50809933Y-31614157D01*
X50667076Y-31471300D01*
X50571838Y-31423681D01*
X50476600Y-31423681D01*
X50524219Y-31661776D02*
X50428981Y-31614157D01*
X50333743Y-31518919D01*
X50286124Y-31328443D01*
X50286124Y-30995110D01*
X50333743Y-30804634D01*
X50428981Y-30709396D01*
X50524219Y-30661776D01*
X50714695Y-30661776D01*
X50809933Y-30709396D01*
X50905171Y-30804634D01*
X50952790Y-30995110D01*
X50952790Y-31328443D01*
X50905171Y-31518919D01*
X50809933Y-31614157D01*
X50714695Y-31661776D01*
X50524219Y-31661776D01*
X51905171Y-31661776D02*
X51333743Y-31661776D01*
X51619457Y-31661776D02*
X51619457Y-30661776D01*
X51524219Y-30804634D01*
X51428981Y-30899872D01*
X51333743Y-30947491D01*
%TO.C,J9*%
X85361714Y-66644576D02*
X85361714Y-67358862D01*
X85314095Y-67501719D01*
X85218857Y-67596957D01*
X85076000Y-67644576D01*
X84980762Y-67644576D01*
X85885524Y-67644576D02*
X86076000Y-67644576D01*
X86171238Y-67596957D01*
X86218857Y-67549338D01*
X86314095Y-67406481D01*
X86361714Y-67216005D01*
X86361714Y-66835053D01*
X86314095Y-66739815D01*
X86266476Y-66692196D01*
X86171238Y-66644576D01*
X85980762Y-66644576D01*
X85885524Y-66692196D01*
X85837905Y-66739815D01*
X85790286Y-66835053D01*
X85790286Y-67073148D01*
X85837905Y-67168386D01*
X85885524Y-67216005D01*
X85980762Y-67263624D01*
X86171238Y-67263624D01*
X86266476Y-67216005D01*
X86314095Y-67168386D01*
X86361714Y-67073148D01*
%TO.C,H2*%
X81123143Y-78515776D02*
X81123143Y-77515776D01*
X81123143Y-77991967D02*
X81694571Y-77991967D01*
X81694571Y-78515776D02*
X81694571Y-77515776D01*
X82123143Y-77611015D02*
X82170762Y-77563396D01*
X82266000Y-77515776D01*
X82504095Y-77515776D01*
X82599333Y-77563396D01*
X82646952Y-77611015D01*
X82694571Y-77706253D01*
X82694571Y-77801491D01*
X82646952Y-77944348D01*
X82075524Y-78515776D01*
X82694571Y-78515776D01*
%TO.C,H4*%
X107843943Y-24718576D02*
X107843943Y-23718576D01*
X107843943Y-24194767D02*
X108415371Y-24194767D01*
X108415371Y-24718576D02*
X108415371Y-23718576D01*
X109320133Y-24051910D02*
X109320133Y-24718576D01*
X109082038Y-23670957D02*
X108843943Y-24385243D01*
X109462990Y-24385243D01*
%TO.C,R2*%
X46639661Y-54503096D02*
X46306328Y-54026906D01*
X46068232Y-54503096D02*
X46068232Y-53503096D01*
X46449185Y-53503096D01*
X46544423Y-53550716D01*
X46592042Y-53598335D01*
X46639661Y-53693573D01*
X46639661Y-53836430D01*
X46592042Y-53931668D01*
X46544423Y-53979287D01*
X46449185Y-54026906D01*
X46068232Y-54026906D01*
X47020613Y-53598335D02*
X47068232Y-53550716D01*
X47163470Y-53503096D01*
X47401566Y-53503096D01*
X47496804Y-53550716D01*
X47544423Y-53598335D01*
X47592042Y-53693573D01*
X47592042Y-53788811D01*
X47544423Y-53931668D01*
X46972994Y-54503096D01*
X47592042Y-54503096D01*
%TO.C,J8*%
X63760628Y-56425729D02*
X64474914Y-56425729D01*
X64617771Y-56473348D01*
X64713009Y-56568586D01*
X64760628Y-56711443D01*
X64760628Y-56806681D01*
X64189200Y-55806681D02*
X64141581Y-55901919D01*
X64093962Y-55949538D01*
X63998724Y-55997157D01*
X63951105Y-55997157D01*
X63855867Y-55949538D01*
X63808248Y-55901919D01*
X63760628Y-55806681D01*
X63760628Y-55616205D01*
X63808248Y-55520967D01*
X63855867Y-55473348D01*
X63951105Y-55425729D01*
X63998724Y-55425729D01*
X64093962Y-55473348D01*
X64141581Y-55520967D01*
X64189200Y-55616205D01*
X64189200Y-55806681D01*
X64236819Y-55901919D01*
X64284438Y-55949538D01*
X64379676Y-55997157D01*
X64570152Y-55997157D01*
X64665390Y-55949538D01*
X64713009Y-55901919D01*
X64760628Y-55806681D01*
X64760628Y-55616205D01*
X64713009Y-55520967D01*
X64665390Y-55473348D01*
X64570152Y-55425729D01*
X64379676Y-55425729D01*
X64284438Y-55473348D01*
X64236819Y-55520967D01*
X64189200Y-55616205D01*
%TO.C,J1*%
X108187372Y-62738873D02*
X108901658Y-62738873D01*
X109044515Y-62786492D01*
X109139753Y-62881730D01*
X109187372Y-63024587D01*
X109187372Y-63119825D01*
X109187372Y-61738873D02*
X109187372Y-62310301D01*
X109187372Y-62024587D02*
X108187372Y-62024587D01*
X108330230Y-62119825D01*
X108425468Y-62215063D01*
X108473087Y-62310301D01*
%TO.C,R1*%
X45395061Y-50870896D02*
X45061728Y-50394706D01*
X44823632Y-50870896D02*
X44823632Y-49870896D01*
X45204585Y-49870896D01*
X45299823Y-49918516D01*
X45347442Y-49966135D01*
X45395061Y-50061373D01*
X45395061Y-50204230D01*
X45347442Y-50299468D01*
X45299823Y-50347087D01*
X45204585Y-50394706D01*
X44823632Y-50394706D01*
X46347442Y-50870896D02*
X45776013Y-50870896D01*
X46061728Y-50870896D02*
X46061728Y-49870896D01*
X45966489Y-50013754D01*
X45871251Y-50108992D01*
X45776013Y-50156611D01*
%TO.C,J4*%
X108110428Y-75450329D02*
X108824714Y-75450329D01*
X108967571Y-75497948D01*
X109062809Y-75593186D01*
X109110428Y-75736043D01*
X109110428Y-75831281D01*
X108443762Y-74545567D02*
X109110428Y-74545567D01*
X108062809Y-74783662D02*
X108777095Y-75021757D01*
X108777095Y-74402710D01*
%TO.C,H1*%
X81046943Y-64545776D02*
X81046943Y-63545776D01*
X81046943Y-64021967D02*
X81618371Y-64021967D01*
X81618371Y-64545776D02*
X81618371Y-63545776D01*
X82618371Y-64545776D02*
X82046943Y-64545776D01*
X82332657Y-64545776D02*
X82332657Y-63545776D01*
X82237419Y-63688634D01*
X82142181Y-63783872D01*
X82046943Y-63831491D01*
D14*
%TO.C,JP1*%
X102557848Y-39947396D02*
X99757848Y-39947396D01*
X99757848Y-37947396D02*
X102557848Y-37947396D01*
X99757848Y-39947396D02*
X99757848Y-37947396D01*
X102557848Y-37947396D02*
X102557848Y-39947396D01*
%TO.C,J7*%
X51242304Y-43079996D02*
X51242304Y-40419996D01*
X48642304Y-43079996D02*
X48642304Y-41749996D01*
X53842304Y-43079996D02*
X53842304Y-40419996D01*
X51242304Y-43079996D02*
X53842304Y-43079996D01*
X49972304Y-43079996D02*
X48642304Y-43079996D01*
X51242304Y-40419996D02*
X53842304Y-40419996D01*
%TO.C,Q3*%
X50162528Y-50762316D02*
X53762528Y-50762316D01*
X51962528Y-46312315D02*
G75*
G03*
X50124050Y-50750794I0J-2600001D01*
G01*
X53801006Y-50750794D02*
G75*
G03*
X51962528Y-46312316I-1838478J1838478D01*
G01*
D10*
%TO.C,Q2*%
X44772048Y-41584396D02*
X44822048Y-41584396D01*
X47572048Y-39934396D02*
X47447048Y-39934396D01*
X44497048Y-40309396D02*
X44497048Y-39934396D01*
X44497048Y-39934396D02*
X44797048Y-39934396D01*
X44497048Y-41209396D02*
X44772048Y-41584396D01*
X47797048Y-39934396D02*
X47797048Y-40384396D01*
X47497048Y-39934396D02*
X47797048Y-39934396D01*
X47797048Y-41109396D02*
X47797048Y-41584396D01*
X47797048Y-41584396D02*
X47447048Y-41584396D01*
X44822048Y-41584396D02*
X44822048Y-42359396D01*
X44497048Y-40934396D02*
X44497048Y-41209396D01*
D14*
%TO.C,J3*%
X63460448Y-64702596D02*
X63460448Y-80002596D01*
X66120448Y-64702596D02*
X66120448Y-80002596D01*
X64790448Y-62102596D02*
X66120448Y-62102596D01*
X66120448Y-62102596D02*
X66120448Y-63432596D01*
X63460448Y-64702596D02*
X66120448Y-64702596D01*
X63460448Y-80002596D02*
X66120448Y-80002596D01*
%TO.C,J6*%
X54420448Y-59906396D02*
X54420448Y-61856396D01*
X43600448Y-69826396D02*
X54120448Y-69826396D01*
X54120448Y-69826396D02*
X54120448Y-67876396D01*
X54120448Y-60206396D02*
X43600448Y-60206396D01*
X52010448Y-59906396D02*
X54420448Y-59906396D01*
X43600448Y-60206396D02*
X43600448Y-69826396D01*
X54120448Y-61856396D02*
X54120448Y-60206396D01*
X54120448Y-64376396D02*
X54120448Y-65356396D01*
%TO.C,J2*%
X94286048Y-37490396D02*
X95616048Y-37490396D01*
X92956048Y-40090396D02*
X95616048Y-40090396D01*
X92956048Y-52850396D02*
X95616048Y-52850396D01*
X95616048Y-37490396D02*
X95616048Y-38820396D01*
X95616048Y-40090396D02*
X95616048Y-52850396D01*
X92956048Y-40090396D02*
X92956048Y-52850396D01*
%TO.C,R3*%
X101338850Y-44472240D02*
X100864334Y-44472240D01*
X101338850Y-43427240D02*
X100864334Y-43427240D01*
%TO.C,J10*%
X67285848Y-35088396D02*
X85345848Y-35088396D01*
X85345848Y-35088396D02*
X85345848Y-32968396D01*
X67285848Y-35088396D02*
X67285848Y-32968396D01*
X67285848Y-32968396D02*
X85345848Y-32968396D01*
X65225848Y-32968396D02*
X66285848Y-32968396D01*
X65225848Y-34028396D02*
X65225848Y-32968396D01*
%TO.C,J5*%
X110755648Y-42706596D02*
X110755648Y-50386596D01*
X113415648Y-40106596D02*
X113415648Y-41436596D01*
X112085648Y-40106596D02*
X113415648Y-40106596D01*
X110755648Y-50386596D02*
X113415648Y-50386596D01*
X110755648Y-42706596D02*
X113415648Y-42706596D01*
X113415648Y-42706596D02*
X113415648Y-50386596D01*
%TO.C,Q1*%
X49295648Y-36619396D02*
X52895648Y-36619396D01*
X52934126Y-36607874D02*
G75*
G03*
X51095648Y-32169396I-1838478J1838478D01*
G01*
X51095648Y-32169395D02*
G75*
G03*
X49257170Y-36607874I0J-2600001D01*
G01*
%TO.C,J9*%
X84339648Y-63661596D02*
X86999648Y-63661596D01*
X84339648Y-63661596D02*
X84339648Y-66261596D01*
X86999648Y-63661596D02*
X86999648Y-66261596D01*
X84339648Y-61061596D02*
X85669648Y-61061596D01*
X84339648Y-62391596D02*
X84339648Y-61061596D01*
X84339648Y-66261596D02*
X86999648Y-66261596D01*
%TO.C,R2*%
X47043586Y-53143216D02*
X46569070Y-53143216D01*
X47043586Y-52098216D02*
X46569070Y-52098216D01*
%TO.C,J8*%
X85345848Y-57135596D02*
X85345848Y-55015596D01*
X67285848Y-57135596D02*
X67285848Y-55015596D01*
X65225848Y-56075596D02*
X65225848Y-55015596D01*
X67285848Y-55015596D02*
X85345848Y-55015596D01*
X65225848Y-55015596D02*
X66285848Y-55015596D01*
X67285848Y-57135596D02*
X85345848Y-57135596D01*
%TO.C,J1*%
X107294992Y-62405540D02*
X107294992Y-63735540D01*
X107294992Y-63735540D02*
X105964992Y-63735540D01*
X91934992Y-61075540D02*
X91934992Y-63735540D01*
X104694992Y-61075540D02*
X91934992Y-61075540D01*
X104694992Y-61075540D02*
X104694992Y-63735540D01*
X104694992Y-63735540D02*
X91934992Y-63735540D01*
%TO.C,R1*%
X45798986Y-48466016D02*
X45324470Y-48466016D01*
X45798986Y-49511016D02*
X45324470Y-49511016D01*
%TO.C,J4*%
X104618048Y-76446996D02*
X91858048Y-76446996D01*
X107218048Y-75116996D02*
X107218048Y-76446996D01*
X107218048Y-76446996D02*
X105888048Y-76446996D01*
X104618048Y-73786996D02*
X104618048Y-76446996D01*
X91858048Y-73786996D02*
X91858048Y-76446996D01*
X104618048Y-73786996D02*
X91858048Y-73786996D01*
%TD*%
M02*
