%TF.GenerationSoftware,KiCad,Pcbnew,(6.0.0)*%
%TF.CreationDate,2022-02-21T13:43:26-05:00*%
%TF.ProjectId,RocketHat,526f636b-6574-4486-9174-2e6b69636164,V1.0*%
%TF.SameCoordinates,Original*%
%TF.FileFunction,Profile,NP*%
%FSLAX46Y46*%
G04 Gerber Fmt 4.6, Leading zero omitted, Abs format (unit mm)*
G04 Created by KiCad (PCBNEW (6.0.0)) date 2022-02-21 13:43:26*
%MOMM*%
%LPD*%
G01*
G04 APERTURE LIST*
%ADD10C,0.100000*%
%ADD11C,0.150000*%
%ADD12C,0.300000*%
%ADD13C,0.400000*%
%TA.AperFunction,Profile*%
%ADD14C,0.100000*%
%TD*%
G04 APERTURE END LIST*
D10*
D11*
X177002200Y-166007200D02*
X177002200Y-198007200D01*
X285002200Y-198007200D01*
X285002200Y-166007200D01*
X177002200Y-166007200D01*
D10*
D11*
X10000000Y-10000000D02*
X10000000Y-200007200D01*
X287002200Y-200007200D01*
X287002200Y-10000000D01*
X10000000Y-10000000D01*
D10*
D11*
X12000000Y-12000000D02*
X12000000Y-198007200D01*
X285002200Y-198007200D01*
X285002200Y-12000000D01*
X12000000Y-12000000D01*
D10*
D11*
X60000000Y-12000000D02*
X60000000Y-10000000D01*
D10*
D11*
X110000000Y-12000000D02*
X110000000Y-10000000D01*
D10*
D11*
X160000000Y-12000000D02*
X160000000Y-10000000D01*
D10*
D11*
X210000000Y-12000000D02*
X210000000Y-10000000D01*
D10*
D11*
X260000000Y-12000000D02*
X260000000Y-10000000D01*
D10*
D11*
X36065476Y-11588095D02*
X35322619Y-11588095D01*
X35694047Y-11588095D02*
X35694047Y-10288095D01*
X35570238Y-10473809D01*
X35446428Y-10597619D01*
X35322619Y-10659523D01*
D10*
D11*
X85322619Y-10411904D02*
X85384523Y-10350000D01*
X85508333Y-10288095D01*
X85817857Y-10288095D01*
X85941666Y-10350000D01*
X86003571Y-10411904D01*
X86065476Y-10535714D01*
X86065476Y-10659523D01*
X86003571Y-10845238D01*
X85260714Y-11588095D01*
X86065476Y-11588095D01*
D10*
D11*
X135260714Y-10288095D02*
X136065476Y-10288095D01*
X135632142Y-10783333D01*
X135817857Y-10783333D01*
X135941666Y-10845238D01*
X136003571Y-10907142D01*
X136065476Y-11030952D01*
X136065476Y-11340476D01*
X136003571Y-11464285D01*
X135941666Y-11526190D01*
X135817857Y-11588095D01*
X135446428Y-11588095D01*
X135322619Y-11526190D01*
X135260714Y-11464285D01*
D10*
D11*
X185941666Y-10721428D02*
X185941666Y-11588095D01*
X185632142Y-10226190D02*
X185322619Y-11154761D01*
X186127380Y-11154761D01*
D10*
D11*
X236003571Y-10288095D02*
X235384523Y-10288095D01*
X235322619Y-10907142D01*
X235384523Y-10845238D01*
X235508333Y-10783333D01*
X235817857Y-10783333D01*
X235941666Y-10845238D01*
X236003571Y-10907142D01*
X236065476Y-11030952D01*
X236065476Y-11340476D01*
X236003571Y-11464285D01*
X235941666Y-11526190D01*
X235817857Y-11588095D01*
X235508333Y-11588095D01*
X235384523Y-11526190D01*
X235322619Y-11464285D01*
D10*
D11*
X285941666Y-10288095D02*
X285694047Y-10288095D01*
X285570238Y-10350000D01*
X285508333Y-10411904D01*
X285384523Y-10597619D01*
X285322619Y-10845238D01*
X285322619Y-11340476D01*
X285384523Y-11464285D01*
X285446428Y-11526190D01*
X285570238Y-11588095D01*
X285817857Y-11588095D01*
X285941666Y-11526190D01*
X286003571Y-11464285D01*
X286065476Y-11340476D01*
X286065476Y-11030952D01*
X286003571Y-10907142D01*
X285941666Y-10845238D01*
X285817857Y-10783333D01*
X285570238Y-10783333D01*
X285446428Y-10845238D01*
X285384523Y-10907142D01*
X285322619Y-11030952D01*
D10*
D11*
X60000000Y-198007200D02*
X60000000Y-200007200D01*
D10*
D11*
X110000000Y-198007200D02*
X110000000Y-200007200D01*
D10*
D11*
X160000000Y-198007200D02*
X160000000Y-200007200D01*
D10*
D11*
X210000000Y-198007200D02*
X210000000Y-200007200D01*
D10*
D11*
X260000000Y-198007200D02*
X260000000Y-200007200D01*
D10*
D11*
X36065476Y-199595295D02*
X35322619Y-199595295D01*
X35694047Y-199595295D02*
X35694047Y-198295295D01*
X35570238Y-198481009D01*
X35446428Y-198604819D01*
X35322619Y-198666723D01*
D10*
D11*
X85322619Y-198419104D02*
X85384523Y-198357200D01*
X85508333Y-198295295D01*
X85817857Y-198295295D01*
X85941666Y-198357200D01*
X86003571Y-198419104D01*
X86065476Y-198542914D01*
X86065476Y-198666723D01*
X86003571Y-198852438D01*
X85260714Y-199595295D01*
X86065476Y-199595295D01*
D10*
D11*
X135260714Y-198295295D02*
X136065476Y-198295295D01*
X135632142Y-198790533D01*
X135817857Y-198790533D01*
X135941666Y-198852438D01*
X136003571Y-198914342D01*
X136065476Y-199038152D01*
X136065476Y-199347676D01*
X136003571Y-199471485D01*
X135941666Y-199533390D01*
X135817857Y-199595295D01*
X135446428Y-199595295D01*
X135322619Y-199533390D01*
X135260714Y-199471485D01*
D10*
D11*
X185941666Y-198728628D02*
X185941666Y-199595295D01*
X185632142Y-198233390D02*
X185322619Y-199161961D01*
X186127380Y-199161961D01*
D10*
D11*
X236003571Y-198295295D02*
X235384523Y-198295295D01*
X235322619Y-198914342D01*
X235384523Y-198852438D01*
X235508333Y-198790533D01*
X235817857Y-198790533D01*
X235941666Y-198852438D01*
X236003571Y-198914342D01*
X236065476Y-199038152D01*
X236065476Y-199347676D01*
X236003571Y-199471485D01*
X235941666Y-199533390D01*
X235817857Y-199595295D01*
X235508333Y-199595295D01*
X235384523Y-199533390D01*
X235322619Y-199471485D01*
D10*
D11*
X285941666Y-198295295D02*
X285694047Y-198295295D01*
X285570238Y-198357200D01*
X285508333Y-198419104D01*
X285384523Y-198604819D01*
X285322619Y-198852438D01*
X285322619Y-199347676D01*
X285384523Y-199471485D01*
X285446428Y-199533390D01*
X285570238Y-199595295D01*
X285817857Y-199595295D01*
X285941666Y-199533390D01*
X286003571Y-199471485D01*
X286065476Y-199347676D01*
X286065476Y-199038152D01*
X286003571Y-198914342D01*
X285941666Y-198852438D01*
X285817857Y-198790533D01*
X285570238Y-198790533D01*
X285446428Y-198852438D01*
X285384523Y-198914342D01*
X285322619Y-199038152D01*
D10*
D11*
X10000000Y-60000000D02*
X12000000Y-60000000D01*
D10*
D11*
X10000000Y-110000000D02*
X12000000Y-110000000D01*
D10*
D11*
X10000000Y-160000000D02*
X12000000Y-160000000D01*
D10*
D11*
X10690476Y-35216666D02*
X11309523Y-35216666D01*
X10566666Y-35588095D02*
X11000000Y-34288095D01*
X11433333Y-35588095D01*
D10*
D11*
X11092857Y-84907142D02*
X11278571Y-84969047D01*
X11340476Y-85030952D01*
X11402380Y-85154761D01*
X11402380Y-85340476D01*
X11340476Y-85464285D01*
X11278571Y-85526190D01*
X11154761Y-85588095D01*
X10659523Y-85588095D01*
X10659523Y-84288095D01*
X11092857Y-84288095D01*
X11216666Y-84350000D01*
X11278571Y-84411904D01*
X11340476Y-84535714D01*
X11340476Y-84659523D01*
X11278571Y-84783333D01*
X11216666Y-84845238D01*
X11092857Y-84907142D01*
X10659523Y-84907142D01*
D10*
D11*
X11402380Y-135464285D02*
X11340476Y-135526190D01*
X11154761Y-135588095D01*
X11030952Y-135588095D01*
X10845238Y-135526190D01*
X10721428Y-135402380D01*
X10659523Y-135278571D01*
X10597619Y-135030952D01*
X10597619Y-134845238D01*
X10659523Y-134597619D01*
X10721428Y-134473809D01*
X10845238Y-134350000D01*
X11030952Y-134288095D01*
X11154761Y-134288095D01*
X11340476Y-134350000D01*
X11402380Y-134411904D01*
D10*
D11*
X10659523Y-185588095D02*
X10659523Y-184288095D01*
X10969047Y-184288095D01*
X11154761Y-184350000D01*
X11278571Y-184473809D01*
X11340476Y-184597619D01*
X11402380Y-184845238D01*
X11402380Y-185030952D01*
X11340476Y-185278571D01*
X11278571Y-185402380D01*
X11154761Y-185526190D01*
X10969047Y-185588095D01*
X10659523Y-185588095D01*
D10*
D11*
X287002200Y-60000000D02*
X285002200Y-60000000D01*
D10*
D11*
X287002200Y-110000000D02*
X285002200Y-110000000D01*
D10*
D11*
X287002200Y-160000000D02*
X285002200Y-160000000D01*
D10*
D11*
X285692676Y-35216666D02*
X286311723Y-35216666D01*
X285568866Y-35588095D02*
X286002200Y-34288095D01*
X286435533Y-35588095D01*
D10*
D11*
X286095057Y-84907142D02*
X286280771Y-84969047D01*
X286342676Y-85030952D01*
X286404580Y-85154761D01*
X286404580Y-85340476D01*
X286342676Y-85464285D01*
X286280771Y-85526190D01*
X286156961Y-85588095D01*
X285661723Y-85588095D01*
X285661723Y-84288095D01*
X286095057Y-84288095D01*
X286218866Y-84350000D01*
X286280771Y-84411904D01*
X286342676Y-84535714D01*
X286342676Y-84659523D01*
X286280771Y-84783333D01*
X286218866Y-84845238D01*
X286095057Y-84907142D01*
X285661723Y-84907142D01*
D10*
D11*
X286404580Y-135464285D02*
X286342676Y-135526190D01*
X286156961Y-135588095D01*
X286033152Y-135588095D01*
X285847438Y-135526190D01*
X285723628Y-135402380D01*
X285661723Y-135278571D01*
X285599819Y-135030952D01*
X285599819Y-134845238D01*
X285661723Y-134597619D01*
X285723628Y-134473809D01*
X285847438Y-134350000D01*
X286033152Y-134288095D01*
X286156961Y-134288095D01*
X286342676Y-134350000D01*
X286404580Y-134411904D01*
D10*
D11*
X285661723Y-185588095D02*
X285661723Y-184288095D01*
X285971247Y-184288095D01*
X286156961Y-184350000D01*
X286280771Y-184473809D01*
X286342676Y-184597619D01*
X286404580Y-184845238D01*
X286404580Y-185030952D01*
X286342676Y-185278571D01*
X286280771Y-185402380D01*
X286156961Y-185526190D01*
X285971247Y-185588095D01*
X285661723Y-185588095D01*
D10*
D11*
X200434342Y-193785771D02*
X200434342Y-192285771D01*
X200791485Y-192285771D01*
X201005771Y-192357200D01*
X201148628Y-192500057D01*
X201220057Y-192642914D01*
X201291485Y-192928628D01*
X201291485Y-193142914D01*
X201220057Y-193428628D01*
X201148628Y-193571485D01*
X201005771Y-193714342D01*
X200791485Y-193785771D01*
X200434342Y-193785771D01*
X202577200Y-193785771D02*
X202577200Y-193000057D01*
X202505771Y-192857200D01*
X202362914Y-192785771D01*
X202077200Y-192785771D01*
X201934342Y-192857200D01*
X202577200Y-193714342D02*
X202434342Y-193785771D01*
X202077200Y-193785771D01*
X201934342Y-193714342D01*
X201862914Y-193571485D01*
X201862914Y-193428628D01*
X201934342Y-193285771D01*
X202077200Y-193214342D01*
X202434342Y-193214342D01*
X202577200Y-193142914D01*
X203077200Y-192785771D02*
X203648628Y-192785771D01*
X203291485Y-192285771D02*
X203291485Y-193571485D01*
X203362914Y-193714342D01*
X203505771Y-193785771D01*
X203648628Y-193785771D01*
X204720057Y-193714342D02*
X204577200Y-193785771D01*
X204291485Y-193785771D01*
X204148628Y-193714342D01*
X204077200Y-193571485D01*
X204077200Y-193000057D01*
X204148628Y-192857200D01*
X204291485Y-192785771D01*
X204577200Y-192785771D01*
X204720057Y-192857200D01*
X204791485Y-193000057D01*
X204791485Y-193142914D01*
X204077200Y-193285771D01*
X205434342Y-193642914D02*
X205505771Y-193714342D01*
X205434342Y-193785771D01*
X205362914Y-193714342D01*
X205434342Y-193642914D01*
X205434342Y-193785771D01*
X205434342Y-192857200D02*
X205505771Y-192928628D01*
X205434342Y-193000057D01*
X205362914Y-192928628D01*
X205434342Y-192857200D01*
X205434342Y-193000057D01*
X207220057Y-192428628D02*
X207291485Y-192357200D01*
X207434342Y-192285771D01*
X207791485Y-192285771D01*
X207934342Y-192357200D01*
X208005771Y-192428628D01*
X208077200Y-192571485D01*
X208077200Y-192714342D01*
X208005771Y-192928628D01*
X207148628Y-193785771D01*
X208077200Y-193785771D01*
X209005771Y-192285771D02*
X209148628Y-192285771D01*
X209291485Y-192357200D01*
X209362914Y-192428628D01*
X209434342Y-192571485D01*
X209505771Y-192857200D01*
X209505771Y-193214342D01*
X209434342Y-193500057D01*
X209362914Y-193642914D01*
X209291485Y-193714342D01*
X209148628Y-193785771D01*
X209005771Y-193785771D01*
X208862914Y-193714342D01*
X208791485Y-193642914D01*
X208720057Y-193500057D01*
X208648628Y-193214342D01*
X208648628Y-192857200D01*
X208720057Y-192571485D01*
X208791485Y-192428628D01*
X208862914Y-192357200D01*
X209005771Y-192285771D01*
X210077200Y-192428628D02*
X210148628Y-192357200D01*
X210291485Y-192285771D01*
X210648628Y-192285771D01*
X210791485Y-192357200D01*
X210862914Y-192428628D01*
X210934342Y-192571485D01*
X210934342Y-192714342D01*
X210862914Y-192928628D01*
X210005771Y-193785771D01*
X210934342Y-193785771D01*
X211505771Y-192428628D02*
X211577200Y-192357200D01*
X211720057Y-192285771D01*
X212077200Y-192285771D01*
X212220057Y-192357200D01*
X212291485Y-192428628D01*
X212362914Y-192571485D01*
X212362914Y-192714342D01*
X212291485Y-192928628D01*
X211434342Y-193785771D01*
X212362914Y-193785771D01*
X213005771Y-193214342D02*
X214148628Y-193214342D01*
X215148628Y-192285771D02*
X215291485Y-192285771D01*
X215434342Y-192357200D01*
X215505771Y-192428628D01*
X215577200Y-192571485D01*
X215648628Y-192857200D01*
X215648628Y-193214342D01*
X215577200Y-193500057D01*
X215505771Y-193642914D01*
X215434342Y-193714342D01*
X215291485Y-193785771D01*
X215148628Y-193785771D01*
X215005771Y-193714342D01*
X214934342Y-193642914D01*
X214862914Y-193500057D01*
X214791485Y-193214342D01*
X214791485Y-192857200D01*
X214862914Y-192571485D01*
X214934342Y-192428628D01*
X215005771Y-192357200D01*
X215148628Y-192285771D01*
X216220057Y-192428628D02*
X216291485Y-192357200D01*
X216434342Y-192285771D01*
X216791485Y-192285771D01*
X216934342Y-192357200D01*
X217005771Y-192428628D01*
X217077200Y-192571485D01*
X217077200Y-192714342D01*
X217005771Y-192928628D01*
X216148628Y-193785771D01*
X217077200Y-193785771D01*
X217720057Y-193214342D02*
X218862914Y-193214342D01*
X220362914Y-193785771D02*
X219505771Y-193785771D01*
X219934342Y-193785771D02*
X219934342Y-192285771D01*
X219791485Y-192500057D01*
X219648628Y-192642914D01*
X219505771Y-192714342D01*
X220862914Y-192285771D02*
X221791485Y-192285771D01*
X221291485Y-192857200D01*
X221505771Y-192857200D01*
X221648628Y-192928628D01*
X221720057Y-193000057D01*
X221791485Y-193142914D01*
X221791485Y-193500057D01*
X221720057Y-193642914D01*
X221648628Y-193714342D01*
X221505771Y-193785771D01*
X221077200Y-193785771D01*
X220934342Y-193714342D01*
X220862914Y-193642914D01*
D10*
D11*
X177002200Y-194507200D02*
X285002200Y-194507200D01*
D10*
D11*
X178434342Y-196585771D02*
X178434342Y-195085771D01*
X179291485Y-196585771D02*
X178648628Y-195728628D01*
X179291485Y-195085771D02*
X178434342Y-195942914D01*
X179934342Y-196585771D02*
X179934342Y-195585771D01*
X179934342Y-195085771D02*
X179862914Y-195157200D01*
X179934342Y-195228628D01*
X180005771Y-195157200D01*
X179934342Y-195085771D01*
X179934342Y-195228628D01*
X181505771Y-196442914D02*
X181434342Y-196514342D01*
X181220057Y-196585771D01*
X181077200Y-196585771D01*
X180862914Y-196514342D01*
X180720057Y-196371485D01*
X180648628Y-196228628D01*
X180577200Y-195942914D01*
X180577200Y-195728628D01*
X180648628Y-195442914D01*
X180720057Y-195300057D01*
X180862914Y-195157200D01*
X181077200Y-195085771D01*
X181220057Y-195085771D01*
X181434342Y-195157200D01*
X181505771Y-195228628D01*
X182791485Y-196585771D02*
X182791485Y-195800057D01*
X182720057Y-195657200D01*
X182577200Y-195585771D01*
X182291485Y-195585771D01*
X182148628Y-195657200D01*
X182791485Y-196514342D02*
X182648628Y-196585771D01*
X182291485Y-196585771D01*
X182148628Y-196514342D01*
X182077200Y-196371485D01*
X182077200Y-196228628D01*
X182148628Y-196085771D01*
X182291485Y-196014342D01*
X182648628Y-196014342D01*
X182791485Y-195942914D01*
X184148628Y-196585771D02*
X184148628Y-195085771D01*
X184148628Y-196514342D02*
X184005771Y-196585771D01*
X183720057Y-196585771D01*
X183577200Y-196514342D01*
X183505771Y-196442914D01*
X183434342Y-196300057D01*
X183434342Y-195871485D01*
X183505771Y-195728628D01*
X183577200Y-195657200D01*
X183720057Y-195585771D01*
X184005771Y-195585771D01*
X184148628Y-195657200D01*
X186005771Y-195800057D02*
X186505771Y-195800057D01*
X186720057Y-196585771D02*
X186005771Y-196585771D01*
X186005771Y-195085771D01*
X186720057Y-195085771D01*
X187362914Y-196442914D02*
X187434342Y-196514342D01*
X187362914Y-196585771D01*
X187291485Y-196514342D01*
X187362914Y-196442914D01*
X187362914Y-196585771D01*
X188077200Y-196585771D02*
X188077200Y-195085771D01*
X188434342Y-195085771D01*
X188648628Y-195157200D01*
X188791485Y-195300057D01*
X188862914Y-195442914D01*
X188934342Y-195728628D01*
X188934342Y-195942914D01*
X188862914Y-196228628D01*
X188791485Y-196371485D01*
X188648628Y-196514342D01*
X188434342Y-196585771D01*
X188077200Y-196585771D01*
X189577200Y-196442914D02*
X189648628Y-196514342D01*
X189577200Y-196585771D01*
X189505771Y-196514342D01*
X189577200Y-196442914D01*
X189577200Y-196585771D01*
X190220057Y-196157200D02*
X190934342Y-196157200D01*
X190077200Y-196585771D02*
X190577200Y-195085771D01*
X191077200Y-196585771D01*
X191577200Y-196442914D02*
X191648628Y-196514342D01*
X191577200Y-196585771D01*
X191505771Y-196514342D01*
X191577200Y-196442914D01*
X191577200Y-196585771D01*
X194577200Y-196585771D02*
X194577200Y-195085771D01*
X194720057Y-196014342D02*
X195148628Y-196585771D01*
X195148628Y-195585771D02*
X194577200Y-196157200D01*
X195791485Y-196585771D02*
X195791485Y-195585771D01*
X195791485Y-195085771D02*
X195720057Y-195157200D01*
X195791485Y-195228628D01*
X195862914Y-195157200D01*
X195791485Y-195085771D01*
X195791485Y-195228628D01*
X197148628Y-196514342D02*
X197005771Y-196585771D01*
X196720057Y-196585771D01*
X196577200Y-196514342D01*
X196505771Y-196442914D01*
X196434342Y-196300057D01*
X196434342Y-195871485D01*
X196505771Y-195728628D01*
X196577200Y-195657200D01*
X196720057Y-195585771D01*
X197005771Y-195585771D01*
X197148628Y-195657200D01*
X198434342Y-196585771D02*
X198434342Y-195800057D01*
X198362914Y-195657200D01*
X198220057Y-195585771D01*
X197934342Y-195585771D01*
X197791485Y-195657200D01*
X198434342Y-196514342D02*
X198291485Y-196585771D01*
X197934342Y-196585771D01*
X197791485Y-196514342D01*
X197720057Y-196371485D01*
X197720057Y-196228628D01*
X197791485Y-196085771D01*
X197934342Y-196014342D01*
X198291485Y-196014342D01*
X198434342Y-195942914D01*
X199791485Y-196585771D02*
X199791485Y-195085771D01*
X199791485Y-196514342D02*
X199648628Y-196585771D01*
X199362914Y-196585771D01*
X199220057Y-196514342D01*
X199148628Y-196442914D01*
X199077200Y-196300057D01*
X199077200Y-195871485D01*
X199148628Y-195728628D01*
X199220057Y-195657200D01*
X199362914Y-195585771D01*
X199648628Y-195585771D01*
X199791485Y-195657200D01*
X202077200Y-197157200D02*
X202005771Y-197085771D01*
X201862914Y-196871485D01*
X201791485Y-196728628D01*
X201720057Y-196514342D01*
X201648628Y-196157200D01*
X201648628Y-195871485D01*
X201720057Y-195514342D01*
X201791485Y-195300057D01*
X201862914Y-195157200D01*
X202005771Y-194942914D01*
X202077200Y-194871485D01*
X203291485Y-195085771D02*
X203005771Y-195085771D01*
X202862914Y-195157200D01*
X202791485Y-195228628D01*
X202648628Y-195442914D01*
X202577200Y-195728628D01*
X202577200Y-196300057D01*
X202648628Y-196442914D01*
X202720057Y-196514342D01*
X202862914Y-196585771D01*
X203148628Y-196585771D01*
X203291485Y-196514342D01*
X203362914Y-196442914D01*
X203434342Y-196300057D01*
X203434342Y-195942914D01*
X203362914Y-195800057D01*
X203291485Y-195728628D01*
X203148628Y-195657200D01*
X202862914Y-195657200D01*
X202720057Y-195728628D01*
X202648628Y-195800057D01*
X202577200Y-195942914D01*
X204077200Y-196442914D02*
X204148628Y-196514342D01*
X204077200Y-196585771D01*
X204005771Y-196514342D01*
X204077200Y-196442914D01*
X204077200Y-196585771D01*
X205077200Y-195085771D02*
X205220057Y-195085771D01*
X205362914Y-195157200D01*
X205434342Y-195228628D01*
X205505771Y-195371485D01*
X205577200Y-195657200D01*
X205577200Y-196014342D01*
X205505771Y-196300057D01*
X205434342Y-196442914D01*
X205362914Y-196514342D01*
X205220057Y-196585771D01*
X205077200Y-196585771D01*
X204934342Y-196514342D01*
X204862914Y-196442914D01*
X204791485Y-196300057D01*
X204720057Y-196014342D01*
X204720057Y-195657200D01*
X204791485Y-195371485D01*
X204862914Y-195228628D01*
X204934342Y-195157200D01*
X205077200Y-195085771D01*
X206220057Y-196442914D02*
X206291485Y-196514342D01*
X206220057Y-196585771D01*
X206148628Y-196514342D01*
X206220057Y-196442914D01*
X206220057Y-196585771D01*
X207220057Y-195085771D02*
X207362914Y-195085771D01*
X207505771Y-195157200D01*
X207577200Y-195228628D01*
X207648628Y-195371485D01*
X207720057Y-195657200D01*
X207720057Y-196014342D01*
X207648628Y-196300057D01*
X207577200Y-196442914D01*
X207505771Y-196514342D01*
X207362914Y-196585771D01*
X207220057Y-196585771D01*
X207077200Y-196514342D01*
X207005771Y-196442914D01*
X206934342Y-196300057D01*
X206862914Y-196014342D01*
X206862914Y-195657200D01*
X206934342Y-195371485D01*
X207005771Y-195228628D01*
X207077200Y-195157200D01*
X207220057Y-195085771D01*
X208220057Y-197157200D02*
X208291485Y-197085771D01*
X208434342Y-196871485D01*
X208505771Y-196728628D01*
X208577200Y-196514342D01*
X208648628Y-196157200D01*
X208648628Y-195871485D01*
X208577200Y-195514342D01*
X208505771Y-195300057D01*
X208434342Y-195157200D01*
X208291485Y-194942914D01*
X208220057Y-194871485D01*
D10*
D11*
X177002200Y-191507200D02*
X285002200Y-191507200D01*
D10*
D12*
X264411485Y-193785771D02*
X263911485Y-193071485D01*
X263554342Y-193785771D02*
X263554342Y-192285771D01*
X264125771Y-192285771D01*
X264268628Y-192357200D01*
X264340057Y-192428628D01*
X264411485Y-192571485D01*
X264411485Y-192785771D01*
X264340057Y-192928628D01*
X264268628Y-193000057D01*
X264125771Y-193071485D01*
X263554342Y-193071485D01*
X265625771Y-193714342D02*
X265482914Y-193785771D01*
X265197200Y-193785771D01*
X265054342Y-193714342D01*
X264982914Y-193571485D01*
X264982914Y-193000057D01*
X265054342Y-192857200D01*
X265197200Y-192785771D01*
X265482914Y-192785771D01*
X265625771Y-192857200D01*
X265697200Y-193000057D01*
X265697200Y-193142914D01*
X264982914Y-193285771D01*
X266197200Y-192785771D02*
X266554342Y-193785771D01*
X266911485Y-192785771D01*
X267482914Y-193642914D02*
X267554342Y-193714342D01*
X267482914Y-193785771D01*
X267411485Y-193714342D01*
X267482914Y-193642914D01*
X267482914Y-193785771D01*
X267482914Y-192857200D02*
X267554342Y-192928628D01*
X267482914Y-193000057D01*
X267411485Y-192928628D01*
X267482914Y-192857200D01*
X267482914Y-193000057D01*
X269125771Y-192285771D02*
X269625771Y-193785771D01*
X270125771Y-192285771D01*
X271411485Y-193785771D02*
X270554342Y-193785771D01*
X270982914Y-193785771D02*
X270982914Y-192285771D01*
X270840057Y-192500057D01*
X270697200Y-192642914D01*
X270554342Y-192714342D01*
X272054342Y-193642914D02*
X272125771Y-193714342D01*
X272054342Y-193785771D01*
X271982914Y-193714342D01*
X272054342Y-193642914D01*
X272054342Y-193785771D01*
X273054342Y-192285771D02*
X273197200Y-192285771D01*
X273340057Y-192357200D01*
X273411485Y-192428628D01*
X273482914Y-192571485D01*
X273554342Y-192857200D01*
X273554342Y-193214342D01*
X273482914Y-193500057D01*
X273411485Y-193642914D01*
X273340057Y-193714342D01*
X273197200Y-193785771D01*
X273054342Y-193785771D01*
X272911485Y-193714342D01*
X272840057Y-193642914D01*
X272768628Y-193500057D01*
X272697200Y-193214342D01*
X272697200Y-192857200D01*
X272768628Y-192571485D01*
X272840057Y-192428628D01*
X272911485Y-192357200D01*
X273054342Y-192285771D01*
D10*
D11*
X178362914Y-193714342D02*
X178577200Y-193785771D01*
X178934342Y-193785771D01*
X179077200Y-193714342D01*
X179148628Y-193642914D01*
X179220057Y-193500057D01*
X179220057Y-193357200D01*
X179148628Y-193214342D01*
X179077200Y-193142914D01*
X178934342Y-193071485D01*
X178648628Y-193000057D01*
X178505771Y-192928628D01*
X178434342Y-192857200D01*
X178362914Y-192714342D01*
X178362914Y-192571485D01*
X178434342Y-192428628D01*
X178505771Y-192357200D01*
X178648628Y-192285771D01*
X179005771Y-192285771D01*
X179220057Y-192357200D01*
X179862914Y-193785771D02*
X179862914Y-192785771D01*
X179862914Y-192285771D02*
X179791485Y-192357200D01*
X179862914Y-192428628D01*
X179934342Y-192357200D01*
X179862914Y-192285771D01*
X179862914Y-192428628D01*
X180434342Y-192785771D02*
X181220057Y-192785771D01*
X180434342Y-193785771D01*
X181220057Y-193785771D01*
X182362914Y-193714342D02*
X182220057Y-193785771D01*
X181934342Y-193785771D01*
X181791485Y-193714342D01*
X181720057Y-193571485D01*
X181720057Y-193000057D01*
X181791485Y-192857200D01*
X181934342Y-192785771D01*
X182220057Y-192785771D01*
X182362914Y-192857200D01*
X182434342Y-193000057D01*
X182434342Y-193142914D01*
X181720057Y-193285771D01*
X183077200Y-193642914D02*
X183148628Y-193714342D01*
X183077200Y-193785771D01*
X183005771Y-193714342D01*
X183077200Y-193642914D01*
X183077200Y-193785771D01*
X183077200Y-192857200D02*
X183148628Y-192928628D01*
X183077200Y-193000057D01*
X183005771Y-192928628D01*
X183077200Y-192857200D01*
X183077200Y-193000057D01*
X184862914Y-193357200D02*
X185577200Y-193357200D01*
X184720057Y-193785771D02*
X185220057Y-192285771D01*
X185720057Y-193785771D01*
X186862914Y-192785771D02*
X186862914Y-193785771D01*
X186505771Y-192214342D02*
X186148628Y-193285771D01*
X187077200Y-193285771D01*
D10*
D11*
X263434342Y-196585771D02*
X263434342Y-195085771D01*
X264791485Y-196585771D02*
X264791485Y-195085771D01*
X264791485Y-196514342D02*
X264648628Y-196585771D01*
X264362914Y-196585771D01*
X264220057Y-196514342D01*
X264148628Y-196442914D01*
X264077200Y-196300057D01*
X264077200Y-195871485D01*
X264148628Y-195728628D01*
X264220057Y-195657200D01*
X264362914Y-195585771D01*
X264648628Y-195585771D01*
X264791485Y-195657200D01*
X265505771Y-196442914D02*
X265577200Y-196514342D01*
X265505771Y-196585771D01*
X265434342Y-196514342D01*
X265505771Y-196442914D01*
X265505771Y-196585771D01*
X265505771Y-195657200D02*
X265577200Y-195728628D01*
X265505771Y-195800057D01*
X265434342Y-195728628D01*
X265505771Y-195657200D01*
X265505771Y-195800057D01*
X268148628Y-196585771D02*
X267291485Y-196585771D01*
X267720057Y-196585771D02*
X267720057Y-195085771D01*
X267577200Y-195300057D01*
X267434342Y-195442914D01*
X267291485Y-195514342D01*
X269862914Y-195014342D02*
X268577200Y-196942914D01*
X271148628Y-196585771D02*
X270291485Y-196585771D01*
X270720057Y-196585771D02*
X270720057Y-195085771D01*
X270577200Y-195300057D01*
X270434342Y-195442914D01*
X270291485Y-195514342D01*
D10*
D11*
X177002200Y-187507200D02*
X285002200Y-187507200D01*
D10*
D13*
X178714580Y-188211961D02*
X179857438Y-188211961D01*
X179036009Y-190211961D02*
X179286009Y-188211961D01*
X180274104Y-190211961D02*
X180440771Y-188878628D01*
X180524104Y-188211961D02*
X180416961Y-188307200D01*
X180500295Y-188402438D01*
X180607438Y-188307200D01*
X180524104Y-188211961D01*
X180500295Y-188402438D01*
X181107438Y-188878628D02*
X181869342Y-188878628D01*
X181476485Y-188211961D02*
X181262200Y-189926247D01*
X181333628Y-190116723D01*
X181512200Y-190211961D01*
X181702676Y-190211961D01*
X182655057Y-190211961D02*
X182476485Y-190116723D01*
X182405057Y-189926247D01*
X182619342Y-188211961D01*
X184190771Y-190116723D02*
X183988390Y-190211961D01*
X183607438Y-190211961D01*
X183428866Y-190116723D01*
X183357438Y-189926247D01*
X183452676Y-189164342D01*
X183571723Y-188973866D01*
X183774104Y-188878628D01*
X184155057Y-188878628D01*
X184333628Y-188973866D01*
X184405057Y-189164342D01*
X184381247Y-189354819D01*
X183405057Y-189545295D01*
X185155057Y-190021485D02*
X185238390Y-190116723D01*
X185131247Y-190211961D01*
X185047914Y-190116723D01*
X185155057Y-190021485D01*
X185131247Y-190211961D01*
X185286009Y-188973866D02*
X185369342Y-189069104D01*
X185262200Y-189164342D01*
X185178866Y-189069104D01*
X185286009Y-188973866D01*
X185262200Y-189164342D01*
X188750295Y-190211961D02*
X188202676Y-189259580D01*
X187607438Y-190211961D02*
X187857438Y-188211961D01*
X188619342Y-188211961D01*
X188797914Y-188307200D01*
X188881247Y-188402438D01*
X188952676Y-188592914D01*
X188916961Y-188878628D01*
X188797914Y-189069104D01*
X188690771Y-189164342D01*
X188488390Y-189259580D01*
X187726485Y-189259580D01*
X189893152Y-190211961D02*
X189714580Y-190116723D01*
X189631247Y-190021485D01*
X189559819Y-189831009D01*
X189631247Y-189259580D01*
X189750295Y-189069104D01*
X189857438Y-188973866D01*
X190059819Y-188878628D01*
X190345533Y-188878628D01*
X190524104Y-188973866D01*
X190607438Y-189069104D01*
X190678866Y-189259580D01*
X190607438Y-189831009D01*
X190488390Y-190021485D01*
X190381247Y-190116723D01*
X190178866Y-190211961D01*
X189893152Y-190211961D01*
X192286009Y-190116723D02*
X192083628Y-190211961D01*
X191702676Y-190211961D01*
X191524104Y-190116723D01*
X191440771Y-190021485D01*
X191369342Y-189831009D01*
X191440771Y-189259580D01*
X191559819Y-189069104D01*
X191666961Y-188973866D01*
X191869342Y-188878628D01*
X192250295Y-188878628D01*
X192428866Y-188973866D01*
X193131247Y-190211961D02*
X193381247Y-188211961D01*
X193416961Y-189450057D02*
X193893152Y-190211961D01*
X194059819Y-188878628D02*
X193202676Y-189640533D01*
X195524104Y-190116723D02*
X195321723Y-190211961D01*
X194940771Y-190211961D01*
X194762200Y-190116723D01*
X194690771Y-189926247D01*
X194786009Y-189164342D01*
X194905057Y-188973866D01*
X195107438Y-188878628D01*
X195488390Y-188878628D01*
X195666961Y-188973866D01*
X195738390Y-189164342D01*
X195714580Y-189354819D01*
X194738390Y-189545295D01*
X196345533Y-188878628D02*
X197107438Y-188878628D01*
X196714580Y-188211961D02*
X196500295Y-189926247D01*
X196571723Y-190116723D01*
X196750295Y-190211961D01*
X196940771Y-190211961D01*
X199131247Y-190211961D02*
X199381247Y-188211961D01*
X200083628Y-190211961D02*
X200333628Y-188211961D01*
X200821723Y-189640533D01*
X201666961Y-188211961D01*
X201416961Y-190211961D01*
X202619342Y-188211961D02*
X202416961Y-189831009D01*
X202488390Y-190021485D01*
X202571723Y-190116723D01*
X202750295Y-190211961D01*
X203131247Y-190211961D01*
X203333628Y-190116723D01*
X203440771Y-190021485D01*
X203559819Y-189831009D01*
X203762200Y-188211961D01*
X207678866Y-188116723D02*
X205643152Y-190688152D01*
X209524104Y-190116723D02*
X209797914Y-190211961D01*
X210274104Y-190211961D01*
X210476485Y-190116723D01*
X210583628Y-190021485D01*
X210702676Y-189831009D01*
X210726485Y-189640533D01*
X210655057Y-189450057D01*
X210571723Y-189354819D01*
X210393152Y-189259580D01*
X210024104Y-189164342D01*
X209845533Y-189069104D01*
X209762200Y-188973866D01*
X209690771Y-188783390D01*
X209714580Y-188592914D01*
X209833628Y-188402438D01*
X209940771Y-188307200D01*
X210143152Y-188211961D01*
X210619342Y-188211961D01*
X210893152Y-188307200D01*
X212286009Y-190116723D02*
X212083628Y-190211961D01*
X211702676Y-190211961D01*
X211524104Y-190116723D01*
X211452676Y-189926247D01*
X211547914Y-189164342D01*
X211666961Y-188973866D01*
X211869342Y-188878628D01*
X212250295Y-188878628D01*
X212428866Y-188973866D01*
X212500295Y-189164342D01*
X212476485Y-189354819D01*
X211500295Y-189545295D01*
X213393152Y-188878628D02*
X213226485Y-190211961D01*
X213369342Y-189069104D02*
X213476485Y-188973866D01*
X213678866Y-188878628D01*
X213964580Y-188878628D01*
X214143152Y-188973866D01*
X214214580Y-189164342D01*
X214083628Y-190211961D01*
X214952676Y-190116723D02*
X215131247Y-190211961D01*
X215512200Y-190211961D01*
X215714580Y-190116723D01*
X215833628Y-189926247D01*
X215845533Y-189831009D01*
X215774104Y-189640533D01*
X215595533Y-189545295D01*
X215309819Y-189545295D01*
X215131247Y-189450057D01*
X215059819Y-189259580D01*
X215071723Y-189164342D01*
X215190771Y-188973866D01*
X215393152Y-188878628D01*
X215678866Y-188878628D01*
X215857438Y-188973866D01*
X216940771Y-190211961D02*
X216762200Y-190116723D01*
X216678866Y-190021485D01*
X216607438Y-189831009D01*
X216678866Y-189259580D01*
X216797914Y-189069104D01*
X216905057Y-188973866D01*
X217107438Y-188878628D01*
X217393152Y-188878628D01*
X217571723Y-188973866D01*
X217655057Y-189069104D01*
X217726485Y-189259580D01*
X217655057Y-189831009D01*
X217536009Y-190021485D01*
X217428866Y-190116723D01*
X217226485Y-190211961D01*
X216940771Y-190211961D01*
X218464580Y-190211961D02*
X218631247Y-188878628D01*
X218583628Y-189259580D02*
X218702676Y-189069104D01*
X218809819Y-188973866D01*
X219012199Y-188878628D01*
X219202676Y-188878628D01*
X221226485Y-190211961D02*
X221476485Y-188211961D01*
X221357438Y-189164342D02*
X222500295Y-189164342D01*
X222369342Y-190211961D02*
X222619342Y-188211961D01*
X224178866Y-190211961D02*
X224309819Y-189164342D01*
X224238390Y-188973866D01*
X224059819Y-188878628D01*
X223678866Y-188878628D01*
X223476485Y-188973866D01*
X224190771Y-190116723D02*
X223988390Y-190211961D01*
X223512199Y-190211961D01*
X223333628Y-190116723D01*
X223262199Y-189926247D01*
X223286009Y-189735771D01*
X223405057Y-189545295D01*
X223607438Y-189450057D01*
X224083628Y-189450057D01*
X224286009Y-189354819D01*
X225012199Y-188878628D02*
X225774104Y-188878628D01*
X225381247Y-188211961D02*
X225166961Y-189926247D01*
X225238390Y-190116723D01*
X225416961Y-190211961D01*
X225607438Y-190211961D01*
X227797914Y-190211961D02*
X228047914Y-188211961D01*
X228809819Y-188211961D01*
X228988390Y-188307200D01*
X229071723Y-188402438D01*
X229143152Y-188592914D01*
X229107438Y-188878628D01*
X228988390Y-189069104D01*
X228881247Y-189164342D01*
X228678866Y-189259580D01*
X227916961Y-189259580D01*
X230964580Y-190021485D02*
X230857438Y-190116723D01*
X230559819Y-190211961D01*
X230369342Y-190211961D01*
X230095533Y-190116723D01*
X229928866Y-189926247D01*
X229857438Y-189735771D01*
X229809819Y-189354819D01*
X229845533Y-189069104D01*
X229988390Y-188688152D01*
X230107438Y-188497676D01*
X230321723Y-188307200D01*
X230619342Y-188211961D01*
X230809819Y-188211961D01*
X231083628Y-188307200D01*
X231166961Y-188402438D01*
X232595533Y-189164342D02*
X232869342Y-189259580D01*
X232952676Y-189354819D01*
X233024104Y-189545295D01*
X232988390Y-189831009D01*
X232869342Y-190021485D01*
X232762199Y-190116723D01*
X232559819Y-190211961D01*
X231797914Y-190211961D01*
X232047914Y-188211961D01*
X232714580Y-188211961D01*
X232893152Y-188307200D01*
X232976485Y-188402438D01*
X233047914Y-188592914D01*
X233024104Y-188783390D01*
X232905057Y-188973866D01*
X232797914Y-189069104D01*
X232595533Y-189164342D01*
X231928866Y-189164342D01*
X235321723Y-190211961D02*
X235571723Y-188211961D01*
X236047914Y-188211961D01*
X236321723Y-188307200D01*
X236488390Y-188497676D01*
X236559819Y-188688152D01*
X236607438Y-189069104D01*
X236571723Y-189354819D01*
X236428866Y-189735771D01*
X236309819Y-189926247D01*
X236095533Y-190116723D01*
X235797914Y-190211961D01*
X235321723Y-190211961D01*
X238095533Y-190116723D02*
X237893152Y-190211961D01*
X237512199Y-190211961D01*
X237333628Y-190116723D01*
X237262199Y-189926247D01*
X237357438Y-189164342D01*
X237476485Y-188973866D01*
X237678866Y-188878628D01*
X238059819Y-188878628D01*
X238238390Y-188973866D01*
X238309819Y-189164342D01*
X238286009Y-189354819D01*
X237309819Y-189545295D01*
X238952676Y-190116723D02*
X239131247Y-190211961D01*
X239512199Y-190211961D01*
X239714580Y-190116723D01*
X239833628Y-189926247D01*
X239845533Y-189831009D01*
X239774104Y-189640533D01*
X239595533Y-189545295D01*
X239309819Y-189545295D01*
X239131247Y-189450057D01*
X239059819Y-189259580D01*
X239071723Y-189164342D01*
X239190771Y-188973866D01*
X239393152Y-188878628D01*
X239678866Y-188878628D01*
X239857438Y-188973866D01*
X240655057Y-190211961D02*
X240821723Y-188878628D01*
X240905057Y-188211961D02*
X240797914Y-188307200D01*
X240881247Y-188402438D01*
X240988390Y-188307200D01*
X240905057Y-188211961D01*
X240881247Y-188402438D01*
X242631247Y-188878628D02*
X242428866Y-190497676D01*
X242309819Y-190688152D01*
X242202676Y-190783390D01*
X242000295Y-190878628D01*
X241714580Y-190878628D01*
X241536009Y-190783390D01*
X242476485Y-190116723D02*
X242274104Y-190211961D01*
X241893152Y-190211961D01*
X241714580Y-190116723D01*
X241631247Y-190021485D01*
X241559819Y-189831009D01*
X241631247Y-189259580D01*
X241750295Y-189069104D01*
X241857438Y-188973866D01*
X242059819Y-188878628D01*
X242440771Y-188878628D01*
X242619342Y-188973866D01*
X243583628Y-188878628D02*
X243416961Y-190211961D01*
X243559819Y-189069104D02*
X243666961Y-188973866D01*
X243869342Y-188878628D01*
X244155057Y-188878628D01*
X244333628Y-188973866D01*
X244405057Y-189164342D01*
X244274104Y-190211961D01*
D10*
D11*
X178934342Y-185600057D02*
X178434342Y-185600057D01*
X178434342Y-186385771D02*
X178434342Y-184885771D01*
X179148628Y-184885771D01*
X179720057Y-186385771D02*
X179720057Y-185385771D01*
X179720057Y-184885771D02*
X179648628Y-184957200D01*
X179720057Y-185028628D01*
X179791485Y-184957200D01*
X179720057Y-184885771D01*
X179720057Y-185028628D01*
X180648628Y-186385771D02*
X180505771Y-186314342D01*
X180434342Y-186171485D01*
X180434342Y-184885771D01*
X181791485Y-186314342D02*
X181648628Y-186385771D01*
X181362914Y-186385771D01*
X181220057Y-186314342D01*
X181148628Y-186171485D01*
X181148628Y-185600057D01*
X181220057Y-185457200D01*
X181362914Y-185385771D01*
X181648628Y-185385771D01*
X181791485Y-185457200D01*
X181862914Y-185600057D01*
X181862914Y-185742914D01*
X181148628Y-185885771D01*
X182505771Y-186242914D02*
X182577200Y-186314342D01*
X182505771Y-186385771D01*
X182434342Y-186314342D01*
X182505771Y-186242914D01*
X182505771Y-186385771D01*
X182505771Y-185457200D02*
X182577200Y-185528628D01*
X182505771Y-185600057D01*
X182434342Y-185528628D01*
X182505771Y-185457200D01*
X182505771Y-185600057D01*
X185220057Y-186385771D02*
X184720057Y-185671485D01*
X184362914Y-186385771D02*
X184362914Y-184885771D01*
X184934342Y-184885771D01*
X185077200Y-184957200D01*
X185148628Y-185028628D01*
X185220057Y-185171485D01*
X185220057Y-185385771D01*
X185148628Y-185528628D01*
X185077200Y-185600057D01*
X184934342Y-185671485D01*
X184362914Y-185671485D01*
X186077200Y-186385771D02*
X185934342Y-186314342D01*
X185862914Y-186242914D01*
X185791485Y-186100057D01*
X185791485Y-185671485D01*
X185862914Y-185528628D01*
X185934342Y-185457200D01*
X186077200Y-185385771D01*
X186291485Y-185385771D01*
X186434342Y-185457200D01*
X186505771Y-185528628D01*
X186577200Y-185671485D01*
X186577200Y-186100057D01*
X186505771Y-186242914D01*
X186434342Y-186314342D01*
X186291485Y-186385771D01*
X186077200Y-186385771D01*
X187862914Y-186314342D02*
X187720057Y-186385771D01*
X187434342Y-186385771D01*
X187291485Y-186314342D01*
X187220057Y-186242914D01*
X187148628Y-186100057D01*
X187148628Y-185671485D01*
X187220057Y-185528628D01*
X187291485Y-185457200D01*
X187434342Y-185385771D01*
X187720057Y-185385771D01*
X187862914Y-185457200D01*
X188505771Y-186385771D02*
X188505771Y-184885771D01*
X188648628Y-185814342D02*
X189077200Y-186385771D01*
X189077200Y-185385771D02*
X188505771Y-185957200D01*
X190291485Y-186314342D02*
X190148628Y-186385771D01*
X189862914Y-186385771D01*
X189720057Y-186314342D01*
X189648628Y-186171485D01*
X189648628Y-185600057D01*
X189720057Y-185457200D01*
X189862914Y-185385771D01*
X190148628Y-185385771D01*
X190291485Y-185457200D01*
X190362914Y-185600057D01*
X190362914Y-185742914D01*
X189648628Y-185885771D01*
X190791485Y-185385771D02*
X191362914Y-185385771D01*
X191005771Y-184885771D02*
X191005771Y-186171485D01*
X191077200Y-186314342D01*
X191220057Y-186385771D01*
X191362914Y-186385771D01*
X191862914Y-186385771D02*
X191862914Y-184885771D01*
X191862914Y-185600057D02*
X192720057Y-185600057D01*
X192720057Y-186385771D02*
X192720057Y-184885771D01*
X194077200Y-186385771D02*
X194077200Y-185600057D01*
X194005771Y-185457200D01*
X193862914Y-185385771D01*
X193577200Y-185385771D01*
X193434342Y-185457200D01*
X194077200Y-186314342D02*
X193934342Y-186385771D01*
X193577200Y-186385771D01*
X193434342Y-186314342D01*
X193362914Y-186171485D01*
X193362914Y-186028628D01*
X193434342Y-185885771D01*
X193577200Y-185814342D01*
X193934342Y-185814342D01*
X194077200Y-185742914D01*
X194577200Y-185385771D02*
X195148628Y-185385771D01*
X194791485Y-184885771D02*
X194791485Y-186171485D01*
X194862914Y-186314342D01*
X195005771Y-186385771D01*
X195148628Y-186385771D01*
X195648628Y-186242914D02*
X195720057Y-186314342D01*
X195648628Y-186385771D01*
X195577200Y-186314342D01*
X195648628Y-186242914D01*
X195648628Y-186385771D01*
X196362914Y-186385771D02*
X196362914Y-184885771D01*
X196505771Y-185814342D02*
X196934342Y-186385771D01*
X196934342Y-185385771D02*
X196362914Y-185957200D01*
X197577200Y-186385771D02*
X197577200Y-185385771D01*
X197577200Y-184885771D02*
X197505771Y-184957200D01*
X197577200Y-185028628D01*
X197648628Y-184957200D01*
X197577200Y-184885771D01*
X197577200Y-185028628D01*
X198934342Y-186314342D02*
X198791485Y-186385771D01*
X198505771Y-186385771D01*
X198362914Y-186314342D01*
X198291485Y-186242914D01*
X198220057Y-186100057D01*
X198220057Y-185671485D01*
X198291485Y-185528628D01*
X198362914Y-185457200D01*
X198505771Y-185385771D01*
X198791485Y-185385771D01*
X198934342Y-185457200D01*
X200220057Y-186385771D02*
X200220057Y-185600057D01*
X200148628Y-185457200D01*
X200005771Y-185385771D01*
X199720057Y-185385771D01*
X199577200Y-185457200D01*
X200220057Y-186314342D02*
X200077200Y-186385771D01*
X199720057Y-186385771D01*
X199577200Y-186314342D01*
X199505771Y-186171485D01*
X199505771Y-186028628D01*
X199577200Y-185885771D01*
X199720057Y-185814342D01*
X200077200Y-185814342D01*
X200220057Y-185742914D01*
X201577200Y-186385771D02*
X201577200Y-184885771D01*
X201577200Y-186314342D02*
X201434342Y-186385771D01*
X201148628Y-186385771D01*
X201005771Y-186314342D01*
X200934342Y-186242914D01*
X200862914Y-186100057D01*
X200862914Y-185671485D01*
X200934342Y-185528628D01*
X201005771Y-185457200D01*
X201148628Y-185385771D01*
X201434342Y-185385771D01*
X201577200Y-185457200D01*
X201934342Y-186528628D02*
X203077200Y-186528628D01*
X203434342Y-185385771D02*
X203434342Y-186885771D01*
X203434342Y-185457200D02*
X203577200Y-185385771D01*
X203862914Y-185385771D01*
X204005771Y-185457200D01*
X204077200Y-185528628D01*
X204148628Y-185671485D01*
X204148628Y-186100057D01*
X204077200Y-186242914D01*
X204005771Y-186314342D01*
X203862914Y-186385771D01*
X203577200Y-186385771D01*
X203434342Y-186314342D01*
X205434342Y-186314342D02*
X205291485Y-186385771D01*
X205005771Y-186385771D01*
X204862914Y-186314342D01*
X204791485Y-186242914D01*
X204720057Y-186100057D01*
X204720057Y-185671485D01*
X204791485Y-185528628D01*
X204862914Y-185457200D01*
X205005771Y-185385771D01*
X205291485Y-185385771D01*
X205434342Y-185457200D01*
X206077200Y-186385771D02*
X206077200Y-184885771D01*
X206077200Y-185457200D02*
X206220057Y-185385771D01*
X206505771Y-185385771D01*
X206648628Y-185457200D01*
X206720057Y-185528628D01*
X206791485Y-185671485D01*
X206791485Y-186100057D01*
X206720057Y-186242914D01*
X206648628Y-186314342D01*
X206505771Y-186385771D01*
X206220057Y-186385771D01*
X206077200Y-186314342D01*
D10*
D11*
X177002200Y-181507200D02*
X285002200Y-181507200D01*
D10*
D11*
X178362914Y-183614342D02*
X178577200Y-183685771D01*
X178934342Y-183685771D01*
X179077200Y-183614342D01*
X179148628Y-183542914D01*
X179220057Y-183400057D01*
X179220057Y-183257200D01*
X179148628Y-183114342D01*
X179077200Y-183042914D01*
X178934342Y-182971485D01*
X178648628Y-182900057D01*
X178505771Y-182828628D01*
X178434342Y-182757200D01*
X178362914Y-182614342D01*
X178362914Y-182471485D01*
X178434342Y-182328628D01*
X178505771Y-182257200D01*
X178648628Y-182185771D01*
X179005771Y-182185771D01*
X179220057Y-182257200D01*
X179862914Y-183685771D02*
X179862914Y-182185771D01*
X180505771Y-183685771D02*
X180505771Y-182900057D01*
X180434342Y-182757200D01*
X180291485Y-182685771D01*
X180077200Y-182685771D01*
X179934342Y-182757200D01*
X179862914Y-182828628D01*
X181791485Y-183614342D02*
X181648628Y-183685771D01*
X181362914Y-183685771D01*
X181220057Y-183614342D01*
X181148628Y-183471485D01*
X181148628Y-182900057D01*
X181220057Y-182757200D01*
X181362914Y-182685771D01*
X181648628Y-182685771D01*
X181791485Y-182757200D01*
X181862914Y-182900057D01*
X181862914Y-183042914D01*
X181148628Y-183185771D01*
X183077200Y-183614342D02*
X182934342Y-183685771D01*
X182648628Y-183685771D01*
X182505771Y-183614342D01*
X182434342Y-183471485D01*
X182434342Y-182900057D01*
X182505771Y-182757200D01*
X182648628Y-182685771D01*
X182934342Y-182685771D01*
X183077200Y-182757200D01*
X183148628Y-182900057D01*
X183148628Y-183042914D01*
X182434342Y-183185771D01*
X183577200Y-182685771D02*
X184148628Y-182685771D01*
X183791485Y-182185771D02*
X183791485Y-183471485D01*
X183862914Y-183614342D01*
X184005771Y-183685771D01*
X184148628Y-183685771D01*
X184648628Y-183542914D02*
X184720057Y-183614342D01*
X184648628Y-183685771D01*
X184577200Y-183614342D01*
X184648628Y-183542914D01*
X184648628Y-183685771D01*
X184648628Y-182757200D02*
X184720057Y-182828628D01*
X184648628Y-182900057D01*
X184577200Y-182828628D01*
X184648628Y-182757200D01*
X184648628Y-182900057D01*
D10*
D12*
X179411485Y-180685771D02*
X178911485Y-179971485D01*
X178554342Y-180685771D02*
X178554342Y-179185771D01*
X179125771Y-179185771D01*
X179268628Y-179257200D01*
X179340057Y-179328628D01*
X179411485Y-179471485D01*
X179411485Y-179685771D01*
X179340057Y-179828628D01*
X179268628Y-179900057D01*
X179125771Y-179971485D01*
X178554342Y-179971485D01*
X180268628Y-180685771D02*
X180125771Y-180614342D01*
X180054342Y-180542914D01*
X179982914Y-180400057D01*
X179982914Y-179971485D01*
X180054342Y-179828628D01*
X180125771Y-179757200D01*
X180268628Y-179685771D01*
X180482914Y-179685771D01*
X180625771Y-179757200D01*
X180697200Y-179828628D01*
X180768628Y-179971485D01*
X180768628Y-180400057D01*
X180697200Y-180542914D01*
X180625771Y-180614342D01*
X180482914Y-180685771D01*
X180268628Y-180685771D01*
X181340057Y-180614342D02*
X181482914Y-180685771D01*
X181768628Y-180685771D01*
X181911485Y-180614342D01*
X181982914Y-180471485D01*
X181982914Y-180400057D01*
X181911485Y-180257200D01*
X181768628Y-180185771D01*
X181554342Y-180185771D01*
X181411485Y-180114342D01*
X181340057Y-179971485D01*
X181340057Y-179900057D01*
X181411485Y-179757200D01*
X181554342Y-179685771D01*
X181768628Y-179685771D01*
X181911485Y-179757200D01*
X183197200Y-180614342D02*
X183054342Y-180685771D01*
X182768628Y-180685771D01*
X182625771Y-180614342D01*
X182554342Y-180471485D01*
X182554342Y-179900057D01*
X182625771Y-179757200D01*
X182768628Y-179685771D01*
X183054342Y-179685771D01*
X183197200Y-179757200D01*
X183268628Y-179900057D01*
X183268628Y-180042914D01*
X182554342Y-180185771D01*
X183911485Y-180114342D02*
X185054342Y-180114342D01*
X185768628Y-180685771D02*
X185768628Y-179185771D01*
X185768628Y-179900057D02*
X186625771Y-179900057D01*
X186625771Y-180685771D02*
X186625771Y-179185771D01*
X187982914Y-179685771D02*
X187982914Y-180685771D01*
X187340057Y-179685771D02*
X187340057Y-180471485D01*
X187411485Y-180614342D01*
X187554342Y-180685771D01*
X187768628Y-180685771D01*
X187911485Y-180614342D01*
X187982914Y-180542914D01*
X188911485Y-180685771D02*
X188768628Y-180614342D01*
X188697200Y-180471485D01*
X188697200Y-179185771D01*
X189482914Y-180685771D02*
X189482914Y-179685771D01*
X189482914Y-179828628D02*
X189554342Y-179757200D01*
X189697200Y-179685771D01*
X189911485Y-179685771D01*
X190054342Y-179757200D01*
X190125771Y-179900057D01*
X190125771Y-180685771D01*
X190125771Y-179900057D02*
X190197200Y-179757200D01*
X190340057Y-179685771D01*
X190554342Y-179685771D01*
X190697200Y-179757200D01*
X190768628Y-179900057D01*
X190768628Y-180685771D01*
X192125771Y-180685771D02*
X192125771Y-179900057D01*
X192054342Y-179757200D01*
X191911485Y-179685771D01*
X191625771Y-179685771D01*
X191482914Y-179757200D01*
X192125771Y-180614342D02*
X191982914Y-180685771D01*
X191625771Y-180685771D01*
X191482914Y-180614342D01*
X191411485Y-180471485D01*
X191411485Y-180328628D01*
X191482914Y-180185771D01*
X191625771Y-180114342D01*
X191982914Y-180114342D01*
X192125771Y-180042914D01*
X192840057Y-179685771D02*
X192840057Y-180685771D01*
X192840057Y-179828628D02*
X192911485Y-179757200D01*
X193054342Y-179685771D01*
X193268628Y-179685771D01*
X193411485Y-179757200D01*
X193482914Y-179900057D01*
X193482914Y-180685771D01*
X196197200Y-180685771D02*
X195697200Y-179971485D01*
X195340057Y-180685771D02*
X195340057Y-179185771D01*
X195911485Y-179185771D01*
X196054342Y-179257200D01*
X196125771Y-179328628D01*
X196197200Y-179471485D01*
X196197200Y-179685771D01*
X196125771Y-179828628D01*
X196054342Y-179900057D01*
X195911485Y-179971485D01*
X195340057Y-179971485D01*
X197054342Y-180685771D02*
X196911485Y-180614342D01*
X196840057Y-180542914D01*
X196768628Y-180400057D01*
X196768628Y-179971485D01*
X196840057Y-179828628D01*
X196911485Y-179757200D01*
X197054342Y-179685771D01*
X197268628Y-179685771D01*
X197411485Y-179757200D01*
X197482914Y-179828628D01*
X197554342Y-179971485D01*
X197554342Y-180400057D01*
X197482914Y-180542914D01*
X197411485Y-180614342D01*
X197268628Y-180685771D01*
X197054342Y-180685771D01*
X198840057Y-180614342D02*
X198697200Y-180685771D01*
X198411485Y-180685771D01*
X198268628Y-180614342D01*
X198197200Y-180542914D01*
X198125771Y-180400057D01*
X198125771Y-179971485D01*
X198197200Y-179828628D01*
X198268628Y-179757200D01*
X198411485Y-179685771D01*
X198697200Y-179685771D01*
X198840057Y-179757200D01*
X199482914Y-180685771D02*
X199482914Y-179185771D01*
X199625771Y-180114342D02*
X200054342Y-180685771D01*
X200054342Y-179685771D02*
X199482914Y-180257200D01*
X201268628Y-180614342D02*
X201125771Y-180685771D01*
X200840057Y-180685771D01*
X200697200Y-180614342D01*
X200625771Y-180471485D01*
X200625771Y-179900057D01*
X200697200Y-179757200D01*
X200840057Y-179685771D01*
X201125771Y-179685771D01*
X201268628Y-179757200D01*
X201340057Y-179900057D01*
X201340057Y-180042914D01*
X200625771Y-180185771D01*
X201768628Y-179685771D02*
X202340057Y-179685771D01*
X201982914Y-179185771D02*
X201982914Y-180471485D01*
X202054342Y-180614342D01*
X202197200Y-180685771D01*
X202340057Y-180685771D01*
X202840057Y-180685771D02*
X202840057Y-179685771D01*
X202840057Y-179971485D02*
X202911485Y-179828628D01*
X202982914Y-179757200D01*
X203125771Y-179685771D01*
X203268628Y-179685771D01*
X203625771Y-179685771D02*
X203982914Y-180685771D01*
X204340057Y-179685771D02*
X203982914Y-180685771D01*
X203840057Y-181042914D01*
X203768628Y-181114342D01*
X203625771Y-181185771D01*
X206911485Y-180542914D02*
X206840057Y-180614342D01*
X206625771Y-180685771D01*
X206482914Y-180685771D01*
X206268628Y-180614342D01*
X206125771Y-180471485D01*
X206054342Y-180328628D01*
X205982914Y-180042914D01*
X205982914Y-179828628D01*
X206054342Y-179542914D01*
X206125771Y-179400057D01*
X206268628Y-179257200D01*
X206482914Y-179185771D01*
X206625771Y-179185771D01*
X206840057Y-179257200D01*
X206911485Y-179328628D01*
X207768628Y-180685771D02*
X207625771Y-180614342D01*
X207554342Y-180471485D01*
X207554342Y-179185771D01*
X208982914Y-179685771D02*
X208982914Y-180685771D01*
X208340057Y-179685771D02*
X208340057Y-180471485D01*
X208411485Y-180614342D01*
X208554342Y-180685771D01*
X208768628Y-180685771D01*
X208911485Y-180614342D01*
X208982914Y-180542914D01*
X209697200Y-180685771D02*
X209697200Y-179185771D01*
X209697200Y-179757200D02*
X209840057Y-179685771D01*
X210125771Y-179685771D01*
X210268628Y-179757200D01*
X210340057Y-179828628D01*
X210411485Y-179971485D01*
X210411485Y-180400057D01*
X210340057Y-180542914D01*
X210268628Y-180614342D01*
X210125771Y-180685771D01*
X209840057Y-180685771D01*
X209697200Y-180614342D01*
D10*
D11*
D10*
D11*
X178434342Y-174685771D02*
X178434342Y-173185771D01*
X179077200Y-174685771D02*
X179077200Y-173900057D01*
X179005771Y-173757200D01*
X178862914Y-173685771D01*
X178648628Y-173685771D01*
X178505771Y-173757200D01*
X178434342Y-173828628D01*
X179577200Y-173685771D02*
X180148628Y-173685771D01*
X179791485Y-173185771D02*
X179791485Y-174471485D01*
X179862914Y-174614342D01*
X180005771Y-174685771D01*
X180148628Y-174685771D01*
X180434342Y-173685771D02*
X181005771Y-173685771D01*
X180648628Y-173185771D02*
X180648628Y-174471485D01*
X180720057Y-174614342D01*
X180862914Y-174685771D01*
X181005771Y-174685771D01*
X181505771Y-173685771D02*
X181505771Y-175185771D01*
X181505771Y-173757200D02*
X181648628Y-173685771D01*
X181934342Y-173685771D01*
X182077200Y-173757200D01*
X182148628Y-173828628D01*
X182220057Y-173971485D01*
X182220057Y-174400057D01*
X182148628Y-174542914D01*
X182077200Y-174614342D01*
X181934342Y-174685771D01*
X181648628Y-174685771D01*
X181505771Y-174614342D01*
X182791485Y-174614342D02*
X182934342Y-174685771D01*
X183220057Y-174685771D01*
X183362914Y-174614342D01*
X183434342Y-174471485D01*
X183434342Y-174400057D01*
X183362914Y-174257200D01*
X183220057Y-174185771D01*
X183005771Y-174185771D01*
X182862914Y-174114342D01*
X182791485Y-173971485D01*
X182791485Y-173900057D01*
X182862914Y-173757200D01*
X183005771Y-173685771D01*
X183220057Y-173685771D01*
X183362914Y-173757200D01*
X184077200Y-174542914D02*
X184148628Y-174614342D01*
X184077200Y-174685771D01*
X184005771Y-174614342D01*
X184077200Y-174542914D01*
X184077200Y-174685771D01*
X184077200Y-173757200D02*
X184148628Y-173828628D01*
X184077200Y-173900057D01*
X184005771Y-173828628D01*
X184077200Y-173757200D01*
X184077200Y-173900057D01*
X185862914Y-173114342D02*
X184577200Y-175042914D01*
X187434342Y-173114342D02*
X186148628Y-175042914D01*
X188577200Y-174614342D02*
X188434342Y-174685771D01*
X188148628Y-174685771D01*
X188005771Y-174614342D01*
X187934342Y-174542914D01*
X187862914Y-174400057D01*
X187862914Y-173971485D01*
X187934342Y-173828628D01*
X188005771Y-173757200D01*
X188148628Y-173685771D01*
X188434342Y-173685771D01*
X188577200Y-173757200D01*
X189220057Y-174685771D02*
X189220057Y-173685771D01*
X189220057Y-173971485D02*
X189291485Y-173828628D01*
X189362914Y-173757200D01*
X189505771Y-173685771D01*
X189648628Y-173685771D01*
X190720057Y-174614342D02*
X190577200Y-174685771D01*
X190291485Y-174685771D01*
X190148628Y-174614342D01*
X190077200Y-174471485D01*
X190077200Y-173900057D01*
X190148628Y-173757200D01*
X190291485Y-173685771D01*
X190577200Y-173685771D01*
X190720057Y-173757200D01*
X190791485Y-173900057D01*
X190791485Y-174042914D01*
X190077200Y-174185771D01*
X192077200Y-174685771D02*
X192077200Y-173900057D01*
X192005771Y-173757200D01*
X191862914Y-173685771D01*
X191577200Y-173685771D01*
X191434342Y-173757200D01*
X192077200Y-174614342D02*
X191934342Y-174685771D01*
X191577200Y-174685771D01*
X191434342Y-174614342D01*
X191362914Y-174471485D01*
X191362914Y-174328628D01*
X191434342Y-174185771D01*
X191577200Y-174114342D01*
X191934342Y-174114342D01*
X192077200Y-174042914D01*
X192577200Y-173685771D02*
X193148628Y-173685771D01*
X192791485Y-173185771D02*
X192791485Y-174471485D01*
X192862914Y-174614342D01*
X193005771Y-174685771D01*
X193148628Y-174685771D01*
X193648628Y-174685771D02*
X193648628Y-173685771D01*
X193648628Y-173185771D02*
X193577200Y-173257200D01*
X193648628Y-173328628D01*
X193720057Y-173257200D01*
X193648628Y-173185771D01*
X193648628Y-173328628D01*
X194220057Y-173685771D02*
X194577200Y-174685771D01*
X194934342Y-173685771D01*
X196077200Y-174614342D02*
X195934342Y-174685771D01*
X195648628Y-174685771D01*
X195505771Y-174614342D01*
X195434342Y-174471485D01*
X195434342Y-173900057D01*
X195505771Y-173757200D01*
X195648628Y-173685771D01*
X195934342Y-173685771D01*
X196077200Y-173757200D01*
X196148628Y-173900057D01*
X196148628Y-174042914D01*
X195434342Y-174185771D01*
X197434342Y-174614342D02*
X197291485Y-174685771D01*
X197005771Y-174685771D01*
X196862914Y-174614342D01*
X196791485Y-174542914D01*
X196720057Y-174400057D01*
X196720057Y-173971485D01*
X196791485Y-173828628D01*
X196862914Y-173757200D01*
X197005771Y-173685771D01*
X197291485Y-173685771D01*
X197434342Y-173757200D01*
X198291485Y-174685771D02*
X198148628Y-174614342D01*
X198077200Y-174542914D01*
X198005771Y-174400057D01*
X198005771Y-173971485D01*
X198077200Y-173828628D01*
X198148628Y-173757200D01*
X198291485Y-173685771D01*
X198505771Y-173685771D01*
X198648628Y-173757200D01*
X198720057Y-173828628D01*
X198791485Y-173971485D01*
X198791485Y-174400057D01*
X198720057Y-174542914D01*
X198648628Y-174614342D01*
X198505771Y-174685771D01*
X198291485Y-174685771D01*
X199434342Y-174685771D02*
X199434342Y-173685771D01*
X199434342Y-173828628D02*
X199505771Y-173757200D01*
X199648628Y-173685771D01*
X199862914Y-173685771D01*
X200005771Y-173757200D01*
X200077200Y-173900057D01*
X200077200Y-174685771D01*
X200077200Y-173900057D02*
X200148628Y-173757200D01*
X200291485Y-173685771D01*
X200505771Y-173685771D01*
X200648628Y-173757200D01*
X200720057Y-173900057D01*
X200720057Y-174685771D01*
X201434342Y-174685771D02*
X201434342Y-173685771D01*
X201434342Y-173828628D02*
X201505771Y-173757200D01*
X201648628Y-173685771D01*
X201862914Y-173685771D01*
X202005771Y-173757200D01*
X202077200Y-173900057D01*
X202077200Y-174685771D01*
X202077200Y-173900057D02*
X202148628Y-173757200D01*
X202291485Y-173685771D01*
X202505771Y-173685771D01*
X202648628Y-173757200D01*
X202720057Y-173900057D01*
X202720057Y-174685771D01*
X203648628Y-174685771D02*
X203505771Y-174614342D01*
X203434342Y-174542914D01*
X203362914Y-174400057D01*
X203362914Y-173971485D01*
X203434342Y-173828628D01*
X203505771Y-173757200D01*
X203648628Y-173685771D01*
X203862914Y-173685771D01*
X204005771Y-173757200D01*
X204077200Y-173828628D01*
X204148628Y-173971485D01*
X204148628Y-174400057D01*
X204077200Y-174542914D01*
X204005771Y-174614342D01*
X203862914Y-174685771D01*
X203648628Y-174685771D01*
X204791485Y-173685771D02*
X204791485Y-174685771D01*
X204791485Y-173828628D02*
X204862914Y-173757200D01*
X205005771Y-173685771D01*
X205220057Y-173685771D01*
X205362914Y-173757200D01*
X205434342Y-173900057D01*
X205434342Y-174685771D01*
X206077200Y-174614342D02*
X206220057Y-174685771D01*
X206505771Y-174685771D01*
X206648628Y-174614342D01*
X206720057Y-174471485D01*
X206720057Y-174400057D01*
X206648628Y-174257200D01*
X206505771Y-174185771D01*
X206291485Y-174185771D01*
X206148628Y-174114342D01*
X206077200Y-173971485D01*
X206077200Y-173900057D01*
X206148628Y-173757200D01*
X206291485Y-173685771D01*
X206505771Y-173685771D01*
X206648628Y-173757200D01*
X207362914Y-174542914D02*
X207434342Y-174614342D01*
X207362914Y-174685771D01*
X207291485Y-174614342D01*
X207362914Y-174542914D01*
X207362914Y-174685771D01*
X208291485Y-174685771D02*
X208148628Y-174614342D01*
X208077200Y-174542914D01*
X208005771Y-174400057D01*
X208005771Y-173971485D01*
X208077200Y-173828628D01*
X208148628Y-173757200D01*
X208291485Y-173685771D01*
X208505771Y-173685771D01*
X208648628Y-173757200D01*
X208720057Y-173828628D01*
X208791485Y-173971485D01*
X208791485Y-174400057D01*
X208720057Y-174542914D01*
X208648628Y-174614342D01*
X208505771Y-174685771D01*
X208291485Y-174685771D01*
X209434342Y-174685771D02*
X209434342Y-173685771D01*
X209434342Y-173971485D02*
X209505771Y-173828628D01*
X209577200Y-173757200D01*
X209720057Y-173685771D01*
X209862914Y-173685771D01*
X211005771Y-173685771D02*
X211005771Y-174900057D01*
X210934342Y-175042914D01*
X210862914Y-175114342D01*
X210720057Y-175185771D01*
X210505771Y-175185771D01*
X210362914Y-175114342D01*
X211005771Y-174614342D02*
X210862914Y-174685771D01*
X210577200Y-174685771D01*
X210434342Y-174614342D01*
X210362914Y-174542914D01*
X210291485Y-174400057D01*
X210291485Y-173971485D01*
X210362914Y-173828628D01*
X210434342Y-173757200D01*
X210577200Y-173685771D01*
X210862914Y-173685771D01*
X211005771Y-173757200D01*
X212791485Y-173114342D02*
X211505771Y-175042914D01*
X213505771Y-174685771D02*
X213362914Y-174614342D01*
X213291485Y-174471485D01*
X213291485Y-173185771D01*
X214077200Y-174685771D02*
X214077200Y-173685771D01*
X214077200Y-173185771D02*
X214005771Y-173257200D01*
X214077200Y-173328628D01*
X214148628Y-173257200D01*
X214077200Y-173185771D01*
X214077200Y-173328628D01*
X215434342Y-174614342D02*
X215291485Y-174685771D01*
X215005771Y-174685771D01*
X214862914Y-174614342D01*
X214791485Y-174542914D01*
X214720057Y-174400057D01*
X214720057Y-173971485D01*
X214791485Y-173828628D01*
X214862914Y-173757200D01*
X215005771Y-173685771D01*
X215291485Y-173685771D01*
X215434342Y-173757200D01*
X216648628Y-174614342D02*
X216505771Y-174685771D01*
X216220057Y-174685771D01*
X216077200Y-174614342D01*
X216005771Y-174471485D01*
X216005771Y-173900057D01*
X216077200Y-173757200D01*
X216220057Y-173685771D01*
X216505771Y-173685771D01*
X216648628Y-173757200D01*
X216720057Y-173900057D01*
X216720057Y-174042914D01*
X216005771Y-174185771D01*
X217362914Y-173685771D02*
X217362914Y-174685771D01*
X217362914Y-173828628D02*
X217434342Y-173757200D01*
X217577200Y-173685771D01*
X217791485Y-173685771D01*
X217934342Y-173757200D01*
X218005771Y-173900057D01*
X218005771Y-174685771D01*
X218648628Y-174614342D02*
X218791485Y-174685771D01*
X219077200Y-174685771D01*
X219220057Y-174614342D01*
X219291485Y-174471485D01*
X219291485Y-174400057D01*
X219220057Y-174257200D01*
X219077200Y-174185771D01*
X218862914Y-174185771D01*
X218720057Y-174114342D01*
X218648628Y-173971485D01*
X218648628Y-173900057D01*
X218720057Y-173757200D01*
X218862914Y-173685771D01*
X219077200Y-173685771D01*
X219220057Y-173757200D01*
X220505771Y-174614342D02*
X220362914Y-174685771D01*
X220077200Y-174685771D01*
X219934342Y-174614342D01*
X219862914Y-174471485D01*
X219862914Y-173900057D01*
X219934342Y-173757200D01*
X220077200Y-173685771D01*
X220362914Y-173685771D01*
X220505771Y-173757200D01*
X220577200Y-173900057D01*
X220577200Y-174042914D01*
X219862914Y-174185771D01*
X221148628Y-174614342D02*
X221291485Y-174685771D01*
X221577200Y-174685771D01*
X221720057Y-174614342D01*
X221791485Y-174471485D01*
X221791485Y-174400057D01*
X221720057Y-174257200D01*
X221577200Y-174185771D01*
X221362914Y-174185771D01*
X221220057Y-174114342D01*
X221148628Y-173971485D01*
X221148628Y-173900057D01*
X221220057Y-173757200D01*
X221362914Y-173685771D01*
X221577200Y-173685771D01*
X221720057Y-173757200D01*
X223505771Y-173114342D02*
X222220057Y-175042914D01*
X224005771Y-174685771D02*
X224005771Y-173185771D01*
X224005771Y-173757200D02*
X224148628Y-173685771D01*
X224434342Y-173685771D01*
X224577200Y-173757200D01*
X224648628Y-173828628D01*
X224720057Y-173971485D01*
X224720057Y-174400057D01*
X224648628Y-174542914D01*
X224577200Y-174614342D01*
X224434342Y-174685771D01*
X224148628Y-174685771D01*
X224005771Y-174614342D01*
X225220057Y-173685771D02*
X225577200Y-174685771D01*
X225934342Y-173685771D02*
X225577200Y-174685771D01*
X225434342Y-175042914D01*
X225362914Y-175114342D01*
X225220057Y-175185771D01*
X226505771Y-174114342D02*
X227648628Y-174114342D01*
X228291485Y-174614342D02*
X228434342Y-174685771D01*
X228720057Y-174685771D01*
X228862914Y-174614342D01*
X228934342Y-174471485D01*
X228934342Y-174400057D01*
X228862914Y-174257200D01*
X228720057Y-174185771D01*
X228505771Y-174185771D01*
X228362914Y-174114342D01*
X228291485Y-173971485D01*
X228291485Y-173900057D01*
X228362914Y-173757200D01*
X228505771Y-173685771D01*
X228720057Y-173685771D01*
X228862914Y-173757200D01*
X230220057Y-174685771D02*
X230220057Y-173900057D01*
X230148628Y-173757200D01*
X230005771Y-173685771D01*
X229720057Y-173685771D01*
X229577200Y-173757200D01*
X230220057Y-174614342D02*
X230077200Y-174685771D01*
X229720057Y-174685771D01*
X229577200Y-174614342D01*
X229505771Y-174471485D01*
X229505771Y-174328628D01*
X229577200Y-174185771D01*
X229720057Y-174114342D01*
X230077200Y-174114342D01*
X230220057Y-174042914D01*
X232005771Y-173114342D02*
X230720057Y-175042914D01*
X233148628Y-173685771D02*
X233148628Y-174685771D01*
X232791485Y-173114342D02*
X232434342Y-174185771D01*
X233362914Y-174185771D01*
X233934342Y-174542914D02*
X234005771Y-174614342D01*
X233934342Y-174685771D01*
X233862914Y-174614342D01*
X233934342Y-174542914D01*
X233934342Y-174685771D01*
X234934342Y-173185771D02*
X235077200Y-173185771D01*
X235220057Y-173257200D01*
X235291485Y-173328628D01*
X235362914Y-173471485D01*
X235434342Y-173757200D01*
X235434342Y-174114342D01*
X235362914Y-174400057D01*
X235291485Y-174542914D01*
X235220057Y-174614342D01*
X235077200Y-174685771D01*
X234934342Y-174685771D01*
X234791485Y-174614342D01*
X234720057Y-174542914D01*
X234648628Y-174400057D01*
X234577200Y-174114342D01*
X234577200Y-173757200D01*
X234648628Y-173471485D01*
X234720057Y-173328628D01*
X234791485Y-173257200D01*
X234934342Y-173185771D01*
X237148628Y-173114342D02*
X235862914Y-175042914D01*
D10*
D11*
X179148628Y-171685771D02*
X178434342Y-171685771D01*
X178434342Y-170185771D01*
X179648628Y-171685771D02*
X179648628Y-170685771D01*
X179648628Y-170185771D02*
X179577200Y-170257200D01*
X179648628Y-170328628D01*
X179720057Y-170257200D01*
X179648628Y-170185771D01*
X179648628Y-170328628D01*
X181005771Y-171614342D02*
X180862914Y-171685771D01*
X180577200Y-171685771D01*
X180434342Y-171614342D01*
X180362914Y-171542914D01*
X180291485Y-171400057D01*
X180291485Y-170971485D01*
X180362914Y-170828628D01*
X180434342Y-170757200D01*
X180577200Y-170685771D01*
X180862914Y-170685771D01*
X181005771Y-170757200D01*
X182220057Y-171614342D02*
X182077200Y-171685771D01*
X181791485Y-171685771D01*
X181648628Y-171614342D01*
X181577200Y-171471485D01*
X181577200Y-170900057D01*
X181648628Y-170757200D01*
X181791485Y-170685771D01*
X182077200Y-170685771D01*
X182220057Y-170757200D01*
X182291485Y-170900057D01*
X182291485Y-171042914D01*
X181577200Y-171185771D01*
X182934342Y-170685771D02*
X182934342Y-171685771D01*
X182934342Y-170828628D02*
X183005771Y-170757200D01*
X183148628Y-170685771D01*
X183362914Y-170685771D01*
X183505771Y-170757200D01*
X183577200Y-170900057D01*
X183577200Y-171685771D01*
X184220057Y-171614342D02*
X184362914Y-171685771D01*
X184648628Y-171685771D01*
X184791485Y-171614342D01*
X184862914Y-171471485D01*
X184862914Y-171400057D01*
X184791485Y-171257200D01*
X184648628Y-171185771D01*
X184434342Y-171185771D01*
X184291485Y-171114342D01*
X184220057Y-170971485D01*
X184220057Y-170900057D01*
X184291485Y-170757200D01*
X184434342Y-170685771D01*
X184648628Y-170685771D01*
X184791485Y-170757200D01*
X186077200Y-171614342D02*
X185934342Y-171685771D01*
X185648628Y-171685771D01*
X185505771Y-171614342D01*
X185434342Y-171471485D01*
X185434342Y-170900057D01*
X185505771Y-170757200D01*
X185648628Y-170685771D01*
X185934342Y-170685771D01*
X186077200Y-170757200D01*
X186148628Y-170900057D01*
X186148628Y-171042914D01*
X185434342Y-171185771D01*
X186791485Y-171542914D02*
X186862914Y-171614342D01*
X186791485Y-171685771D01*
X186720057Y-171614342D01*
X186791485Y-171542914D01*
X186791485Y-171685771D01*
X186791485Y-170757200D02*
X186862914Y-170828628D01*
X186791485Y-170900057D01*
X186720057Y-170828628D01*
X186791485Y-170757200D01*
X186791485Y-170900057D01*
X189505771Y-171542914D02*
X189434342Y-171614342D01*
X189220057Y-171685771D01*
X189077200Y-171685771D01*
X188862914Y-171614342D01*
X188720057Y-171471485D01*
X188648628Y-171328628D01*
X188577200Y-171042914D01*
X188577200Y-170828628D01*
X188648628Y-170542914D01*
X188720057Y-170400057D01*
X188862914Y-170257200D01*
X189077200Y-170185771D01*
X189220057Y-170185771D01*
X189434342Y-170257200D01*
X189505771Y-170328628D01*
X191005771Y-171542914D02*
X190934342Y-171614342D01*
X190720057Y-171685771D01*
X190577200Y-171685771D01*
X190362914Y-171614342D01*
X190220057Y-171471485D01*
X190148628Y-171328628D01*
X190077200Y-171042914D01*
X190077200Y-170828628D01*
X190148628Y-170542914D01*
X190220057Y-170400057D01*
X190362914Y-170257200D01*
X190577200Y-170185771D01*
X190720057Y-170185771D01*
X190934342Y-170257200D01*
X191005771Y-170328628D01*
X193291485Y-170900057D02*
X193505771Y-170971485D01*
X193577200Y-171042914D01*
X193648628Y-171185771D01*
X193648628Y-171400057D01*
X193577200Y-171542914D01*
X193505771Y-171614342D01*
X193362914Y-171685771D01*
X192791485Y-171685771D01*
X192791485Y-170185771D01*
X193291485Y-170185771D01*
X193434342Y-170257200D01*
X193505771Y-170328628D01*
X193577200Y-170471485D01*
X193577200Y-170614342D01*
X193505771Y-170757200D01*
X193434342Y-170828628D01*
X193291485Y-170900057D01*
X192791485Y-170900057D01*
X194577200Y-170971485D02*
X194577200Y-171685771D01*
X194077200Y-170185771D02*
X194577200Y-170971485D01*
X195077200Y-170185771D01*
X195577200Y-171114342D02*
X196720057Y-171114342D01*
X197362914Y-171614342D02*
X197577200Y-171685771D01*
X197934342Y-171685771D01*
X198077200Y-171614342D01*
X198148628Y-171542914D01*
X198220057Y-171400057D01*
X198220057Y-171257200D01*
X198148628Y-171114342D01*
X198077200Y-171042914D01*
X197934342Y-170971485D01*
X197648628Y-170900057D01*
X197505771Y-170828628D01*
X197434342Y-170757200D01*
X197362914Y-170614342D01*
X197362914Y-170471485D01*
X197434342Y-170328628D01*
X197505771Y-170257200D01*
X197648628Y-170185771D01*
X198005771Y-170185771D01*
X198220057Y-170257200D01*
X198791485Y-171257200D02*
X199505771Y-171257200D01*
X198648628Y-171685771D02*
X199148628Y-170185771D01*
X199648628Y-171685771D01*
X201934342Y-170685771D02*
X201934342Y-171685771D01*
X201577200Y-170114342D02*
X201220057Y-171185771D01*
X202148628Y-171185771D01*
X202720057Y-171542914D02*
X202791485Y-171614342D01*
X202720057Y-171685771D01*
X202648628Y-171614342D01*
X202720057Y-171542914D01*
X202720057Y-171685771D01*
X203720057Y-170185771D02*
X203862914Y-170185771D01*
X204005771Y-170257200D01*
X204077200Y-170328628D01*
X204148628Y-170471485D01*
X204220057Y-170757200D01*
X204220057Y-171114342D01*
X204148628Y-171400057D01*
X204077200Y-171542914D01*
X204005771Y-171614342D01*
X203862914Y-171685771D01*
X203720057Y-171685771D01*
X203577200Y-171614342D01*
X203505771Y-171542914D01*
X203434342Y-171400057D01*
X203362914Y-171114342D01*
X203362914Y-170757200D01*
X203434342Y-170471485D01*
X203505771Y-170328628D01*
X203577200Y-170257200D01*
X203720057Y-170185771D01*
D10*
D11*
X178362914Y-168257200D02*
X179077200Y-168257200D01*
X178220057Y-168685771D02*
X178720057Y-167185771D01*
X179220057Y-168685771D01*
X180362914Y-167685771D02*
X180362914Y-168685771D01*
X179720057Y-167685771D02*
X179720057Y-168471485D01*
X179791485Y-168614342D01*
X179934342Y-168685771D01*
X180148628Y-168685771D01*
X180291485Y-168614342D01*
X180362914Y-168542914D01*
X180862914Y-167685771D02*
X181434342Y-167685771D01*
X181077200Y-167185771D02*
X181077200Y-168471485D01*
X181148628Y-168614342D01*
X181291485Y-168685771D01*
X181434342Y-168685771D01*
X181934342Y-168685771D02*
X181934342Y-167185771D01*
X182577200Y-168685771D02*
X182577200Y-167900057D01*
X182505771Y-167757200D01*
X182362914Y-167685771D01*
X182148628Y-167685771D01*
X182005771Y-167757200D01*
X181934342Y-167828628D01*
X183505771Y-168685771D02*
X183362914Y-168614342D01*
X183291485Y-168542914D01*
X183220057Y-168400057D01*
X183220057Y-167971485D01*
X183291485Y-167828628D01*
X183362914Y-167757200D01*
X183505771Y-167685771D01*
X183720057Y-167685771D01*
X183862914Y-167757200D01*
X183934342Y-167828628D01*
X184005771Y-167971485D01*
X184005771Y-168400057D01*
X183934342Y-168542914D01*
X183862914Y-168614342D01*
X183720057Y-168685771D01*
X183505771Y-168685771D01*
X184648628Y-168685771D02*
X184648628Y-167685771D01*
X184648628Y-167971485D02*
X184720057Y-167828628D01*
X184791485Y-167757200D01*
X184934342Y-167685771D01*
X185077200Y-167685771D01*
X185577200Y-168542914D02*
X185648628Y-168614342D01*
X185577200Y-168685771D01*
X185505771Y-168614342D01*
X185577200Y-168542914D01*
X185577200Y-168685771D01*
X185577200Y-167757200D02*
X185648628Y-167828628D01*
X185577200Y-167900057D01*
X185505771Y-167828628D01*
X185577200Y-167757200D01*
X185577200Y-167900057D01*
X187862914Y-167185771D02*
X187862914Y-168257200D01*
X187791485Y-168471485D01*
X187648628Y-168614342D01*
X187434342Y-168685771D01*
X187291485Y-168685771D01*
X189220057Y-168685771D02*
X189220057Y-167900057D01*
X189148628Y-167757200D01*
X189005771Y-167685771D01*
X188720057Y-167685771D01*
X188577200Y-167757200D01*
X189220057Y-168614342D02*
X189077200Y-168685771D01*
X188720057Y-168685771D01*
X188577200Y-168614342D01*
X188505771Y-168471485D01*
X188505771Y-168328628D01*
X188577200Y-168185771D01*
X188720057Y-168114342D01*
X189077200Y-168114342D01*
X189220057Y-168042914D01*
X190577200Y-168614342D02*
X190434342Y-168685771D01*
X190148628Y-168685771D01*
X190005771Y-168614342D01*
X189934342Y-168542914D01*
X189862914Y-168400057D01*
X189862914Y-167971485D01*
X189934342Y-167828628D01*
X190005771Y-167757200D01*
X190148628Y-167685771D01*
X190434342Y-167685771D01*
X190577200Y-167757200D01*
X191434342Y-168685771D02*
X191291485Y-168614342D01*
X191220057Y-168542914D01*
X191148628Y-168400057D01*
X191148628Y-167971485D01*
X191220057Y-167828628D01*
X191291485Y-167757200D01*
X191434342Y-167685771D01*
X191648628Y-167685771D01*
X191791485Y-167757200D01*
X191862914Y-167828628D01*
X191934342Y-167971485D01*
X191934342Y-168400057D01*
X191862914Y-168542914D01*
X191791485Y-168614342D01*
X191648628Y-168685771D01*
X191434342Y-168685771D01*
X192577200Y-168685771D02*
X192577200Y-167185771D01*
X192577200Y-167757200D02*
X192720057Y-167685771D01*
X193005771Y-167685771D01*
X193148628Y-167757200D01*
X193220057Y-167828628D01*
X193291485Y-167971485D01*
X193291485Y-168400057D01*
X193220057Y-168542914D01*
X193148628Y-168614342D01*
X193005771Y-168685771D01*
X192720057Y-168685771D01*
X192577200Y-168614342D01*
X195005771Y-168257200D02*
X195720057Y-168257200D01*
X194862914Y-168685771D02*
X195362914Y-167185771D01*
X195862914Y-168685771D01*
X196362914Y-168685771D02*
X196362914Y-167685771D01*
X196362914Y-167971485D02*
X196434342Y-167828628D01*
X196505771Y-167757200D01*
X196648628Y-167685771D01*
X196791485Y-167685771D01*
X197291485Y-168685771D02*
X197291485Y-167685771D01*
X197291485Y-167828628D02*
X197362914Y-167757200D01*
X197505771Y-167685771D01*
X197720057Y-167685771D01*
X197862914Y-167757200D01*
X197934342Y-167900057D01*
X197934342Y-168685771D01*
X197934342Y-167900057D02*
X198005771Y-167757200D01*
X198148628Y-167685771D01*
X198362914Y-167685771D01*
X198505771Y-167757200D01*
X198577200Y-167900057D01*
X198577200Y-168685771D01*
X199220057Y-168614342D02*
X199362914Y-168685771D01*
X199648628Y-168685771D01*
X199791485Y-168614342D01*
X199862914Y-168471485D01*
X199862914Y-168400057D01*
X199791485Y-168257200D01*
X199648628Y-168185771D01*
X199434342Y-168185771D01*
X199291485Y-168114342D01*
X199220057Y-167971485D01*
X199220057Y-167900057D01*
X199291485Y-167757200D01*
X199434342Y-167685771D01*
X199648628Y-167685771D01*
X199791485Y-167757200D01*
X200291485Y-167685771D02*
X200862914Y-167685771D01*
X200505771Y-167185771D02*
X200505771Y-168471485D01*
X200577200Y-168614342D01*
X200720057Y-168685771D01*
X200862914Y-168685771D01*
X201362914Y-168685771D02*
X201362914Y-167685771D01*
X201362914Y-167971485D02*
X201434342Y-167828628D01*
X201505771Y-167757200D01*
X201648628Y-167685771D01*
X201791485Y-167685771D01*
X202505771Y-168685771D02*
X202362914Y-168614342D01*
X202291485Y-168542914D01*
X202220057Y-168400057D01*
X202220057Y-167971485D01*
X202291485Y-167828628D01*
X202362914Y-167757200D01*
X202505771Y-167685771D01*
X202720057Y-167685771D01*
X202862914Y-167757200D01*
X202934342Y-167828628D01*
X203005771Y-167971485D01*
X203005771Y-168400057D01*
X202934342Y-168542914D01*
X202862914Y-168614342D01*
X202720057Y-168685771D01*
X202505771Y-168685771D01*
X203648628Y-167685771D02*
X203648628Y-168685771D01*
X203648628Y-167828628D02*
X203720057Y-167757200D01*
X203862914Y-167685771D01*
X204077200Y-167685771D01*
X204220057Y-167757200D01*
X204291485Y-167900057D01*
X204291485Y-168685771D01*
X205648628Y-167685771D02*
X205648628Y-168900057D01*
X205577200Y-169042914D01*
X205505771Y-169114342D01*
X205362914Y-169185771D01*
X205148628Y-169185771D01*
X205005771Y-169114342D01*
X205648628Y-168614342D02*
X205505771Y-168685771D01*
X205220057Y-168685771D01*
X205077200Y-168614342D01*
X205005771Y-168542914D01*
X204934342Y-168400057D01*
X204934342Y-167971485D01*
X205005771Y-167828628D01*
X205077200Y-167757200D01*
X205220057Y-167685771D01*
X205505771Y-167685771D01*
X205648628Y-167757200D01*
D10*
D11*
X197002200Y-191507200D02*
X197002200Y-194507200D01*
D10*
D11*
X261002200Y-191507200D02*
X261002200Y-198007200D01*
D14*
X199948800Y-93853000D02*
G75*
G03*
X196951600Y-96850200I2J-2997202D01*
G01*
X199948800Y-151993600D02*
X266141200Y-151993600D01*
X269138400Y-148996400D02*
X269138400Y-96850200D01*
X266141200Y-93853000D02*
X199948800Y-93853000D01*
X269138400Y-96850200D02*
G75*
G03*
X266141200Y-93853000I-2997202J-2D01*
G01*
X196951600Y-148996400D02*
G75*
G03*
X199948800Y-151993600I2997202J2D01*
G01*
X266141200Y-151993600D02*
G75*
G03*
X269138400Y-148996400I-2J2997202D01*
G01*
X196951600Y-96850200D02*
X196951600Y-148996400D01*
M02*
