%TF.GenerationSoftware,KiCad,Pcbnew,(6.0.0)*%
%TF.CreationDate,2022-02-21T16:10:18-05:00*%
%TF.ProjectId,RocketHat,526f636b-6574-4486-9174-2e6b69636164,V1.0*%
%TF.SameCoordinates,Original*%
%TF.FileFunction,Profile,NP*%
%FSLAX46Y46*%
G04 Gerber Fmt 4.6, Leading zero omitted, Abs format (unit mm)*
G04 Created by KiCad (PCBNEW (6.0.0)) date 2022-02-21 16:10:18*
%MOMM*%
%LPD*%
G01*
G04 APERTURE LIST*
%ADD10C,0.100000*%
%ADD11C,0.150000*%
%ADD12C,0.300000*%
%ADD13C,0.400000*%
%TA.AperFunction,Profile*%
%ADD14C,0.100000*%
%TD*%
G04 APERTURE END LIST*
D10*
D11*
X-18400000Y-44900000D02*
X-18400000Y-76900000D01*
X89600000Y-76900000D01*
X89600000Y-44900000D01*
X-18400000Y-44900000D01*
D10*
D11*
X10000000Y-10000000D02*
X10000000Y-78900000D01*
X91600000Y-78900000D01*
X91600000Y-10000000D01*
X10000000Y-10000000D01*
D10*
D11*
X12000000Y-12000000D02*
X12000000Y-76900000D01*
X89600000Y-76900000D01*
X89600000Y-12000000D01*
X12000000Y-12000000D01*
D10*
D11*
X60000000Y-12000000D02*
X60000000Y-10000000D01*
D10*
D11*
X36065476Y-11588095D02*
X35322619Y-11588095D01*
X35694047Y-11588095D02*
X35694047Y-10288095D01*
X35570238Y-10473809D01*
X35446428Y-10597619D01*
X35322619Y-10659523D01*
D10*
D11*
X85322619Y-10411904D02*
X85384523Y-10350000D01*
X85508333Y-10288095D01*
X85817857Y-10288095D01*
X85941666Y-10350000D01*
X86003571Y-10411904D01*
X86065476Y-10535714D01*
X86065476Y-10659523D01*
X86003571Y-10845238D01*
X85260714Y-11588095D01*
X86065476Y-11588095D01*
D10*
D11*
X60000000Y-76900000D02*
X60000000Y-78900000D01*
D10*
D11*
X36065476Y-78488095D02*
X35322619Y-78488095D01*
X35694047Y-78488095D02*
X35694047Y-77188095D01*
X35570238Y-77373809D01*
X35446428Y-77497619D01*
X35322619Y-77559523D01*
D10*
D11*
X85322619Y-77311904D02*
X85384523Y-77250000D01*
X85508333Y-77188095D01*
X85817857Y-77188095D01*
X85941666Y-77250000D01*
X86003571Y-77311904D01*
X86065476Y-77435714D01*
X86065476Y-77559523D01*
X86003571Y-77745238D01*
X85260714Y-78488095D01*
X86065476Y-78488095D01*
D10*
D11*
X10000000Y-60000000D02*
X12000000Y-60000000D01*
D10*
D11*
X10690476Y-35216666D02*
X11309523Y-35216666D01*
X10566666Y-35588095D02*
X11000000Y-34288095D01*
X11433333Y-35588095D01*
D10*
D11*
X91600000Y-60000000D02*
X89600000Y-60000000D01*
D10*
D11*
X90290476Y-35216666D02*
X90909523Y-35216666D01*
X90166666Y-35588095D02*
X90600000Y-34288095D01*
X91033333Y-35588095D01*
D10*
D11*
X5032142Y-72678571D02*
X5032142Y-71178571D01*
X5389285Y-71178571D01*
X5603571Y-71250000D01*
X5746428Y-71392857D01*
X5817857Y-71535714D01*
X5889285Y-71821428D01*
X5889285Y-72035714D01*
X5817857Y-72321428D01*
X5746428Y-72464285D01*
X5603571Y-72607142D01*
X5389285Y-72678571D01*
X5032142Y-72678571D01*
X7175000Y-72678571D02*
X7175000Y-71892857D01*
X7103571Y-71750000D01*
X6960714Y-71678571D01*
X6675000Y-71678571D01*
X6532142Y-71750000D01*
X7175000Y-72607142D02*
X7032142Y-72678571D01*
X6675000Y-72678571D01*
X6532142Y-72607142D01*
X6460714Y-72464285D01*
X6460714Y-72321428D01*
X6532142Y-72178571D01*
X6675000Y-72107142D01*
X7032142Y-72107142D01*
X7175000Y-72035714D01*
X7675000Y-71678571D02*
X8246428Y-71678571D01*
X7889285Y-71178571D02*
X7889285Y-72464285D01*
X7960714Y-72607142D01*
X8103571Y-72678571D01*
X8246428Y-72678571D01*
X9317857Y-72607142D02*
X9175000Y-72678571D01*
X8889285Y-72678571D01*
X8746428Y-72607142D01*
X8675000Y-72464285D01*
X8675000Y-71892857D01*
X8746428Y-71750000D01*
X8889285Y-71678571D01*
X9175000Y-71678571D01*
X9317857Y-71750000D01*
X9389285Y-71892857D01*
X9389285Y-72035714D01*
X8675000Y-72178571D01*
X10032142Y-72535714D02*
X10103571Y-72607142D01*
X10032142Y-72678571D01*
X9960714Y-72607142D01*
X10032142Y-72535714D01*
X10032142Y-72678571D01*
X10032142Y-71750000D02*
X10103571Y-71821428D01*
X10032142Y-71892857D01*
X9960714Y-71821428D01*
X10032142Y-71750000D01*
X10032142Y-71892857D01*
X11817857Y-71321428D02*
X11889285Y-71250000D01*
X12032142Y-71178571D01*
X12389285Y-71178571D01*
X12532142Y-71250000D01*
X12603571Y-71321428D01*
X12675000Y-71464285D01*
X12675000Y-71607142D01*
X12603571Y-71821428D01*
X11746428Y-72678571D01*
X12675000Y-72678571D01*
X13603571Y-71178571D02*
X13746428Y-71178571D01*
X13889285Y-71250000D01*
X13960714Y-71321428D01*
X14032142Y-71464285D01*
X14103571Y-71750000D01*
X14103571Y-72107142D01*
X14032142Y-72392857D01*
X13960714Y-72535714D01*
X13889285Y-72607142D01*
X13746428Y-72678571D01*
X13603571Y-72678571D01*
X13460714Y-72607142D01*
X13389285Y-72535714D01*
X13317857Y-72392857D01*
X13246428Y-72107142D01*
X13246428Y-71750000D01*
X13317857Y-71464285D01*
X13389285Y-71321428D01*
X13460714Y-71250000D01*
X13603571Y-71178571D01*
X14674999Y-71321428D02*
X14746428Y-71250000D01*
X14889285Y-71178571D01*
X15246428Y-71178571D01*
X15389285Y-71250000D01*
X15460714Y-71321428D01*
X15532142Y-71464285D01*
X15532142Y-71607142D01*
X15460714Y-71821428D01*
X14603571Y-72678571D01*
X15532142Y-72678571D01*
X16103571Y-71321428D02*
X16174999Y-71250000D01*
X16317857Y-71178571D01*
X16674999Y-71178571D01*
X16817857Y-71250000D01*
X16889285Y-71321428D01*
X16960714Y-71464285D01*
X16960714Y-71607142D01*
X16889285Y-71821428D01*
X16032142Y-72678571D01*
X16960714Y-72678571D01*
X17603571Y-72107142D02*
X18746428Y-72107142D01*
X19746428Y-71178571D02*
X19889285Y-71178571D01*
X20032142Y-71250000D01*
X20103571Y-71321428D01*
X20175000Y-71464285D01*
X20246428Y-71750000D01*
X20246428Y-72107142D01*
X20175000Y-72392857D01*
X20103571Y-72535714D01*
X20032142Y-72607142D01*
X19889285Y-72678571D01*
X19746428Y-72678571D01*
X19603571Y-72607142D01*
X19532142Y-72535714D01*
X19460714Y-72392857D01*
X19389285Y-72107142D01*
X19389285Y-71750000D01*
X19460714Y-71464285D01*
X19532142Y-71321428D01*
X19603571Y-71250000D01*
X19746428Y-71178571D01*
X20817857Y-71321428D02*
X20889285Y-71250000D01*
X21032142Y-71178571D01*
X21389285Y-71178571D01*
X21532142Y-71250000D01*
X21603571Y-71321428D01*
X21675000Y-71464285D01*
X21675000Y-71607142D01*
X21603571Y-71821428D01*
X20746428Y-72678571D01*
X21675000Y-72678571D01*
X22317857Y-72107142D02*
X23460714Y-72107142D01*
X24960714Y-72678571D02*
X24103571Y-72678571D01*
X24532142Y-72678571D02*
X24532142Y-71178571D01*
X24389285Y-71392857D01*
X24246428Y-71535714D01*
X24103571Y-71607142D01*
X25460714Y-71178571D02*
X26389285Y-71178571D01*
X25889285Y-71750000D01*
X26103571Y-71750000D01*
X26246428Y-71821428D01*
X26317857Y-71892857D01*
X26389285Y-72035714D01*
X26389285Y-72392857D01*
X26317857Y-72535714D01*
X26246428Y-72607142D01*
X26103571Y-72678571D01*
X25675000Y-72678571D01*
X25532142Y-72607142D01*
X25460714Y-72535714D01*
D10*
D11*
X-18400000Y-73400000D02*
X89600000Y-73400000D01*
D10*
D11*
X-16967857Y-75478571D02*
X-16967857Y-73978571D01*
X-16110714Y-75478571D02*
X-16753571Y-74621428D01*
X-16110714Y-73978571D02*
X-16967857Y-74835714D01*
X-15467857Y-75478571D02*
X-15467857Y-74478571D01*
X-15467857Y-73978571D02*
X-15539285Y-74050000D01*
X-15467857Y-74121428D01*
X-15396428Y-74050000D01*
X-15467857Y-73978571D01*
X-15467857Y-74121428D01*
X-13896428Y-75335714D02*
X-13967857Y-75407142D01*
X-14182142Y-75478571D01*
X-14325000Y-75478571D01*
X-14539285Y-75407142D01*
X-14682142Y-75264285D01*
X-14753571Y-75121428D01*
X-14825000Y-74835714D01*
X-14825000Y-74621428D01*
X-14753571Y-74335714D01*
X-14682142Y-74192857D01*
X-14539285Y-74050000D01*
X-14325000Y-73978571D01*
X-14182142Y-73978571D01*
X-13967857Y-74050000D01*
X-13896428Y-74121428D01*
X-12610714Y-75478571D02*
X-12610714Y-74692857D01*
X-12682142Y-74550000D01*
X-12825000Y-74478571D01*
X-13110714Y-74478571D01*
X-13253571Y-74550000D01*
X-12610714Y-75407142D02*
X-12753571Y-75478571D01*
X-13110714Y-75478571D01*
X-13253571Y-75407142D01*
X-13325000Y-75264285D01*
X-13325000Y-75121428D01*
X-13253571Y-74978571D01*
X-13110714Y-74907142D01*
X-12753571Y-74907142D01*
X-12610714Y-74835714D01*
X-11253571Y-75478571D02*
X-11253571Y-73978571D01*
X-11253571Y-75407142D02*
X-11396428Y-75478571D01*
X-11682142Y-75478571D01*
X-11825000Y-75407142D01*
X-11896428Y-75335714D01*
X-11967857Y-75192857D01*
X-11967857Y-74764285D01*
X-11896428Y-74621428D01*
X-11825000Y-74550000D01*
X-11682142Y-74478571D01*
X-11396428Y-74478571D01*
X-11253571Y-74550000D01*
X-9396428Y-74692857D02*
X-8896428Y-74692857D01*
X-8682142Y-75478571D02*
X-9396428Y-75478571D01*
X-9396428Y-73978571D01*
X-8682142Y-73978571D01*
X-8039285Y-75335714D02*
X-7967857Y-75407142D01*
X-8039285Y-75478571D01*
X-8110714Y-75407142D01*
X-8039285Y-75335714D01*
X-8039285Y-75478571D01*
X-7325000Y-75478571D02*
X-7325000Y-73978571D01*
X-6967857Y-73978571D01*
X-6753571Y-74050000D01*
X-6610714Y-74192857D01*
X-6539285Y-74335714D01*
X-6467857Y-74621428D01*
X-6467857Y-74835714D01*
X-6539285Y-75121428D01*
X-6610714Y-75264285D01*
X-6753571Y-75407142D01*
X-6967857Y-75478571D01*
X-7325000Y-75478571D01*
X-5825000Y-75335714D02*
X-5753571Y-75407142D01*
X-5825000Y-75478571D01*
X-5896428Y-75407142D01*
X-5825000Y-75335714D01*
X-5825000Y-75478571D01*
X-5182142Y-75050000D02*
X-4467857Y-75050000D01*
X-5325000Y-75478571D02*
X-4825000Y-73978571D01*
X-4325000Y-75478571D01*
X-3825000Y-75335714D02*
X-3753571Y-75407142D01*
X-3825000Y-75478571D01*
X-3896428Y-75407142D01*
X-3825000Y-75335714D01*
X-3825000Y-75478571D01*
X-825000Y-75478571D02*
X-825000Y-73978571D01*
X-682142Y-74907142D02*
X-253571Y-75478571D01*
X-253571Y-74478571D02*
X-825000Y-75050000D01*
X389285Y-75478571D02*
X389285Y-74478571D01*
X389285Y-73978571D02*
X317857Y-74050000D01*
X389285Y-74121428D01*
X460714Y-74050000D01*
X389285Y-73978571D01*
X389285Y-74121428D01*
X1746428Y-75407142D02*
X1603571Y-75478571D01*
X1317857Y-75478571D01*
X1174999Y-75407142D01*
X1103571Y-75335714D01*
X1032142Y-75192857D01*
X1032142Y-74764285D01*
X1103571Y-74621428D01*
X1174999Y-74550000D01*
X1317857Y-74478571D01*
X1603571Y-74478571D01*
X1746428Y-74550000D01*
X3032142Y-75478571D02*
X3032142Y-74692857D01*
X2960714Y-74550000D01*
X2817857Y-74478571D01*
X2532142Y-74478571D01*
X2389285Y-74550000D01*
X3032142Y-75407142D02*
X2889285Y-75478571D01*
X2532142Y-75478571D01*
X2389285Y-75407142D01*
X2317857Y-75264285D01*
X2317857Y-75121428D01*
X2389285Y-74978571D01*
X2532142Y-74907142D01*
X2889285Y-74907142D01*
X3032142Y-74835714D01*
X4389285Y-75478571D02*
X4389285Y-73978571D01*
X4389285Y-75407142D02*
X4246428Y-75478571D01*
X3960714Y-75478571D01*
X3817857Y-75407142D01*
X3746428Y-75335714D01*
X3675000Y-75192857D01*
X3675000Y-74764285D01*
X3746428Y-74621428D01*
X3817857Y-74550000D01*
X3960714Y-74478571D01*
X4246428Y-74478571D01*
X4389285Y-74550000D01*
X6675000Y-76050000D02*
X6603571Y-75978571D01*
X6460714Y-75764285D01*
X6389285Y-75621428D01*
X6317857Y-75407142D01*
X6246428Y-75050000D01*
X6246428Y-74764285D01*
X6317857Y-74407142D01*
X6389285Y-74192857D01*
X6460714Y-74050000D01*
X6603571Y-73835714D01*
X6675000Y-73764285D01*
X7889285Y-73978571D02*
X7603571Y-73978571D01*
X7460714Y-74050000D01*
X7389285Y-74121428D01*
X7246428Y-74335714D01*
X7175000Y-74621428D01*
X7175000Y-75192857D01*
X7246428Y-75335714D01*
X7317857Y-75407142D01*
X7460714Y-75478571D01*
X7746428Y-75478571D01*
X7889285Y-75407142D01*
X7960714Y-75335714D01*
X8032142Y-75192857D01*
X8032142Y-74835714D01*
X7960714Y-74692857D01*
X7889285Y-74621428D01*
X7746428Y-74550000D01*
X7460714Y-74550000D01*
X7317857Y-74621428D01*
X7246428Y-74692857D01*
X7175000Y-74835714D01*
X8675000Y-75335714D02*
X8746428Y-75407142D01*
X8675000Y-75478571D01*
X8603571Y-75407142D01*
X8675000Y-75335714D01*
X8675000Y-75478571D01*
X9674999Y-73978571D02*
X9817857Y-73978571D01*
X9960714Y-74050000D01*
X10032142Y-74121428D01*
X10103571Y-74264285D01*
X10174999Y-74550000D01*
X10174999Y-74907142D01*
X10103571Y-75192857D01*
X10032142Y-75335714D01*
X9960714Y-75407142D01*
X9817857Y-75478571D01*
X9674999Y-75478571D01*
X9532142Y-75407142D01*
X9460714Y-75335714D01*
X9389285Y-75192857D01*
X9317857Y-74907142D01*
X9317857Y-74550000D01*
X9389285Y-74264285D01*
X9460714Y-74121428D01*
X9532142Y-74050000D01*
X9674999Y-73978571D01*
X10817857Y-75335714D02*
X10889285Y-75407142D01*
X10817857Y-75478571D01*
X10746428Y-75407142D01*
X10817857Y-75335714D01*
X10817857Y-75478571D01*
X11817857Y-73978571D02*
X11960714Y-73978571D01*
X12103571Y-74050000D01*
X12174999Y-74121428D01*
X12246428Y-74264285D01*
X12317857Y-74550000D01*
X12317857Y-74907142D01*
X12246428Y-75192857D01*
X12174999Y-75335714D01*
X12103571Y-75407142D01*
X11960714Y-75478571D01*
X11817857Y-75478571D01*
X11674999Y-75407142D01*
X11603571Y-75335714D01*
X11532142Y-75192857D01*
X11460714Y-74907142D01*
X11460714Y-74550000D01*
X11532142Y-74264285D01*
X11603571Y-74121428D01*
X11674999Y-74050000D01*
X11817857Y-73978571D01*
X12817857Y-76050000D02*
X12889285Y-75978571D01*
X13032142Y-75764285D01*
X13103571Y-75621428D01*
X13174999Y-75407142D01*
X13246428Y-75050000D01*
X13246428Y-74764285D01*
X13174999Y-74407142D01*
X13103571Y-74192857D01*
X13032142Y-74050000D01*
X12889285Y-73835714D01*
X12817857Y-73764285D01*
D10*
D11*
X-18400000Y-70400000D02*
X89600000Y-70400000D01*
D10*
D12*
X69009285Y-72678571D02*
X68509285Y-71964285D01*
X68152142Y-72678571D02*
X68152142Y-71178571D01*
X68723571Y-71178571D01*
X68866428Y-71250000D01*
X68937857Y-71321428D01*
X69009285Y-71464285D01*
X69009285Y-71678571D01*
X68937857Y-71821428D01*
X68866428Y-71892857D01*
X68723571Y-71964285D01*
X68152142Y-71964285D01*
X70223571Y-72607142D02*
X70080714Y-72678571D01*
X69795000Y-72678571D01*
X69652142Y-72607142D01*
X69580714Y-72464285D01*
X69580714Y-71892857D01*
X69652142Y-71750000D01*
X69795000Y-71678571D01*
X70080714Y-71678571D01*
X70223571Y-71750000D01*
X70295000Y-71892857D01*
X70295000Y-72035714D01*
X69580714Y-72178571D01*
X70795000Y-71678571D02*
X71152142Y-72678571D01*
X71509285Y-71678571D01*
X72080714Y-72535714D02*
X72152142Y-72607142D01*
X72080714Y-72678571D01*
X72009285Y-72607142D01*
X72080714Y-72535714D01*
X72080714Y-72678571D01*
X72080714Y-71750000D02*
X72152142Y-71821428D01*
X72080714Y-71892857D01*
X72009285Y-71821428D01*
X72080714Y-71750000D01*
X72080714Y-71892857D01*
X73723571Y-71178571D02*
X74223571Y-72678571D01*
X74723571Y-71178571D01*
X76009285Y-72678571D02*
X75152142Y-72678571D01*
X75580714Y-72678571D02*
X75580714Y-71178571D01*
X75437857Y-71392857D01*
X75295000Y-71535714D01*
X75152142Y-71607142D01*
X76652142Y-72535714D02*
X76723571Y-72607142D01*
X76652142Y-72678571D01*
X76580714Y-72607142D01*
X76652142Y-72535714D01*
X76652142Y-72678571D01*
X77652142Y-71178571D02*
X77795000Y-71178571D01*
X77937857Y-71250000D01*
X78009285Y-71321428D01*
X78080714Y-71464285D01*
X78152142Y-71750000D01*
X78152142Y-72107142D01*
X78080714Y-72392857D01*
X78009285Y-72535714D01*
X77937857Y-72607142D01*
X77795000Y-72678571D01*
X77652142Y-72678571D01*
X77509285Y-72607142D01*
X77437857Y-72535714D01*
X77366428Y-72392857D01*
X77295000Y-72107142D01*
X77295000Y-71750000D01*
X77366428Y-71464285D01*
X77437857Y-71321428D01*
X77509285Y-71250000D01*
X77652142Y-71178571D01*
D10*
D11*
X-17039285Y-72607142D02*
X-16825000Y-72678571D01*
X-16467857Y-72678571D01*
X-16325000Y-72607142D01*
X-16253571Y-72535714D01*
X-16182142Y-72392857D01*
X-16182142Y-72250000D01*
X-16253571Y-72107142D01*
X-16325000Y-72035714D01*
X-16467857Y-71964285D01*
X-16753571Y-71892857D01*
X-16896428Y-71821428D01*
X-16967857Y-71750000D01*
X-17039285Y-71607142D01*
X-17039285Y-71464285D01*
X-16967857Y-71321428D01*
X-16896428Y-71250000D01*
X-16753571Y-71178571D01*
X-16396428Y-71178571D01*
X-16182142Y-71250000D01*
X-15539285Y-72678571D02*
X-15539285Y-71678571D01*
X-15539285Y-71178571D02*
X-15610714Y-71250000D01*
X-15539285Y-71321428D01*
X-15467857Y-71250000D01*
X-15539285Y-71178571D01*
X-15539285Y-71321428D01*
X-14967857Y-71678571D02*
X-14182142Y-71678571D01*
X-14967857Y-72678571D01*
X-14182142Y-72678571D01*
X-13039285Y-72607142D02*
X-13182142Y-72678571D01*
X-13467857Y-72678571D01*
X-13610714Y-72607142D01*
X-13682142Y-72464285D01*
X-13682142Y-71892857D01*
X-13610714Y-71750000D01*
X-13467857Y-71678571D01*
X-13182142Y-71678571D01*
X-13039285Y-71750000D01*
X-12967857Y-71892857D01*
X-12967857Y-72035714D01*
X-13682142Y-72178571D01*
X-12325000Y-72535714D02*
X-12253571Y-72607142D01*
X-12325000Y-72678571D01*
X-12396428Y-72607142D01*
X-12325000Y-72535714D01*
X-12325000Y-72678571D01*
X-12325000Y-71750000D02*
X-12253571Y-71821428D01*
X-12325000Y-71892857D01*
X-12396428Y-71821428D01*
X-12325000Y-71750000D01*
X-12325000Y-71892857D01*
X-10467857Y-71178571D02*
X-10467857Y-72392857D01*
X-10396428Y-72535714D01*
X-10325000Y-72607142D01*
X-10182142Y-72678571D01*
X-9896428Y-72678571D01*
X-9753571Y-72607142D01*
X-9682142Y-72535714D01*
X-9610714Y-72392857D01*
X-9610714Y-71178571D01*
X-8967857Y-72607142D02*
X-8825000Y-72678571D01*
X-8539285Y-72678571D01*
X-8396428Y-72607142D01*
X-8325000Y-72464285D01*
X-8325000Y-72392857D01*
X-8396428Y-72250000D01*
X-8539285Y-72178571D01*
X-8753571Y-72178571D01*
X-8896428Y-72107142D01*
X-8967857Y-71964285D01*
X-8967857Y-71892857D01*
X-8896428Y-71750000D01*
X-8753571Y-71678571D01*
X-8539285Y-71678571D01*
X-8396428Y-71750000D01*
X-7110714Y-72607142D02*
X-7253571Y-72678571D01*
X-7539285Y-72678571D01*
X-7682142Y-72607142D01*
X-7753571Y-72464285D01*
X-7753571Y-71892857D01*
X-7682142Y-71750000D01*
X-7539285Y-71678571D01*
X-7253571Y-71678571D01*
X-7110714Y-71750000D01*
X-7039285Y-71892857D01*
X-7039285Y-72035714D01*
X-7753571Y-72178571D01*
X-6396428Y-72678571D02*
X-6396428Y-71678571D01*
X-6396428Y-71964285D02*
X-6325000Y-71821428D01*
X-6253571Y-71750000D01*
X-6110714Y-71678571D01*
X-5967857Y-71678571D01*
D10*
D11*
X68032142Y-75478571D02*
X68032142Y-73978571D01*
X69389285Y-75478571D02*
X69389285Y-73978571D01*
X69389285Y-75407142D02*
X69246428Y-75478571D01*
X68960714Y-75478571D01*
X68817857Y-75407142D01*
X68746428Y-75335714D01*
X68675000Y-75192857D01*
X68675000Y-74764285D01*
X68746428Y-74621428D01*
X68817857Y-74550000D01*
X68960714Y-74478571D01*
X69246428Y-74478571D01*
X69389285Y-74550000D01*
X70103571Y-75335714D02*
X70175000Y-75407142D01*
X70103571Y-75478571D01*
X70032142Y-75407142D01*
X70103571Y-75335714D01*
X70103571Y-75478571D01*
X70103571Y-74550000D02*
X70175000Y-74621428D01*
X70103571Y-74692857D01*
X70032142Y-74621428D01*
X70103571Y-74550000D01*
X70103571Y-74692857D01*
X72746428Y-75478571D02*
X71889285Y-75478571D01*
X72317857Y-75478571D02*
X72317857Y-73978571D01*
X72175000Y-74192857D01*
X72032142Y-74335714D01*
X71889285Y-74407142D01*
X74460714Y-73907142D02*
X73175000Y-75835714D01*
X75746428Y-75478571D02*
X74889285Y-75478571D01*
X75317857Y-75478571D02*
X75317857Y-73978571D01*
X75175000Y-74192857D01*
X75032142Y-74335714D01*
X74889285Y-74407142D01*
D10*
D11*
X-18400000Y-66400000D02*
X89600000Y-66400000D01*
D10*
D13*
X-16687619Y-67104761D02*
X-15544761Y-67104761D01*
X-16366190Y-69104761D02*
X-16116190Y-67104761D01*
X-15128095Y-69104761D02*
X-14961428Y-67771428D01*
X-14878095Y-67104761D02*
X-14985238Y-67200000D01*
X-14901904Y-67295238D01*
X-14794761Y-67200000D01*
X-14878095Y-67104761D01*
X-14901904Y-67295238D01*
X-14294761Y-67771428D02*
X-13532857Y-67771428D01*
X-13925714Y-67104761D02*
X-14140000Y-68819047D01*
X-14068571Y-69009523D01*
X-13890000Y-69104761D01*
X-13699523Y-69104761D01*
X-12747142Y-69104761D02*
X-12925714Y-69009523D01*
X-12997142Y-68819047D01*
X-12782857Y-67104761D01*
X-11211428Y-69009523D02*
X-11413809Y-69104761D01*
X-11794761Y-69104761D01*
X-11973333Y-69009523D01*
X-12044761Y-68819047D01*
X-11949523Y-68057142D01*
X-11830476Y-67866666D01*
X-11628095Y-67771428D01*
X-11247142Y-67771428D01*
X-11068571Y-67866666D01*
X-10997142Y-68057142D01*
X-11020952Y-68247619D01*
X-11997142Y-68438095D01*
X-10247142Y-68914285D02*
X-10163809Y-69009523D01*
X-10270952Y-69104761D01*
X-10354285Y-69009523D01*
X-10247142Y-68914285D01*
X-10270952Y-69104761D01*
X-10116190Y-67866666D02*
X-10032857Y-67961904D01*
X-10140000Y-68057142D01*
X-10223333Y-67961904D01*
X-10116190Y-67866666D01*
X-10140000Y-68057142D01*
X-6651904Y-69104761D02*
X-7199523Y-68152380D01*
X-7794761Y-69104761D02*
X-7544761Y-67104761D01*
X-6782857Y-67104761D01*
X-6604285Y-67200000D01*
X-6520952Y-67295238D01*
X-6449523Y-67485714D01*
X-6485238Y-67771428D01*
X-6604285Y-67961904D01*
X-6711428Y-68057142D01*
X-6913809Y-68152380D01*
X-7675714Y-68152380D01*
X-5509047Y-69104761D02*
X-5687619Y-69009523D01*
X-5770952Y-68914285D01*
X-5842380Y-68723809D01*
X-5770952Y-68152380D01*
X-5651904Y-67961904D01*
X-5544761Y-67866666D01*
X-5342380Y-67771428D01*
X-5056666Y-67771428D01*
X-4878095Y-67866666D01*
X-4794761Y-67961904D01*
X-4723333Y-68152380D01*
X-4794761Y-68723809D01*
X-4913809Y-68914285D01*
X-5020952Y-69009523D01*
X-5223333Y-69104761D01*
X-5509047Y-69104761D01*
X-3116190Y-69009523D02*
X-3318571Y-69104761D01*
X-3699523Y-69104761D01*
X-3878095Y-69009523D01*
X-3961428Y-68914285D01*
X-4032857Y-68723809D01*
X-3961428Y-68152380D01*
X-3842380Y-67961904D01*
X-3735238Y-67866666D01*
X-3532857Y-67771428D01*
X-3151904Y-67771428D01*
X-2973333Y-67866666D01*
X-2270952Y-69104761D02*
X-2020952Y-67104761D01*
X-1985238Y-68342857D02*
X-1509047Y-69104761D01*
X-1342380Y-67771428D02*
X-2199523Y-68533333D01*
X121904Y-69009523D02*
X-80476Y-69104761D01*
X-461428Y-69104761D01*
X-640000Y-69009523D01*
X-711428Y-68819047D01*
X-616190Y-68057142D01*
X-497142Y-67866666D01*
X-294761Y-67771428D01*
X86190Y-67771428D01*
X264761Y-67866666D01*
X336190Y-68057142D01*
X312380Y-68247619D01*
X-663809Y-68438095D01*
X943333Y-67771428D02*
X1705238Y-67771428D01*
X1312380Y-67104761D02*
X1098095Y-68819047D01*
X1169523Y-69009523D01*
X1348095Y-69104761D01*
X1538571Y-69104761D01*
X3729047Y-69104761D02*
X3979047Y-67104761D01*
X4681428Y-69104761D02*
X4931428Y-67104761D01*
X5419523Y-68533333D01*
X6264761Y-67104761D01*
X6014761Y-69104761D01*
X7217142Y-67104761D02*
X7014761Y-68723809D01*
X7086190Y-68914285D01*
X7169523Y-69009523D01*
X7348095Y-69104761D01*
X7729047Y-69104761D01*
X7931428Y-69009523D01*
X8038571Y-68914285D01*
X8157619Y-68723809D01*
X8359999Y-67104761D01*
X12276666Y-67009523D02*
X10240952Y-69580952D01*
X14121904Y-69009523D02*
X14395714Y-69104761D01*
X14871904Y-69104761D01*
X15074285Y-69009523D01*
X15181428Y-68914285D01*
X15300476Y-68723809D01*
X15324285Y-68533333D01*
X15252857Y-68342857D01*
X15169523Y-68247619D01*
X14990952Y-68152380D01*
X14621904Y-68057142D01*
X14443333Y-67961904D01*
X14359999Y-67866666D01*
X14288571Y-67676190D01*
X14312380Y-67485714D01*
X14431428Y-67295238D01*
X14538571Y-67200000D01*
X14740952Y-67104761D01*
X15217142Y-67104761D01*
X15490952Y-67200000D01*
X16883809Y-69009523D02*
X16681428Y-69104761D01*
X16300476Y-69104761D01*
X16121904Y-69009523D01*
X16050476Y-68819047D01*
X16145714Y-68057142D01*
X16264761Y-67866666D01*
X16467142Y-67771428D01*
X16848095Y-67771428D01*
X17026666Y-67866666D01*
X17098095Y-68057142D01*
X17074285Y-68247619D01*
X16098095Y-68438095D01*
X17990952Y-67771428D02*
X17824285Y-69104761D01*
X17967142Y-67961904D02*
X18074285Y-67866666D01*
X18276666Y-67771428D01*
X18562380Y-67771428D01*
X18740952Y-67866666D01*
X18812380Y-68057142D01*
X18681428Y-69104761D01*
X19550476Y-69009523D02*
X19729047Y-69104761D01*
X20109999Y-69104761D01*
X20312380Y-69009523D01*
X20431428Y-68819047D01*
X20443333Y-68723809D01*
X20371904Y-68533333D01*
X20193333Y-68438095D01*
X19907619Y-68438095D01*
X19729047Y-68342857D01*
X19657619Y-68152380D01*
X19669523Y-68057142D01*
X19788571Y-67866666D01*
X19990952Y-67771428D01*
X20276666Y-67771428D01*
X20455238Y-67866666D01*
X21538571Y-69104761D02*
X21359999Y-69009523D01*
X21276666Y-68914285D01*
X21205238Y-68723809D01*
X21276666Y-68152380D01*
X21395714Y-67961904D01*
X21502857Y-67866666D01*
X21705238Y-67771428D01*
X21990952Y-67771428D01*
X22169523Y-67866666D01*
X22252857Y-67961904D01*
X22324285Y-68152380D01*
X22252857Y-68723809D01*
X22133809Y-68914285D01*
X22026666Y-69009523D01*
X21824285Y-69104761D01*
X21538571Y-69104761D01*
X23062380Y-69104761D02*
X23229047Y-67771428D01*
X23181428Y-68152380D02*
X23300476Y-67961904D01*
X23407619Y-67866666D01*
X23609999Y-67771428D01*
X23800476Y-67771428D01*
X25824285Y-69104761D02*
X26074285Y-67104761D01*
X25955238Y-68057142D02*
X27098095Y-68057142D01*
X26967142Y-69104761D02*
X27217142Y-67104761D01*
X28776666Y-69104761D02*
X28907619Y-68057142D01*
X28836190Y-67866666D01*
X28657619Y-67771428D01*
X28276666Y-67771428D01*
X28074285Y-67866666D01*
X28788571Y-69009523D02*
X28586190Y-69104761D01*
X28109999Y-69104761D01*
X27931428Y-69009523D01*
X27859999Y-68819047D01*
X27883809Y-68628571D01*
X28002857Y-68438095D01*
X28205238Y-68342857D01*
X28681428Y-68342857D01*
X28883809Y-68247619D01*
X29609999Y-67771428D02*
X30371904Y-67771428D01*
X29979047Y-67104761D02*
X29764761Y-68819047D01*
X29836190Y-69009523D01*
X30014761Y-69104761D01*
X30205238Y-69104761D01*
X32395714Y-69104761D02*
X32645714Y-67104761D01*
X33407619Y-67104761D01*
X33586190Y-67200000D01*
X33669523Y-67295238D01*
X33740952Y-67485714D01*
X33705238Y-67771428D01*
X33586190Y-67961904D01*
X33479047Y-68057142D01*
X33276666Y-68152380D01*
X32514761Y-68152380D01*
X35562380Y-68914285D02*
X35455238Y-69009523D01*
X35157619Y-69104761D01*
X34967142Y-69104761D01*
X34693333Y-69009523D01*
X34526666Y-68819047D01*
X34455238Y-68628571D01*
X34407619Y-68247619D01*
X34443333Y-67961904D01*
X34586190Y-67580952D01*
X34705238Y-67390476D01*
X34919523Y-67200000D01*
X35217142Y-67104761D01*
X35407619Y-67104761D01*
X35681428Y-67200000D01*
X35764761Y-67295238D01*
X37193333Y-68057142D02*
X37467142Y-68152380D01*
X37550476Y-68247619D01*
X37621904Y-68438095D01*
X37586190Y-68723809D01*
X37467142Y-68914285D01*
X37359999Y-69009523D01*
X37157619Y-69104761D01*
X36395714Y-69104761D01*
X36645714Y-67104761D01*
X37312380Y-67104761D01*
X37490952Y-67200000D01*
X37574285Y-67295238D01*
X37645714Y-67485714D01*
X37621904Y-67676190D01*
X37502857Y-67866666D01*
X37395714Y-67961904D01*
X37193333Y-68057142D01*
X36526666Y-68057142D01*
X39919523Y-69104761D02*
X40169523Y-67104761D01*
X40645714Y-67104761D01*
X40919523Y-67200000D01*
X41086190Y-67390476D01*
X41157619Y-67580952D01*
X41205238Y-67961904D01*
X41169523Y-68247619D01*
X41026666Y-68628571D01*
X40907619Y-68819047D01*
X40693333Y-69009523D01*
X40395714Y-69104761D01*
X39919523Y-69104761D01*
X42693333Y-69009523D02*
X42490952Y-69104761D01*
X42109999Y-69104761D01*
X41931428Y-69009523D01*
X41859999Y-68819047D01*
X41955238Y-68057142D01*
X42074285Y-67866666D01*
X42276666Y-67771428D01*
X42657619Y-67771428D01*
X42836190Y-67866666D01*
X42907619Y-68057142D01*
X42883809Y-68247619D01*
X41907619Y-68438095D01*
X43550476Y-69009523D02*
X43729047Y-69104761D01*
X44109999Y-69104761D01*
X44312380Y-69009523D01*
X44431428Y-68819047D01*
X44443333Y-68723809D01*
X44371904Y-68533333D01*
X44193333Y-68438095D01*
X43907619Y-68438095D01*
X43729047Y-68342857D01*
X43657619Y-68152380D01*
X43669523Y-68057142D01*
X43788571Y-67866666D01*
X43990952Y-67771428D01*
X44276666Y-67771428D01*
X44455238Y-67866666D01*
X45252857Y-69104761D02*
X45419523Y-67771428D01*
X45502857Y-67104761D02*
X45395714Y-67200000D01*
X45479047Y-67295238D01*
X45586190Y-67200000D01*
X45502857Y-67104761D01*
X45479047Y-67295238D01*
X47229047Y-67771428D02*
X47026666Y-69390476D01*
X46907619Y-69580952D01*
X46800476Y-69676190D01*
X46598095Y-69771428D01*
X46312380Y-69771428D01*
X46133809Y-69676190D01*
X47074285Y-69009523D02*
X46871904Y-69104761D01*
X46490952Y-69104761D01*
X46312380Y-69009523D01*
X46229047Y-68914285D01*
X46157619Y-68723809D01*
X46229047Y-68152380D01*
X46348095Y-67961904D01*
X46455238Y-67866666D01*
X46657619Y-67771428D01*
X47038571Y-67771428D01*
X47217142Y-67866666D01*
X48181428Y-67771428D02*
X48014761Y-69104761D01*
X48157619Y-67961904D02*
X48264761Y-67866666D01*
X48467142Y-67771428D01*
X48752857Y-67771428D01*
X48931428Y-67866666D01*
X49002857Y-68057142D01*
X48871904Y-69104761D01*
D10*
D11*
X-16467857Y-64492857D02*
X-16967857Y-64492857D01*
X-16967857Y-65278571D02*
X-16967857Y-63778571D01*
X-16253571Y-63778571D01*
X-15682142Y-65278571D02*
X-15682142Y-64278571D01*
X-15682142Y-63778571D02*
X-15753571Y-63850000D01*
X-15682142Y-63921428D01*
X-15610714Y-63850000D01*
X-15682142Y-63778571D01*
X-15682142Y-63921428D01*
X-14753571Y-65278571D02*
X-14896428Y-65207142D01*
X-14967857Y-65064285D01*
X-14967857Y-63778571D01*
X-13610714Y-65207142D02*
X-13753571Y-65278571D01*
X-14039285Y-65278571D01*
X-14182142Y-65207142D01*
X-14253571Y-65064285D01*
X-14253571Y-64492857D01*
X-14182142Y-64350000D01*
X-14039285Y-64278571D01*
X-13753571Y-64278571D01*
X-13610714Y-64350000D01*
X-13539285Y-64492857D01*
X-13539285Y-64635714D01*
X-14253571Y-64778571D01*
X-12896428Y-65135714D02*
X-12825000Y-65207142D01*
X-12896428Y-65278571D01*
X-12967857Y-65207142D01*
X-12896428Y-65135714D01*
X-12896428Y-65278571D01*
X-12896428Y-64350000D02*
X-12825000Y-64421428D01*
X-12896428Y-64492857D01*
X-12967857Y-64421428D01*
X-12896428Y-64350000D01*
X-12896428Y-64492857D01*
X-10182142Y-65278571D02*
X-10682142Y-64564285D01*
X-11039285Y-65278571D02*
X-11039285Y-63778571D01*
X-10467857Y-63778571D01*
X-10325000Y-63850000D01*
X-10253571Y-63921428D01*
X-10182142Y-64064285D01*
X-10182142Y-64278571D01*
X-10253571Y-64421428D01*
X-10325000Y-64492857D01*
X-10467857Y-64564285D01*
X-11039285Y-64564285D01*
X-9325000Y-65278571D02*
X-9467857Y-65207142D01*
X-9539285Y-65135714D01*
X-9610714Y-64992857D01*
X-9610714Y-64564285D01*
X-9539285Y-64421428D01*
X-9467857Y-64350000D01*
X-9325000Y-64278571D01*
X-9110714Y-64278571D01*
X-8967857Y-64350000D01*
X-8896428Y-64421428D01*
X-8825000Y-64564285D01*
X-8825000Y-64992857D01*
X-8896428Y-65135714D01*
X-8967857Y-65207142D01*
X-9110714Y-65278571D01*
X-9325000Y-65278571D01*
X-7539285Y-65207142D02*
X-7682142Y-65278571D01*
X-7967857Y-65278571D01*
X-8110714Y-65207142D01*
X-8182142Y-65135714D01*
X-8253571Y-64992857D01*
X-8253571Y-64564285D01*
X-8182142Y-64421428D01*
X-8110714Y-64350000D01*
X-7967857Y-64278571D01*
X-7682142Y-64278571D01*
X-7539285Y-64350000D01*
X-6896428Y-65278571D02*
X-6896428Y-63778571D01*
X-6753571Y-64707142D02*
X-6325000Y-65278571D01*
X-6325000Y-64278571D02*
X-6896428Y-64850000D01*
X-5110714Y-65207142D02*
X-5253571Y-65278571D01*
X-5539285Y-65278571D01*
X-5682142Y-65207142D01*
X-5753571Y-65064285D01*
X-5753571Y-64492857D01*
X-5682142Y-64350000D01*
X-5539285Y-64278571D01*
X-5253571Y-64278571D01*
X-5110714Y-64350000D01*
X-5039285Y-64492857D01*
X-5039285Y-64635714D01*
X-5753571Y-64778571D01*
X-4610714Y-64278571D02*
X-4039285Y-64278571D01*
X-4396428Y-63778571D02*
X-4396428Y-65064285D01*
X-4325000Y-65207142D01*
X-4182142Y-65278571D01*
X-4039285Y-65278571D01*
X-3539285Y-65278571D02*
X-3539285Y-63778571D01*
X-3539285Y-64492857D02*
X-2682142Y-64492857D01*
X-2682142Y-65278571D02*
X-2682142Y-63778571D01*
X-1325000Y-65278571D02*
X-1325000Y-64492857D01*
X-1396428Y-64350000D01*
X-1539285Y-64278571D01*
X-1825000Y-64278571D01*
X-1967857Y-64350000D01*
X-1325000Y-65207142D02*
X-1467857Y-65278571D01*
X-1825000Y-65278571D01*
X-1967857Y-65207142D01*
X-2039285Y-65064285D01*
X-2039285Y-64921428D01*
X-1967857Y-64778571D01*
X-1825000Y-64707142D01*
X-1467857Y-64707142D01*
X-1325000Y-64635714D01*
X-825000Y-64278571D02*
X-253571Y-64278571D01*
X-610714Y-63778571D02*
X-610714Y-65064285D01*
X-539285Y-65207142D01*
X-396428Y-65278571D01*
X-253571Y-65278571D01*
X246428Y-65135714D02*
X317857Y-65207142D01*
X246428Y-65278571D01*
X175000Y-65207142D01*
X246428Y-65135714D01*
X246428Y-65278571D01*
X960714Y-65278571D02*
X960714Y-63778571D01*
X1103571Y-64707142D02*
X1532142Y-65278571D01*
X1532142Y-64278571D02*
X960714Y-64850000D01*
X2174999Y-65278571D02*
X2174999Y-64278571D01*
X2174999Y-63778571D02*
X2103571Y-63850000D01*
X2174999Y-63921428D01*
X2246428Y-63850000D01*
X2174999Y-63778571D01*
X2174999Y-63921428D01*
X3532142Y-65207142D02*
X3389285Y-65278571D01*
X3103571Y-65278571D01*
X2960714Y-65207142D01*
X2889285Y-65135714D01*
X2817857Y-64992857D01*
X2817857Y-64564285D01*
X2889285Y-64421428D01*
X2960714Y-64350000D01*
X3103571Y-64278571D01*
X3389285Y-64278571D01*
X3532142Y-64350000D01*
X4817857Y-65278571D02*
X4817857Y-64492857D01*
X4746428Y-64350000D01*
X4603571Y-64278571D01*
X4317857Y-64278571D01*
X4174999Y-64350000D01*
X4817857Y-65207142D02*
X4674999Y-65278571D01*
X4317857Y-65278571D01*
X4174999Y-65207142D01*
X4103571Y-65064285D01*
X4103571Y-64921428D01*
X4174999Y-64778571D01*
X4317857Y-64707142D01*
X4674999Y-64707142D01*
X4817857Y-64635714D01*
X6174999Y-65278571D02*
X6174999Y-63778571D01*
X6174999Y-65207142D02*
X6032142Y-65278571D01*
X5746428Y-65278571D01*
X5603571Y-65207142D01*
X5532142Y-65135714D01*
X5460714Y-64992857D01*
X5460714Y-64564285D01*
X5532142Y-64421428D01*
X5603571Y-64350000D01*
X5746428Y-64278571D01*
X6032142Y-64278571D01*
X6174999Y-64350000D01*
X6532142Y-65421428D02*
X7674999Y-65421428D01*
X8032142Y-64278571D02*
X8032142Y-65778571D01*
X8032142Y-64350000D02*
X8174999Y-64278571D01*
X8460714Y-64278571D01*
X8603571Y-64350000D01*
X8674999Y-64421428D01*
X8746428Y-64564285D01*
X8746428Y-64992857D01*
X8674999Y-65135714D01*
X8603571Y-65207142D01*
X8460714Y-65278571D01*
X8174999Y-65278571D01*
X8032142Y-65207142D01*
X10032142Y-65207142D02*
X9889285Y-65278571D01*
X9603571Y-65278571D01*
X9460714Y-65207142D01*
X9389285Y-65135714D01*
X9317857Y-64992857D01*
X9317857Y-64564285D01*
X9389285Y-64421428D01*
X9460714Y-64350000D01*
X9603571Y-64278571D01*
X9889285Y-64278571D01*
X10032142Y-64350000D01*
X10675000Y-65278571D02*
X10675000Y-63778571D01*
X10675000Y-64350000D02*
X10817857Y-64278571D01*
X11103571Y-64278571D01*
X11246428Y-64350000D01*
X11317857Y-64421428D01*
X11389285Y-64564285D01*
X11389285Y-64992857D01*
X11317857Y-65135714D01*
X11246428Y-65207142D01*
X11103571Y-65278571D01*
X10817857Y-65278571D01*
X10675000Y-65207142D01*
D10*
D11*
X-18400000Y-60400000D02*
X89600000Y-60400000D01*
D10*
D11*
X-17039285Y-62507142D02*
X-16825000Y-62578571D01*
X-16467857Y-62578571D01*
X-16325000Y-62507142D01*
X-16253571Y-62435714D01*
X-16182142Y-62292857D01*
X-16182142Y-62150000D01*
X-16253571Y-62007142D01*
X-16325000Y-61935714D01*
X-16467857Y-61864285D01*
X-16753571Y-61792857D01*
X-16896428Y-61721428D01*
X-16967857Y-61650000D01*
X-17039285Y-61507142D01*
X-17039285Y-61364285D01*
X-16967857Y-61221428D01*
X-16896428Y-61150000D01*
X-16753571Y-61078571D01*
X-16396428Y-61078571D01*
X-16182142Y-61150000D01*
X-15539285Y-62578571D02*
X-15539285Y-61078571D01*
X-14896428Y-62578571D02*
X-14896428Y-61792857D01*
X-14967857Y-61650000D01*
X-15110714Y-61578571D01*
X-15325000Y-61578571D01*
X-15467857Y-61650000D01*
X-15539285Y-61721428D01*
X-13610714Y-62507142D02*
X-13753571Y-62578571D01*
X-14039285Y-62578571D01*
X-14182142Y-62507142D01*
X-14253571Y-62364285D01*
X-14253571Y-61792857D01*
X-14182142Y-61650000D01*
X-14039285Y-61578571D01*
X-13753571Y-61578571D01*
X-13610714Y-61650000D01*
X-13539285Y-61792857D01*
X-13539285Y-61935714D01*
X-14253571Y-62078571D01*
X-12325000Y-62507142D02*
X-12467857Y-62578571D01*
X-12753571Y-62578571D01*
X-12896428Y-62507142D01*
X-12967857Y-62364285D01*
X-12967857Y-61792857D01*
X-12896428Y-61650000D01*
X-12753571Y-61578571D01*
X-12467857Y-61578571D01*
X-12325000Y-61650000D01*
X-12253571Y-61792857D01*
X-12253571Y-61935714D01*
X-12967857Y-62078571D01*
X-11825000Y-61578571D02*
X-11253571Y-61578571D01*
X-11610714Y-61078571D02*
X-11610714Y-62364285D01*
X-11539285Y-62507142D01*
X-11396428Y-62578571D01*
X-11253571Y-62578571D01*
X-10753571Y-62435714D02*
X-10682142Y-62507142D01*
X-10753571Y-62578571D01*
X-10825000Y-62507142D01*
X-10753571Y-62435714D01*
X-10753571Y-62578571D01*
X-10753571Y-61650000D02*
X-10682142Y-61721428D01*
X-10753571Y-61792857D01*
X-10825000Y-61721428D01*
X-10753571Y-61650000D01*
X-10753571Y-61792857D01*
D10*
D12*
X-15990714Y-59578571D02*
X-16490714Y-58864285D01*
X-16847857Y-59578571D02*
X-16847857Y-58078571D01*
X-16276428Y-58078571D01*
X-16133571Y-58150000D01*
X-16062142Y-58221428D01*
X-15990714Y-58364285D01*
X-15990714Y-58578571D01*
X-16062142Y-58721428D01*
X-16133571Y-58792857D01*
X-16276428Y-58864285D01*
X-16847857Y-58864285D01*
X-15133571Y-59578571D02*
X-15276428Y-59507142D01*
X-15347857Y-59435714D01*
X-15419285Y-59292857D01*
X-15419285Y-58864285D01*
X-15347857Y-58721428D01*
X-15276428Y-58650000D01*
X-15133571Y-58578571D01*
X-14919285Y-58578571D01*
X-14776428Y-58650000D01*
X-14705000Y-58721428D01*
X-14633571Y-58864285D01*
X-14633571Y-59292857D01*
X-14705000Y-59435714D01*
X-14776428Y-59507142D01*
X-14919285Y-59578571D01*
X-15133571Y-59578571D01*
X-14062142Y-59507142D02*
X-13919285Y-59578571D01*
X-13633571Y-59578571D01*
X-13490714Y-59507142D01*
X-13419285Y-59364285D01*
X-13419285Y-59292857D01*
X-13490714Y-59150000D01*
X-13633571Y-59078571D01*
X-13847857Y-59078571D01*
X-13990714Y-59007142D01*
X-14062142Y-58864285D01*
X-14062142Y-58792857D01*
X-13990714Y-58650000D01*
X-13847857Y-58578571D01*
X-13633571Y-58578571D01*
X-13490714Y-58650000D01*
X-12205000Y-59507142D02*
X-12347857Y-59578571D01*
X-12633571Y-59578571D01*
X-12776428Y-59507142D01*
X-12847857Y-59364285D01*
X-12847857Y-58792857D01*
X-12776428Y-58650000D01*
X-12633571Y-58578571D01*
X-12347857Y-58578571D01*
X-12205000Y-58650000D01*
X-12133571Y-58792857D01*
X-12133571Y-58935714D01*
X-12847857Y-59078571D01*
X-11490714Y-59007142D02*
X-10347857Y-59007142D01*
X-9633571Y-59578571D02*
X-9633571Y-58078571D01*
X-9633571Y-58792857D02*
X-8776428Y-58792857D01*
X-8776428Y-59578571D02*
X-8776428Y-58078571D01*
X-7419285Y-58578571D02*
X-7419285Y-59578571D01*
X-8062142Y-58578571D02*
X-8062142Y-59364285D01*
X-7990714Y-59507142D01*
X-7847857Y-59578571D01*
X-7633571Y-59578571D01*
X-7490714Y-59507142D01*
X-7419285Y-59435714D01*
X-6490714Y-59578571D02*
X-6633571Y-59507142D01*
X-6705000Y-59364285D01*
X-6705000Y-58078571D01*
X-5919285Y-59578571D02*
X-5919285Y-58578571D01*
X-5919285Y-58721428D02*
X-5847857Y-58650000D01*
X-5705000Y-58578571D01*
X-5490714Y-58578571D01*
X-5347857Y-58650000D01*
X-5276428Y-58792857D01*
X-5276428Y-59578571D01*
X-5276428Y-58792857D02*
X-5205000Y-58650000D01*
X-5062142Y-58578571D01*
X-4847857Y-58578571D01*
X-4705000Y-58650000D01*
X-4633571Y-58792857D01*
X-4633571Y-59578571D01*
X-3276428Y-59578571D02*
X-3276428Y-58792857D01*
X-3347857Y-58650000D01*
X-3490714Y-58578571D01*
X-3776428Y-58578571D01*
X-3919285Y-58650000D01*
X-3276428Y-59507142D02*
X-3419285Y-59578571D01*
X-3776428Y-59578571D01*
X-3919285Y-59507142D01*
X-3990714Y-59364285D01*
X-3990714Y-59221428D01*
X-3919285Y-59078571D01*
X-3776428Y-59007142D01*
X-3419285Y-59007142D01*
X-3276428Y-58935714D01*
X-2562142Y-58578571D02*
X-2562142Y-59578571D01*
X-2562142Y-58721428D02*
X-2490714Y-58650000D01*
X-2347857Y-58578571D01*
X-2133571Y-58578571D01*
X-1990714Y-58650000D01*
X-1919285Y-58792857D01*
X-1919285Y-59578571D01*
X794999Y-59578571D02*
X294999Y-58864285D01*
X-62142Y-59578571D02*
X-62142Y-58078571D01*
X509285Y-58078571D01*
X652142Y-58150000D01*
X723571Y-58221428D01*
X794999Y-58364285D01*
X794999Y-58578571D01*
X723571Y-58721428D01*
X652142Y-58792857D01*
X509285Y-58864285D01*
X-62142Y-58864285D01*
X1652142Y-59578571D02*
X1509285Y-59507142D01*
X1437857Y-59435714D01*
X1366428Y-59292857D01*
X1366428Y-58864285D01*
X1437857Y-58721428D01*
X1509285Y-58650000D01*
X1652142Y-58578571D01*
X1866428Y-58578571D01*
X2009285Y-58650000D01*
X2080714Y-58721428D01*
X2152142Y-58864285D01*
X2152142Y-59292857D01*
X2080714Y-59435714D01*
X2009285Y-59507142D01*
X1866428Y-59578571D01*
X1652142Y-59578571D01*
X3437857Y-59507142D02*
X3295000Y-59578571D01*
X3009285Y-59578571D01*
X2866428Y-59507142D01*
X2795000Y-59435714D01*
X2723571Y-59292857D01*
X2723571Y-58864285D01*
X2795000Y-58721428D01*
X2866428Y-58650000D01*
X3009285Y-58578571D01*
X3295000Y-58578571D01*
X3437857Y-58650000D01*
X4080714Y-59578571D02*
X4080714Y-58078571D01*
X4223571Y-59007142D02*
X4652142Y-59578571D01*
X4652142Y-58578571D02*
X4080714Y-59150000D01*
X5866428Y-59507142D02*
X5723571Y-59578571D01*
X5437857Y-59578571D01*
X5295000Y-59507142D01*
X5223571Y-59364285D01*
X5223571Y-58792857D01*
X5295000Y-58650000D01*
X5437857Y-58578571D01*
X5723571Y-58578571D01*
X5866428Y-58650000D01*
X5937857Y-58792857D01*
X5937857Y-58935714D01*
X5223571Y-59078571D01*
X6366428Y-58578571D02*
X6937857Y-58578571D01*
X6580714Y-58078571D02*
X6580714Y-59364285D01*
X6652142Y-59507142D01*
X6795000Y-59578571D01*
X6937857Y-59578571D01*
X7437857Y-59578571D02*
X7437857Y-58578571D01*
X7437857Y-58864285D02*
X7509285Y-58721428D01*
X7580714Y-58650000D01*
X7723571Y-58578571D01*
X7866428Y-58578571D01*
X8223571Y-58578571D02*
X8580714Y-59578571D01*
X8937857Y-58578571D02*
X8580714Y-59578571D01*
X8437857Y-59935714D01*
X8366428Y-60007142D01*
X8223571Y-60078571D01*
X11509285Y-59435714D02*
X11437857Y-59507142D01*
X11223571Y-59578571D01*
X11080714Y-59578571D01*
X10866428Y-59507142D01*
X10723571Y-59364285D01*
X10652142Y-59221428D01*
X10580714Y-58935714D01*
X10580714Y-58721428D01*
X10652142Y-58435714D01*
X10723571Y-58292857D01*
X10866428Y-58150000D01*
X11080714Y-58078571D01*
X11223571Y-58078571D01*
X11437857Y-58150000D01*
X11509285Y-58221428D01*
X12366428Y-59578571D02*
X12223571Y-59507142D01*
X12152142Y-59364285D01*
X12152142Y-58078571D01*
X13580714Y-58578571D02*
X13580714Y-59578571D01*
X12937857Y-58578571D02*
X12937857Y-59364285D01*
X13009285Y-59507142D01*
X13152142Y-59578571D01*
X13366428Y-59578571D01*
X13509285Y-59507142D01*
X13580714Y-59435714D01*
X14295000Y-59578571D02*
X14295000Y-58078571D01*
X14295000Y-58650000D02*
X14437857Y-58578571D01*
X14723571Y-58578571D01*
X14866428Y-58650000D01*
X14937857Y-58721428D01*
X15009285Y-58864285D01*
X15009285Y-59292857D01*
X14937857Y-59435714D01*
X14866428Y-59507142D01*
X14723571Y-59578571D01*
X14437857Y-59578571D01*
X14295000Y-59507142D01*
D10*
D11*
D10*
D11*
X-16967857Y-53578571D02*
X-16967857Y-52078571D01*
X-16325000Y-53578571D02*
X-16325000Y-52792857D01*
X-16396428Y-52650000D01*
X-16539285Y-52578571D01*
X-16753571Y-52578571D01*
X-16896428Y-52650000D01*
X-16967857Y-52721428D01*
X-15825000Y-52578571D02*
X-15253571Y-52578571D01*
X-15610714Y-52078571D02*
X-15610714Y-53364285D01*
X-15539285Y-53507142D01*
X-15396428Y-53578571D01*
X-15253571Y-53578571D01*
X-14967857Y-52578571D02*
X-14396428Y-52578571D01*
X-14753571Y-52078571D02*
X-14753571Y-53364285D01*
X-14682142Y-53507142D01*
X-14539285Y-53578571D01*
X-14396428Y-53578571D01*
X-13896428Y-52578571D02*
X-13896428Y-54078571D01*
X-13896428Y-52650000D02*
X-13753571Y-52578571D01*
X-13467857Y-52578571D01*
X-13325000Y-52650000D01*
X-13253571Y-52721428D01*
X-13182142Y-52864285D01*
X-13182142Y-53292857D01*
X-13253571Y-53435714D01*
X-13325000Y-53507142D01*
X-13467857Y-53578571D01*
X-13753571Y-53578571D01*
X-13896428Y-53507142D01*
X-12610714Y-53507142D02*
X-12467857Y-53578571D01*
X-12182142Y-53578571D01*
X-12039285Y-53507142D01*
X-11967857Y-53364285D01*
X-11967857Y-53292857D01*
X-12039285Y-53150000D01*
X-12182142Y-53078571D01*
X-12396428Y-53078571D01*
X-12539285Y-53007142D01*
X-12610714Y-52864285D01*
X-12610714Y-52792857D01*
X-12539285Y-52650000D01*
X-12396428Y-52578571D01*
X-12182142Y-52578571D01*
X-12039285Y-52650000D01*
X-11325000Y-53435714D02*
X-11253571Y-53507142D01*
X-11325000Y-53578571D01*
X-11396428Y-53507142D01*
X-11325000Y-53435714D01*
X-11325000Y-53578571D01*
X-11325000Y-52650000D02*
X-11253571Y-52721428D01*
X-11325000Y-52792857D01*
X-11396428Y-52721428D01*
X-11325000Y-52650000D01*
X-11325000Y-52792857D01*
X-9539285Y-52007142D02*
X-10825000Y-53935714D01*
X-7967857Y-52007142D02*
X-9253571Y-53935714D01*
X-6825000Y-53507142D02*
X-6967857Y-53578571D01*
X-7253571Y-53578571D01*
X-7396428Y-53507142D01*
X-7467857Y-53435714D01*
X-7539285Y-53292857D01*
X-7539285Y-52864285D01*
X-7467857Y-52721428D01*
X-7396428Y-52650000D01*
X-7253571Y-52578571D01*
X-6967857Y-52578571D01*
X-6825000Y-52650000D01*
X-6182142Y-53578571D02*
X-6182142Y-52578571D01*
X-6182142Y-52864285D02*
X-6110714Y-52721428D01*
X-6039285Y-52650000D01*
X-5896428Y-52578571D01*
X-5753571Y-52578571D01*
X-4682142Y-53507142D02*
X-4825000Y-53578571D01*
X-5110714Y-53578571D01*
X-5253571Y-53507142D01*
X-5325000Y-53364285D01*
X-5325000Y-52792857D01*
X-5253571Y-52650000D01*
X-5110714Y-52578571D01*
X-4825000Y-52578571D01*
X-4682142Y-52650000D01*
X-4610714Y-52792857D01*
X-4610714Y-52935714D01*
X-5325000Y-53078571D01*
X-3325000Y-53578571D02*
X-3325000Y-52792857D01*
X-3396428Y-52650000D01*
X-3539285Y-52578571D01*
X-3825000Y-52578571D01*
X-3967857Y-52650000D01*
X-3325000Y-53507142D02*
X-3467857Y-53578571D01*
X-3825000Y-53578571D01*
X-3967857Y-53507142D01*
X-4039285Y-53364285D01*
X-4039285Y-53221428D01*
X-3967857Y-53078571D01*
X-3825000Y-53007142D01*
X-3467857Y-53007142D01*
X-3325000Y-52935714D01*
X-2825000Y-52578571D02*
X-2253571Y-52578571D01*
X-2610714Y-52078571D02*
X-2610714Y-53364285D01*
X-2539285Y-53507142D01*
X-2396428Y-53578571D01*
X-2253571Y-53578571D01*
X-1753571Y-53578571D02*
X-1753571Y-52578571D01*
X-1753571Y-52078571D02*
X-1825000Y-52150000D01*
X-1753571Y-52221428D01*
X-1682142Y-52150000D01*
X-1753571Y-52078571D01*
X-1753571Y-52221428D01*
X-1182142Y-52578571D02*
X-825000Y-53578571D01*
X-467857Y-52578571D01*
X675000Y-53507142D02*
X532142Y-53578571D01*
X246428Y-53578571D01*
X103571Y-53507142D01*
X32142Y-53364285D01*
X32142Y-52792857D01*
X103571Y-52650000D01*
X246428Y-52578571D01*
X532142Y-52578571D01*
X675000Y-52650000D01*
X746428Y-52792857D01*
X746428Y-52935714D01*
X32142Y-53078571D01*
X2032142Y-53507142D02*
X1889285Y-53578571D01*
X1603571Y-53578571D01*
X1460714Y-53507142D01*
X1389285Y-53435714D01*
X1317857Y-53292857D01*
X1317857Y-52864285D01*
X1389285Y-52721428D01*
X1460714Y-52650000D01*
X1603571Y-52578571D01*
X1889285Y-52578571D01*
X2032142Y-52650000D01*
X2889285Y-53578571D02*
X2746428Y-53507142D01*
X2675000Y-53435714D01*
X2603571Y-53292857D01*
X2603571Y-52864285D01*
X2675000Y-52721428D01*
X2746428Y-52650000D01*
X2889285Y-52578571D01*
X3103571Y-52578571D01*
X3246428Y-52650000D01*
X3317857Y-52721428D01*
X3389285Y-52864285D01*
X3389285Y-53292857D01*
X3317857Y-53435714D01*
X3246428Y-53507142D01*
X3103571Y-53578571D01*
X2889285Y-53578571D01*
X4032142Y-53578571D02*
X4032142Y-52578571D01*
X4032142Y-52721428D02*
X4103571Y-52650000D01*
X4246428Y-52578571D01*
X4460714Y-52578571D01*
X4603571Y-52650000D01*
X4675000Y-52792857D01*
X4675000Y-53578571D01*
X4675000Y-52792857D02*
X4746428Y-52650000D01*
X4889285Y-52578571D01*
X5103571Y-52578571D01*
X5246428Y-52650000D01*
X5317857Y-52792857D01*
X5317857Y-53578571D01*
X6032142Y-53578571D02*
X6032142Y-52578571D01*
X6032142Y-52721428D02*
X6103571Y-52650000D01*
X6246428Y-52578571D01*
X6460714Y-52578571D01*
X6603571Y-52650000D01*
X6675000Y-52792857D01*
X6675000Y-53578571D01*
X6675000Y-52792857D02*
X6746428Y-52650000D01*
X6889285Y-52578571D01*
X7103571Y-52578571D01*
X7246428Y-52650000D01*
X7317857Y-52792857D01*
X7317857Y-53578571D01*
X8246428Y-53578571D02*
X8103571Y-53507142D01*
X8032142Y-53435714D01*
X7960714Y-53292857D01*
X7960714Y-52864285D01*
X8032142Y-52721428D01*
X8103571Y-52650000D01*
X8246428Y-52578571D01*
X8460714Y-52578571D01*
X8603571Y-52650000D01*
X8675000Y-52721428D01*
X8746428Y-52864285D01*
X8746428Y-53292857D01*
X8675000Y-53435714D01*
X8603571Y-53507142D01*
X8460714Y-53578571D01*
X8246428Y-53578571D01*
X9389285Y-52578571D02*
X9389285Y-53578571D01*
X9389285Y-52721428D02*
X9460714Y-52650000D01*
X9603571Y-52578571D01*
X9817857Y-52578571D01*
X9960714Y-52650000D01*
X10032142Y-52792857D01*
X10032142Y-53578571D01*
X10675000Y-53507142D02*
X10817857Y-53578571D01*
X11103571Y-53578571D01*
X11246428Y-53507142D01*
X11317857Y-53364285D01*
X11317857Y-53292857D01*
X11246428Y-53150000D01*
X11103571Y-53078571D01*
X10889285Y-53078571D01*
X10746428Y-53007142D01*
X10675000Y-52864285D01*
X10675000Y-52792857D01*
X10746428Y-52650000D01*
X10889285Y-52578571D01*
X11103571Y-52578571D01*
X11246428Y-52650000D01*
X11960714Y-53435714D02*
X12032142Y-53507142D01*
X11960714Y-53578571D01*
X11889285Y-53507142D01*
X11960714Y-53435714D01*
X11960714Y-53578571D01*
X12889285Y-53578571D02*
X12746428Y-53507142D01*
X12675000Y-53435714D01*
X12603571Y-53292857D01*
X12603571Y-52864285D01*
X12675000Y-52721428D01*
X12746428Y-52650000D01*
X12889285Y-52578571D01*
X13103571Y-52578571D01*
X13246428Y-52650000D01*
X13317857Y-52721428D01*
X13389285Y-52864285D01*
X13389285Y-53292857D01*
X13317857Y-53435714D01*
X13246428Y-53507142D01*
X13103571Y-53578571D01*
X12889285Y-53578571D01*
X14032142Y-53578571D02*
X14032142Y-52578571D01*
X14032142Y-52864285D02*
X14103571Y-52721428D01*
X14175000Y-52650000D01*
X14317857Y-52578571D01*
X14460714Y-52578571D01*
X15603571Y-52578571D02*
X15603571Y-53792857D01*
X15532142Y-53935714D01*
X15460714Y-54007142D01*
X15317857Y-54078571D01*
X15103571Y-54078571D01*
X14960714Y-54007142D01*
X15603571Y-53507142D02*
X15460714Y-53578571D01*
X15175000Y-53578571D01*
X15032142Y-53507142D01*
X14960714Y-53435714D01*
X14889285Y-53292857D01*
X14889285Y-52864285D01*
X14960714Y-52721428D01*
X15032142Y-52650000D01*
X15175000Y-52578571D01*
X15460714Y-52578571D01*
X15603571Y-52650000D01*
X17389285Y-52007142D02*
X16103571Y-53935714D01*
X18103571Y-53578571D02*
X17960714Y-53507142D01*
X17889285Y-53364285D01*
X17889285Y-52078571D01*
X18675000Y-53578571D02*
X18675000Y-52578571D01*
X18675000Y-52078571D02*
X18603571Y-52150000D01*
X18675000Y-52221428D01*
X18746428Y-52150000D01*
X18675000Y-52078571D01*
X18675000Y-52221428D01*
X20032142Y-53507142D02*
X19889285Y-53578571D01*
X19603571Y-53578571D01*
X19460714Y-53507142D01*
X19389285Y-53435714D01*
X19317857Y-53292857D01*
X19317857Y-52864285D01*
X19389285Y-52721428D01*
X19460714Y-52650000D01*
X19603571Y-52578571D01*
X19889285Y-52578571D01*
X20032142Y-52650000D01*
X21246428Y-53507142D02*
X21103571Y-53578571D01*
X20817857Y-53578571D01*
X20675000Y-53507142D01*
X20603571Y-53364285D01*
X20603571Y-52792857D01*
X20675000Y-52650000D01*
X20817857Y-52578571D01*
X21103571Y-52578571D01*
X21246428Y-52650000D01*
X21317857Y-52792857D01*
X21317857Y-52935714D01*
X20603571Y-53078571D01*
X21960714Y-52578571D02*
X21960714Y-53578571D01*
X21960714Y-52721428D02*
X22032142Y-52650000D01*
X22175000Y-52578571D01*
X22389285Y-52578571D01*
X22532142Y-52650000D01*
X22603571Y-52792857D01*
X22603571Y-53578571D01*
X23246428Y-53507142D02*
X23389285Y-53578571D01*
X23675000Y-53578571D01*
X23817857Y-53507142D01*
X23889285Y-53364285D01*
X23889285Y-53292857D01*
X23817857Y-53150000D01*
X23675000Y-53078571D01*
X23460714Y-53078571D01*
X23317857Y-53007142D01*
X23246428Y-52864285D01*
X23246428Y-52792857D01*
X23317857Y-52650000D01*
X23460714Y-52578571D01*
X23675000Y-52578571D01*
X23817857Y-52650000D01*
X25103571Y-53507142D02*
X24960714Y-53578571D01*
X24675000Y-53578571D01*
X24532142Y-53507142D01*
X24460714Y-53364285D01*
X24460714Y-52792857D01*
X24532142Y-52650000D01*
X24675000Y-52578571D01*
X24960714Y-52578571D01*
X25103571Y-52650000D01*
X25175000Y-52792857D01*
X25175000Y-52935714D01*
X24460714Y-53078571D01*
X25746428Y-53507142D02*
X25889285Y-53578571D01*
X26175000Y-53578571D01*
X26317857Y-53507142D01*
X26389285Y-53364285D01*
X26389285Y-53292857D01*
X26317857Y-53150000D01*
X26175000Y-53078571D01*
X25960714Y-53078571D01*
X25817857Y-53007142D01*
X25746428Y-52864285D01*
X25746428Y-52792857D01*
X25817857Y-52650000D01*
X25960714Y-52578571D01*
X26175000Y-52578571D01*
X26317857Y-52650000D01*
X28103571Y-52007142D02*
X26817857Y-53935714D01*
X28603571Y-53578571D02*
X28603571Y-52078571D01*
X28603571Y-52650000D02*
X28746428Y-52578571D01*
X29032142Y-52578571D01*
X29175000Y-52650000D01*
X29246428Y-52721428D01*
X29317857Y-52864285D01*
X29317857Y-53292857D01*
X29246428Y-53435714D01*
X29175000Y-53507142D01*
X29032142Y-53578571D01*
X28746428Y-53578571D01*
X28603571Y-53507142D01*
X29817857Y-52578571D02*
X30175000Y-53578571D01*
X30532142Y-52578571D02*
X30175000Y-53578571D01*
X30032142Y-53935714D01*
X29960714Y-54007142D01*
X29817857Y-54078571D01*
X31103571Y-53007142D02*
X32246428Y-53007142D01*
X32889285Y-53507142D02*
X33032142Y-53578571D01*
X33317857Y-53578571D01*
X33460714Y-53507142D01*
X33532142Y-53364285D01*
X33532142Y-53292857D01*
X33460714Y-53150000D01*
X33317857Y-53078571D01*
X33103571Y-53078571D01*
X32960714Y-53007142D01*
X32889285Y-52864285D01*
X32889285Y-52792857D01*
X32960714Y-52650000D01*
X33103571Y-52578571D01*
X33317857Y-52578571D01*
X33460714Y-52650000D01*
X34817857Y-53578571D02*
X34817857Y-52792857D01*
X34746428Y-52650000D01*
X34603571Y-52578571D01*
X34317857Y-52578571D01*
X34175000Y-52650000D01*
X34817857Y-53507142D02*
X34675000Y-53578571D01*
X34317857Y-53578571D01*
X34175000Y-53507142D01*
X34103571Y-53364285D01*
X34103571Y-53221428D01*
X34175000Y-53078571D01*
X34317857Y-53007142D01*
X34675000Y-53007142D01*
X34817857Y-52935714D01*
X36603571Y-52007142D02*
X35317857Y-53935714D01*
X37746428Y-52578571D02*
X37746428Y-53578571D01*
X37389285Y-52007142D02*
X37032142Y-53078571D01*
X37960714Y-53078571D01*
X38532142Y-53435714D02*
X38603571Y-53507142D01*
X38532142Y-53578571D01*
X38460714Y-53507142D01*
X38532142Y-53435714D01*
X38532142Y-53578571D01*
X39532142Y-52078571D02*
X39675000Y-52078571D01*
X39817857Y-52150000D01*
X39889285Y-52221428D01*
X39960714Y-52364285D01*
X40032142Y-52650000D01*
X40032142Y-53007142D01*
X39960714Y-53292857D01*
X39889285Y-53435714D01*
X39817857Y-53507142D01*
X39675000Y-53578571D01*
X39532142Y-53578571D01*
X39389285Y-53507142D01*
X39317857Y-53435714D01*
X39246428Y-53292857D01*
X39175000Y-53007142D01*
X39175000Y-52650000D01*
X39246428Y-52364285D01*
X39317857Y-52221428D01*
X39389285Y-52150000D01*
X39532142Y-52078571D01*
X41746428Y-52007142D02*
X40460714Y-53935714D01*
D10*
D11*
X-16253571Y-50578571D02*
X-16967857Y-50578571D01*
X-16967857Y-49078571D01*
X-15753571Y-50578571D02*
X-15753571Y-49578571D01*
X-15753571Y-49078571D02*
X-15825000Y-49150000D01*
X-15753571Y-49221428D01*
X-15682142Y-49150000D01*
X-15753571Y-49078571D01*
X-15753571Y-49221428D01*
X-14396428Y-50507142D02*
X-14539285Y-50578571D01*
X-14825000Y-50578571D01*
X-14967857Y-50507142D01*
X-15039285Y-50435714D01*
X-15110714Y-50292857D01*
X-15110714Y-49864285D01*
X-15039285Y-49721428D01*
X-14967857Y-49650000D01*
X-14825000Y-49578571D01*
X-14539285Y-49578571D01*
X-14396428Y-49650000D01*
X-13182142Y-50507142D02*
X-13325000Y-50578571D01*
X-13610714Y-50578571D01*
X-13753571Y-50507142D01*
X-13825000Y-50364285D01*
X-13825000Y-49792857D01*
X-13753571Y-49650000D01*
X-13610714Y-49578571D01*
X-13325000Y-49578571D01*
X-13182142Y-49650000D01*
X-13110714Y-49792857D01*
X-13110714Y-49935714D01*
X-13825000Y-50078571D01*
X-12467857Y-49578571D02*
X-12467857Y-50578571D01*
X-12467857Y-49721428D02*
X-12396428Y-49650000D01*
X-12253571Y-49578571D01*
X-12039285Y-49578571D01*
X-11896428Y-49650000D01*
X-11825000Y-49792857D01*
X-11825000Y-50578571D01*
X-11182142Y-50507142D02*
X-11039285Y-50578571D01*
X-10753571Y-50578571D01*
X-10610714Y-50507142D01*
X-10539285Y-50364285D01*
X-10539285Y-50292857D01*
X-10610714Y-50150000D01*
X-10753571Y-50078571D01*
X-10967857Y-50078571D01*
X-11110714Y-50007142D01*
X-11182142Y-49864285D01*
X-11182142Y-49792857D01*
X-11110714Y-49650000D01*
X-10967857Y-49578571D01*
X-10753571Y-49578571D01*
X-10610714Y-49650000D01*
X-9325000Y-50507142D02*
X-9467857Y-50578571D01*
X-9753571Y-50578571D01*
X-9896428Y-50507142D01*
X-9967857Y-50364285D01*
X-9967857Y-49792857D01*
X-9896428Y-49650000D01*
X-9753571Y-49578571D01*
X-9467857Y-49578571D01*
X-9325000Y-49650000D01*
X-9253571Y-49792857D01*
X-9253571Y-49935714D01*
X-9967857Y-50078571D01*
X-8610714Y-50435714D02*
X-8539285Y-50507142D01*
X-8610714Y-50578571D01*
X-8682142Y-50507142D01*
X-8610714Y-50435714D01*
X-8610714Y-50578571D01*
X-8610714Y-49650000D02*
X-8539285Y-49721428D01*
X-8610714Y-49792857D01*
X-8682142Y-49721428D01*
X-8610714Y-49650000D01*
X-8610714Y-49792857D01*
X-5896428Y-50435714D02*
X-5967857Y-50507142D01*
X-6182142Y-50578571D01*
X-6325000Y-50578571D01*
X-6539285Y-50507142D01*
X-6682142Y-50364285D01*
X-6753571Y-50221428D01*
X-6825000Y-49935714D01*
X-6825000Y-49721428D01*
X-6753571Y-49435714D01*
X-6682142Y-49292857D01*
X-6539285Y-49150000D01*
X-6325000Y-49078571D01*
X-6182142Y-49078571D01*
X-5967857Y-49150000D01*
X-5896428Y-49221428D01*
X-4396428Y-50435714D02*
X-4467857Y-50507142D01*
X-4682142Y-50578571D01*
X-4825000Y-50578571D01*
X-5039285Y-50507142D01*
X-5182142Y-50364285D01*
X-5253571Y-50221428D01*
X-5325000Y-49935714D01*
X-5325000Y-49721428D01*
X-5253571Y-49435714D01*
X-5182142Y-49292857D01*
X-5039285Y-49150000D01*
X-4825000Y-49078571D01*
X-4682142Y-49078571D01*
X-4467857Y-49150000D01*
X-4396428Y-49221428D01*
X-2110714Y-49792857D02*
X-1896428Y-49864285D01*
X-1825000Y-49935714D01*
X-1753571Y-50078571D01*
X-1753571Y-50292857D01*
X-1825000Y-50435714D01*
X-1896428Y-50507142D01*
X-2039285Y-50578571D01*
X-2610714Y-50578571D01*
X-2610714Y-49078571D01*
X-2110714Y-49078571D01*
X-1967857Y-49150000D01*
X-1896428Y-49221428D01*
X-1825000Y-49364285D01*
X-1825000Y-49507142D01*
X-1896428Y-49650000D01*
X-1967857Y-49721428D01*
X-2110714Y-49792857D01*
X-2610714Y-49792857D01*
X-825000Y-49864285D02*
X-825000Y-50578571D01*
X-1325000Y-49078571D02*
X-825000Y-49864285D01*
X-325000Y-49078571D01*
X175000Y-50007142D02*
X1317857Y-50007142D01*
X1960714Y-50507142D02*
X2175000Y-50578571D01*
X2532142Y-50578571D01*
X2675000Y-50507142D01*
X2746428Y-50435714D01*
X2817857Y-50292857D01*
X2817857Y-50150000D01*
X2746428Y-50007142D01*
X2675000Y-49935714D01*
X2532142Y-49864285D01*
X2246428Y-49792857D01*
X2103571Y-49721428D01*
X2032142Y-49650000D01*
X1960714Y-49507142D01*
X1960714Y-49364285D01*
X2032142Y-49221428D01*
X2103571Y-49150000D01*
X2246428Y-49078571D01*
X2603571Y-49078571D01*
X2817857Y-49150000D01*
X3389285Y-50150000D02*
X4103571Y-50150000D01*
X3246428Y-50578571D02*
X3746428Y-49078571D01*
X4246428Y-50578571D01*
X6532142Y-49578571D02*
X6532142Y-50578571D01*
X6175000Y-49007142D02*
X5817857Y-50078571D01*
X6746428Y-50078571D01*
X7317857Y-50435714D02*
X7389285Y-50507142D01*
X7317857Y-50578571D01*
X7246428Y-50507142D01*
X7317857Y-50435714D01*
X7317857Y-50578571D01*
X8317857Y-49078571D02*
X8460714Y-49078571D01*
X8603571Y-49150000D01*
X8675000Y-49221428D01*
X8746428Y-49364285D01*
X8817857Y-49650000D01*
X8817857Y-50007142D01*
X8746428Y-50292857D01*
X8675000Y-50435714D01*
X8603571Y-50507142D01*
X8460714Y-50578571D01*
X8317857Y-50578571D01*
X8175000Y-50507142D01*
X8103571Y-50435714D01*
X8032142Y-50292857D01*
X7960714Y-50007142D01*
X7960714Y-49650000D01*
X8032142Y-49364285D01*
X8103571Y-49221428D01*
X8175000Y-49150000D01*
X8317857Y-49078571D01*
D10*
D11*
X-17039285Y-47150000D02*
X-16325000Y-47150000D01*
X-17182142Y-47578571D02*
X-16682142Y-46078571D01*
X-16182142Y-47578571D01*
X-15039285Y-46578571D02*
X-15039285Y-47578571D01*
X-15682142Y-46578571D02*
X-15682142Y-47364285D01*
X-15610714Y-47507142D01*
X-15467857Y-47578571D01*
X-15253571Y-47578571D01*
X-15110714Y-47507142D01*
X-15039285Y-47435714D01*
X-14539285Y-46578571D02*
X-13967857Y-46578571D01*
X-14325000Y-46078571D02*
X-14325000Y-47364285D01*
X-14253571Y-47507142D01*
X-14110714Y-47578571D01*
X-13967857Y-47578571D01*
X-13467857Y-47578571D02*
X-13467857Y-46078571D01*
X-12825000Y-47578571D02*
X-12825000Y-46792857D01*
X-12896428Y-46650000D01*
X-13039285Y-46578571D01*
X-13253571Y-46578571D01*
X-13396428Y-46650000D01*
X-13467857Y-46721428D01*
X-11896428Y-47578571D02*
X-12039285Y-47507142D01*
X-12110714Y-47435714D01*
X-12182142Y-47292857D01*
X-12182142Y-46864285D01*
X-12110714Y-46721428D01*
X-12039285Y-46650000D01*
X-11896428Y-46578571D01*
X-11682142Y-46578571D01*
X-11539285Y-46650000D01*
X-11467857Y-46721428D01*
X-11396428Y-46864285D01*
X-11396428Y-47292857D01*
X-11467857Y-47435714D01*
X-11539285Y-47507142D01*
X-11682142Y-47578571D01*
X-11896428Y-47578571D01*
X-10753571Y-47578571D02*
X-10753571Y-46578571D01*
X-10753571Y-46864285D02*
X-10682142Y-46721428D01*
X-10610714Y-46650000D01*
X-10467857Y-46578571D01*
X-10325000Y-46578571D01*
X-9825000Y-47435714D02*
X-9753571Y-47507142D01*
X-9825000Y-47578571D01*
X-9896428Y-47507142D01*
X-9825000Y-47435714D01*
X-9825000Y-47578571D01*
X-9825000Y-46650000D02*
X-9753571Y-46721428D01*
X-9825000Y-46792857D01*
X-9896428Y-46721428D01*
X-9825000Y-46650000D01*
X-9825000Y-46792857D01*
X-7539285Y-46078571D02*
X-7539285Y-47150000D01*
X-7610714Y-47364285D01*
X-7753571Y-47507142D01*
X-7967857Y-47578571D01*
X-8110714Y-47578571D01*
X-6182142Y-47578571D02*
X-6182142Y-46792857D01*
X-6253571Y-46650000D01*
X-6396428Y-46578571D01*
X-6682142Y-46578571D01*
X-6825000Y-46650000D01*
X-6182142Y-47507142D02*
X-6325000Y-47578571D01*
X-6682142Y-47578571D01*
X-6825000Y-47507142D01*
X-6896428Y-47364285D01*
X-6896428Y-47221428D01*
X-6825000Y-47078571D01*
X-6682142Y-47007142D01*
X-6325000Y-47007142D01*
X-6182142Y-46935714D01*
X-4825000Y-47507142D02*
X-4967857Y-47578571D01*
X-5253571Y-47578571D01*
X-5396428Y-47507142D01*
X-5467857Y-47435714D01*
X-5539285Y-47292857D01*
X-5539285Y-46864285D01*
X-5467857Y-46721428D01*
X-5396428Y-46650000D01*
X-5253571Y-46578571D01*
X-4967857Y-46578571D01*
X-4825000Y-46650000D01*
X-3967857Y-47578571D02*
X-4110714Y-47507142D01*
X-4182142Y-47435714D01*
X-4253571Y-47292857D01*
X-4253571Y-46864285D01*
X-4182142Y-46721428D01*
X-4110714Y-46650000D01*
X-3967857Y-46578571D01*
X-3753571Y-46578571D01*
X-3610714Y-46650000D01*
X-3539285Y-46721428D01*
X-3467857Y-46864285D01*
X-3467857Y-47292857D01*
X-3539285Y-47435714D01*
X-3610714Y-47507142D01*
X-3753571Y-47578571D01*
X-3967857Y-47578571D01*
X-2825000Y-47578571D02*
X-2825000Y-46078571D01*
X-2825000Y-46650000D02*
X-2682142Y-46578571D01*
X-2396428Y-46578571D01*
X-2253571Y-46650000D01*
X-2182142Y-46721428D01*
X-2110714Y-46864285D01*
X-2110714Y-47292857D01*
X-2182142Y-47435714D01*
X-2253571Y-47507142D01*
X-2396428Y-47578571D01*
X-2682142Y-47578571D01*
X-2825000Y-47507142D01*
X-396428Y-47150000D02*
X317857Y-47150000D01*
X-539285Y-47578571D02*
X-39285Y-46078571D01*
X460714Y-47578571D01*
X960714Y-47578571D02*
X960714Y-46578571D01*
X960714Y-46864285D02*
X1032142Y-46721428D01*
X1103571Y-46650000D01*
X1246428Y-46578571D01*
X1389285Y-46578571D01*
X1889285Y-47578571D02*
X1889285Y-46578571D01*
X1889285Y-46721428D02*
X1960714Y-46650000D01*
X2103571Y-46578571D01*
X2317857Y-46578571D01*
X2460714Y-46650000D01*
X2532142Y-46792857D01*
X2532142Y-47578571D01*
X2532142Y-46792857D02*
X2603571Y-46650000D01*
X2746428Y-46578571D01*
X2960714Y-46578571D01*
X3103571Y-46650000D01*
X3174999Y-46792857D01*
X3174999Y-47578571D01*
X3817857Y-47507142D02*
X3960714Y-47578571D01*
X4246428Y-47578571D01*
X4389285Y-47507142D01*
X4460714Y-47364285D01*
X4460714Y-47292857D01*
X4389285Y-47150000D01*
X4246428Y-47078571D01*
X4032142Y-47078571D01*
X3889285Y-47007142D01*
X3817857Y-46864285D01*
X3817857Y-46792857D01*
X3889285Y-46650000D01*
X4032142Y-46578571D01*
X4246428Y-46578571D01*
X4389285Y-46650000D01*
X4889285Y-46578571D02*
X5460714Y-46578571D01*
X5103571Y-46078571D02*
X5103571Y-47364285D01*
X5174999Y-47507142D01*
X5317857Y-47578571D01*
X5460714Y-47578571D01*
X5960714Y-47578571D02*
X5960714Y-46578571D01*
X5960714Y-46864285D02*
X6032142Y-46721428D01*
X6103571Y-46650000D01*
X6246428Y-46578571D01*
X6389285Y-46578571D01*
X7103571Y-47578571D02*
X6960714Y-47507142D01*
X6889285Y-47435714D01*
X6817857Y-47292857D01*
X6817857Y-46864285D01*
X6889285Y-46721428D01*
X6960714Y-46650000D01*
X7103571Y-46578571D01*
X7317857Y-46578571D01*
X7460714Y-46650000D01*
X7532142Y-46721428D01*
X7603571Y-46864285D01*
X7603571Y-47292857D01*
X7532142Y-47435714D01*
X7460714Y-47507142D01*
X7317857Y-47578571D01*
X7103571Y-47578571D01*
X8246428Y-46578571D02*
X8246428Y-47578571D01*
X8246428Y-46721428D02*
X8317857Y-46650000D01*
X8460714Y-46578571D01*
X8675000Y-46578571D01*
X8817857Y-46650000D01*
X8889285Y-46792857D01*
X8889285Y-47578571D01*
X10246428Y-46578571D02*
X10246428Y-47792857D01*
X10175000Y-47935714D01*
X10103571Y-48007142D01*
X9960714Y-48078571D01*
X9746428Y-48078571D01*
X9603571Y-48007142D01*
X10246428Y-47507142D02*
X10103571Y-47578571D01*
X9817857Y-47578571D01*
X9675000Y-47507142D01*
X9603571Y-47435714D01*
X9532142Y-47292857D01*
X9532142Y-46864285D01*
X9603571Y-46721428D01*
X9675000Y-46650000D01*
X9817857Y-46578571D01*
X10103571Y-46578571D01*
X10246428Y-46650000D01*
D10*
D11*
X1600000Y-70400000D02*
X1600000Y-73400000D01*
D10*
D11*
X65600000Y-70400000D02*
X65600000Y-76900000D01*
D14*
X16533177Y-13330620D02*
G75*
G03*
X13535977Y-16327820I2J-2997202D01*
G01*
X16533177Y-71471220D02*
X82725577Y-71471220D01*
X85722777Y-68474020D02*
X85722777Y-16327820D01*
X82725577Y-13330620D02*
X16533177Y-13330620D01*
X85722777Y-16327820D02*
G75*
G03*
X82725577Y-13330620I-2997202J-2D01*
G01*
X13535977Y-68474020D02*
G75*
G03*
X16533177Y-71471220I2997202J2D01*
G01*
X82725577Y-71471220D02*
G75*
G03*
X85722777Y-68474020I-2J2997202D01*
G01*
X13535977Y-16327820D02*
X13535977Y-68474020D01*
M02*
