%TF.GenerationSoftware,KiCad,Pcbnew,(6.0.0)*%
%TF.CreationDate,2022-02-14T11:19:37-05:00*%
%TF.ProjectId,RocketHat,526f636b-6574-4486-9174-2e6b69636164,V1.0*%
%TF.SameCoordinates,Original*%
%TF.FileFunction,Legend,Top*%
%TF.FilePolarity,Positive*%
%FSLAX46Y46*%
G04 Gerber Fmt 4.6, Leading zero omitted, Abs format (unit mm)*
G04 Created by KiCad (PCBNEW (6.0.0)) date 2022-02-14 11:19:37*
%MOMM*%
%LPD*%
G01*
G04 APERTURE LIST*
%ADD10C,0.100000*%
%ADD11C,0.150000*%
%ADD12C,0.300000*%
%ADD13C,0.400000*%
%ADD14C,0.120000*%
G04 APERTURE END LIST*
D10*
D11*
X177002200Y-166007200D02*
X177002200Y-198007200D01*
X285002200Y-198007200D01*
X285002200Y-166007200D01*
X177002200Y-166007200D01*
D10*
D11*
X10000000Y-10000000D02*
X10000000Y-200007200D01*
X287002200Y-200007200D01*
X287002200Y-10000000D01*
X10000000Y-10000000D01*
D10*
D11*
X12000000Y-12000000D02*
X12000000Y-198007200D01*
X285002200Y-198007200D01*
X285002200Y-12000000D01*
X12000000Y-12000000D01*
D10*
D11*
X60000000Y-12000000D02*
X60000000Y-10000000D01*
D10*
D11*
X110000000Y-12000000D02*
X110000000Y-10000000D01*
D10*
D11*
X160000000Y-12000000D02*
X160000000Y-10000000D01*
D10*
D11*
X210000000Y-12000000D02*
X210000000Y-10000000D01*
D10*
D11*
X260000000Y-12000000D02*
X260000000Y-10000000D01*
D10*
D11*
X36065476Y-11588095D02*
X35322619Y-11588095D01*
X35694047Y-11588095D02*
X35694047Y-10288095D01*
X35570238Y-10473809D01*
X35446428Y-10597619D01*
X35322619Y-10659523D01*
D10*
D11*
X85322619Y-10411904D02*
X85384523Y-10350000D01*
X85508333Y-10288095D01*
X85817857Y-10288095D01*
X85941666Y-10350000D01*
X86003571Y-10411904D01*
X86065476Y-10535714D01*
X86065476Y-10659523D01*
X86003571Y-10845238D01*
X85260714Y-11588095D01*
X86065476Y-11588095D01*
D10*
D11*
X135260714Y-10288095D02*
X136065476Y-10288095D01*
X135632142Y-10783333D01*
X135817857Y-10783333D01*
X135941666Y-10845238D01*
X136003571Y-10907142D01*
X136065476Y-11030952D01*
X136065476Y-11340476D01*
X136003571Y-11464285D01*
X135941666Y-11526190D01*
X135817857Y-11588095D01*
X135446428Y-11588095D01*
X135322619Y-11526190D01*
X135260714Y-11464285D01*
D10*
D11*
X185941666Y-10721428D02*
X185941666Y-11588095D01*
X185632142Y-10226190D02*
X185322619Y-11154761D01*
X186127380Y-11154761D01*
D10*
D11*
X236003571Y-10288095D02*
X235384523Y-10288095D01*
X235322619Y-10907142D01*
X235384523Y-10845238D01*
X235508333Y-10783333D01*
X235817857Y-10783333D01*
X235941666Y-10845238D01*
X236003571Y-10907142D01*
X236065476Y-11030952D01*
X236065476Y-11340476D01*
X236003571Y-11464285D01*
X235941666Y-11526190D01*
X235817857Y-11588095D01*
X235508333Y-11588095D01*
X235384523Y-11526190D01*
X235322619Y-11464285D01*
D10*
D11*
X285941666Y-10288095D02*
X285694047Y-10288095D01*
X285570238Y-10350000D01*
X285508333Y-10411904D01*
X285384523Y-10597619D01*
X285322619Y-10845238D01*
X285322619Y-11340476D01*
X285384523Y-11464285D01*
X285446428Y-11526190D01*
X285570238Y-11588095D01*
X285817857Y-11588095D01*
X285941666Y-11526190D01*
X286003571Y-11464285D01*
X286065476Y-11340476D01*
X286065476Y-11030952D01*
X286003571Y-10907142D01*
X285941666Y-10845238D01*
X285817857Y-10783333D01*
X285570238Y-10783333D01*
X285446428Y-10845238D01*
X285384523Y-10907142D01*
X285322619Y-11030952D01*
D10*
D11*
X60000000Y-198007200D02*
X60000000Y-200007200D01*
D10*
D11*
X110000000Y-198007200D02*
X110000000Y-200007200D01*
D10*
D11*
X160000000Y-198007200D02*
X160000000Y-200007200D01*
D10*
D11*
X210000000Y-198007200D02*
X210000000Y-200007200D01*
D10*
D11*
X260000000Y-198007200D02*
X260000000Y-200007200D01*
D10*
D11*
X36065476Y-199595295D02*
X35322619Y-199595295D01*
X35694047Y-199595295D02*
X35694047Y-198295295D01*
X35570238Y-198481009D01*
X35446428Y-198604819D01*
X35322619Y-198666723D01*
D10*
D11*
X85322619Y-198419104D02*
X85384523Y-198357200D01*
X85508333Y-198295295D01*
X85817857Y-198295295D01*
X85941666Y-198357200D01*
X86003571Y-198419104D01*
X86065476Y-198542914D01*
X86065476Y-198666723D01*
X86003571Y-198852438D01*
X85260714Y-199595295D01*
X86065476Y-199595295D01*
D10*
D11*
X135260714Y-198295295D02*
X136065476Y-198295295D01*
X135632142Y-198790533D01*
X135817857Y-198790533D01*
X135941666Y-198852438D01*
X136003571Y-198914342D01*
X136065476Y-199038152D01*
X136065476Y-199347676D01*
X136003571Y-199471485D01*
X135941666Y-199533390D01*
X135817857Y-199595295D01*
X135446428Y-199595295D01*
X135322619Y-199533390D01*
X135260714Y-199471485D01*
D10*
D11*
X185941666Y-198728628D02*
X185941666Y-199595295D01*
X185632142Y-198233390D02*
X185322619Y-199161961D01*
X186127380Y-199161961D01*
D10*
D11*
X236003571Y-198295295D02*
X235384523Y-198295295D01*
X235322619Y-198914342D01*
X235384523Y-198852438D01*
X235508333Y-198790533D01*
X235817857Y-198790533D01*
X235941666Y-198852438D01*
X236003571Y-198914342D01*
X236065476Y-199038152D01*
X236065476Y-199347676D01*
X236003571Y-199471485D01*
X235941666Y-199533390D01*
X235817857Y-199595295D01*
X235508333Y-199595295D01*
X235384523Y-199533390D01*
X235322619Y-199471485D01*
D10*
D11*
X285941666Y-198295295D02*
X285694047Y-198295295D01*
X285570238Y-198357200D01*
X285508333Y-198419104D01*
X285384523Y-198604819D01*
X285322619Y-198852438D01*
X285322619Y-199347676D01*
X285384523Y-199471485D01*
X285446428Y-199533390D01*
X285570238Y-199595295D01*
X285817857Y-199595295D01*
X285941666Y-199533390D01*
X286003571Y-199471485D01*
X286065476Y-199347676D01*
X286065476Y-199038152D01*
X286003571Y-198914342D01*
X285941666Y-198852438D01*
X285817857Y-198790533D01*
X285570238Y-198790533D01*
X285446428Y-198852438D01*
X285384523Y-198914342D01*
X285322619Y-199038152D01*
D10*
D11*
X10000000Y-60000000D02*
X12000000Y-60000000D01*
D10*
D11*
X10000000Y-110000000D02*
X12000000Y-110000000D01*
D10*
D11*
X10000000Y-160000000D02*
X12000000Y-160000000D01*
D10*
D11*
X10690476Y-35216666D02*
X11309523Y-35216666D01*
X10566666Y-35588095D02*
X11000000Y-34288095D01*
X11433333Y-35588095D01*
D10*
D11*
X11092857Y-84907142D02*
X11278571Y-84969047D01*
X11340476Y-85030952D01*
X11402380Y-85154761D01*
X11402380Y-85340476D01*
X11340476Y-85464285D01*
X11278571Y-85526190D01*
X11154761Y-85588095D01*
X10659523Y-85588095D01*
X10659523Y-84288095D01*
X11092857Y-84288095D01*
X11216666Y-84350000D01*
X11278571Y-84411904D01*
X11340476Y-84535714D01*
X11340476Y-84659523D01*
X11278571Y-84783333D01*
X11216666Y-84845238D01*
X11092857Y-84907142D01*
X10659523Y-84907142D01*
D10*
D11*
X11402380Y-135464285D02*
X11340476Y-135526190D01*
X11154761Y-135588095D01*
X11030952Y-135588095D01*
X10845238Y-135526190D01*
X10721428Y-135402380D01*
X10659523Y-135278571D01*
X10597619Y-135030952D01*
X10597619Y-134845238D01*
X10659523Y-134597619D01*
X10721428Y-134473809D01*
X10845238Y-134350000D01*
X11030952Y-134288095D01*
X11154761Y-134288095D01*
X11340476Y-134350000D01*
X11402380Y-134411904D01*
D10*
D11*
X10659523Y-185588095D02*
X10659523Y-184288095D01*
X10969047Y-184288095D01*
X11154761Y-184350000D01*
X11278571Y-184473809D01*
X11340476Y-184597619D01*
X11402380Y-184845238D01*
X11402380Y-185030952D01*
X11340476Y-185278571D01*
X11278571Y-185402380D01*
X11154761Y-185526190D01*
X10969047Y-185588095D01*
X10659523Y-185588095D01*
D10*
D11*
X287002200Y-60000000D02*
X285002200Y-60000000D01*
D10*
D11*
X287002200Y-110000000D02*
X285002200Y-110000000D01*
D10*
D11*
X287002200Y-160000000D02*
X285002200Y-160000000D01*
D10*
D11*
X285692676Y-35216666D02*
X286311723Y-35216666D01*
X285568866Y-35588095D02*
X286002200Y-34288095D01*
X286435533Y-35588095D01*
D10*
D11*
X286095057Y-84907142D02*
X286280771Y-84969047D01*
X286342676Y-85030952D01*
X286404580Y-85154761D01*
X286404580Y-85340476D01*
X286342676Y-85464285D01*
X286280771Y-85526190D01*
X286156961Y-85588095D01*
X285661723Y-85588095D01*
X285661723Y-84288095D01*
X286095057Y-84288095D01*
X286218866Y-84350000D01*
X286280771Y-84411904D01*
X286342676Y-84535714D01*
X286342676Y-84659523D01*
X286280771Y-84783333D01*
X286218866Y-84845238D01*
X286095057Y-84907142D01*
X285661723Y-84907142D01*
D10*
D11*
X286404580Y-135464285D02*
X286342676Y-135526190D01*
X286156961Y-135588095D01*
X286033152Y-135588095D01*
X285847438Y-135526190D01*
X285723628Y-135402380D01*
X285661723Y-135278571D01*
X285599819Y-135030952D01*
X285599819Y-134845238D01*
X285661723Y-134597619D01*
X285723628Y-134473809D01*
X285847438Y-134350000D01*
X286033152Y-134288095D01*
X286156961Y-134288095D01*
X286342676Y-134350000D01*
X286404580Y-134411904D01*
D10*
D11*
X285661723Y-185588095D02*
X285661723Y-184288095D01*
X285971247Y-184288095D01*
X286156961Y-184350000D01*
X286280771Y-184473809D01*
X286342676Y-184597619D01*
X286404580Y-184845238D01*
X286404580Y-185030952D01*
X286342676Y-185278571D01*
X286280771Y-185402380D01*
X286156961Y-185526190D01*
X285971247Y-185588095D01*
X285661723Y-185588095D01*
D10*
D11*
X200434342Y-193785771D02*
X200434342Y-192285771D01*
X200791485Y-192285771D01*
X201005771Y-192357200D01*
X201148628Y-192500057D01*
X201220057Y-192642914D01*
X201291485Y-192928628D01*
X201291485Y-193142914D01*
X201220057Y-193428628D01*
X201148628Y-193571485D01*
X201005771Y-193714342D01*
X200791485Y-193785771D01*
X200434342Y-193785771D01*
X202577200Y-193785771D02*
X202577200Y-193000057D01*
X202505771Y-192857200D01*
X202362914Y-192785771D01*
X202077200Y-192785771D01*
X201934342Y-192857200D01*
X202577200Y-193714342D02*
X202434342Y-193785771D01*
X202077200Y-193785771D01*
X201934342Y-193714342D01*
X201862914Y-193571485D01*
X201862914Y-193428628D01*
X201934342Y-193285771D01*
X202077200Y-193214342D01*
X202434342Y-193214342D01*
X202577200Y-193142914D01*
X203077200Y-192785771D02*
X203648628Y-192785771D01*
X203291485Y-192285771D02*
X203291485Y-193571485D01*
X203362914Y-193714342D01*
X203505771Y-193785771D01*
X203648628Y-193785771D01*
X204720057Y-193714342D02*
X204577200Y-193785771D01*
X204291485Y-193785771D01*
X204148628Y-193714342D01*
X204077200Y-193571485D01*
X204077200Y-193000057D01*
X204148628Y-192857200D01*
X204291485Y-192785771D01*
X204577200Y-192785771D01*
X204720057Y-192857200D01*
X204791485Y-193000057D01*
X204791485Y-193142914D01*
X204077200Y-193285771D01*
X205434342Y-193642914D02*
X205505771Y-193714342D01*
X205434342Y-193785771D01*
X205362914Y-193714342D01*
X205434342Y-193642914D01*
X205434342Y-193785771D01*
X205434342Y-192857200D02*
X205505771Y-192928628D01*
X205434342Y-193000057D01*
X205362914Y-192928628D01*
X205434342Y-192857200D01*
X205434342Y-193000057D01*
X207220057Y-192428628D02*
X207291485Y-192357200D01*
X207434342Y-192285771D01*
X207791485Y-192285771D01*
X207934342Y-192357200D01*
X208005771Y-192428628D01*
X208077200Y-192571485D01*
X208077200Y-192714342D01*
X208005771Y-192928628D01*
X207148628Y-193785771D01*
X208077200Y-193785771D01*
X209005771Y-192285771D02*
X209148628Y-192285771D01*
X209291485Y-192357200D01*
X209362914Y-192428628D01*
X209434342Y-192571485D01*
X209505771Y-192857200D01*
X209505771Y-193214342D01*
X209434342Y-193500057D01*
X209362914Y-193642914D01*
X209291485Y-193714342D01*
X209148628Y-193785771D01*
X209005771Y-193785771D01*
X208862914Y-193714342D01*
X208791485Y-193642914D01*
X208720057Y-193500057D01*
X208648628Y-193214342D01*
X208648628Y-192857200D01*
X208720057Y-192571485D01*
X208791485Y-192428628D01*
X208862914Y-192357200D01*
X209005771Y-192285771D01*
X210077200Y-192428628D02*
X210148628Y-192357200D01*
X210291485Y-192285771D01*
X210648628Y-192285771D01*
X210791485Y-192357200D01*
X210862914Y-192428628D01*
X210934342Y-192571485D01*
X210934342Y-192714342D01*
X210862914Y-192928628D01*
X210005771Y-193785771D01*
X210934342Y-193785771D01*
X211505771Y-192428628D02*
X211577200Y-192357200D01*
X211720057Y-192285771D01*
X212077200Y-192285771D01*
X212220057Y-192357200D01*
X212291485Y-192428628D01*
X212362914Y-192571485D01*
X212362914Y-192714342D01*
X212291485Y-192928628D01*
X211434342Y-193785771D01*
X212362914Y-193785771D01*
X213005771Y-193214342D02*
X214148628Y-193214342D01*
X215148628Y-192285771D02*
X215291485Y-192285771D01*
X215434342Y-192357200D01*
X215505771Y-192428628D01*
X215577200Y-192571485D01*
X215648628Y-192857200D01*
X215648628Y-193214342D01*
X215577200Y-193500057D01*
X215505771Y-193642914D01*
X215434342Y-193714342D01*
X215291485Y-193785771D01*
X215148628Y-193785771D01*
X215005771Y-193714342D01*
X214934342Y-193642914D01*
X214862914Y-193500057D01*
X214791485Y-193214342D01*
X214791485Y-192857200D01*
X214862914Y-192571485D01*
X214934342Y-192428628D01*
X215005771Y-192357200D01*
X215148628Y-192285771D01*
X216220057Y-192428628D02*
X216291485Y-192357200D01*
X216434342Y-192285771D01*
X216791485Y-192285771D01*
X216934342Y-192357200D01*
X217005771Y-192428628D01*
X217077200Y-192571485D01*
X217077200Y-192714342D01*
X217005771Y-192928628D01*
X216148628Y-193785771D01*
X217077200Y-193785771D01*
X217720057Y-193214342D02*
X218862914Y-193214342D01*
X220362914Y-193785771D02*
X219505771Y-193785771D01*
X219934342Y-193785771D02*
X219934342Y-192285771D01*
X219791485Y-192500057D01*
X219648628Y-192642914D01*
X219505771Y-192714342D01*
X220862914Y-192285771D02*
X221791485Y-192285771D01*
X221291485Y-192857200D01*
X221505771Y-192857200D01*
X221648628Y-192928628D01*
X221720057Y-193000057D01*
X221791485Y-193142914D01*
X221791485Y-193500057D01*
X221720057Y-193642914D01*
X221648628Y-193714342D01*
X221505771Y-193785771D01*
X221077200Y-193785771D01*
X220934342Y-193714342D01*
X220862914Y-193642914D01*
D10*
D11*
X177002200Y-194507200D02*
X285002200Y-194507200D01*
D10*
D11*
X178434342Y-196585771D02*
X178434342Y-195085771D01*
X179291485Y-196585771D02*
X178648628Y-195728628D01*
X179291485Y-195085771D02*
X178434342Y-195942914D01*
X179934342Y-196585771D02*
X179934342Y-195585771D01*
X179934342Y-195085771D02*
X179862914Y-195157200D01*
X179934342Y-195228628D01*
X180005771Y-195157200D01*
X179934342Y-195085771D01*
X179934342Y-195228628D01*
X181505771Y-196442914D02*
X181434342Y-196514342D01*
X181220057Y-196585771D01*
X181077200Y-196585771D01*
X180862914Y-196514342D01*
X180720057Y-196371485D01*
X180648628Y-196228628D01*
X180577200Y-195942914D01*
X180577200Y-195728628D01*
X180648628Y-195442914D01*
X180720057Y-195300057D01*
X180862914Y-195157200D01*
X181077200Y-195085771D01*
X181220057Y-195085771D01*
X181434342Y-195157200D01*
X181505771Y-195228628D01*
X182791485Y-196585771D02*
X182791485Y-195800057D01*
X182720057Y-195657200D01*
X182577200Y-195585771D01*
X182291485Y-195585771D01*
X182148628Y-195657200D01*
X182791485Y-196514342D02*
X182648628Y-196585771D01*
X182291485Y-196585771D01*
X182148628Y-196514342D01*
X182077200Y-196371485D01*
X182077200Y-196228628D01*
X182148628Y-196085771D01*
X182291485Y-196014342D01*
X182648628Y-196014342D01*
X182791485Y-195942914D01*
X184148628Y-196585771D02*
X184148628Y-195085771D01*
X184148628Y-196514342D02*
X184005771Y-196585771D01*
X183720057Y-196585771D01*
X183577200Y-196514342D01*
X183505771Y-196442914D01*
X183434342Y-196300057D01*
X183434342Y-195871485D01*
X183505771Y-195728628D01*
X183577200Y-195657200D01*
X183720057Y-195585771D01*
X184005771Y-195585771D01*
X184148628Y-195657200D01*
X186005771Y-195800057D02*
X186505771Y-195800057D01*
X186720057Y-196585771D02*
X186005771Y-196585771D01*
X186005771Y-195085771D01*
X186720057Y-195085771D01*
X187362914Y-196442914D02*
X187434342Y-196514342D01*
X187362914Y-196585771D01*
X187291485Y-196514342D01*
X187362914Y-196442914D01*
X187362914Y-196585771D01*
X188077200Y-196585771D02*
X188077200Y-195085771D01*
X188434342Y-195085771D01*
X188648628Y-195157200D01*
X188791485Y-195300057D01*
X188862914Y-195442914D01*
X188934342Y-195728628D01*
X188934342Y-195942914D01*
X188862914Y-196228628D01*
X188791485Y-196371485D01*
X188648628Y-196514342D01*
X188434342Y-196585771D01*
X188077200Y-196585771D01*
X189577200Y-196442914D02*
X189648628Y-196514342D01*
X189577200Y-196585771D01*
X189505771Y-196514342D01*
X189577200Y-196442914D01*
X189577200Y-196585771D01*
X190220057Y-196157200D02*
X190934342Y-196157200D01*
X190077200Y-196585771D02*
X190577200Y-195085771D01*
X191077200Y-196585771D01*
X191577200Y-196442914D02*
X191648628Y-196514342D01*
X191577200Y-196585771D01*
X191505771Y-196514342D01*
X191577200Y-196442914D01*
X191577200Y-196585771D01*
X194577200Y-196585771D02*
X194577200Y-195085771D01*
X194720057Y-196014342D02*
X195148628Y-196585771D01*
X195148628Y-195585771D02*
X194577200Y-196157200D01*
X195791485Y-196585771D02*
X195791485Y-195585771D01*
X195791485Y-195085771D02*
X195720057Y-195157200D01*
X195791485Y-195228628D01*
X195862914Y-195157200D01*
X195791485Y-195085771D01*
X195791485Y-195228628D01*
X197148628Y-196514342D02*
X197005771Y-196585771D01*
X196720057Y-196585771D01*
X196577200Y-196514342D01*
X196505771Y-196442914D01*
X196434342Y-196300057D01*
X196434342Y-195871485D01*
X196505771Y-195728628D01*
X196577200Y-195657200D01*
X196720057Y-195585771D01*
X197005771Y-195585771D01*
X197148628Y-195657200D01*
X198434342Y-196585771D02*
X198434342Y-195800057D01*
X198362914Y-195657200D01*
X198220057Y-195585771D01*
X197934342Y-195585771D01*
X197791485Y-195657200D01*
X198434342Y-196514342D02*
X198291485Y-196585771D01*
X197934342Y-196585771D01*
X197791485Y-196514342D01*
X197720057Y-196371485D01*
X197720057Y-196228628D01*
X197791485Y-196085771D01*
X197934342Y-196014342D01*
X198291485Y-196014342D01*
X198434342Y-195942914D01*
X199791485Y-196585771D02*
X199791485Y-195085771D01*
X199791485Y-196514342D02*
X199648628Y-196585771D01*
X199362914Y-196585771D01*
X199220057Y-196514342D01*
X199148628Y-196442914D01*
X199077200Y-196300057D01*
X199077200Y-195871485D01*
X199148628Y-195728628D01*
X199220057Y-195657200D01*
X199362914Y-195585771D01*
X199648628Y-195585771D01*
X199791485Y-195657200D01*
X202077200Y-197157200D02*
X202005771Y-197085771D01*
X201862914Y-196871485D01*
X201791485Y-196728628D01*
X201720057Y-196514342D01*
X201648628Y-196157200D01*
X201648628Y-195871485D01*
X201720057Y-195514342D01*
X201791485Y-195300057D01*
X201862914Y-195157200D01*
X202005771Y-194942914D01*
X202077200Y-194871485D01*
X203291485Y-195085771D02*
X203005771Y-195085771D01*
X202862914Y-195157200D01*
X202791485Y-195228628D01*
X202648628Y-195442914D01*
X202577200Y-195728628D01*
X202577200Y-196300057D01*
X202648628Y-196442914D01*
X202720057Y-196514342D01*
X202862914Y-196585771D01*
X203148628Y-196585771D01*
X203291485Y-196514342D01*
X203362914Y-196442914D01*
X203434342Y-196300057D01*
X203434342Y-195942914D01*
X203362914Y-195800057D01*
X203291485Y-195728628D01*
X203148628Y-195657200D01*
X202862914Y-195657200D01*
X202720057Y-195728628D01*
X202648628Y-195800057D01*
X202577200Y-195942914D01*
X204077200Y-196442914D02*
X204148628Y-196514342D01*
X204077200Y-196585771D01*
X204005771Y-196514342D01*
X204077200Y-196442914D01*
X204077200Y-196585771D01*
X205077200Y-195085771D02*
X205220057Y-195085771D01*
X205362914Y-195157200D01*
X205434342Y-195228628D01*
X205505771Y-195371485D01*
X205577200Y-195657200D01*
X205577200Y-196014342D01*
X205505771Y-196300057D01*
X205434342Y-196442914D01*
X205362914Y-196514342D01*
X205220057Y-196585771D01*
X205077200Y-196585771D01*
X204934342Y-196514342D01*
X204862914Y-196442914D01*
X204791485Y-196300057D01*
X204720057Y-196014342D01*
X204720057Y-195657200D01*
X204791485Y-195371485D01*
X204862914Y-195228628D01*
X204934342Y-195157200D01*
X205077200Y-195085771D01*
X206220057Y-196442914D02*
X206291485Y-196514342D01*
X206220057Y-196585771D01*
X206148628Y-196514342D01*
X206220057Y-196442914D01*
X206220057Y-196585771D01*
X207220057Y-195085771D02*
X207362914Y-195085771D01*
X207505771Y-195157200D01*
X207577200Y-195228628D01*
X207648628Y-195371485D01*
X207720057Y-195657200D01*
X207720057Y-196014342D01*
X207648628Y-196300057D01*
X207577200Y-196442914D01*
X207505771Y-196514342D01*
X207362914Y-196585771D01*
X207220057Y-196585771D01*
X207077200Y-196514342D01*
X207005771Y-196442914D01*
X206934342Y-196300057D01*
X206862914Y-196014342D01*
X206862914Y-195657200D01*
X206934342Y-195371485D01*
X207005771Y-195228628D01*
X207077200Y-195157200D01*
X207220057Y-195085771D01*
X208220057Y-197157200D02*
X208291485Y-197085771D01*
X208434342Y-196871485D01*
X208505771Y-196728628D01*
X208577200Y-196514342D01*
X208648628Y-196157200D01*
X208648628Y-195871485D01*
X208577200Y-195514342D01*
X208505771Y-195300057D01*
X208434342Y-195157200D01*
X208291485Y-194942914D01*
X208220057Y-194871485D01*
D10*
D11*
X177002200Y-191507200D02*
X285002200Y-191507200D01*
D10*
D12*
X264411485Y-193785771D02*
X263911485Y-193071485D01*
X263554342Y-193785771D02*
X263554342Y-192285771D01*
X264125771Y-192285771D01*
X264268628Y-192357200D01*
X264340057Y-192428628D01*
X264411485Y-192571485D01*
X264411485Y-192785771D01*
X264340057Y-192928628D01*
X264268628Y-193000057D01*
X264125771Y-193071485D01*
X263554342Y-193071485D01*
X265625771Y-193714342D02*
X265482914Y-193785771D01*
X265197200Y-193785771D01*
X265054342Y-193714342D01*
X264982914Y-193571485D01*
X264982914Y-193000057D01*
X265054342Y-192857200D01*
X265197200Y-192785771D01*
X265482914Y-192785771D01*
X265625771Y-192857200D01*
X265697200Y-193000057D01*
X265697200Y-193142914D01*
X264982914Y-193285771D01*
X266197200Y-192785771D02*
X266554342Y-193785771D01*
X266911485Y-192785771D01*
X267482914Y-193642914D02*
X267554342Y-193714342D01*
X267482914Y-193785771D01*
X267411485Y-193714342D01*
X267482914Y-193642914D01*
X267482914Y-193785771D01*
X267482914Y-192857200D02*
X267554342Y-192928628D01*
X267482914Y-193000057D01*
X267411485Y-192928628D01*
X267482914Y-192857200D01*
X267482914Y-193000057D01*
X269125771Y-192285771D02*
X269625771Y-193785771D01*
X270125771Y-192285771D01*
X271411485Y-193785771D02*
X270554342Y-193785771D01*
X270982914Y-193785771D02*
X270982914Y-192285771D01*
X270840057Y-192500057D01*
X270697200Y-192642914D01*
X270554342Y-192714342D01*
X272054342Y-193642914D02*
X272125771Y-193714342D01*
X272054342Y-193785771D01*
X271982914Y-193714342D01*
X272054342Y-193642914D01*
X272054342Y-193785771D01*
X273054342Y-192285771D02*
X273197200Y-192285771D01*
X273340057Y-192357200D01*
X273411485Y-192428628D01*
X273482914Y-192571485D01*
X273554342Y-192857200D01*
X273554342Y-193214342D01*
X273482914Y-193500057D01*
X273411485Y-193642914D01*
X273340057Y-193714342D01*
X273197200Y-193785771D01*
X273054342Y-193785771D01*
X272911485Y-193714342D01*
X272840057Y-193642914D01*
X272768628Y-193500057D01*
X272697200Y-193214342D01*
X272697200Y-192857200D01*
X272768628Y-192571485D01*
X272840057Y-192428628D01*
X272911485Y-192357200D01*
X273054342Y-192285771D01*
D10*
D11*
X178362914Y-193714342D02*
X178577200Y-193785771D01*
X178934342Y-193785771D01*
X179077200Y-193714342D01*
X179148628Y-193642914D01*
X179220057Y-193500057D01*
X179220057Y-193357200D01*
X179148628Y-193214342D01*
X179077200Y-193142914D01*
X178934342Y-193071485D01*
X178648628Y-193000057D01*
X178505771Y-192928628D01*
X178434342Y-192857200D01*
X178362914Y-192714342D01*
X178362914Y-192571485D01*
X178434342Y-192428628D01*
X178505771Y-192357200D01*
X178648628Y-192285771D01*
X179005771Y-192285771D01*
X179220057Y-192357200D01*
X179862914Y-193785771D02*
X179862914Y-192785771D01*
X179862914Y-192285771D02*
X179791485Y-192357200D01*
X179862914Y-192428628D01*
X179934342Y-192357200D01*
X179862914Y-192285771D01*
X179862914Y-192428628D01*
X180434342Y-192785771D02*
X181220057Y-192785771D01*
X180434342Y-193785771D01*
X181220057Y-193785771D01*
X182362914Y-193714342D02*
X182220057Y-193785771D01*
X181934342Y-193785771D01*
X181791485Y-193714342D01*
X181720057Y-193571485D01*
X181720057Y-193000057D01*
X181791485Y-192857200D01*
X181934342Y-192785771D01*
X182220057Y-192785771D01*
X182362914Y-192857200D01*
X182434342Y-193000057D01*
X182434342Y-193142914D01*
X181720057Y-193285771D01*
X183077200Y-193642914D02*
X183148628Y-193714342D01*
X183077200Y-193785771D01*
X183005771Y-193714342D01*
X183077200Y-193642914D01*
X183077200Y-193785771D01*
X183077200Y-192857200D02*
X183148628Y-192928628D01*
X183077200Y-193000057D01*
X183005771Y-192928628D01*
X183077200Y-192857200D01*
X183077200Y-193000057D01*
X184862914Y-193357200D02*
X185577200Y-193357200D01*
X184720057Y-193785771D02*
X185220057Y-192285771D01*
X185720057Y-193785771D01*
X186862914Y-192785771D02*
X186862914Y-193785771D01*
X186505771Y-192214342D02*
X186148628Y-193285771D01*
X187077200Y-193285771D01*
D10*
D11*
X263434342Y-196585771D02*
X263434342Y-195085771D01*
X264791485Y-196585771D02*
X264791485Y-195085771D01*
X264791485Y-196514342D02*
X264648628Y-196585771D01*
X264362914Y-196585771D01*
X264220057Y-196514342D01*
X264148628Y-196442914D01*
X264077200Y-196300057D01*
X264077200Y-195871485D01*
X264148628Y-195728628D01*
X264220057Y-195657200D01*
X264362914Y-195585771D01*
X264648628Y-195585771D01*
X264791485Y-195657200D01*
X265505771Y-196442914D02*
X265577200Y-196514342D01*
X265505771Y-196585771D01*
X265434342Y-196514342D01*
X265505771Y-196442914D01*
X265505771Y-196585771D01*
X265505771Y-195657200D02*
X265577200Y-195728628D01*
X265505771Y-195800057D01*
X265434342Y-195728628D01*
X265505771Y-195657200D01*
X265505771Y-195800057D01*
X268148628Y-196585771D02*
X267291485Y-196585771D01*
X267720057Y-196585771D02*
X267720057Y-195085771D01*
X267577200Y-195300057D01*
X267434342Y-195442914D01*
X267291485Y-195514342D01*
X269862914Y-195014342D02*
X268577200Y-196942914D01*
X271148628Y-196585771D02*
X270291485Y-196585771D01*
X270720057Y-196585771D02*
X270720057Y-195085771D01*
X270577200Y-195300057D01*
X270434342Y-195442914D01*
X270291485Y-195514342D01*
D10*
D11*
X177002200Y-187507200D02*
X285002200Y-187507200D01*
D10*
D13*
X178714580Y-188211961D02*
X179857438Y-188211961D01*
X179036009Y-190211961D02*
X179286009Y-188211961D01*
X180274104Y-190211961D02*
X180440771Y-188878628D01*
X180524104Y-188211961D02*
X180416961Y-188307200D01*
X180500295Y-188402438D01*
X180607438Y-188307200D01*
X180524104Y-188211961D01*
X180500295Y-188402438D01*
X181107438Y-188878628D02*
X181869342Y-188878628D01*
X181476485Y-188211961D02*
X181262200Y-189926247D01*
X181333628Y-190116723D01*
X181512200Y-190211961D01*
X181702676Y-190211961D01*
X182655057Y-190211961D02*
X182476485Y-190116723D01*
X182405057Y-189926247D01*
X182619342Y-188211961D01*
X184190771Y-190116723D02*
X183988390Y-190211961D01*
X183607438Y-190211961D01*
X183428866Y-190116723D01*
X183357438Y-189926247D01*
X183452676Y-189164342D01*
X183571723Y-188973866D01*
X183774104Y-188878628D01*
X184155057Y-188878628D01*
X184333628Y-188973866D01*
X184405057Y-189164342D01*
X184381247Y-189354819D01*
X183405057Y-189545295D01*
X185155057Y-190021485D02*
X185238390Y-190116723D01*
X185131247Y-190211961D01*
X185047914Y-190116723D01*
X185155057Y-190021485D01*
X185131247Y-190211961D01*
X185286009Y-188973866D02*
X185369342Y-189069104D01*
X185262200Y-189164342D01*
X185178866Y-189069104D01*
X185286009Y-188973866D01*
X185262200Y-189164342D01*
X188750295Y-190211961D02*
X188202676Y-189259580D01*
X187607438Y-190211961D02*
X187857438Y-188211961D01*
X188619342Y-188211961D01*
X188797914Y-188307200D01*
X188881247Y-188402438D01*
X188952676Y-188592914D01*
X188916961Y-188878628D01*
X188797914Y-189069104D01*
X188690771Y-189164342D01*
X188488390Y-189259580D01*
X187726485Y-189259580D01*
X189893152Y-190211961D02*
X189714580Y-190116723D01*
X189631247Y-190021485D01*
X189559819Y-189831009D01*
X189631247Y-189259580D01*
X189750295Y-189069104D01*
X189857438Y-188973866D01*
X190059819Y-188878628D01*
X190345533Y-188878628D01*
X190524104Y-188973866D01*
X190607438Y-189069104D01*
X190678866Y-189259580D01*
X190607438Y-189831009D01*
X190488390Y-190021485D01*
X190381247Y-190116723D01*
X190178866Y-190211961D01*
X189893152Y-190211961D01*
X192286009Y-190116723D02*
X192083628Y-190211961D01*
X191702676Y-190211961D01*
X191524104Y-190116723D01*
X191440771Y-190021485D01*
X191369342Y-189831009D01*
X191440771Y-189259580D01*
X191559819Y-189069104D01*
X191666961Y-188973866D01*
X191869342Y-188878628D01*
X192250295Y-188878628D01*
X192428866Y-188973866D01*
X193131247Y-190211961D02*
X193381247Y-188211961D01*
X193416961Y-189450057D02*
X193893152Y-190211961D01*
X194059819Y-188878628D02*
X193202676Y-189640533D01*
X195524104Y-190116723D02*
X195321723Y-190211961D01*
X194940771Y-190211961D01*
X194762200Y-190116723D01*
X194690771Y-189926247D01*
X194786009Y-189164342D01*
X194905057Y-188973866D01*
X195107438Y-188878628D01*
X195488390Y-188878628D01*
X195666961Y-188973866D01*
X195738390Y-189164342D01*
X195714580Y-189354819D01*
X194738390Y-189545295D01*
X196345533Y-188878628D02*
X197107438Y-188878628D01*
X196714580Y-188211961D02*
X196500295Y-189926247D01*
X196571723Y-190116723D01*
X196750295Y-190211961D01*
X196940771Y-190211961D01*
X199131247Y-190211961D02*
X199381247Y-188211961D01*
X200083628Y-190211961D02*
X200333628Y-188211961D01*
X200821723Y-189640533D01*
X201666961Y-188211961D01*
X201416961Y-190211961D01*
X202619342Y-188211961D02*
X202416961Y-189831009D01*
X202488390Y-190021485D01*
X202571723Y-190116723D01*
X202750295Y-190211961D01*
X203131247Y-190211961D01*
X203333628Y-190116723D01*
X203440771Y-190021485D01*
X203559819Y-189831009D01*
X203762200Y-188211961D01*
X207678866Y-188116723D02*
X205643152Y-190688152D01*
X209524104Y-190116723D02*
X209797914Y-190211961D01*
X210274104Y-190211961D01*
X210476485Y-190116723D01*
X210583628Y-190021485D01*
X210702676Y-189831009D01*
X210726485Y-189640533D01*
X210655057Y-189450057D01*
X210571723Y-189354819D01*
X210393152Y-189259580D01*
X210024104Y-189164342D01*
X209845533Y-189069104D01*
X209762200Y-188973866D01*
X209690771Y-188783390D01*
X209714580Y-188592914D01*
X209833628Y-188402438D01*
X209940771Y-188307200D01*
X210143152Y-188211961D01*
X210619342Y-188211961D01*
X210893152Y-188307200D01*
X212286009Y-190116723D02*
X212083628Y-190211961D01*
X211702676Y-190211961D01*
X211524104Y-190116723D01*
X211452676Y-189926247D01*
X211547914Y-189164342D01*
X211666961Y-188973866D01*
X211869342Y-188878628D01*
X212250295Y-188878628D01*
X212428866Y-188973866D01*
X212500295Y-189164342D01*
X212476485Y-189354819D01*
X211500295Y-189545295D01*
X213393152Y-188878628D02*
X213226485Y-190211961D01*
X213369342Y-189069104D02*
X213476485Y-188973866D01*
X213678866Y-188878628D01*
X213964580Y-188878628D01*
X214143152Y-188973866D01*
X214214580Y-189164342D01*
X214083628Y-190211961D01*
X214952676Y-190116723D02*
X215131247Y-190211961D01*
X215512200Y-190211961D01*
X215714580Y-190116723D01*
X215833628Y-189926247D01*
X215845533Y-189831009D01*
X215774104Y-189640533D01*
X215595533Y-189545295D01*
X215309819Y-189545295D01*
X215131247Y-189450057D01*
X215059819Y-189259580D01*
X215071723Y-189164342D01*
X215190771Y-188973866D01*
X215393152Y-188878628D01*
X215678866Y-188878628D01*
X215857438Y-188973866D01*
X216940771Y-190211961D02*
X216762200Y-190116723D01*
X216678866Y-190021485D01*
X216607438Y-189831009D01*
X216678866Y-189259580D01*
X216797914Y-189069104D01*
X216905057Y-188973866D01*
X217107438Y-188878628D01*
X217393152Y-188878628D01*
X217571723Y-188973866D01*
X217655057Y-189069104D01*
X217726485Y-189259580D01*
X217655057Y-189831009D01*
X217536009Y-190021485D01*
X217428866Y-190116723D01*
X217226485Y-190211961D01*
X216940771Y-190211961D01*
X218464580Y-190211961D02*
X218631247Y-188878628D01*
X218583628Y-189259580D02*
X218702676Y-189069104D01*
X218809819Y-188973866D01*
X219012199Y-188878628D01*
X219202676Y-188878628D01*
X221226485Y-190211961D02*
X221476485Y-188211961D01*
X221357438Y-189164342D02*
X222500295Y-189164342D01*
X222369342Y-190211961D02*
X222619342Y-188211961D01*
X224178866Y-190211961D02*
X224309819Y-189164342D01*
X224238390Y-188973866D01*
X224059819Y-188878628D01*
X223678866Y-188878628D01*
X223476485Y-188973866D01*
X224190771Y-190116723D02*
X223988390Y-190211961D01*
X223512199Y-190211961D01*
X223333628Y-190116723D01*
X223262199Y-189926247D01*
X223286009Y-189735771D01*
X223405057Y-189545295D01*
X223607438Y-189450057D01*
X224083628Y-189450057D01*
X224286009Y-189354819D01*
X225012199Y-188878628D02*
X225774104Y-188878628D01*
X225381247Y-188211961D02*
X225166961Y-189926247D01*
X225238390Y-190116723D01*
X225416961Y-190211961D01*
X225607438Y-190211961D01*
X227797914Y-190211961D02*
X228047914Y-188211961D01*
X228809819Y-188211961D01*
X228988390Y-188307200D01*
X229071723Y-188402438D01*
X229143152Y-188592914D01*
X229107438Y-188878628D01*
X228988390Y-189069104D01*
X228881247Y-189164342D01*
X228678866Y-189259580D01*
X227916961Y-189259580D01*
X230964580Y-190021485D02*
X230857438Y-190116723D01*
X230559819Y-190211961D01*
X230369342Y-190211961D01*
X230095533Y-190116723D01*
X229928866Y-189926247D01*
X229857438Y-189735771D01*
X229809819Y-189354819D01*
X229845533Y-189069104D01*
X229988390Y-188688152D01*
X230107438Y-188497676D01*
X230321723Y-188307200D01*
X230619342Y-188211961D01*
X230809819Y-188211961D01*
X231083628Y-188307200D01*
X231166961Y-188402438D01*
X232595533Y-189164342D02*
X232869342Y-189259580D01*
X232952676Y-189354819D01*
X233024104Y-189545295D01*
X232988390Y-189831009D01*
X232869342Y-190021485D01*
X232762199Y-190116723D01*
X232559819Y-190211961D01*
X231797914Y-190211961D01*
X232047914Y-188211961D01*
X232714580Y-188211961D01*
X232893152Y-188307200D01*
X232976485Y-188402438D01*
X233047914Y-188592914D01*
X233024104Y-188783390D01*
X232905057Y-188973866D01*
X232797914Y-189069104D01*
X232595533Y-189164342D01*
X231928866Y-189164342D01*
X235321723Y-190211961D02*
X235571723Y-188211961D01*
X236047914Y-188211961D01*
X236321723Y-188307200D01*
X236488390Y-188497676D01*
X236559819Y-188688152D01*
X236607438Y-189069104D01*
X236571723Y-189354819D01*
X236428866Y-189735771D01*
X236309819Y-189926247D01*
X236095533Y-190116723D01*
X235797914Y-190211961D01*
X235321723Y-190211961D01*
X238095533Y-190116723D02*
X237893152Y-190211961D01*
X237512199Y-190211961D01*
X237333628Y-190116723D01*
X237262199Y-189926247D01*
X237357438Y-189164342D01*
X237476485Y-188973866D01*
X237678866Y-188878628D01*
X238059819Y-188878628D01*
X238238390Y-188973866D01*
X238309819Y-189164342D01*
X238286009Y-189354819D01*
X237309819Y-189545295D01*
X238952676Y-190116723D02*
X239131247Y-190211961D01*
X239512199Y-190211961D01*
X239714580Y-190116723D01*
X239833628Y-189926247D01*
X239845533Y-189831009D01*
X239774104Y-189640533D01*
X239595533Y-189545295D01*
X239309819Y-189545295D01*
X239131247Y-189450057D01*
X239059819Y-189259580D01*
X239071723Y-189164342D01*
X239190771Y-188973866D01*
X239393152Y-188878628D01*
X239678866Y-188878628D01*
X239857438Y-188973866D01*
X240655057Y-190211961D02*
X240821723Y-188878628D01*
X240905057Y-188211961D02*
X240797914Y-188307200D01*
X240881247Y-188402438D01*
X240988390Y-188307200D01*
X240905057Y-188211961D01*
X240881247Y-188402438D01*
X242631247Y-188878628D02*
X242428866Y-190497676D01*
X242309819Y-190688152D01*
X242202676Y-190783390D01*
X242000295Y-190878628D01*
X241714580Y-190878628D01*
X241536009Y-190783390D01*
X242476485Y-190116723D02*
X242274104Y-190211961D01*
X241893152Y-190211961D01*
X241714580Y-190116723D01*
X241631247Y-190021485D01*
X241559819Y-189831009D01*
X241631247Y-189259580D01*
X241750295Y-189069104D01*
X241857438Y-188973866D01*
X242059819Y-188878628D01*
X242440771Y-188878628D01*
X242619342Y-188973866D01*
X243583628Y-188878628D02*
X243416961Y-190211961D01*
X243559819Y-189069104D02*
X243666961Y-188973866D01*
X243869342Y-188878628D01*
X244155057Y-188878628D01*
X244333628Y-188973866D01*
X244405057Y-189164342D01*
X244274104Y-190211961D01*
D10*
D11*
X178934342Y-185600057D02*
X178434342Y-185600057D01*
X178434342Y-186385771D02*
X178434342Y-184885771D01*
X179148628Y-184885771D01*
X179720057Y-186385771D02*
X179720057Y-185385771D01*
X179720057Y-184885771D02*
X179648628Y-184957200D01*
X179720057Y-185028628D01*
X179791485Y-184957200D01*
X179720057Y-184885771D01*
X179720057Y-185028628D01*
X180648628Y-186385771D02*
X180505771Y-186314342D01*
X180434342Y-186171485D01*
X180434342Y-184885771D01*
X181791485Y-186314342D02*
X181648628Y-186385771D01*
X181362914Y-186385771D01*
X181220057Y-186314342D01*
X181148628Y-186171485D01*
X181148628Y-185600057D01*
X181220057Y-185457200D01*
X181362914Y-185385771D01*
X181648628Y-185385771D01*
X181791485Y-185457200D01*
X181862914Y-185600057D01*
X181862914Y-185742914D01*
X181148628Y-185885771D01*
X182505771Y-186242914D02*
X182577200Y-186314342D01*
X182505771Y-186385771D01*
X182434342Y-186314342D01*
X182505771Y-186242914D01*
X182505771Y-186385771D01*
X182505771Y-185457200D02*
X182577200Y-185528628D01*
X182505771Y-185600057D01*
X182434342Y-185528628D01*
X182505771Y-185457200D01*
X182505771Y-185600057D01*
X185220057Y-186385771D02*
X184720057Y-185671485D01*
X184362914Y-186385771D02*
X184362914Y-184885771D01*
X184934342Y-184885771D01*
X185077200Y-184957200D01*
X185148628Y-185028628D01*
X185220057Y-185171485D01*
X185220057Y-185385771D01*
X185148628Y-185528628D01*
X185077200Y-185600057D01*
X184934342Y-185671485D01*
X184362914Y-185671485D01*
X186077200Y-186385771D02*
X185934342Y-186314342D01*
X185862914Y-186242914D01*
X185791485Y-186100057D01*
X185791485Y-185671485D01*
X185862914Y-185528628D01*
X185934342Y-185457200D01*
X186077200Y-185385771D01*
X186291485Y-185385771D01*
X186434342Y-185457200D01*
X186505771Y-185528628D01*
X186577200Y-185671485D01*
X186577200Y-186100057D01*
X186505771Y-186242914D01*
X186434342Y-186314342D01*
X186291485Y-186385771D01*
X186077200Y-186385771D01*
X187862914Y-186314342D02*
X187720057Y-186385771D01*
X187434342Y-186385771D01*
X187291485Y-186314342D01*
X187220057Y-186242914D01*
X187148628Y-186100057D01*
X187148628Y-185671485D01*
X187220057Y-185528628D01*
X187291485Y-185457200D01*
X187434342Y-185385771D01*
X187720057Y-185385771D01*
X187862914Y-185457200D01*
X188505771Y-186385771D02*
X188505771Y-184885771D01*
X188648628Y-185814342D02*
X189077200Y-186385771D01*
X189077200Y-185385771D02*
X188505771Y-185957200D01*
X190291485Y-186314342D02*
X190148628Y-186385771D01*
X189862914Y-186385771D01*
X189720057Y-186314342D01*
X189648628Y-186171485D01*
X189648628Y-185600057D01*
X189720057Y-185457200D01*
X189862914Y-185385771D01*
X190148628Y-185385771D01*
X190291485Y-185457200D01*
X190362914Y-185600057D01*
X190362914Y-185742914D01*
X189648628Y-185885771D01*
X190791485Y-185385771D02*
X191362914Y-185385771D01*
X191005771Y-184885771D02*
X191005771Y-186171485D01*
X191077200Y-186314342D01*
X191220057Y-186385771D01*
X191362914Y-186385771D01*
X191862914Y-186385771D02*
X191862914Y-184885771D01*
X191862914Y-185600057D02*
X192720057Y-185600057D01*
X192720057Y-186385771D02*
X192720057Y-184885771D01*
X194077200Y-186385771D02*
X194077200Y-185600057D01*
X194005771Y-185457200D01*
X193862914Y-185385771D01*
X193577200Y-185385771D01*
X193434342Y-185457200D01*
X194077200Y-186314342D02*
X193934342Y-186385771D01*
X193577200Y-186385771D01*
X193434342Y-186314342D01*
X193362914Y-186171485D01*
X193362914Y-186028628D01*
X193434342Y-185885771D01*
X193577200Y-185814342D01*
X193934342Y-185814342D01*
X194077200Y-185742914D01*
X194577200Y-185385771D02*
X195148628Y-185385771D01*
X194791485Y-184885771D02*
X194791485Y-186171485D01*
X194862914Y-186314342D01*
X195005771Y-186385771D01*
X195148628Y-186385771D01*
X195648628Y-186242914D02*
X195720057Y-186314342D01*
X195648628Y-186385771D01*
X195577200Y-186314342D01*
X195648628Y-186242914D01*
X195648628Y-186385771D01*
X196362914Y-186385771D02*
X196362914Y-184885771D01*
X196505771Y-185814342D02*
X196934342Y-186385771D01*
X196934342Y-185385771D02*
X196362914Y-185957200D01*
X197577200Y-186385771D02*
X197577200Y-185385771D01*
X197577200Y-184885771D02*
X197505771Y-184957200D01*
X197577200Y-185028628D01*
X197648628Y-184957200D01*
X197577200Y-184885771D01*
X197577200Y-185028628D01*
X198934342Y-186314342D02*
X198791485Y-186385771D01*
X198505771Y-186385771D01*
X198362914Y-186314342D01*
X198291485Y-186242914D01*
X198220057Y-186100057D01*
X198220057Y-185671485D01*
X198291485Y-185528628D01*
X198362914Y-185457200D01*
X198505771Y-185385771D01*
X198791485Y-185385771D01*
X198934342Y-185457200D01*
X200220057Y-186385771D02*
X200220057Y-185600057D01*
X200148628Y-185457200D01*
X200005771Y-185385771D01*
X199720057Y-185385771D01*
X199577200Y-185457200D01*
X200220057Y-186314342D02*
X200077200Y-186385771D01*
X199720057Y-186385771D01*
X199577200Y-186314342D01*
X199505771Y-186171485D01*
X199505771Y-186028628D01*
X199577200Y-185885771D01*
X199720057Y-185814342D01*
X200077200Y-185814342D01*
X200220057Y-185742914D01*
X201577200Y-186385771D02*
X201577200Y-184885771D01*
X201577200Y-186314342D02*
X201434342Y-186385771D01*
X201148628Y-186385771D01*
X201005771Y-186314342D01*
X200934342Y-186242914D01*
X200862914Y-186100057D01*
X200862914Y-185671485D01*
X200934342Y-185528628D01*
X201005771Y-185457200D01*
X201148628Y-185385771D01*
X201434342Y-185385771D01*
X201577200Y-185457200D01*
X201934342Y-186528628D02*
X203077200Y-186528628D01*
X203434342Y-185385771D02*
X203434342Y-186885771D01*
X203434342Y-185457200D02*
X203577200Y-185385771D01*
X203862914Y-185385771D01*
X204005771Y-185457200D01*
X204077200Y-185528628D01*
X204148628Y-185671485D01*
X204148628Y-186100057D01*
X204077200Y-186242914D01*
X204005771Y-186314342D01*
X203862914Y-186385771D01*
X203577200Y-186385771D01*
X203434342Y-186314342D01*
X205434342Y-186314342D02*
X205291485Y-186385771D01*
X205005771Y-186385771D01*
X204862914Y-186314342D01*
X204791485Y-186242914D01*
X204720057Y-186100057D01*
X204720057Y-185671485D01*
X204791485Y-185528628D01*
X204862914Y-185457200D01*
X205005771Y-185385771D01*
X205291485Y-185385771D01*
X205434342Y-185457200D01*
X206077200Y-186385771D02*
X206077200Y-184885771D01*
X206077200Y-185457200D02*
X206220057Y-185385771D01*
X206505771Y-185385771D01*
X206648628Y-185457200D01*
X206720057Y-185528628D01*
X206791485Y-185671485D01*
X206791485Y-186100057D01*
X206720057Y-186242914D01*
X206648628Y-186314342D01*
X206505771Y-186385771D01*
X206220057Y-186385771D01*
X206077200Y-186314342D01*
D10*
D11*
X177002200Y-181507200D02*
X285002200Y-181507200D01*
D10*
D11*
X178362914Y-183614342D02*
X178577200Y-183685771D01*
X178934342Y-183685771D01*
X179077200Y-183614342D01*
X179148628Y-183542914D01*
X179220057Y-183400057D01*
X179220057Y-183257200D01*
X179148628Y-183114342D01*
X179077200Y-183042914D01*
X178934342Y-182971485D01*
X178648628Y-182900057D01*
X178505771Y-182828628D01*
X178434342Y-182757200D01*
X178362914Y-182614342D01*
X178362914Y-182471485D01*
X178434342Y-182328628D01*
X178505771Y-182257200D01*
X178648628Y-182185771D01*
X179005771Y-182185771D01*
X179220057Y-182257200D01*
X179862914Y-183685771D02*
X179862914Y-182185771D01*
X180505771Y-183685771D02*
X180505771Y-182900057D01*
X180434342Y-182757200D01*
X180291485Y-182685771D01*
X180077200Y-182685771D01*
X179934342Y-182757200D01*
X179862914Y-182828628D01*
X181791485Y-183614342D02*
X181648628Y-183685771D01*
X181362914Y-183685771D01*
X181220057Y-183614342D01*
X181148628Y-183471485D01*
X181148628Y-182900057D01*
X181220057Y-182757200D01*
X181362914Y-182685771D01*
X181648628Y-182685771D01*
X181791485Y-182757200D01*
X181862914Y-182900057D01*
X181862914Y-183042914D01*
X181148628Y-183185771D01*
X183077200Y-183614342D02*
X182934342Y-183685771D01*
X182648628Y-183685771D01*
X182505771Y-183614342D01*
X182434342Y-183471485D01*
X182434342Y-182900057D01*
X182505771Y-182757200D01*
X182648628Y-182685771D01*
X182934342Y-182685771D01*
X183077200Y-182757200D01*
X183148628Y-182900057D01*
X183148628Y-183042914D01*
X182434342Y-183185771D01*
X183577200Y-182685771D02*
X184148628Y-182685771D01*
X183791485Y-182185771D02*
X183791485Y-183471485D01*
X183862914Y-183614342D01*
X184005771Y-183685771D01*
X184148628Y-183685771D01*
X184648628Y-183542914D02*
X184720057Y-183614342D01*
X184648628Y-183685771D01*
X184577200Y-183614342D01*
X184648628Y-183542914D01*
X184648628Y-183685771D01*
X184648628Y-182757200D02*
X184720057Y-182828628D01*
X184648628Y-182900057D01*
X184577200Y-182828628D01*
X184648628Y-182757200D01*
X184648628Y-182900057D01*
D10*
D12*
X179411485Y-180685771D02*
X178911485Y-179971485D01*
X178554342Y-180685771D02*
X178554342Y-179185771D01*
X179125771Y-179185771D01*
X179268628Y-179257200D01*
X179340057Y-179328628D01*
X179411485Y-179471485D01*
X179411485Y-179685771D01*
X179340057Y-179828628D01*
X179268628Y-179900057D01*
X179125771Y-179971485D01*
X178554342Y-179971485D01*
X180268628Y-180685771D02*
X180125771Y-180614342D01*
X180054342Y-180542914D01*
X179982914Y-180400057D01*
X179982914Y-179971485D01*
X180054342Y-179828628D01*
X180125771Y-179757200D01*
X180268628Y-179685771D01*
X180482914Y-179685771D01*
X180625771Y-179757200D01*
X180697200Y-179828628D01*
X180768628Y-179971485D01*
X180768628Y-180400057D01*
X180697200Y-180542914D01*
X180625771Y-180614342D01*
X180482914Y-180685771D01*
X180268628Y-180685771D01*
X181340057Y-180614342D02*
X181482914Y-180685771D01*
X181768628Y-180685771D01*
X181911485Y-180614342D01*
X181982914Y-180471485D01*
X181982914Y-180400057D01*
X181911485Y-180257200D01*
X181768628Y-180185771D01*
X181554342Y-180185771D01*
X181411485Y-180114342D01*
X181340057Y-179971485D01*
X181340057Y-179900057D01*
X181411485Y-179757200D01*
X181554342Y-179685771D01*
X181768628Y-179685771D01*
X181911485Y-179757200D01*
X183197200Y-180614342D02*
X183054342Y-180685771D01*
X182768628Y-180685771D01*
X182625771Y-180614342D01*
X182554342Y-180471485D01*
X182554342Y-179900057D01*
X182625771Y-179757200D01*
X182768628Y-179685771D01*
X183054342Y-179685771D01*
X183197200Y-179757200D01*
X183268628Y-179900057D01*
X183268628Y-180042914D01*
X182554342Y-180185771D01*
X183911485Y-180114342D02*
X185054342Y-180114342D01*
X185768628Y-180685771D02*
X185768628Y-179185771D01*
X185768628Y-179900057D02*
X186625771Y-179900057D01*
X186625771Y-180685771D02*
X186625771Y-179185771D01*
X187982914Y-179685771D02*
X187982914Y-180685771D01*
X187340057Y-179685771D02*
X187340057Y-180471485D01*
X187411485Y-180614342D01*
X187554342Y-180685771D01*
X187768628Y-180685771D01*
X187911485Y-180614342D01*
X187982914Y-180542914D01*
X188911485Y-180685771D02*
X188768628Y-180614342D01*
X188697200Y-180471485D01*
X188697200Y-179185771D01*
X189482914Y-180685771D02*
X189482914Y-179685771D01*
X189482914Y-179828628D02*
X189554342Y-179757200D01*
X189697200Y-179685771D01*
X189911485Y-179685771D01*
X190054342Y-179757200D01*
X190125771Y-179900057D01*
X190125771Y-180685771D01*
X190125771Y-179900057D02*
X190197200Y-179757200D01*
X190340057Y-179685771D01*
X190554342Y-179685771D01*
X190697200Y-179757200D01*
X190768628Y-179900057D01*
X190768628Y-180685771D01*
X192125771Y-180685771D02*
X192125771Y-179900057D01*
X192054342Y-179757200D01*
X191911485Y-179685771D01*
X191625771Y-179685771D01*
X191482914Y-179757200D01*
X192125771Y-180614342D02*
X191982914Y-180685771D01*
X191625771Y-180685771D01*
X191482914Y-180614342D01*
X191411485Y-180471485D01*
X191411485Y-180328628D01*
X191482914Y-180185771D01*
X191625771Y-180114342D01*
X191982914Y-180114342D01*
X192125771Y-180042914D01*
X192840057Y-179685771D02*
X192840057Y-180685771D01*
X192840057Y-179828628D02*
X192911485Y-179757200D01*
X193054342Y-179685771D01*
X193268628Y-179685771D01*
X193411485Y-179757200D01*
X193482914Y-179900057D01*
X193482914Y-180685771D01*
X196197200Y-180685771D02*
X195697200Y-179971485D01*
X195340057Y-180685771D02*
X195340057Y-179185771D01*
X195911485Y-179185771D01*
X196054342Y-179257200D01*
X196125771Y-179328628D01*
X196197200Y-179471485D01*
X196197200Y-179685771D01*
X196125771Y-179828628D01*
X196054342Y-179900057D01*
X195911485Y-179971485D01*
X195340057Y-179971485D01*
X197054342Y-180685771D02*
X196911485Y-180614342D01*
X196840057Y-180542914D01*
X196768628Y-180400057D01*
X196768628Y-179971485D01*
X196840057Y-179828628D01*
X196911485Y-179757200D01*
X197054342Y-179685771D01*
X197268628Y-179685771D01*
X197411485Y-179757200D01*
X197482914Y-179828628D01*
X197554342Y-179971485D01*
X197554342Y-180400057D01*
X197482914Y-180542914D01*
X197411485Y-180614342D01*
X197268628Y-180685771D01*
X197054342Y-180685771D01*
X198840057Y-180614342D02*
X198697200Y-180685771D01*
X198411485Y-180685771D01*
X198268628Y-180614342D01*
X198197200Y-180542914D01*
X198125771Y-180400057D01*
X198125771Y-179971485D01*
X198197200Y-179828628D01*
X198268628Y-179757200D01*
X198411485Y-179685771D01*
X198697200Y-179685771D01*
X198840057Y-179757200D01*
X199482914Y-180685771D02*
X199482914Y-179185771D01*
X199625771Y-180114342D02*
X200054342Y-180685771D01*
X200054342Y-179685771D02*
X199482914Y-180257200D01*
X201268628Y-180614342D02*
X201125771Y-180685771D01*
X200840057Y-180685771D01*
X200697200Y-180614342D01*
X200625771Y-180471485D01*
X200625771Y-179900057D01*
X200697200Y-179757200D01*
X200840057Y-179685771D01*
X201125771Y-179685771D01*
X201268628Y-179757200D01*
X201340057Y-179900057D01*
X201340057Y-180042914D01*
X200625771Y-180185771D01*
X201768628Y-179685771D02*
X202340057Y-179685771D01*
X201982914Y-179185771D02*
X201982914Y-180471485D01*
X202054342Y-180614342D01*
X202197200Y-180685771D01*
X202340057Y-180685771D01*
X202840057Y-180685771D02*
X202840057Y-179685771D01*
X202840057Y-179971485D02*
X202911485Y-179828628D01*
X202982914Y-179757200D01*
X203125771Y-179685771D01*
X203268628Y-179685771D01*
X203625771Y-179685771D02*
X203982914Y-180685771D01*
X204340057Y-179685771D02*
X203982914Y-180685771D01*
X203840057Y-181042914D01*
X203768628Y-181114342D01*
X203625771Y-181185771D01*
X206911485Y-180542914D02*
X206840057Y-180614342D01*
X206625771Y-180685771D01*
X206482914Y-180685771D01*
X206268628Y-180614342D01*
X206125771Y-180471485D01*
X206054342Y-180328628D01*
X205982914Y-180042914D01*
X205982914Y-179828628D01*
X206054342Y-179542914D01*
X206125771Y-179400057D01*
X206268628Y-179257200D01*
X206482914Y-179185771D01*
X206625771Y-179185771D01*
X206840057Y-179257200D01*
X206911485Y-179328628D01*
X207768628Y-180685771D02*
X207625771Y-180614342D01*
X207554342Y-180471485D01*
X207554342Y-179185771D01*
X208982914Y-179685771D02*
X208982914Y-180685771D01*
X208340057Y-179685771D02*
X208340057Y-180471485D01*
X208411485Y-180614342D01*
X208554342Y-180685771D01*
X208768628Y-180685771D01*
X208911485Y-180614342D01*
X208982914Y-180542914D01*
X209697200Y-180685771D02*
X209697200Y-179185771D01*
X209697200Y-179757200D02*
X209840057Y-179685771D01*
X210125771Y-179685771D01*
X210268628Y-179757200D01*
X210340057Y-179828628D01*
X210411485Y-179971485D01*
X210411485Y-180400057D01*
X210340057Y-180542914D01*
X210268628Y-180614342D01*
X210125771Y-180685771D01*
X209840057Y-180685771D01*
X209697200Y-180614342D01*
D10*
D11*
D10*
D11*
X178434342Y-174685771D02*
X178434342Y-173185771D01*
X179077200Y-174685771D02*
X179077200Y-173900057D01*
X179005771Y-173757200D01*
X178862914Y-173685771D01*
X178648628Y-173685771D01*
X178505771Y-173757200D01*
X178434342Y-173828628D01*
X179577200Y-173685771D02*
X180148628Y-173685771D01*
X179791485Y-173185771D02*
X179791485Y-174471485D01*
X179862914Y-174614342D01*
X180005771Y-174685771D01*
X180148628Y-174685771D01*
X180434342Y-173685771D02*
X181005771Y-173685771D01*
X180648628Y-173185771D02*
X180648628Y-174471485D01*
X180720057Y-174614342D01*
X180862914Y-174685771D01*
X181005771Y-174685771D01*
X181505771Y-173685771D02*
X181505771Y-175185771D01*
X181505771Y-173757200D02*
X181648628Y-173685771D01*
X181934342Y-173685771D01*
X182077200Y-173757200D01*
X182148628Y-173828628D01*
X182220057Y-173971485D01*
X182220057Y-174400057D01*
X182148628Y-174542914D01*
X182077200Y-174614342D01*
X181934342Y-174685771D01*
X181648628Y-174685771D01*
X181505771Y-174614342D01*
X182791485Y-174614342D02*
X182934342Y-174685771D01*
X183220057Y-174685771D01*
X183362914Y-174614342D01*
X183434342Y-174471485D01*
X183434342Y-174400057D01*
X183362914Y-174257200D01*
X183220057Y-174185771D01*
X183005771Y-174185771D01*
X182862914Y-174114342D01*
X182791485Y-173971485D01*
X182791485Y-173900057D01*
X182862914Y-173757200D01*
X183005771Y-173685771D01*
X183220057Y-173685771D01*
X183362914Y-173757200D01*
X184077200Y-174542914D02*
X184148628Y-174614342D01*
X184077200Y-174685771D01*
X184005771Y-174614342D01*
X184077200Y-174542914D01*
X184077200Y-174685771D01*
X184077200Y-173757200D02*
X184148628Y-173828628D01*
X184077200Y-173900057D01*
X184005771Y-173828628D01*
X184077200Y-173757200D01*
X184077200Y-173900057D01*
X185862914Y-173114342D02*
X184577200Y-175042914D01*
X187434342Y-173114342D02*
X186148628Y-175042914D01*
X188577200Y-174614342D02*
X188434342Y-174685771D01*
X188148628Y-174685771D01*
X188005771Y-174614342D01*
X187934342Y-174542914D01*
X187862914Y-174400057D01*
X187862914Y-173971485D01*
X187934342Y-173828628D01*
X188005771Y-173757200D01*
X188148628Y-173685771D01*
X188434342Y-173685771D01*
X188577200Y-173757200D01*
X189220057Y-174685771D02*
X189220057Y-173685771D01*
X189220057Y-173971485D02*
X189291485Y-173828628D01*
X189362914Y-173757200D01*
X189505771Y-173685771D01*
X189648628Y-173685771D01*
X190720057Y-174614342D02*
X190577200Y-174685771D01*
X190291485Y-174685771D01*
X190148628Y-174614342D01*
X190077200Y-174471485D01*
X190077200Y-173900057D01*
X190148628Y-173757200D01*
X190291485Y-173685771D01*
X190577200Y-173685771D01*
X190720057Y-173757200D01*
X190791485Y-173900057D01*
X190791485Y-174042914D01*
X190077200Y-174185771D01*
X192077200Y-174685771D02*
X192077200Y-173900057D01*
X192005771Y-173757200D01*
X191862914Y-173685771D01*
X191577200Y-173685771D01*
X191434342Y-173757200D01*
X192077200Y-174614342D02*
X191934342Y-174685771D01*
X191577200Y-174685771D01*
X191434342Y-174614342D01*
X191362914Y-174471485D01*
X191362914Y-174328628D01*
X191434342Y-174185771D01*
X191577200Y-174114342D01*
X191934342Y-174114342D01*
X192077200Y-174042914D01*
X192577200Y-173685771D02*
X193148628Y-173685771D01*
X192791485Y-173185771D02*
X192791485Y-174471485D01*
X192862914Y-174614342D01*
X193005771Y-174685771D01*
X193148628Y-174685771D01*
X193648628Y-174685771D02*
X193648628Y-173685771D01*
X193648628Y-173185771D02*
X193577200Y-173257200D01*
X193648628Y-173328628D01*
X193720057Y-173257200D01*
X193648628Y-173185771D01*
X193648628Y-173328628D01*
X194220057Y-173685771D02*
X194577200Y-174685771D01*
X194934342Y-173685771D01*
X196077200Y-174614342D02*
X195934342Y-174685771D01*
X195648628Y-174685771D01*
X195505771Y-174614342D01*
X195434342Y-174471485D01*
X195434342Y-173900057D01*
X195505771Y-173757200D01*
X195648628Y-173685771D01*
X195934342Y-173685771D01*
X196077200Y-173757200D01*
X196148628Y-173900057D01*
X196148628Y-174042914D01*
X195434342Y-174185771D01*
X197434342Y-174614342D02*
X197291485Y-174685771D01*
X197005771Y-174685771D01*
X196862914Y-174614342D01*
X196791485Y-174542914D01*
X196720057Y-174400057D01*
X196720057Y-173971485D01*
X196791485Y-173828628D01*
X196862914Y-173757200D01*
X197005771Y-173685771D01*
X197291485Y-173685771D01*
X197434342Y-173757200D01*
X198291485Y-174685771D02*
X198148628Y-174614342D01*
X198077200Y-174542914D01*
X198005771Y-174400057D01*
X198005771Y-173971485D01*
X198077200Y-173828628D01*
X198148628Y-173757200D01*
X198291485Y-173685771D01*
X198505771Y-173685771D01*
X198648628Y-173757200D01*
X198720057Y-173828628D01*
X198791485Y-173971485D01*
X198791485Y-174400057D01*
X198720057Y-174542914D01*
X198648628Y-174614342D01*
X198505771Y-174685771D01*
X198291485Y-174685771D01*
X199434342Y-174685771D02*
X199434342Y-173685771D01*
X199434342Y-173828628D02*
X199505771Y-173757200D01*
X199648628Y-173685771D01*
X199862914Y-173685771D01*
X200005771Y-173757200D01*
X200077200Y-173900057D01*
X200077200Y-174685771D01*
X200077200Y-173900057D02*
X200148628Y-173757200D01*
X200291485Y-173685771D01*
X200505771Y-173685771D01*
X200648628Y-173757200D01*
X200720057Y-173900057D01*
X200720057Y-174685771D01*
X201434342Y-174685771D02*
X201434342Y-173685771D01*
X201434342Y-173828628D02*
X201505771Y-173757200D01*
X201648628Y-173685771D01*
X201862914Y-173685771D01*
X202005771Y-173757200D01*
X202077200Y-173900057D01*
X202077200Y-174685771D01*
X202077200Y-173900057D02*
X202148628Y-173757200D01*
X202291485Y-173685771D01*
X202505771Y-173685771D01*
X202648628Y-173757200D01*
X202720057Y-173900057D01*
X202720057Y-174685771D01*
X203648628Y-174685771D02*
X203505771Y-174614342D01*
X203434342Y-174542914D01*
X203362914Y-174400057D01*
X203362914Y-173971485D01*
X203434342Y-173828628D01*
X203505771Y-173757200D01*
X203648628Y-173685771D01*
X203862914Y-173685771D01*
X204005771Y-173757200D01*
X204077200Y-173828628D01*
X204148628Y-173971485D01*
X204148628Y-174400057D01*
X204077200Y-174542914D01*
X204005771Y-174614342D01*
X203862914Y-174685771D01*
X203648628Y-174685771D01*
X204791485Y-173685771D02*
X204791485Y-174685771D01*
X204791485Y-173828628D02*
X204862914Y-173757200D01*
X205005771Y-173685771D01*
X205220057Y-173685771D01*
X205362914Y-173757200D01*
X205434342Y-173900057D01*
X205434342Y-174685771D01*
X206077200Y-174614342D02*
X206220057Y-174685771D01*
X206505771Y-174685771D01*
X206648628Y-174614342D01*
X206720057Y-174471485D01*
X206720057Y-174400057D01*
X206648628Y-174257200D01*
X206505771Y-174185771D01*
X206291485Y-174185771D01*
X206148628Y-174114342D01*
X206077200Y-173971485D01*
X206077200Y-173900057D01*
X206148628Y-173757200D01*
X206291485Y-173685771D01*
X206505771Y-173685771D01*
X206648628Y-173757200D01*
X207362914Y-174542914D02*
X207434342Y-174614342D01*
X207362914Y-174685771D01*
X207291485Y-174614342D01*
X207362914Y-174542914D01*
X207362914Y-174685771D01*
X208291485Y-174685771D02*
X208148628Y-174614342D01*
X208077200Y-174542914D01*
X208005771Y-174400057D01*
X208005771Y-173971485D01*
X208077200Y-173828628D01*
X208148628Y-173757200D01*
X208291485Y-173685771D01*
X208505771Y-173685771D01*
X208648628Y-173757200D01*
X208720057Y-173828628D01*
X208791485Y-173971485D01*
X208791485Y-174400057D01*
X208720057Y-174542914D01*
X208648628Y-174614342D01*
X208505771Y-174685771D01*
X208291485Y-174685771D01*
X209434342Y-174685771D02*
X209434342Y-173685771D01*
X209434342Y-173971485D02*
X209505771Y-173828628D01*
X209577200Y-173757200D01*
X209720057Y-173685771D01*
X209862914Y-173685771D01*
X211005771Y-173685771D02*
X211005771Y-174900057D01*
X210934342Y-175042914D01*
X210862914Y-175114342D01*
X210720057Y-175185771D01*
X210505771Y-175185771D01*
X210362914Y-175114342D01*
X211005771Y-174614342D02*
X210862914Y-174685771D01*
X210577200Y-174685771D01*
X210434342Y-174614342D01*
X210362914Y-174542914D01*
X210291485Y-174400057D01*
X210291485Y-173971485D01*
X210362914Y-173828628D01*
X210434342Y-173757200D01*
X210577200Y-173685771D01*
X210862914Y-173685771D01*
X211005771Y-173757200D01*
X212791485Y-173114342D02*
X211505771Y-175042914D01*
X213505771Y-174685771D02*
X213362914Y-174614342D01*
X213291485Y-174471485D01*
X213291485Y-173185771D01*
X214077200Y-174685771D02*
X214077200Y-173685771D01*
X214077200Y-173185771D02*
X214005771Y-173257200D01*
X214077200Y-173328628D01*
X214148628Y-173257200D01*
X214077200Y-173185771D01*
X214077200Y-173328628D01*
X215434342Y-174614342D02*
X215291485Y-174685771D01*
X215005771Y-174685771D01*
X214862914Y-174614342D01*
X214791485Y-174542914D01*
X214720057Y-174400057D01*
X214720057Y-173971485D01*
X214791485Y-173828628D01*
X214862914Y-173757200D01*
X215005771Y-173685771D01*
X215291485Y-173685771D01*
X215434342Y-173757200D01*
X216648628Y-174614342D02*
X216505771Y-174685771D01*
X216220057Y-174685771D01*
X216077200Y-174614342D01*
X216005771Y-174471485D01*
X216005771Y-173900057D01*
X216077200Y-173757200D01*
X216220057Y-173685771D01*
X216505771Y-173685771D01*
X216648628Y-173757200D01*
X216720057Y-173900057D01*
X216720057Y-174042914D01*
X216005771Y-174185771D01*
X217362914Y-173685771D02*
X217362914Y-174685771D01*
X217362914Y-173828628D02*
X217434342Y-173757200D01*
X217577200Y-173685771D01*
X217791485Y-173685771D01*
X217934342Y-173757200D01*
X218005771Y-173900057D01*
X218005771Y-174685771D01*
X218648628Y-174614342D02*
X218791485Y-174685771D01*
X219077200Y-174685771D01*
X219220057Y-174614342D01*
X219291485Y-174471485D01*
X219291485Y-174400057D01*
X219220057Y-174257200D01*
X219077200Y-174185771D01*
X218862914Y-174185771D01*
X218720057Y-174114342D01*
X218648628Y-173971485D01*
X218648628Y-173900057D01*
X218720057Y-173757200D01*
X218862914Y-173685771D01*
X219077200Y-173685771D01*
X219220057Y-173757200D01*
X220505771Y-174614342D02*
X220362914Y-174685771D01*
X220077200Y-174685771D01*
X219934342Y-174614342D01*
X219862914Y-174471485D01*
X219862914Y-173900057D01*
X219934342Y-173757200D01*
X220077200Y-173685771D01*
X220362914Y-173685771D01*
X220505771Y-173757200D01*
X220577200Y-173900057D01*
X220577200Y-174042914D01*
X219862914Y-174185771D01*
X221148628Y-174614342D02*
X221291485Y-174685771D01*
X221577200Y-174685771D01*
X221720057Y-174614342D01*
X221791485Y-174471485D01*
X221791485Y-174400057D01*
X221720057Y-174257200D01*
X221577200Y-174185771D01*
X221362914Y-174185771D01*
X221220057Y-174114342D01*
X221148628Y-173971485D01*
X221148628Y-173900057D01*
X221220057Y-173757200D01*
X221362914Y-173685771D01*
X221577200Y-173685771D01*
X221720057Y-173757200D01*
X223505771Y-173114342D02*
X222220057Y-175042914D01*
X224005771Y-174685771D02*
X224005771Y-173185771D01*
X224005771Y-173757200D02*
X224148628Y-173685771D01*
X224434342Y-173685771D01*
X224577200Y-173757200D01*
X224648628Y-173828628D01*
X224720057Y-173971485D01*
X224720057Y-174400057D01*
X224648628Y-174542914D01*
X224577200Y-174614342D01*
X224434342Y-174685771D01*
X224148628Y-174685771D01*
X224005771Y-174614342D01*
X225220057Y-173685771D02*
X225577200Y-174685771D01*
X225934342Y-173685771D02*
X225577200Y-174685771D01*
X225434342Y-175042914D01*
X225362914Y-175114342D01*
X225220057Y-175185771D01*
X226505771Y-174114342D02*
X227648628Y-174114342D01*
X228291485Y-174614342D02*
X228434342Y-174685771D01*
X228720057Y-174685771D01*
X228862914Y-174614342D01*
X228934342Y-174471485D01*
X228934342Y-174400057D01*
X228862914Y-174257200D01*
X228720057Y-174185771D01*
X228505771Y-174185771D01*
X228362914Y-174114342D01*
X228291485Y-173971485D01*
X228291485Y-173900057D01*
X228362914Y-173757200D01*
X228505771Y-173685771D01*
X228720057Y-173685771D01*
X228862914Y-173757200D01*
X230220057Y-174685771D02*
X230220057Y-173900057D01*
X230148628Y-173757200D01*
X230005771Y-173685771D01*
X229720057Y-173685771D01*
X229577200Y-173757200D01*
X230220057Y-174614342D02*
X230077200Y-174685771D01*
X229720057Y-174685771D01*
X229577200Y-174614342D01*
X229505771Y-174471485D01*
X229505771Y-174328628D01*
X229577200Y-174185771D01*
X229720057Y-174114342D01*
X230077200Y-174114342D01*
X230220057Y-174042914D01*
X232005771Y-173114342D02*
X230720057Y-175042914D01*
X233148628Y-173685771D02*
X233148628Y-174685771D01*
X232791485Y-173114342D02*
X232434342Y-174185771D01*
X233362914Y-174185771D01*
X233934342Y-174542914D02*
X234005771Y-174614342D01*
X233934342Y-174685771D01*
X233862914Y-174614342D01*
X233934342Y-174542914D01*
X233934342Y-174685771D01*
X234934342Y-173185771D02*
X235077200Y-173185771D01*
X235220057Y-173257200D01*
X235291485Y-173328628D01*
X235362914Y-173471485D01*
X235434342Y-173757200D01*
X235434342Y-174114342D01*
X235362914Y-174400057D01*
X235291485Y-174542914D01*
X235220057Y-174614342D01*
X235077200Y-174685771D01*
X234934342Y-174685771D01*
X234791485Y-174614342D01*
X234720057Y-174542914D01*
X234648628Y-174400057D01*
X234577200Y-174114342D01*
X234577200Y-173757200D01*
X234648628Y-173471485D01*
X234720057Y-173328628D01*
X234791485Y-173257200D01*
X234934342Y-173185771D01*
X237148628Y-173114342D02*
X235862914Y-175042914D01*
D10*
D11*
X179148628Y-171685771D02*
X178434342Y-171685771D01*
X178434342Y-170185771D01*
X179648628Y-171685771D02*
X179648628Y-170685771D01*
X179648628Y-170185771D02*
X179577200Y-170257200D01*
X179648628Y-170328628D01*
X179720057Y-170257200D01*
X179648628Y-170185771D01*
X179648628Y-170328628D01*
X181005771Y-171614342D02*
X180862914Y-171685771D01*
X180577200Y-171685771D01*
X180434342Y-171614342D01*
X180362914Y-171542914D01*
X180291485Y-171400057D01*
X180291485Y-170971485D01*
X180362914Y-170828628D01*
X180434342Y-170757200D01*
X180577200Y-170685771D01*
X180862914Y-170685771D01*
X181005771Y-170757200D01*
X182220057Y-171614342D02*
X182077200Y-171685771D01*
X181791485Y-171685771D01*
X181648628Y-171614342D01*
X181577200Y-171471485D01*
X181577200Y-170900057D01*
X181648628Y-170757200D01*
X181791485Y-170685771D01*
X182077200Y-170685771D01*
X182220057Y-170757200D01*
X182291485Y-170900057D01*
X182291485Y-171042914D01*
X181577200Y-171185771D01*
X182934342Y-170685771D02*
X182934342Y-171685771D01*
X182934342Y-170828628D02*
X183005771Y-170757200D01*
X183148628Y-170685771D01*
X183362914Y-170685771D01*
X183505771Y-170757200D01*
X183577200Y-170900057D01*
X183577200Y-171685771D01*
X184220057Y-171614342D02*
X184362914Y-171685771D01*
X184648628Y-171685771D01*
X184791485Y-171614342D01*
X184862914Y-171471485D01*
X184862914Y-171400057D01*
X184791485Y-171257200D01*
X184648628Y-171185771D01*
X184434342Y-171185771D01*
X184291485Y-171114342D01*
X184220057Y-170971485D01*
X184220057Y-170900057D01*
X184291485Y-170757200D01*
X184434342Y-170685771D01*
X184648628Y-170685771D01*
X184791485Y-170757200D01*
X186077200Y-171614342D02*
X185934342Y-171685771D01*
X185648628Y-171685771D01*
X185505771Y-171614342D01*
X185434342Y-171471485D01*
X185434342Y-170900057D01*
X185505771Y-170757200D01*
X185648628Y-170685771D01*
X185934342Y-170685771D01*
X186077200Y-170757200D01*
X186148628Y-170900057D01*
X186148628Y-171042914D01*
X185434342Y-171185771D01*
X186791485Y-171542914D02*
X186862914Y-171614342D01*
X186791485Y-171685771D01*
X186720057Y-171614342D01*
X186791485Y-171542914D01*
X186791485Y-171685771D01*
X186791485Y-170757200D02*
X186862914Y-170828628D01*
X186791485Y-170900057D01*
X186720057Y-170828628D01*
X186791485Y-170757200D01*
X186791485Y-170900057D01*
X189505771Y-171542914D02*
X189434342Y-171614342D01*
X189220057Y-171685771D01*
X189077200Y-171685771D01*
X188862914Y-171614342D01*
X188720057Y-171471485D01*
X188648628Y-171328628D01*
X188577200Y-171042914D01*
X188577200Y-170828628D01*
X188648628Y-170542914D01*
X188720057Y-170400057D01*
X188862914Y-170257200D01*
X189077200Y-170185771D01*
X189220057Y-170185771D01*
X189434342Y-170257200D01*
X189505771Y-170328628D01*
X191005771Y-171542914D02*
X190934342Y-171614342D01*
X190720057Y-171685771D01*
X190577200Y-171685771D01*
X190362914Y-171614342D01*
X190220057Y-171471485D01*
X190148628Y-171328628D01*
X190077200Y-171042914D01*
X190077200Y-170828628D01*
X190148628Y-170542914D01*
X190220057Y-170400057D01*
X190362914Y-170257200D01*
X190577200Y-170185771D01*
X190720057Y-170185771D01*
X190934342Y-170257200D01*
X191005771Y-170328628D01*
X193291485Y-170900057D02*
X193505771Y-170971485D01*
X193577200Y-171042914D01*
X193648628Y-171185771D01*
X193648628Y-171400057D01*
X193577200Y-171542914D01*
X193505771Y-171614342D01*
X193362914Y-171685771D01*
X192791485Y-171685771D01*
X192791485Y-170185771D01*
X193291485Y-170185771D01*
X193434342Y-170257200D01*
X193505771Y-170328628D01*
X193577200Y-170471485D01*
X193577200Y-170614342D01*
X193505771Y-170757200D01*
X193434342Y-170828628D01*
X193291485Y-170900057D01*
X192791485Y-170900057D01*
X194577200Y-170971485D02*
X194577200Y-171685771D01*
X194077200Y-170185771D02*
X194577200Y-170971485D01*
X195077200Y-170185771D01*
X195577200Y-171114342D02*
X196720057Y-171114342D01*
X197362914Y-171614342D02*
X197577200Y-171685771D01*
X197934342Y-171685771D01*
X198077200Y-171614342D01*
X198148628Y-171542914D01*
X198220057Y-171400057D01*
X198220057Y-171257200D01*
X198148628Y-171114342D01*
X198077200Y-171042914D01*
X197934342Y-170971485D01*
X197648628Y-170900057D01*
X197505771Y-170828628D01*
X197434342Y-170757200D01*
X197362914Y-170614342D01*
X197362914Y-170471485D01*
X197434342Y-170328628D01*
X197505771Y-170257200D01*
X197648628Y-170185771D01*
X198005771Y-170185771D01*
X198220057Y-170257200D01*
X198791485Y-171257200D02*
X199505771Y-171257200D01*
X198648628Y-171685771D02*
X199148628Y-170185771D01*
X199648628Y-171685771D01*
X201934342Y-170685771D02*
X201934342Y-171685771D01*
X201577200Y-170114342D02*
X201220057Y-171185771D01*
X202148628Y-171185771D01*
X202720057Y-171542914D02*
X202791485Y-171614342D01*
X202720057Y-171685771D01*
X202648628Y-171614342D01*
X202720057Y-171542914D01*
X202720057Y-171685771D01*
X203720057Y-170185771D02*
X203862914Y-170185771D01*
X204005771Y-170257200D01*
X204077200Y-170328628D01*
X204148628Y-170471485D01*
X204220057Y-170757200D01*
X204220057Y-171114342D01*
X204148628Y-171400057D01*
X204077200Y-171542914D01*
X204005771Y-171614342D01*
X203862914Y-171685771D01*
X203720057Y-171685771D01*
X203577200Y-171614342D01*
X203505771Y-171542914D01*
X203434342Y-171400057D01*
X203362914Y-171114342D01*
X203362914Y-170757200D01*
X203434342Y-170471485D01*
X203505771Y-170328628D01*
X203577200Y-170257200D01*
X203720057Y-170185771D01*
D10*
D11*
X178362914Y-168257200D02*
X179077200Y-168257200D01*
X178220057Y-168685771D02*
X178720057Y-167185771D01*
X179220057Y-168685771D01*
X180362914Y-167685771D02*
X180362914Y-168685771D01*
X179720057Y-167685771D02*
X179720057Y-168471485D01*
X179791485Y-168614342D01*
X179934342Y-168685771D01*
X180148628Y-168685771D01*
X180291485Y-168614342D01*
X180362914Y-168542914D01*
X180862914Y-167685771D02*
X181434342Y-167685771D01*
X181077200Y-167185771D02*
X181077200Y-168471485D01*
X181148628Y-168614342D01*
X181291485Y-168685771D01*
X181434342Y-168685771D01*
X181934342Y-168685771D02*
X181934342Y-167185771D01*
X182577200Y-168685771D02*
X182577200Y-167900057D01*
X182505771Y-167757200D01*
X182362914Y-167685771D01*
X182148628Y-167685771D01*
X182005771Y-167757200D01*
X181934342Y-167828628D01*
X183505771Y-168685771D02*
X183362914Y-168614342D01*
X183291485Y-168542914D01*
X183220057Y-168400057D01*
X183220057Y-167971485D01*
X183291485Y-167828628D01*
X183362914Y-167757200D01*
X183505771Y-167685771D01*
X183720057Y-167685771D01*
X183862914Y-167757200D01*
X183934342Y-167828628D01*
X184005771Y-167971485D01*
X184005771Y-168400057D01*
X183934342Y-168542914D01*
X183862914Y-168614342D01*
X183720057Y-168685771D01*
X183505771Y-168685771D01*
X184648628Y-168685771D02*
X184648628Y-167685771D01*
X184648628Y-167971485D02*
X184720057Y-167828628D01*
X184791485Y-167757200D01*
X184934342Y-167685771D01*
X185077200Y-167685771D01*
X185577200Y-168542914D02*
X185648628Y-168614342D01*
X185577200Y-168685771D01*
X185505771Y-168614342D01*
X185577200Y-168542914D01*
X185577200Y-168685771D01*
X185577200Y-167757200D02*
X185648628Y-167828628D01*
X185577200Y-167900057D01*
X185505771Y-167828628D01*
X185577200Y-167757200D01*
X185577200Y-167900057D01*
X187862914Y-167185771D02*
X187862914Y-168257200D01*
X187791485Y-168471485D01*
X187648628Y-168614342D01*
X187434342Y-168685771D01*
X187291485Y-168685771D01*
X189220057Y-168685771D02*
X189220057Y-167900057D01*
X189148628Y-167757200D01*
X189005771Y-167685771D01*
X188720057Y-167685771D01*
X188577200Y-167757200D01*
X189220057Y-168614342D02*
X189077200Y-168685771D01*
X188720057Y-168685771D01*
X188577200Y-168614342D01*
X188505771Y-168471485D01*
X188505771Y-168328628D01*
X188577200Y-168185771D01*
X188720057Y-168114342D01*
X189077200Y-168114342D01*
X189220057Y-168042914D01*
X190577200Y-168614342D02*
X190434342Y-168685771D01*
X190148628Y-168685771D01*
X190005771Y-168614342D01*
X189934342Y-168542914D01*
X189862914Y-168400057D01*
X189862914Y-167971485D01*
X189934342Y-167828628D01*
X190005771Y-167757200D01*
X190148628Y-167685771D01*
X190434342Y-167685771D01*
X190577200Y-167757200D01*
X191434342Y-168685771D02*
X191291485Y-168614342D01*
X191220057Y-168542914D01*
X191148628Y-168400057D01*
X191148628Y-167971485D01*
X191220057Y-167828628D01*
X191291485Y-167757200D01*
X191434342Y-167685771D01*
X191648628Y-167685771D01*
X191791485Y-167757200D01*
X191862914Y-167828628D01*
X191934342Y-167971485D01*
X191934342Y-168400057D01*
X191862914Y-168542914D01*
X191791485Y-168614342D01*
X191648628Y-168685771D01*
X191434342Y-168685771D01*
X192577200Y-168685771D02*
X192577200Y-167185771D01*
X192577200Y-167757200D02*
X192720057Y-167685771D01*
X193005771Y-167685771D01*
X193148628Y-167757200D01*
X193220057Y-167828628D01*
X193291485Y-167971485D01*
X193291485Y-168400057D01*
X193220057Y-168542914D01*
X193148628Y-168614342D01*
X193005771Y-168685771D01*
X192720057Y-168685771D01*
X192577200Y-168614342D01*
X195005771Y-168257200D02*
X195720057Y-168257200D01*
X194862914Y-168685771D02*
X195362914Y-167185771D01*
X195862914Y-168685771D01*
X196362914Y-168685771D02*
X196362914Y-167685771D01*
X196362914Y-167971485D02*
X196434342Y-167828628D01*
X196505771Y-167757200D01*
X196648628Y-167685771D01*
X196791485Y-167685771D01*
X197291485Y-168685771D02*
X197291485Y-167685771D01*
X197291485Y-167828628D02*
X197362914Y-167757200D01*
X197505771Y-167685771D01*
X197720057Y-167685771D01*
X197862914Y-167757200D01*
X197934342Y-167900057D01*
X197934342Y-168685771D01*
X197934342Y-167900057D02*
X198005771Y-167757200D01*
X198148628Y-167685771D01*
X198362914Y-167685771D01*
X198505771Y-167757200D01*
X198577200Y-167900057D01*
X198577200Y-168685771D01*
X199220057Y-168614342D02*
X199362914Y-168685771D01*
X199648628Y-168685771D01*
X199791485Y-168614342D01*
X199862914Y-168471485D01*
X199862914Y-168400057D01*
X199791485Y-168257200D01*
X199648628Y-168185771D01*
X199434342Y-168185771D01*
X199291485Y-168114342D01*
X199220057Y-167971485D01*
X199220057Y-167900057D01*
X199291485Y-167757200D01*
X199434342Y-167685771D01*
X199648628Y-167685771D01*
X199791485Y-167757200D01*
X200291485Y-167685771D02*
X200862914Y-167685771D01*
X200505771Y-167185771D02*
X200505771Y-168471485D01*
X200577200Y-168614342D01*
X200720057Y-168685771D01*
X200862914Y-168685771D01*
X201362914Y-168685771D02*
X201362914Y-167685771D01*
X201362914Y-167971485D02*
X201434342Y-167828628D01*
X201505771Y-167757200D01*
X201648628Y-167685771D01*
X201791485Y-167685771D01*
X202505771Y-168685771D02*
X202362914Y-168614342D01*
X202291485Y-168542914D01*
X202220057Y-168400057D01*
X202220057Y-167971485D01*
X202291485Y-167828628D01*
X202362914Y-167757200D01*
X202505771Y-167685771D01*
X202720057Y-167685771D01*
X202862914Y-167757200D01*
X202934342Y-167828628D01*
X203005771Y-167971485D01*
X203005771Y-168400057D01*
X202934342Y-168542914D01*
X202862914Y-168614342D01*
X202720057Y-168685771D01*
X202505771Y-168685771D01*
X203648628Y-167685771D02*
X203648628Y-168685771D01*
X203648628Y-167828628D02*
X203720057Y-167757200D01*
X203862914Y-167685771D01*
X204077200Y-167685771D01*
X204220057Y-167757200D01*
X204291485Y-167900057D01*
X204291485Y-168685771D01*
X205648628Y-167685771D02*
X205648628Y-168900057D01*
X205577200Y-169042914D01*
X205505771Y-169114342D01*
X205362914Y-169185771D01*
X205148628Y-169185771D01*
X205005771Y-169114342D01*
X205648628Y-168614342D02*
X205505771Y-168685771D01*
X205220057Y-168685771D01*
X205077200Y-168614342D01*
X205005771Y-168542914D01*
X204934342Y-168400057D01*
X204934342Y-167971485D01*
X205005771Y-167828628D01*
X205077200Y-167757200D01*
X205220057Y-167685771D01*
X205505771Y-167685771D01*
X205648628Y-167757200D01*
D10*
D11*
X197002200Y-191507200D02*
X197002200Y-194507200D01*
D10*
D11*
X261002200Y-191507200D02*
X261002200Y-198007200D01*
X244043200Y-129387600D02*
X221564944Y-129376144D01*
X221701344Y-102325144D02*
X244068600Y-102336600D01*
X244068600Y-102336600D02*
X244043200Y-129387600D01*
X216459544Y-122822944D02*
X216459544Y-107024144D01*
X221463344Y-129172944D02*
X216535744Y-122899144D01*
X216459544Y-107151144D02*
X221701344Y-102325144D01*
X249573620Y-141055324D02*
X249573620Y-140055324D01*
X249573620Y-140531515D02*
X250145048Y-140531515D01*
X250145048Y-141055324D02*
X250145048Y-140055324D01*
X250526001Y-140055324D02*
X251145048Y-140055324D01*
X250811715Y-140436277D01*
X250954572Y-140436277D01*
X251049810Y-140483896D01*
X251097429Y-140531515D01*
X251145048Y-140626753D01*
X251145048Y-140864848D01*
X251097429Y-140960086D01*
X251049810Y-141007705D01*
X250954572Y-141055324D01*
X250668858Y-141055324D01*
X250573620Y-141007705D01*
X250526001Y-140960086D01*
X252049810Y-141055324D02*
X251573620Y-141055324D01*
X251573620Y-140055324D01*
X252383144Y-141055324D02*
X252383144Y-140055324D01*
X252811715Y-141007705D02*
X252954572Y-141055324D01*
X253192667Y-141055324D01*
X253287905Y-141007705D01*
X253335524Y-140960086D01*
X253383144Y-140864848D01*
X253383144Y-140769610D01*
X253335524Y-140674372D01*
X253287905Y-140626753D01*
X253192667Y-140579134D01*
X253002191Y-140531515D01*
X252906953Y-140483896D01*
X252859334Y-140436277D01*
X252811715Y-140341039D01*
X252811715Y-140245801D01*
X252859334Y-140150563D01*
X252906953Y-140102944D01*
X253002191Y-140055324D01*
X253240286Y-140055324D01*
X253383144Y-140102944D01*
X253716477Y-140055324D02*
X254335524Y-140055324D01*
X254002191Y-140436277D01*
X254145048Y-140436277D01*
X254240286Y-140483896D01*
X254287905Y-140531515D01*
X254335524Y-140626753D01*
X254335524Y-140864848D01*
X254287905Y-140960086D01*
X254240286Y-141007705D01*
X254145048Y-141055324D01*
X253859334Y-141055324D01*
X253764096Y-141007705D01*
X253716477Y-140960086D01*
X254668858Y-140055324D02*
X255287905Y-140055324D01*
X254954572Y-140436277D01*
X255097429Y-140436277D01*
X255192667Y-140483896D01*
X255240286Y-140531515D01*
X255287905Y-140626753D01*
X255287905Y-140864848D01*
X255240286Y-140960086D01*
X255192667Y-141007705D01*
X255097429Y-141055324D01*
X254811715Y-141055324D01*
X254716477Y-141007705D01*
X254668858Y-140960086D01*
X256240286Y-141055324D02*
X255668858Y-141055324D01*
X255954572Y-141055324D02*
X255954572Y-140055324D01*
X255859334Y-140198182D01*
X255764096Y-140293420D01*
X255668858Y-140341039D01*
X235338772Y-140047124D02*
X235005439Y-139570934D01*
X234767344Y-140047124D02*
X234767344Y-139047124D01*
X235148296Y-139047124D01*
X235243534Y-139094744D01*
X235291153Y-139142363D01*
X235338772Y-139237601D01*
X235338772Y-139380458D01*
X235291153Y-139475696D01*
X235243534Y-139523315D01*
X235148296Y-139570934D01*
X234767344Y-139570934D01*
X235767344Y-139523315D02*
X236100677Y-139523315D01*
X236243534Y-140047124D02*
X235767344Y-140047124D01*
X235767344Y-139047124D01*
X236243534Y-139047124D01*
X236672105Y-140047124D02*
X236672105Y-139047124D01*
X237005439Y-139761410D01*
X237338772Y-139047124D01*
X237338772Y-140047124D01*
X238005439Y-139047124D02*
X238195915Y-139047124D01*
X238291153Y-139094744D01*
X238386391Y-139189982D01*
X238434010Y-139380458D01*
X238434010Y-139713791D01*
X238386391Y-139904267D01*
X238291153Y-139999505D01*
X238195915Y-140047124D01*
X238005439Y-140047124D01*
X237910201Y-139999505D01*
X237814963Y-139904267D01*
X237767344Y-139713791D01*
X237767344Y-139380458D01*
X237814963Y-139189982D01*
X237910201Y-139094744D01*
X238005439Y-139047124D01*
X238719724Y-139047124D02*
X239053058Y-140047124D01*
X239386391Y-139047124D01*
X239719724Y-139523315D02*
X240053058Y-139523315D01*
X240195915Y-140047124D02*
X239719724Y-140047124D01*
X239719724Y-139047124D01*
X240195915Y-139047124D01*
X241672105Y-139047124D02*
X241672105Y-139761410D01*
X241624486Y-139904267D01*
X241529248Y-139999505D01*
X241386391Y-140047124D01*
X241291153Y-140047124D01*
X242148296Y-139047124D02*
X242148296Y-139856648D01*
X242195915Y-139951886D01*
X242243534Y-139999505D01*
X242338772Y-140047124D01*
X242529248Y-140047124D01*
X242624486Y-139999505D01*
X242672105Y-139951886D01*
X242719724Y-139856648D01*
X242719724Y-139047124D01*
X243195915Y-140047124D02*
X243195915Y-139047124D01*
X243529248Y-139761410D01*
X243862582Y-139047124D01*
X243862582Y-140047124D01*
X244338772Y-140047124D02*
X244338772Y-139047124D01*
X244719724Y-139047124D01*
X244814963Y-139094744D01*
X244862582Y-139142363D01*
X244910201Y-139237601D01*
X244910201Y-139380458D01*
X244862582Y-139475696D01*
X244814963Y-139523315D01*
X244719724Y-139570934D01*
X244338772Y-139570934D01*
X245338772Y-139523315D02*
X245672105Y-139523315D01*
X245814963Y-140047124D02*
X245338772Y-140047124D01*
X245338772Y-139047124D01*
X245814963Y-139047124D01*
X246814963Y-140047124D02*
X246481629Y-139570934D01*
X246243534Y-140047124D02*
X246243534Y-139047124D01*
X246624486Y-139047124D01*
X246719724Y-139094744D01*
X246767344Y-139142363D01*
X246814963Y-139237601D01*
X246814963Y-139380458D01*
X246767344Y-139475696D01*
X246719724Y-139523315D01*
X246624486Y-139570934D01*
X246243534Y-139570934D01*
X235624486Y-141133315D02*
X235767344Y-141180934D01*
X235814963Y-141228553D01*
X235862582Y-141323791D01*
X235862582Y-141466648D01*
X235814963Y-141561886D01*
X235767344Y-141609505D01*
X235672105Y-141657124D01*
X235291153Y-141657124D01*
X235291153Y-140657124D01*
X235624486Y-140657124D01*
X235719724Y-140704744D01*
X235767344Y-140752363D01*
X235814963Y-140847601D01*
X235814963Y-140942839D01*
X235767344Y-141038077D01*
X235719724Y-141085696D01*
X235624486Y-141133315D01*
X235291153Y-141133315D01*
X236291153Y-141133315D02*
X236624486Y-141133315D01*
X236767344Y-141657124D02*
X236291153Y-141657124D01*
X236291153Y-140657124D01*
X236767344Y-140657124D01*
X237529248Y-141133315D02*
X237195915Y-141133315D01*
X237195915Y-141657124D02*
X237195915Y-140657124D01*
X237672105Y-140657124D01*
X238243534Y-140657124D02*
X238434010Y-140657124D01*
X238529248Y-140704744D01*
X238624486Y-140799982D01*
X238672105Y-140990458D01*
X238672105Y-141323791D01*
X238624486Y-141514267D01*
X238529248Y-141609505D01*
X238434010Y-141657124D01*
X238243534Y-141657124D01*
X238148296Y-141609505D01*
X238053058Y-141514267D01*
X238005439Y-141323791D01*
X238005439Y-140990458D01*
X238053058Y-140799982D01*
X238148296Y-140704744D01*
X238243534Y-140657124D01*
X239672105Y-141657124D02*
X239338772Y-141180934D01*
X239100677Y-141657124D02*
X239100677Y-140657124D01*
X239481629Y-140657124D01*
X239576867Y-140704744D01*
X239624486Y-140752363D01*
X239672105Y-140847601D01*
X239672105Y-140990458D01*
X239624486Y-141085696D01*
X239576867Y-141133315D01*
X239481629Y-141180934D01*
X239100677Y-141180934D01*
X240100677Y-141133315D02*
X240434010Y-141133315D01*
X240576867Y-141657124D02*
X240100677Y-141657124D01*
X240100677Y-140657124D01*
X240576867Y-140657124D01*
X242100677Y-141133315D02*
X241767344Y-141133315D01*
X241767344Y-141657124D02*
X241767344Y-140657124D01*
X242243534Y-140657124D01*
X243100677Y-141657124D02*
X242624486Y-141657124D01*
X242624486Y-140657124D01*
X243434010Y-141657124D02*
X243434010Y-140657124D01*
X244434010Y-140704744D02*
X244338772Y-140657124D01*
X244195915Y-140657124D01*
X244053058Y-140704744D01*
X243957820Y-140799982D01*
X243910201Y-140895220D01*
X243862582Y-141085696D01*
X243862582Y-141228553D01*
X243910201Y-141419029D01*
X243957820Y-141514267D01*
X244053058Y-141609505D01*
X244195915Y-141657124D01*
X244291153Y-141657124D01*
X244434010Y-141609505D01*
X244481629Y-141561886D01*
X244481629Y-141228553D01*
X244291153Y-141228553D01*
X244910201Y-141657124D02*
X244910201Y-140657124D01*
X244910201Y-141133315D02*
X245481629Y-141133315D01*
X245481629Y-141657124D02*
X245481629Y-140657124D01*
X245814963Y-140657124D02*
X246386391Y-140657124D01*
X246100677Y-141657124D02*
X246100677Y-140657124D01*
X212928991Y-131911372D02*
X213690896Y-131911372D01*
X213309944Y-132292324D02*
X213309944Y-131530420D01*
X252995514Y-111596466D02*
X253471704Y-111596466D01*
X252900276Y-111882180D02*
X253233609Y-110882180D01*
X253566942Y-111882180D01*
X253900276Y-111882180D02*
X253900276Y-110882180D01*
X254138371Y-110882180D01*
X254281228Y-110929800D01*
X254376466Y-111025038D01*
X254424085Y-111120276D01*
X254471704Y-111310752D01*
X254471704Y-111453609D01*
X254424085Y-111644085D01*
X254376466Y-111739323D01*
X254281228Y-111834561D01*
X254138371Y-111882180D01*
X253900276Y-111882180D01*
X254900276Y-111882180D02*
X254900276Y-110882180D01*
X255138371Y-110882180D01*
X255281228Y-110929800D01*
X255376466Y-111025038D01*
X255424085Y-111120276D01*
X255471704Y-111310752D01*
X255471704Y-111453609D01*
X255424085Y-111644085D01*
X255376466Y-111739323D01*
X255281228Y-111834561D01*
X255138371Y-111882180D01*
X254900276Y-111882180D01*
X256471704Y-111882180D02*
X256138371Y-111405990D01*
X255900276Y-111882180D02*
X255900276Y-110882180D01*
X256281228Y-110882180D01*
X256376466Y-110929800D01*
X256424085Y-110977419D01*
X256471704Y-111072657D01*
X256471704Y-111215514D01*
X256424085Y-111310752D01*
X256376466Y-111358371D01*
X256281228Y-111405990D01*
X255900276Y-111405990D01*
X257662180Y-111501228D02*
X258424085Y-111501228D01*
X258043133Y-111882180D02*
X258043133Y-111120276D01*
X259424085Y-111882180D02*
X258852657Y-111882180D01*
X259138371Y-111882180D02*
X259138371Y-110882180D01*
X259043133Y-111025038D01*
X258947895Y-111120276D01*
X258852657Y-111167895D01*
D12*
X221747601Y-113314715D02*
X222747601Y-114814715D01*
X222747601Y-113314715D02*
X221747601Y-114814715D01*
X223819029Y-114029001D02*
X224033315Y-114100429D01*
X224104744Y-114171858D01*
X224176172Y-114314715D01*
X224176172Y-114529001D01*
X224104744Y-114671858D01*
X224033315Y-114743286D01*
X223890458Y-114814715D01*
X223319029Y-114814715D01*
X223319029Y-113314715D01*
X223819029Y-113314715D01*
X223961886Y-113386144D01*
X224033315Y-113457572D01*
X224104744Y-113600429D01*
X224104744Y-113743286D01*
X224033315Y-113886144D01*
X223961886Y-113957572D01*
X223819029Y-114029001D01*
X223319029Y-114029001D01*
X224819029Y-114029001D02*
X225319029Y-114029001D01*
X225533315Y-114814715D02*
X224819029Y-114814715D01*
X224819029Y-113314715D01*
X225533315Y-113314715D01*
X226176172Y-114029001D02*
X226676172Y-114029001D01*
X226890458Y-114814715D02*
X226176172Y-114814715D01*
X226176172Y-113314715D01*
X226890458Y-113314715D01*
X228676172Y-114814715D02*
X228676172Y-113314715D01*
X229176172Y-114386144D01*
X229676172Y-113314715D01*
X229676172Y-114814715D01*
X230604744Y-114814715D02*
X230461886Y-114743286D01*
X230390458Y-114671858D01*
X230319029Y-114529001D01*
X230319029Y-114100429D01*
X230390458Y-113957572D01*
X230461886Y-113886144D01*
X230604744Y-113814715D01*
X230819029Y-113814715D01*
X230961886Y-113886144D01*
X231033315Y-113957572D01*
X231104744Y-114100429D01*
X231104744Y-114529001D01*
X231033315Y-114671858D01*
X230961886Y-114743286D01*
X230819029Y-114814715D01*
X230604744Y-114814715D01*
X232390458Y-114814715D02*
X232390458Y-113314715D01*
X232390458Y-114743286D02*
X232247601Y-114814715D01*
X231961886Y-114814715D01*
X231819029Y-114743286D01*
X231747601Y-114671858D01*
X231676172Y-114529001D01*
X231676172Y-114100429D01*
X231747601Y-113957572D01*
X231819029Y-113886144D01*
X231961886Y-113814715D01*
X232247601Y-113814715D01*
X232390458Y-113886144D01*
X233747601Y-113814715D02*
X233747601Y-114814715D01*
X233104744Y-113814715D02*
X233104744Y-114600429D01*
X233176172Y-114743286D01*
X233319029Y-114814715D01*
X233533315Y-114814715D01*
X233676172Y-114743286D01*
X233747601Y-114671858D01*
X234676172Y-114814715D02*
X234533315Y-114743286D01*
X234461886Y-114600429D01*
X234461886Y-113314715D01*
X235819029Y-114743286D02*
X235676172Y-114814715D01*
X235390458Y-114814715D01*
X235247601Y-114743286D01*
X235176172Y-114600429D01*
X235176172Y-114029001D01*
X235247601Y-113886144D01*
X235390458Y-113814715D01*
X235676172Y-113814715D01*
X235819029Y-113886144D01*
X235890458Y-114029001D01*
X235890458Y-114171858D01*
X235176172Y-114314715D01*
X261702086Y-112037601D02*
X261630658Y-112251886D01*
X261559229Y-112323315D01*
X261416372Y-112394744D01*
X261202086Y-112394744D01*
X261059229Y-112323315D01*
X260987801Y-112251886D01*
X260916372Y-112109029D01*
X260916372Y-111537601D01*
X262416372Y-111537601D01*
X262416372Y-112037601D01*
X262344944Y-112180458D01*
X262273515Y-112251886D01*
X262130658Y-112323315D01*
X261987801Y-112323315D01*
X261844944Y-112251886D01*
X261773515Y-112180458D01*
X261702086Y-112037601D01*
X261702086Y-111537601D01*
X260916372Y-113037601D02*
X262416372Y-113037601D01*
X260916372Y-113894744D01*
X262416372Y-113894744D01*
X262416372Y-114894744D02*
X262416372Y-115180458D01*
X262344944Y-115323315D01*
X262202086Y-115466172D01*
X261916372Y-115537601D01*
X261416372Y-115537601D01*
X261130658Y-115466172D01*
X260987801Y-115323315D01*
X260916372Y-115180458D01*
X260916372Y-114894744D01*
X260987801Y-114751886D01*
X261130658Y-114609029D01*
X261416372Y-114537601D01*
X261916372Y-114537601D01*
X262202086Y-114609029D01*
X262344944Y-114751886D01*
X262416372Y-114894744D01*
X262416372Y-116466172D02*
X262416372Y-116609029D01*
X262344944Y-116751886D01*
X262273515Y-116823315D01*
X262130658Y-116894744D01*
X261844944Y-116966172D01*
X261487801Y-116966172D01*
X261202086Y-116894744D01*
X261059229Y-116823315D01*
X260987801Y-116751886D01*
X260916372Y-116609029D01*
X260916372Y-116466172D01*
X260987801Y-116323315D01*
X261059229Y-116251886D01*
X261202086Y-116180458D01*
X261487801Y-116109029D01*
X261844944Y-116109029D01*
X262130658Y-116180458D01*
X262273515Y-116251886D01*
X262344944Y-116323315D01*
X262416372Y-116466172D01*
X262416372Y-118323315D02*
X262416372Y-117609029D01*
X261702086Y-117537601D01*
X261773515Y-117609029D01*
X261844944Y-117751886D01*
X261844944Y-118109029D01*
X261773515Y-118251886D01*
X261702086Y-118323315D01*
X261559229Y-118394744D01*
X261202086Y-118394744D01*
X261059229Y-118323315D01*
X260987801Y-118251886D01*
X260916372Y-118109029D01*
X260916372Y-117751886D01*
X260987801Y-117609029D01*
X261059229Y-117537601D01*
X262416372Y-119751886D02*
X262416372Y-119037601D01*
X261702086Y-118966172D01*
X261773515Y-119037601D01*
X261844944Y-119180458D01*
X261844944Y-119537601D01*
X261773515Y-119680458D01*
X261702086Y-119751886D01*
X261559229Y-119823315D01*
X261202086Y-119823315D01*
X261059229Y-119751886D01*
X260987801Y-119680458D01*
X260916372Y-119537601D01*
X260916372Y-119180458D01*
X260987801Y-119037601D01*
X261059229Y-118966172D01*
D11*
X214532124Y-118650315D02*
X214055934Y-118983648D01*
X214532124Y-119221744D02*
X213532124Y-119221744D01*
X213532124Y-118840791D01*
X213579744Y-118745553D01*
X213627363Y-118697934D01*
X213722601Y-118650315D01*
X213865458Y-118650315D01*
X213960696Y-118697934D01*
X214008315Y-118745553D01*
X214055934Y-118840791D01*
X214055934Y-119221744D01*
X214008315Y-118221744D02*
X214008315Y-117888410D01*
X214532124Y-117745553D02*
X214532124Y-118221744D01*
X213532124Y-118221744D01*
X213532124Y-117745553D01*
X214532124Y-117316982D02*
X213532124Y-117316982D01*
X214246410Y-116983648D01*
X213532124Y-116650315D01*
X214532124Y-116650315D01*
X213532124Y-115983648D02*
X213532124Y-115793172D01*
X213579744Y-115697934D01*
X213674982Y-115602696D01*
X213865458Y-115555077D01*
X214198791Y-115555077D01*
X214389267Y-115602696D01*
X214484505Y-115697934D01*
X214532124Y-115793172D01*
X214532124Y-115983648D01*
X214484505Y-116078886D01*
X214389267Y-116174124D01*
X214198791Y-116221744D01*
X213865458Y-116221744D01*
X213674982Y-116174124D01*
X213579744Y-116078886D01*
X213532124Y-115983648D01*
X213532124Y-115269363D02*
X214532124Y-114936029D01*
X213532124Y-114602696D01*
X214008315Y-114269363D02*
X214008315Y-113936029D01*
X214532124Y-113793172D02*
X214532124Y-114269363D01*
X213532124Y-114269363D01*
X213532124Y-113793172D01*
X213532124Y-112316982D02*
X214246410Y-112316982D01*
X214389267Y-112364601D01*
X214484505Y-112459839D01*
X214532124Y-112602696D01*
X214532124Y-112697934D01*
X213532124Y-111840791D02*
X214341648Y-111840791D01*
X214436886Y-111793172D01*
X214484505Y-111745553D01*
X214532124Y-111650315D01*
X214532124Y-111459839D01*
X214484505Y-111364601D01*
X214436886Y-111316982D01*
X214341648Y-111269363D01*
X213532124Y-111269363D01*
X214532124Y-110793172D02*
X213532124Y-110793172D01*
X214246410Y-110459839D01*
X213532124Y-110126505D01*
X214532124Y-110126505D01*
X214532124Y-109650315D02*
X213532124Y-109650315D01*
X213532124Y-109269363D01*
X213579744Y-109174124D01*
X213627363Y-109126505D01*
X213722601Y-109078886D01*
X213865458Y-109078886D01*
X213960696Y-109126505D01*
X214008315Y-109174124D01*
X214055934Y-109269363D01*
X214055934Y-109650315D01*
X214008315Y-108650315D02*
X214008315Y-108316982D01*
X214532124Y-108174124D02*
X214532124Y-108650315D01*
X213532124Y-108650315D01*
X213532124Y-108174124D01*
X214532124Y-107174124D02*
X214055934Y-107507458D01*
X214532124Y-107745553D02*
X213532124Y-107745553D01*
X213532124Y-107364601D01*
X213579744Y-107269363D01*
X213627363Y-107221744D01*
X213722601Y-107174124D01*
X213865458Y-107174124D01*
X213960696Y-107221744D01*
X214008315Y-107269363D01*
X214055934Y-107364601D01*
X214055934Y-107745553D01*
X215618315Y-118364601D02*
X215665934Y-118221744D01*
X215713553Y-118174124D01*
X215808791Y-118126505D01*
X215951648Y-118126505D01*
X216046886Y-118174124D01*
X216094505Y-118221744D01*
X216142124Y-118316982D01*
X216142124Y-118697934D01*
X215142124Y-118697934D01*
X215142124Y-118364601D01*
X215189744Y-118269363D01*
X215237363Y-118221744D01*
X215332601Y-118174124D01*
X215427839Y-118174124D01*
X215523077Y-118221744D01*
X215570696Y-118269363D01*
X215618315Y-118364601D01*
X215618315Y-118697934D01*
X215618315Y-117697934D02*
X215618315Y-117364601D01*
X216142124Y-117221744D02*
X216142124Y-117697934D01*
X215142124Y-117697934D01*
X215142124Y-117221744D01*
X215618315Y-116459839D02*
X215618315Y-116793172D01*
X216142124Y-116793172D02*
X215142124Y-116793172D01*
X215142124Y-116316982D01*
X215142124Y-115745553D02*
X215142124Y-115555077D01*
X215189744Y-115459839D01*
X215284982Y-115364601D01*
X215475458Y-115316982D01*
X215808791Y-115316982D01*
X215999267Y-115364601D01*
X216094505Y-115459839D01*
X216142124Y-115555077D01*
X216142124Y-115745553D01*
X216094505Y-115840791D01*
X215999267Y-115936029D01*
X215808791Y-115983648D01*
X215475458Y-115983648D01*
X215284982Y-115936029D01*
X215189744Y-115840791D01*
X215142124Y-115745553D01*
X216142124Y-114316982D02*
X215665934Y-114650315D01*
X216142124Y-114888410D02*
X215142124Y-114888410D01*
X215142124Y-114507458D01*
X215189744Y-114412220D01*
X215237363Y-114364601D01*
X215332601Y-114316982D01*
X215475458Y-114316982D01*
X215570696Y-114364601D01*
X215618315Y-114412220D01*
X215665934Y-114507458D01*
X215665934Y-114888410D01*
X215618315Y-113888410D02*
X215618315Y-113555077D01*
X216142124Y-113412220D02*
X216142124Y-113888410D01*
X215142124Y-113888410D01*
X215142124Y-113412220D01*
X215618315Y-111888410D02*
X215618315Y-112221744D01*
X216142124Y-112221744D02*
X215142124Y-112221744D01*
X215142124Y-111745553D01*
X216142124Y-110888410D02*
X216142124Y-111364601D01*
X215142124Y-111364601D01*
X216142124Y-110555077D02*
X215142124Y-110555077D01*
X215189744Y-109555077D02*
X215142124Y-109650315D01*
X215142124Y-109793172D01*
X215189744Y-109936029D01*
X215284982Y-110031267D01*
X215380220Y-110078886D01*
X215570696Y-110126505D01*
X215713553Y-110126505D01*
X215904029Y-110078886D01*
X215999267Y-110031267D01*
X216094505Y-109936029D01*
X216142124Y-109793172D01*
X216142124Y-109697934D01*
X216094505Y-109555077D01*
X216046886Y-109507458D01*
X215713553Y-109507458D01*
X215713553Y-109697934D01*
X216142124Y-109078886D02*
X215142124Y-109078886D01*
X215618315Y-109078886D02*
X215618315Y-108507458D01*
X216142124Y-108507458D02*
X215142124Y-108507458D01*
X215142124Y-108174124D02*
X215142124Y-107602696D01*
X216142124Y-107888410D02*
X215142124Y-107888410D01*
X225201219Y-137506580D02*
X226201219Y-137506580D01*
X225486933Y-137839914D01*
X226201219Y-138173247D01*
X225201219Y-138173247D01*
X225201219Y-138649438D02*
X226201219Y-138649438D01*
X226201219Y-139030390D01*
X226153600Y-139125628D01*
X226105980Y-139173247D01*
X226010742Y-139220866D01*
X225867885Y-139220866D01*
X225772647Y-139173247D01*
X225725028Y-139125628D01*
X225677409Y-139030390D01*
X225677409Y-138649438D01*
X225201219Y-140125628D02*
X225201219Y-139649438D01*
X226201219Y-139649438D01*
X226201219Y-140363723D02*
X226201219Y-140982771D01*
X225820266Y-140649438D01*
X225820266Y-140792295D01*
X225772647Y-140887533D01*
X225725028Y-140935152D01*
X225629790Y-140982771D01*
X225391695Y-140982771D01*
X225296457Y-140935152D01*
X225248838Y-140887533D01*
X225201219Y-140792295D01*
X225201219Y-140506580D01*
X225248838Y-140411342D01*
X225296457Y-140363723D01*
X225201219Y-141935152D02*
X225201219Y-141363723D01*
X225201219Y-141649438D02*
X226201219Y-141649438D01*
X226058361Y-141554200D01*
X225963123Y-141458961D01*
X225915504Y-141363723D01*
X225201219Y-142887533D02*
X225201219Y-142316104D01*
X225201219Y-142601819D02*
X226201219Y-142601819D01*
X226058361Y-142506580D01*
X225963123Y-142411342D01*
X225915504Y-142316104D01*
X226201219Y-143792295D02*
X226201219Y-143316104D01*
X225725028Y-143268485D01*
X225772647Y-143316104D01*
X225820266Y-143411342D01*
X225820266Y-143649438D01*
X225772647Y-143744676D01*
X225725028Y-143792295D01*
X225629790Y-143839914D01*
X225391695Y-143839914D01*
X225296457Y-143792295D01*
X225248838Y-143744676D01*
X225201219Y-143649438D01*
X225201219Y-143411342D01*
X225248838Y-143316104D01*
X225296457Y-143268485D01*
X225486933Y-144220866D02*
X225486933Y-144697057D01*
X225201219Y-144125628D02*
X226201219Y-144458961D01*
X225201219Y-144792295D01*
X226105980Y-145078009D02*
X226153600Y-145125628D01*
X226201219Y-145220866D01*
X226201219Y-145458961D01*
X226153600Y-145554200D01*
X226105980Y-145601819D01*
X226010742Y-145649438D01*
X225915504Y-145649438D01*
X225772647Y-145601819D01*
X225201219Y-145030390D01*
X225201219Y-145649438D01*
X212979791Y-139150372D02*
X213741696Y-139150372D01*
%TO.C,JP1*%
X255167466Y-107253380D02*
X255167466Y-107967666D01*
X255119847Y-108110523D01*
X255024609Y-108205761D01*
X254881752Y-108253380D01*
X254786514Y-108253380D01*
X255643657Y-108253380D02*
X255643657Y-107253380D01*
X256024609Y-107253380D01*
X256119847Y-107301000D01*
X256167466Y-107348619D01*
X256215085Y-107443857D01*
X256215085Y-107586714D01*
X256167466Y-107681952D01*
X256119847Y-107729571D01*
X256024609Y-107777190D01*
X255643657Y-107777190D01*
X257167466Y-108253380D02*
X256596038Y-108253380D01*
X256881752Y-108253380D02*
X256881752Y-107253380D01*
X256786514Y-107396238D01*
X256691276Y-107491476D01*
X256596038Y-107539095D01*
%TO.C,J7*%
X212350036Y-112931533D02*
X213064322Y-112931533D01*
X213207179Y-112979152D01*
X213302417Y-113074390D01*
X213350036Y-113217247D01*
X213350036Y-113312485D01*
X212350036Y-112550580D02*
X212350036Y-111883914D01*
X213350036Y-112312485D01*
%TO.C,H5*%
X202590495Y-98242380D02*
X202590495Y-97242380D01*
X202590495Y-97718571D02*
X203161923Y-97718571D01*
X203161923Y-98242380D02*
X203161923Y-97242380D01*
X204114304Y-97242380D02*
X203638114Y-97242380D01*
X203590495Y-97718571D01*
X203638114Y-97670952D01*
X203733352Y-97623333D01*
X203971447Y-97623333D01*
X204066685Y-97670952D01*
X204114304Y-97718571D01*
X204161923Y-97813809D01*
X204161923Y-98051904D01*
X204114304Y-98147142D01*
X204066685Y-98194761D01*
X203971447Y-98242380D01*
X203733352Y-98242380D01*
X203638114Y-98194761D01*
X203590495Y-98147142D01*
%TO.C,Q3*%
X209915985Y-116736683D02*
X209820747Y-116689064D01*
X209725509Y-116593825D01*
X209582652Y-116450968D01*
X209487414Y-116403349D01*
X209392176Y-116403349D01*
X209439795Y-116641444D02*
X209344557Y-116593825D01*
X209249319Y-116498587D01*
X209201700Y-116308111D01*
X209201700Y-115974778D01*
X209249319Y-115784302D01*
X209344557Y-115689064D01*
X209439795Y-115641444D01*
X209630271Y-115641444D01*
X209725509Y-115689064D01*
X209820747Y-115784302D01*
X209868366Y-115974778D01*
X209868366Y-116308111D01*
X209820747Y-116498587D01*
X209725509Y-116593825D01*
X209630271Y-116641444D01*
X209439795Y-116641444D01*
X210201700Y-115641444D02*
X210820747Y-115641444D01*
X210487414Y-116022397D01*
X210630271Y-116022397D01*
X210725509Y-116070016D01*
X210773128Y-116117635D01*
X210820747Y-116212873D01*
X210820747Y-116450968D01*
X210773128Y-116546206D01*
X210725509Y-116593825D01*
X210630271Y-116641444D01*
X210344557Y-116641444D01*
X210249319Y-116593825D01*
X210201700Y-116546206D01*
%TO.C,H3*%
X206629839Y-143756124D02*
X206629839Y-142756124D01*
X206629839Y-143232315D02*
X207201267Y-143232315D01*
X207201267Y-143756124D02*
X207201267Y-142756124D01*
X207582220Y-142756124D02*
X208201267Y-142756124D01*
X207867934Y-143137077D01*
X208010791Y-143137077D01*
X208106029Y-143184696D01*
X208153648Y-143232315D01*
X208201267Y-143327553D01*
X208201267Y-143565648D01*
X208153648Y-143660886D01*
X208106029Y-143708505D01*
X208010791Y-143756124D01*
X207725077Y-143756124D01*
X207629839Y-143708505D01*
X207582220Y-143660886D01*
%TO.C,Q2*%
X202299819Y-111702838D02*
X202252200Y-111798076D01*
X202156961Y-111893314D01*
X202014104Y-112036171D01*
X201966485Y-112131409D01*
X201966485Y-112226647D01*
X202204580Y-112179028D02*
X202156961Y-112274266D01*
X202061723Y-112369504D01*
X201871247Y-112417123D01*
X201537914Y-112417123D01*
X201347438Y-112369504D01*
X201252200Y-112274266D01*
X201204580Y-112179028D01*
X201204580Y-111988552D01*
X201252200Y-111893314D01*
X201347438Y-111798076D01*
X201537914Y-111750457D01*
X201871247Y-111750457D01*
X202061723Y-111798076D01*
X202156961Y-111893314D01*
X202204580Y-111988552D01*
X202204580Y-112179028D01*
X201299819Y-111369504D02*
X201252200Y-111321885D01*
X201204580Y-111226647D01*
X201204580Y-110988552D01*
X201252200Y-110893314D01*
X201299819Y-110845695D01*
X201395057Y-110798076D01*
X201490295Y-110798076D01*
X201633152Y-110845695D01*
X202204580Y-111417123D01*
X202204580Y-110798076D01*
%TO.C,J3*%
X219300066Y-130768580D02*
X219300066Y-131482866D01*
X219252447Y-131625723D01*
X219157209Y-131720961D01*
X219014352Y-131768580D01*
X218919114Y-131768580D01*
X219681019Y-130768580D02*
X220300066Y-130768580D01*
X219966733Y-131149533D01*
X220109590Y-131149533D01*
X220204828Y-131197152D01*
X220252447Y-131244771D01*
X220300066Y-131340009D01*
X220300066Y-131578104D01*
X220252447Y-131673342D01*
X220204828Y-131720961D01*
X220109590Y-131768580D01*
X219823876Y-131768580D01*
X219728638Y-131720961D01*
X219681019Y-131673342D01*
%TO.C,H6*%
X264947495Y-143756124D02*
X264947495Y-142756124D01*
X264947495Y-143232315D02*
X265518923Y-143232315D01*
X265518923Y-143756124D02*
X265518923Y-142756124D01*
X266423685Y-142756124D02*
X266233209Y-142756124D01*
X266137971Y-142803744D01*
X266090352Y-142851363D01*
X265995114Y-142994220D01*
X265947495Y-143184696D01*
X265947495Y-143565648D01*
X265995114Y-143660886D01*
X266042733Y-143708505D01*
X266137971Y-143756124D01*
X266328447Y-143756124D01*
X266423685Y-143708505D01*
X266471304Y-143660886D01*
X266518923Y-143565648D01*
X266518923Y-143327553D01*
X266471304Y-143232315D01*
X266423685Y-143184696D01*
X266328447Y-143137077D01*
X266137971Y-143137077D01*
X266042733Y-143184696D01*
X265995114Y-143232315D01*
X265947495Y-143327553D01*
%TO.C,J6*%
X212711524Y-136186477D02*
X213425810Y-136186477D01*
X213568667Y-136234096D01*
X213663905Y-136329334D01*
X213711524Y-136472191D01*
X213711524Y-136567429D01*
X212711524Y-135281715D02*
X212711524Y-135472191D01*
X212759144Y-135567429D01*
X212806763Y-135615048D01*
X212949620Y-135710286D01*
X213140096Y-135757905D01*
X213521048Y-135757905D01*
X213616286Y-135710286D01*
X213663905Y-135662667D01*
X213711524Y-135567429D01*
X213711524Y-135376953D01*
X213663905Y-135281715D01*
X213616286Y-135234096D01*
X213521048Y-135186477D01*
X213282953Y-135186477D01*
X213187715Y-135234096D01*
X213140096Y-135281715D01*
X213092477Y-135376953D01*
X213092477Y-135567429D01*
X213140096Y-135662667D01*
X213187715Y-135710286D01*
X213282953Y-135757905D01*
%TO.C,J2*%
X248795666Y-106156380D02*
X248795666Y-106870666D01*
X248748047Y-107013523D01*
X248652809Y-107108761D01*
X248509952Y-107156380D01*
X248414714Y-107156380D01*
X249224238Y-106251619D02*
X249271857Y-106204000D01*
X249367095Y-106156380D01*
X249605190Y-106156380D01*
X249700428Y-106204000D01*
X249748047Y-106251619D01*
X249795666Y-106346857D01*
X249795666Y-106442095D01*
X249748047Y-106584952D01*
X249176619Y-107156380D01*
X249795666Y-107156380D01*
%TO.C,R3*%
X255777877Y-116485724D02*
X255444544Y-116009534D01*
X255206448Y-116485724D02*
X255206448Y-115485724D01*
X255587401Y-115485724D01*
X255682639Y-115533344D01*
X255730258Y-115580963D01*
X255777877Y-115676201D01*
X255777877Y-115819058D01*
X255730258Y-115914296D01*
X255682639Y-115961915D01*
X255587401Y-116009534D01*
X255206448Y-116009534D01*
X256111210Y-115485724D02*
X256730258Y-115485724D01*
X256396924Y-115866677D01*
X256539782Y-115866677D01*
X256635020Y-115914296D01*
X256682639Y-115961915D01*
X256730258Y-116057153D01*
X256730258Y-116295248D01*
X256682639Y-116390486D01*
X256635020Y-116438105D01*
X256539782Y-116485724D01*
X256254067Y-116485724D01*
X256158829Y-116438105D01*
X256111210Y-116390486D01*
%TO.C,J10*%
X221286924Y-105674667D02*
X222001210Y-105674667D01*
X222144067Y-105722286D01*
X222239305Y-105817524D01*
X222286924Y-105960382D01*
X222286924Y-106055620D01*
X222286924Y-104674667D02*
X222286924Y-105246096D01*
X222286924Y-104960382D02*
X221286924Y-104960382D01*
X221429782Y-105055620D01*
X221525020Y-105150858D01*
X221572639Y-105246096D01*
X221286924Y-104055620D02*
X221286924Y-103960382D01*
X221334544Y-103865144D01*
X221382163Y-103817524D01*
X221477401Y-103769905D01*
X221667877Y-103722286D01*
X221905972Y-103722286D01*
X222096448Y-103769905D01*
X222191686Y-103817524D01*
X222239305Y-103865144D01*
X222286924Y-103960382D01*
X222286924Y-104055620D01*
X222239305Y-104150858D01*
X222191686Y-104198477D01*
X222096448Y-104246096D01*
X221905972Y-104293715D01*
X221667877Y-104293715D01*
X221477401Y-104246096D01*
X221382163Y-104198477D01*
X221334544Y-104150858D01*
X221286924Y-104055620D01*
%TO.C,J5*%
X266595266Y-108772580D02*
X266595266Y-109486866D01*
X266547647Y-109629723D01*
X266452409Y-109724961D01*
X266309552Y-109772580D01*
X266214314Y-109772580D01*
X267547647Y-108772580D02*
X267071457Y-108772580D01*
X267023838Y-109248771D01*
X267071457Y-109201152D01*
X267166695Y-109153533D01*
X267404790Y-109153533D01*
X267500028Y-109201152D01*
X267547647Y-109248771D01*
X267595266Y-109344009D01*
X267595266Y-109582104D01*
X267547647Y-109677342D01*
X267500028Y-109724961D01*
X267404790Y-109772580D01*
X267166695Y-109772580D01*
X267071457Y-109724961D01*
X267023838Y-109677342D01*
%TO.C,Q1*%
X209049105Y-102593763D02*
X208953867Y-102546144D01*
X208858629Y-102450905D01*
X208715772Y-102308048D01*
X208620534Y-102260429D01*
X208525296Y-102260429D01*
X208572915Y-102498524D02*
X208477677Y-102450905D01*
X208382439Y-102355667D01*
X208334820Y-102165191D01*
X208334820Y-101831858D01*
X208382439Y-101641382D01*
X208477677Y-101546144D01*
X208572915Y-101498524D01*
X208763391Y-101498524D01*
X208858629Y-101546144D01*
X208953867Y-101641382D01*
X209001486Y-101831858D01*
X209001486Y-102165191D01*
X208953867Y-102355667D01*
X208858629Y-102450905D01*
X208763391Y-102498524D01*
X208572915Y-102498524D01*
X209953867Y-102498524D02*
X209382439Y-102498524D01*
X209668153Y-102498524D02*
X209668153Y-101498524D01*
X209572915Y-101641382D01*
X209477677Y-101736620D01*
X209382439Y-101784239D01*
%TO.C,J9*%
X240204666Y-137298180D02*
X240204666Y-138012466D01*
X240157047Y-138155323D01*
X240061809Y-138250561D01*
X239918952Y-138298180D01*
X239823714Y-138298180D01*
X240728476Y-138298180D02*
X240918952Y-138298180D01*
X241014190Y-138250561D01*
X241061809Y-138202942D01*
X241157047Y-138060085D01*
X241204666Y-137869609D01*
X241204666Y-137488657D01*
X241157047Y-137393419D01*
X241109428Y-137345800D01*
X241014190Y-137298180D01*
X240823714Y-137298180D01*
X240728476Y-137345800D01*
X240680857Y-137393419D01*
X240633238Y-137488657D01*
X240633238Y-137726752D01*
X240680857Y-137821990D01*
X240728476Y-137869609D01*
X240823714Y-137917228D01*
X241014190Y-137917228D01*
X241109428Y-137869609D01*
X241157047Y-137821990D01*
X241204666Y-137726752D01*
%TO.C,H2*%
X231546495Y-152343980D02*
X231546495Y-151343980D01*
X231546495Y-151820171D02*
X232117923Y-151820171D01*
X232117923Y-152343980D02*
X232117923Y-151343980D01*
X232546495Y-151439219D02*
X232594114Y-151391600D01*
X232689352Y-151343980D01*
X232927447Y-151343980D01*
X233022685Y-151391600D01*
X233070304Y-151439219D01*
X233117923Y-151534457D01*
X233117923Y-151629695D01*
X233070304Y-151772552D01*
X232498876Y-152343980D01*
X233117923Y-152343980D01*
%TO.C,H4*%
X262686895Y-95372180D02*
X262686895Y-94372180D01*
X262686895Y-94848371D02*
X263258323Y-94848371D01*
X263258323Y-95372180D02*
X263258323Y-94372180D01*
X264163085Y-94705514D02*
X264163085Y-95372180D01*
X263924990Y-94324561D02*
X263686895Y-95038847D01*
X264305942Y-95038847D01*
%TO.C,R2*%
X204688357Y-125339844D02*
X204355024Y-124863654D01*
X204116928Y-125339844D02*
X204116928Y-124339844D01*
X204497881Y-124339844D01*
X204593119Y-124387464D01*
X204640738Y-124435083D01*
X204688357Y-124530321D01*
X204688357Y-124673178D01*
X204640738Y-124768416D01*
X204593119Y-124816035D01*
X204497881Y-124863654D01*
X204116928Y-124863654D01*
X205069309Y-124435083D02*
X205116928Y-124387464D01*
X205212166Y-124339844D01*
X205450262Y-124339844D01*
X205545500Y-124387464D01*
X205593119Y-124435083D01*
X205640738Y-124530321D01*
X205640738Y-124625559D01*
X205593119Y-124768416D01*
X205021690Y-125339844D01*
X205640738Y-125339844D01*
%TO.C,J8*%
X221286924Y-127245677D02*
X222001210Y-127245677D01*
X222144067Y-127293296D01*
X222239305Y-127388534D01*
X222286924Y-127531391D01*
X222286924Y-127626629D01*
X221715496Y-126626629D02*
X221667877Y-126721867D01*
X221620258Y-126769486D01*
X221525020Y-126817105D01*
X221477401Y-126817105D01*
X221382163Y-126769486D01*
X221334544Y-126721867D01*
X221286924Y-126626629D01*
X221286924Y-126436153D01*
X221334544Y-126340915D01*
X221382163Y-126293296D01*
X221477401Y-126245677D01*
X221525020Y-126245677D01*
X221620258Y-126293296D01*
X221667877Y-126340915D01*
X221715496Y-126436153D01*
X221715496Y-126626629D01*
X221763115Y-126721867D01*
X221810734Y-126769486D01*
X221905972Y-126817105D01*
X222096448Y-126817105D01*
X222191686Y-126769486D01*
X222239305Y-126721867D01*
X222286924Y-126626629D01*
X222286924Y-126436153D01*
X222239305Y-126340915D01*
X222191686Y-126293296D01*
X222096448Y-126245677D01*
X221905972Y-126245677D01*
X221810734Y-126293296D01*
X221763115Y-126340915D01*
X221715496Y-126436153D01*
%TO.C,J1*%
X263030324Y-133392477D02*
X263744610Y-133392477D01*
X263887467Y-133440096D01*
X263982705Y-133535334D01*
X264030324Y-133678191D01*
X264030324Y-133773429D01*
X264030324Y-132392477D02*
X264030324Y-132963905D01*
X264030324Y-132678191D02*
X263030324Y-132678191D01*
X263173182Y-132773429D01*
X263268420Y-132868667D01*
X263316039Y-132963905D01*
%TO.C,R1*%
X203443757Y-121707644D02*
X203110424Y-121231454D01*
X202872328Y-121707644D02*
X202872328Y-120707644D01*
X203253281Y-120707644D01*
X203348519Y-120755264D01*
X203396138Y-120802883D01*
X203443757Y-120898121D01*
X203443757Y-121040978D01*
X203396138Y-121136216D01*
X203348519Y-121183835D01*
X203253281Y-121231454D01*
X202872328Y-121231454D01*
X204396138Y-121707644D02*
X203824709Y-121707644D01*
X204110424Y-121707644D02*
X204110424Y-120707644D01*
X204015185Y-120850502D01*
X203919947Y-120945740D01*
X203824709Y-120993359D01*
%TO.C,J4*%
X262953380Y-146103933D02*
X263667666Y-146103933D01*
X263810523Y-146151552D01*
X263905761Y-146246790D01*
X263953380Y-146389647D01*
X263953380Y-146484885D01*
X263286714Y-145199171D02*
X263953380Y-145199171D01*
X262905761Y-145437266D02*
X263620047Y-145675361D01*
X263620047Y-145056314D01*
%TO.C,H1*%
X231597295Y-138424780D02*
X231597295Y-137424780D01*
X231597295Y-137900971D02*
X232168723Y-137900971D01*
X232168723Y-138424780D02*
X232168723Y-137424780D01*
X233168723Y-138424780D02*
X232597295Y-138424780D01*
X232883009Y-138424780D02*
X232883009Y-137424780D01*
X232787771Y-137567638D01*
X232692533Y-137662876D01*
X232597295Y-137710495D01*
D14*
%TO.C,JP1*%
X257400800Y-110601000D02*
X254600800Y-110601000D01*
X254600800Y-108601000D02*
X257400800Y-108601000D01*
X254600800Y-110601000D02*
X254600800Y-108601000D01*
X257400800Y-108601000D02*
X257400800Y-110601000D01*
%TO.C,J7*%
X209291000Y-113916744D02*
X209291000Y-111256744D01*
X206691000Y-113916744D02*
X206691000Y-112586744D01*
X211891000Y-113916744D02*
X211891000Y-111256744D01*
X209291000Y-113916744D02*
X211891000Y-113916744D01*
X208021000Y-113916744D02*
X206691000Y-113916744D01*
X209291000Y-111256744D02*
X211891000Y-111256744D01*
%TO.C,Q3*%
X208211224Y-121599064D02*
X211811224Y-121599064D01*
X210011224Y-117149063D02*
G75*
G03*
X208172746Y-121587542I0J-2600001D01*
G01*
X211849702Y-121587542D02*
G75*
G03*
X210011224Y-117149064I-1838478J1838478D01*
G01*
D10*
%TO.C,Q2*%
X202820744Y-112421144D02*
X202870744Y-112421144D01*
X205620744Y-110771144D02*
X205495744Y-110771144D01*
X202545744Y-111146144D02*
X202545744Y-110771144D01*
X202545744Y-110771144D02*
X202845744Y-110771144D01*
X202545744Y-112046144D02*
X202820744Y-112421144D01*
X205845744Y-110771144D02*
X205845744Y-111221144D01*
X205545744Y-110771144D02*
X205845744Y-110771144D01*
X205845744Y-111946144D02*
X205845744Y-112421144D01*
X205845744Y-112421144D02*
X205495744Y-112421144D01*
X202870744Y-112421144D02*
X202870744Y-113196144D01*
X202545744Y-111771144D02*
X202545744Y-112046144D01*
D14*
%TO.C,J3*%
X218303400Y-135356200D02*
X218303400Y-150656200D01*
X220963400Y-135356200D02*
X220963400Y-150656200D01*
X219633400Y-132756200D02*
X220963400Y-132756200D01*
X220963400Y-132756200D02*
X220963400Y-134086200D01*
X218303400Y-135356200D02*
X220963400Y-135356200D01*
X218303400Y-150656200D02*
X220963400Y-150656200D01*
%TO.C,J6*%
X212469144Y-130743144D02*
X212469144Y-132693144D01*
X201649144Y-140663144D02*
X212169144Y-140663144D01*
X212169144Y-140663144D02*
X212169144Y-138713144D01*
X212169144Y-131043144D02*
X201649144Y-131043144D01*
X210059144Y-130743144D02*
X212469144Y-130743144D01*
X201649144Y-131043144D02*
X201649144Y-140663144D01*
X212169144Y-132693144D02*
X212169144Y-131043144D01*
X212169144Y-135213144D02*
X212169144Y-136193144D01*
%TO.C,J2*%
X249129000Y-108144000D02*
X250459000Y-108144000D01*
X247799000Y-110744000D02*
X250459000Y-110744000D01*
X247799000Y-123504000D02*
X250459000Y-123504000D01*
X250459000Y-108144000D02*
X250459000Y-109474000D01*
X250459000Y-110744000D02*
X250459000Y-123504000D01*
X247799000Y-110744000D02*
X247799000Y-123504000D01*
%TO.C,R3*%
X256181802Y-114080844D02*
X255707286Y-114080844D01*
X256181802Y-115125844D02*
X255707286Y-115125844D01*
%TO.C,J10*%
X225334544Y-105925144D02*
X243394544Y-105925144D01*
X243394544Y-105925144D02*
X243394544Y-103805144D01*
X225334544Y-105925144D02*
X225334544Y-103805144D01*
X225334544Y-103805144D02*
X243394544Y-103805144D01*
X223274544Y-103805144D02*
X224334544Y-103805144D01*
X223274544Y-104865144D02*
X223274544Y-103805144D01*
%TO.C,J5*%
X265598600Y-113360200D02*
X265598600Y-121040200D01*
X268258600Y-110760200D02*
X268258600Y-112090200D01*
X266928600Y-110760200D02*
X268258600Y-110760200D01*
X265598600Y-121040200D02*
X268258600Y-121040200D01*
X265598600Y-113360200D02*
X268258600Y-113360200D01*
X268258600Y-113360200D02*
X268258600Y-121040200D01*
%TO.C,Q1*%
X207344344Y-107456144D02*
X210944344Y-107456144D01*
X210982822Y-107444622D02*
G75*
G03*
X209144344Y-103006144I-1838478J1838478D01*
G01*
X209144344Y-103006143D02*
G75*
G03*
X207305866Y-107444622I0J-2600001D01*
G01*
%TO.C,J9*%
X239182600Y-134315200D02*
X241842600Y-134315200D01*
X239182600Y-134315200D02*
X239182600Y-136915200D01*
X241842600Y-134315200D02*
X241842600Y-136915200D01*
X239182600Y-131715200D02*
X240512600Y-131715200D01*
X239182600Y-133045200D02*
X239182600Y-131715200D01*
X239182600Y-136915200D02*
X241842600Y-136915200D01*
%TO.C,R2*%
X205092282Y-123979964D02*
X204617766Y-123979964D01*
X205092282Y-122934964D02*
X204617766Y-122934964D01*
%TO.C,J8*%
X243394544Y-127972344D02*
X243394544Y-125852344D01*
X225334544Y-127972344D02*
X225334544Y-125852344D01*
X223274544Y-126912344D02*
X223274544Y-125852344D01*
X225334544Y-125852344D02*
X243394544Y-125852344D01*
X223274544Y-125852344D02*
X224334544Y-125852344D01*
X225334544Y-127972344D02*
X243394544Y-127972344D01*
%TO.C,J1*%
X262137944Y-133059144D02*
X262137944Y-134389144D01*
X262137944Y-134389144D02*
X260807944Y-134389144D01*
X246777944Y-131729144D02*
X246777944Y-134389144D01*
X259537944Y-131729144D02*
X246777944Y-131729144D01*
X259537944Y-131729144D02*
X259537944Y-134389144D01*
X259537944Y-134389144D02*
X246777944Y-134389144D01*
%TO.C,R1*%
X203847682Y-119302764D02*
X203373166Y-119302764D01*
X203847682Y-120347764D02*
X203373166Y-120347764D01*
%TO.C,J4*%
X259461000Y-147100600D02*
X246701000Y-147100600D01*
X262061000Y-145770600D02*
X262061000Y-147100600D01*
X262061000Y-147100600D02*
X260731000Y-147100600D01*
X259461000Y-144440600D02*
X259461000Y-147100600D01*
X246701000Y-144440600D02*
X246701000Y-147100600D01*
X259461000Y-144440600D02*
X246701000Y-144440600D01*
%TD*%
M02*
