%TF.GenerationSoftware,KiCad,Pcbnew,(6.0.0)*%
%TF.CreationDate,2022-02-21T16:22:07-05:00*%
%TF.ProjectId,RocketHat,526f636b-6574-4486-9174-2e6b69636164,V1.0*%
%TF.SameCoordinates,Original*%
%TF.FileFunction,Soldermask,Top*%
%TF.FilePolarity,Negative*%
%FSLAX46Y46*%
G04 Gerber Fmt 4.6, Leading zero omitted, Abs format (unit mm)*
G04 Created by KiCad (PCBNEW (6.0.0)) date 2022-02-21 16:22:07*
%MOMM*%
%LPD*%
G01*
G04 APERTURE LIST*
G04 Aperture macros list*
%AMRoundRect*
0 Rectangle with rounded corners*
0 $1 Rounding radius*
0 $2 $3 $4 $5 $6 $7 $8 $9 X,Y pos of 4 corners*
0 Add a 4 corners polygon primitive as box body*
4,1,4,$2,$3,$4,$5,$6,$7,$8,$9,$2,$3,0*
0 Add four circle primitives for the rounded corners*
1,1,$1+$1,$2,$3*
1,1,$1+$1,$4,$5*
1,1,$1+$1,$6,$7*
1,1,$1+$1,$8,$9*
0 Add four rect primitives between the rounded corners*
20,1,$1+$1,$2,$3,$4,$5,0*
20,1,$1+$1,$4,$5,$6,$7,0*
20,1,$1+$1,$6,$7,$8,$9,0*
20,1,$1+$1,$8,$9,$2,$3,0*%
%AMFreePoly0*
4,1,16,0.535921,0.785921,0.542268,0.778179,1.042268,0.028179,1.049813,-0.009963,1.042268,-0.028179,0.542268,-0.778179,0.509963,-0.799813,0.500000,-0.800800,-0.500000,-0.800800,-0.535921,-0.785921,-0.550800,-0.750000,-0.550800,0.750000,-0.535921,0.785921,-0.500000,0.800800,0.500000,0.800800,0.535921,0.785921,0.535921,0.785921,$1*%
%AMFreePoly1*
4,1,16,0.535921,0.785921,0.550800,0.750000,0.550800,-0.750000,0.535921,-0.785921,0.500000,-0.800800,-0.650000,-0.800800,-0.685921,-0.785921,-0.700800,-0.750000,-0.692268,-0.721821,-0.211054,0.000000,-0.692268,0.721821,-0.699813,0.759963,-0.678179,0.792268,-0.650000,0.800800,0.500000,0.800800,0.535921,0.785921,0.535921,0.785921,$1*%
G04 Aperture macros list end*
%TA.AperFunction,Profile*%
%ADD10C,0.100000*%
%TD*%
%ADD11FreePoly0,0.000000*%
%ADD12FreePoly1,0.000000*%
%ADD13RoundRect,0.050800X0.850000X-0.850000X0.850000X0.850000X-0.850000X0.850000X-0.850000X-0.850000X0*%
%ADD14O,1.801600X1.801600*%
%ADD15C,2.801600*%
%ADD16RoundRect,0.050800X-0.525000X-0.750000X0.525000X-0.750000X0.525000X0.750000X-0.525000X0.750000X0*%
%ADD17O,1.151600X1.601600*%
%ADD18RoundRect,0.070000X0.300000X-0.650000X0.300000X0.650000X-0.300000X0.650000X-0.300000X-0.650000X0*%
%ADD19RoundRect,0.050800X-0.850000X-0.850000X0.850000X-0.850000X0.850000X0.850000X-0.850000X0.850000X0*%
%ADD20RoundRect,0.300800X-1.050000X0.750000X-1.050000X-0.750000X1.050000X-0.750000X1.050000X0.750000X0*%
%ADD21O,2.701600X2.101600*%
%ADD22RoundRect,0.250800X0.200000X0.275000X-0.200000X0.275000X-0.200000X-0.275000X0.200000X-0.275000X0*%
%ADD23RoundRect,0.050800X0.675000X-0.675000X0.675000X0.675000X-0.675000X0.675000X-0.675000X-0.675000X0*%
%ADD24O,1.451600X1.451600*%
%ADD25C,2.301600*%
%ADD26RoundRect,0.050800X-0.850000X0.850000X-0.850000X-0.850000X0.850000X-0.850000X0.850000X0.850000X0*%
G04 APERTURE END LIST*
D10*
X16533177Y-13330620D02*
G75*
G03*
X13535977Y-16327820I2J-2997202D01*
G01*
X16533177Y-71471220D02*
X82725577Y-71471220D01*
X85722777Y-68474020D02*
X85722777Y-16327820D01*
X82725577Y-13330620D02*
X16533177Y-13330620D01*
X85722777Y-16327820D02*
G75*
G03*
X82725577Y-13330620I-2997202J-2D01*
G01*
X13535977Y-68474020D02*
G75*
G03*
X16533177Y-71471220I2997202J2D01*
G01*
X82725577Y-71471220D02*
G75*
G03*
X85722777Y-68474020I-2J2997202D01*
G01*
X13535977Y-16327820D02*
X13535977Y-68474020D01*
X16533177Y-13330620D02*
G75*
G03*
X13535977Y-16327820I2J-2997202D01*
G01*
X16533177Y-71471220D02*
X82725577Y-71471220D01*
X85722777Y-68474020D02*
X85722777Y-16327820D01*
X82725577Y-13330620D02*
X16533177Y-13330620D01*
X85722777Y-16327820D02*
G75*
G03*
X82725577Y-13330620I-2997202J-2D01*
G01*
X13535977Y-68474020D02*
G75*
G03*
X16533177Y-71471220I2997202J2D01*
G01*
X82725577Y-71471220D02*
G75*
G03*
X85722777Y-68474020I-2J2997202D01*
G01*
X13535977Y-16327820D02*
X13535977Y-68474020D01*
D11*
%TO.C,JP1*%
X71860177Y-29078620D03*
D12*
X73310177Y-29078620D03*
%TD*%
D13*
%TO.C,J7*%
X21399633Y-31881220D03*
D14*
X23939633Y-31881220D03*
%TD*%
D15*
%TO.C,H5*%
X24006121Y-17459364D03*
%TD*%
D16*
%TO.C,Q3*%
X22119857Y-39043540D03*
D17*
X23389857Y-39043540D03*
X24659857Y-39043540D03*
%TD*%
D15*
%TO.C,H3*%
X23976121Y-66481364D03*
%TD*%
D18*
%TO.C,Q2*%
X16624377Y-31940620D03*
X18524377Y-31940620D03*
X17574377Y-29840620D03*
%TD*%
D19*
%TO.C,J3*%
X36217777Y-53563820D03*
D14*
X36217777Y-56103820D03*
X36217777Y-58643820D03*
X36217777Y-61183820D03*
X36217777Y-63723820D03*
X36217777Y-66263820D03*
X36217777Y-68803820D03*
%TD*%
D15*
%TO.C,H6*%
X82293777Y-66481364D03*
%TD*%
D20*
%TO.C,J6*%
X24437777Y-53247620D03*
D21*
X24437777Y-56747620D03*
%TD*%
D19*
%TO.C,J2*%
X65713377Y-28951620D03*
D14*
X65713377Y-31491620D03*
X65713377Y-34031620D03*
X65713377Y-36571620D03*
X65713377Y-39111620D03*
X65713377Y-41651620D03*
%TD*%
D22*
%TO.C,R3*%
X71703921Y-34080964D03*
X73353921Y-34080964D03*
%TD*%
D23*
%TO.C,J10*%
X37713177Y-24159620D03*
D24*
X39713177Y-24159620D03*
X41713177Y-24159620D03*
X43713177Y-24159620D03*
X45713177Y-24159620D03*
X47713177Y-24159620D03*
X49713177Y-24159620D03*
X51713177Y-24159620D03*
X53713177Y-24159620D03*
X55713177Y-24159620D03*
%TD*%
D19*
%TO.C,J5*%
X83512977Y-31567820D03*
D14*
X83512977Y-34107820D03*
X83512977Y-36647820D03*
X83512977Y-39187820D03*
%TD*%
D16*
%TO.C,Q1*%
X21252977Y-24900620D03*
D17*
X22522977Y-24900620D03*
X23792977Y-24900620D03*
%TD*%
D19*
%TO.C,J9*%
X57096977Y-52522820D03*
D14*
X57096977Y-55062820D03*
%TD*%
D25*
%TO.C,H2*%
X48892777Y-68169220D03*
%TD*%
D15*
%TO.C,H4*%
X82269121Y-17433964D03*
%TD*%
D22*
%TO.C,R2*%
X19058657Y-42751940D03*
X17408657Y-42751940D03*
%TD*%
D23*
%TO.C,J8*%
X37713177Y-46206820D03*
D24*
X39713177Y-46206820D03*
X41713177Y-46206820D03*
X43713177Y-46206820D03*
X45713177Y-46206820D03*
X47713177Y-46206820D03*
X49713177Y-46206820D03*
X51713177Y-46206820D03*
X53713177Y-46206820D03*
X55713177Y-46206820D03*
%TD*%
D26*
%TO.C,J1*%
X77392321Y-52536764D03*
D14*
X74852321Y-52536764D03*
X72312321Y-52536764D03*
X69772321Y-52536764D03*
X67232321Y-52536764D03*
X64692321Y-52536764D03*
%TD*%
D22*
%TO.C,R1*%
X17814057Y-39119740D03*
X16164057Y-39119740D03*
%TD*%
D26*
%TO.C,J4*%
X77315377Y-65248220D03*
D14*
X74775377Y-65248220D03*
X72235377Y-65248220D03*
X69695377Y-65248220D03*
X67155377Y-65248220D03*
X64615377Y-65248220D03*
%TD*%
D25*
%TO.C,H1*%
X48943577Y-54250020D03*
%TD*%
D26*
%TO.C,J11*%
X29086121Y-18698564D03*
D14*
X29086121Y-16158564D03*
X31626121Y-18698564D03*
X31626121Y-16158564D03*
X34166121Y-18698564D03*
X34166121Y-16158564D03*
X36706121Y-18698564D03*
X36706121Y-16158564D03*
X39246121Y-18698564D03*
X39246121Y-16158564D03*
X41786121Y-18698564D03*
X41786121Y-16158564D03*
X44326121Y-18698564D03*
X44326121Y-16158564D03*
X46866121Y-18698564D03*
X46866121Y-16158564D03*
X49406121Y-18698564D03*
X49406121Y-16158564D03*
X51946121Y-18698564D03*
X51946121Y-16158564D03*
X54486121Y-18698564D03*
X54486121Y-16158564D03*
X57026121Y-18698564D03*
X57026121Y-16158564D03*
X59566121Y-18698564D03*
X59566121Y-16158564D03*
X62106121Y-18698564D03*
X62106121Y-16158564D03*
X64646121Y-18698564D03*
X64646121Y-16158564D03*
X67186121Y-18698564D03*
X67186121Y-16158564D03*
X69726121Y-18698564D03*
X69726121Y-16158564D03*
X72266121Y-18698564D03*
X72266121Y-16158564D03*
X74806121Y-18698564D03*
X74806121Y-16158564D03*
X77346121Y-18698564D03*
X77346121Y-16158564D03*
%TD*%
M02*
