M48
; DRILL file {KiCad (6.0.0)} date Mon Feb 21 13:43:18 2022
; FORMAT={-:-/ absolute / inch / decimal}
; #@! TF.CreationDate,2022-02-21T13:43:18-05:00
; #@! TF.GenerationSoftware,Kicad,Pcbnew,(6.0.0)
; #@! TF.FileFunction,Plated,1,2,PTH
FMAT,2
INCH
; #@! TA.AperFunction,Plated,PTH,ViaDrill
T1C0.0157
; #@! TA.AperFunction,Plated,PTH,ComponentDrill
T2C0.0295
; #@! TA.AperFunction,Plated,PTH,ComponentDrill
T3C0.0315
; #@! TA.AperFunction,Plated,PTH,ComponentDrill
T4C0.0394
; #@! TA.AperFunction,Plated,PTH,ComponentDrill
T5C0.0630
%
G90
G05
T1
X9.575Y-5.528
T2
X8.0578Y-4.1505
X8.0919Y-4.7073
X8.1078Y-4.1505
X8.1419Y-4.7073
X8.1578Y-4.1505
X8.1919Y-4.7073
T3
X8.7059Y-4.1213
X8.7059Y-4.9893
X8.7846Y-4.1213
X8.7846Y-4.9893
X8.8633Y-4.1213
X8.8633Y-4.9893
X8.9421Y-4.1213
X8.9421Y-4.9893
X9.0208Y-4.1213
X9.0208Y-4.9893
X9.0996Y-4.1213
X9.0996Y-4.9893
X9.1783Y-4.1213
X9.1783Y-4.9893
X9.257Y-4.1213
X9.257Y-4.9893
X9.3358Y-4.1213
X9.3358Y-4.9893
X9.4145Y-4.1213
X9.4145Y-4.9893
T4
X8.0636Y-4.4253
X8.1636Y-4.4253
X8.3662Y-3.8063
X8.3662Y-3.9063
X8.4662Y-3.8063
X8.4662Y-3.9063
X8.5662Y-3.8063
X8.5662Y-3.9063
X8.647Y-5.279
X8.647Y-5.379
X8.647Y-5.479
X8.647Y-5.579
X8.647Y-5.679
X8.647Y-5.779
X8.647Y-5.879
X8.6662Y-3.8063
X8.6662Y-3.9063
X8.7662Y-3.8063
X8.7662Y-3.9063
X8.8662Y-3.8063
X8.8662Y-3.9063
X8.9662Y-3.8063
X8.9662Y-3.9063
X9.0662Y-3.8063
X9.0662Y-3.9063
X9.1662Y-3.8063
X9.1662Y-3.9063
X9.2662Y-3.8063
X9.2662Y-3.9063
X9.3662Y-3.8063
X9.3662Y-3.9063
X9.4662Y-3.8063
X9.4662Y-3.9063
X9.469Y-5.238
X9.469Y-5.338
X9.5662Y-3.8063
X9.5662Y-3.9063
X9.6662Y-3.8063
X9.6662Y-3.9063
X9.765Y-5.739
X9.7662Y-3.8063
X9.7662Y-3.9063
X9.768Y-5.2385
X9.8082Y-4.31
X9.8082Y-4.41
X9.8082Y-4.51
X9.8082Y-4.61
X9.8082Y-4.71
X9.8082Y-4.81
X9.865Y-5.739
X9.8662Y-3.8063
X9.8662Y-3.9063
X9.868Y-5.2385
X9.965Y-5.739
X9.9662Y-3.8063
X9.9662Y-3.9063
X9.968Y-5.2385
X10.065Y-5.739
X10.0662Y-3.8063
X10.0662Y-3.9063
X10.068Y-5.2385
X10.165Y-5.739
X10.1662Y-3.8063
X10.1662Y-3.9063
X10.168Y-5.2385
X10.265Y-5.739
X10.2662Y-3.8063
X10.2662Y-3.9063
X10.268Y-5.2385
X10.509Y-4.413
X10.509Y-4.513
X10.509Y-4.613
X10.509Y-4.713
T5
X8.1832Y-5.2665
X8.1832Y-5.4043
T0
M30
