M48
; DRILL file {KiCad (6.0.0)} date Mon Feb 21 15:29:30 2022
; FORMAT={-:-/ absolute / inch / decimal}
; #@! TF.CreationDate,2022-02-21T15:29:30-05:00
; #@! TF.GenerationSoftware,Kicad,Pcbnew,(6.0.0)
; #@! TF.FileFunction,Plated,1,2,PTH
FMAT,2
INCH
; #@! TA.AperFunction,Plated,PTH,ViaDrill
T1C0.0157
; #@! TA.AperFunction,Plated,PTH,ComponentDrill
T2C0.0295
; #@! TA.AperFunction,Plated,PTH,ComponentDrill
T3C0.0315
; #@! TA.AperFunction,Plated,PTH,ComponentDrill
T4C0.0394
; #@! TA.AperFunction,Plated,PTH,ComponentDrill
T5C0.0630
%
G90
G05
T1
X3.4788Y-2.7464
T2
X1.9616Y-1.3689
X1.9958Y-1.9257
X2.0116Y-1.3689
X2.0458Y-1.9257
X2.0616Y-1.3689
X2.0958Y-1.9257
T3
X2.6097Y-1.3397
X2.6097Y-2.2077
X2.6884Y-1.3397
X2.6884Y-2.2077
X2.7672Y-1.3397
X2.7672Y-2.2077
X2.8459Y-1.3397
X2.8459Y-2.2077
X2.9246Y-1.3397
X2.9246Y-2.2077
X3.0034Y-1.3397
X3.0034Y-2.2077
X3.0821Y-1.3397
X3.0821Y-2.2077
X3.1609Y-1.3397
X3.1609Y-2.2077
X3.2396Y-1.3397
X3.2396Y-2.2077
X3.3183Y-1.3397
X3.3183Y-2.2077
T4
X1.9674Y-1.6437
X2.0674Y-1.6437
X2.27Y-1.0247
X2.27Y-1.1247
X2.37Y-1.0247
X2.37Y-1.1247
X2.47Y-1.0247
X2.47Y-1.1247
X2.5508Y-2.4973
X2.5508Y-2.5973
X2.5508Y-2.6973
X2.5508Y-2.7973
X2.5508Y-2.8973
X2.5508Y-2.9973
X2.5508Y-3.0973
X2.57Y-1.0247
X2.57Y-1.1247
X2.67Y-1.0247
X2.67Y-1.1247
X2.77Y-1.0247
X2.77Y-1.1247
X2.87Y-1.0247
X2.87Y-1.1247
X2.97Y-1.0247
X2.97Y-1.1247
X3.07Y-1.0247
X3.07Y-1.1247
X3.17Y-1.0247
X3.17Y-1.1247
X3.27Y-1.0247
X3.27Y-1.1247
X3.37Y-1.0247
X3.37Y-1.1247
X3.3728Y-2.4564
X3.3728Y-2.5564
X3.47Y-1.0247
X3.47Y-1.1247
X3.57Y-1.0247
X3.57Y-1.1247
X3.6688Y-2.9574
X3.67Y-1.0247
X3.67Y-1.1247
X3.6719Y-2.4569
X3.712Y-1.5284
X3.712Y-1.6284
X3.712Y-1.7284
X3.712Y-1.8284
X3.712Y-1.9284
X3.712Y-2.0284
X3.7688Y-2.9574
X3.77Y-1.0247
X3.77Y-1.1247
X3.7719Y-2.4569
X3.8688Y-2.9574
X3.87Y-1.0247
X3.87Y-1.1247
X3.8719Y-2.4569
X3.9688Y-2.9574
X3.97Y-1.0247
X3.97Y-1.1247
X3.9719Y-2.4569
X4.0688Y-2.9574
X4.07Y-1.0247
X4.07Y-1.1247
X4.0719Y-2.4569
X4.1688Y-2.9574
X4.17Y-1.0247
X4.17Y-1.1247
X4.1719Y-2.4569
X4.4128Y-1.6314
X4.4128Y-1.7314
X4.4128Y-1.8314
X4.4128Y-1.9314
T5
X2.087Y-2.4849
X2.087Y-2.6227
T0
M30
